<svg width="552" height="552" xmlns="http://www.w3.org/2000/svg" xmlns:xlink="http://www.w3.org/1999/xlink"><defs><path id="a" d="M0.38 0.355L551.8245 0.355 551.8245 551.805 0.38 551.805z"/></defs><g fill="none" fill-rule="evenodd"><path d="M225.317 517.753l.05.01c-5.933 13.065-14.634 24.694-25.362 34.227L200 552h140l-28.456-46-86.227 11.753z" fill="#7DBC42"/><path fill="#7DBC42" d="M236 477L290 469.593222 254.174226 409z"/><mask id="b" fill="#fff"><use xlink:href="#a"/></mask><path d="M.38.35v551.445l62.06.01c-.005 0-.005-.005-.01-.01-16.93-15.495-28.575-37.015-32.016-62.06l-.08-.57c-7.64-55.645 28.046-106.97 88.156-115.22 29.365-4.025 50.29 1.065 68.16 10.865 4.93 2.745 9.695 8.34 10.72 15.9 1.61 11.755-6.63 22.28-18.365 23.895-5.87.805-10.095-.9-13.44-2.42-13.25-7.305-26.52-10.61-41.906-8.49-33 4.525-52.99 35.175-48.39 68.735l.075.56c4.616 33.545 31.66 58.315 65.206 53.715 2.9-.405 5.605-.92 8.174-1.56 20.21-5.25 35.856-21.295 41.79-41.62l3.065-10.65 30.47-105.76c3.29-11.265 11.076-18.905 22.815-20.515l2.525-.335c11.74-1.625 21.005 3.665 27.22 13.635l63.376 102.595-13.97-101.69c-1.65-12.035 6.56-22.835 18.584-24.48l58.425-8.03c46.705-6.4 78.74 17.395 84.226 57.38l.08.555c6.215 45.305-25.785 73.615-69.69 79.64l-32.72 4.5 9.83 71.425v.01l157.074-.01V.35H.38z" fill="#7DBC42" mask="url(#b)"/><path d="M443.692 402.979l-.075-.55c-2.642-19.31-17.566-27.818-39.19-24.853L371 382.143 379.243 442l34.266-4.696c21.639-2.951 32.504-17.54 30.183-34.325" fill="#7DBC42"/><path d="M44 82.156v-.158C44 70.647 52.973 61 64.865 61c6.77 0 11.335 2.566 14.956 5.836.472.387.948 1.165.948 2.096 0 1.635-1.344 2.879-2.919 2.879a3.136 3.136 0 0 1-1.966-.699c-2.909-2.645-6.22-4.82-11.1-4.82-8.265 0-14.565 6.921-14.565 15.552v.154c0 8.715 6.455 15.636 14.957 15.636 4.65 0 8.346-2.1 11.34-4.9.391-.386.943-.778 1.73-.778 1.495 0 2.754 1.323 2.754 2.72 0 .704-.311 1.402-.787 1.868-3.857 3.81-8.502 6.456-15.348 6.456C52.973 103 44 93.433 44 82.156m46-34.1C90 46.413 91.317 45 92.94 45c1.707 0 3.024 1.413 3.024 3.056v21.08c2.634-4.388 6.813-7.913 13.704-7.913 9.679 0 15.332 6.586 15.332 16.222V99.94c0 1.728-1.317 3.061-2.94 3.061-1.707 0-3.024-1.333-3.024-3.06V78.937c0-7.524-4.025-12.228-11.07-12.228-6.891 0-12.002 5.098-12.002 12.698v20.531c0 1.728-1.238 3.061-2.945 3.061-1.702 0-3.019-1.333-3.019-3.06V48.055zm46 16.197c0-1.665 1.335-3.096 2.98-3.096 1.731 0 3.066 1.35 3.066 3.096v7.704C145.027 65.127 150.913 61 156.02 61c1.806 0 2.981 1.346 2.981 3.096 0 1.664-1.095 2.858-2.666 3.095-7.851.951-14.288 6.905-14.288 18.737v13.976c0 1.67-1.255 3.096-2.985 3.096-1.726 0-3.061-1.35-3.061-3.096V64.253zm30.54.38c0-1.648 1.308-3.066 2.92-3.066 1.697 0 3.006 1.338 3.006 3.066v35.302c0 1.728-1.236 3.065-2.927 3.065s-3-1.337-3-3.065V64.633zM166 49.22c0-1.964 1.54-3.221 3.46-3.221 2.006 0 3.54 1.257 3.54 3.22v1.022c0 1.889-1.534 3.226-3.54 3.226-1.92 0-3.46-1.337-3.46-3.226v-1.021zm16.094 48.682c-.547-.389-1.094-1.173-1.094-2.19 0-1.413 1.174-2.587 2.656-2.587.547 0 1.095.155 1.483.47 4.138 2.82 8.431 4.307 12.804 4.307 4.845 0 8.356-2.505 8.356-6.424v-.155c0-4.078-4.76-5.645-10.073-7.133-6.322-1.802-13.35-3.993-13.35-11.44v-.155c0-6.974 5.775-11.596 13.743-11.596 4.293 0 8.979 1.333 12.884 3.45.78.468 1.482 1.327 1.482 2.505 0 1.408-1.174 2.586-2.656 2.586-.547 0-1.015-.16-1.328-.315-3.432-1.961-7.104-3.134-10.54-3.134-4.761 0-7.81 2.51-7.81 5.875v.16c0 3.838 4.999 5.326 10.386 6.973C205.285 80.977 212 83.408 212 90.696v.154c0 7.677-6.327 12.15-14.366 12.15-5.312 0-11.167-1.962-15.54-5.097m40.806-6.38V67.002h-3.26c-1.399 0-2.64-1.262-2.64-2.674 0-1.493 1.241-2.674 2.641-2.674h3.26v-9.59c0-1.647 1.24-3.064 2.947-3.064 1.632 0 3.031 1.417 3.031 3.065v9.589h10.4c1.475 0 2.721 1.257 2.721 2.674 0 1.492-1.246 2.674-2.72 2.674h-10.4v23.735c0 4.952 2.714 6.76 6.755 6.76 2.092 0 3.18-.551 3.645-.551 1.4 0 2.562 1.177 2.562 2.594 0 1.102-.698 1.963-1.706 2.358-1.712.706-3.571 1.102-5.9 1.102-6.445 0-11.336-3.225-11.336-11.477m28.64-26.89c0-1.648 1.308-3.066 2.92-3.066 1.697 0 3.006 1.338 3.006 3.066v35.302c0 1.728-1.236 3.065-2.927 3.065s-3-1.337-3-3.065V64.633zM251 49.22c0-1.964 1.54-3.221 3.46-3.221 2.006 0 3.54 1.257 3.54 3.22v1.022c0 1.889-1.534 3.226-3.54 3.226-1.92 0-3.46-1.337-3.46-3.226v-1.021zm45.211 38v-3.926c-3.01-.865-7.056-1.725-12.052-1.725-7.693 0-11.971 3.296-11.971 8.397v.16c0 5.101 4.758 8.082 10.304 8.082 7.532 0 13.72-4.551 13.72-10.988M266 90.362v-.16c0-8.552 7.137-13.108 17.528-13.108 5.228 0 8.956.705 12.608 1.725v-1.41c0-7.302-4.526-11.068-12.214-11.068-4.122 0-7.612.94-10.623 2.27a3.1 3.1 0 0 1-1.111.24c-1.425 0-2.698-1.18-2.698-2.59 0-1.255.874-2.2 1.667-2.51 4.041-1.73 8.168-2.751 13.401-2.751 5.789 0 10.229 1.49 13.24 4.476C300.575 68.222 302 72.148 302 77.33v22.215c0 1.73-1.268 2.986-2.935 2.986-1.742 0-2.93-1.255-2.93-2.826v-3.69c-2.858 3.69-7.612 6.986-14.83 6.986C273.693 103 266 98.684 266 90.362m47-25.818c0-1.651 1.317-3.072 2.94-3.072 1.707 0 3.024 1.34 3.024 3.072v4.413c2.63-4.413 6.813-7.957 13.704-7.957C342.347 61 348 67.617 348 77.311v22.617c0 1.732-1.317 3.072-2.94 3.072-1.707 0-3.024-1.34-3.024-3.072v-21.12c0-7.562-4.025-12.29-11.07-12.29-6.891 0-12.002 5.12-12.002 12.761v20.649c0 1.732-1.243 3.072-2.945 3.072-1.702 0-3.019-1.34-3.019-3.072V64.544zm44.094 33.36c-.547-.39-1.094-1.174-1.094-2.192 0-1.412 1.174-2.586 2.656-2.586.547 0 1.095.155 1.483.47 4.138 2.82 8.431 4.307 12.804 4.307 4.845 0 8.356-2.505 8.356-6.424v-.155c0-4.078-4.76-5.645-10.073-7.133-6.322-1.802-13.35-3.993-13.35-11.44v-.155c0-6.974 5.775-11.596 13.743-11.596 4.293 0 8.979 1.333 12.884 3.45.78.468 1.482 1.327 1.482 2.505 0 1.408-1.169 2.586-2.656 2.586-.547 0-1.015-.16-1.328-.315-3.432-1.961-7.104-3.134-10.54-3.134-4.761 0-7.81 2.51-7.81 5.875v.16c0 3.838 4.999 5.326 10.39 6.973C380.286 80.977 387 83.408 387 90.696v.154c0 7.677-6.322 12.15-14.366 12.15-5.307 0-11.167-1.962-15.54-5.097M74.211 161.221v-3.926c-3.01-.865-7.056-1.725-12.052-1.725-7.693 0-11.976 3.296-11.976 8.397v.16c0 5.101 4.763 8.082 10.31 8.082 7.536 0 13.718-4.551 13.718-10.988M44 164.362v-.16c0-8.552 7.137-13.108 17.528-13.108 5.233 0 8.956.705 12.602 1.725v-1.41c0-7.302-4.52-11.068-12.208-11.068-4.127 0-7.612.94-10.623 2.27-.399.16-.793.24-1.116.24-1.42 0-2.693-1.18-2.693-2.59 0-1.255.874-2.2 1.667-2.51 4.041-1.73 8.168-2.751 13.401-2.751 5.784 0 10.229 1.49 13.24 4.476C78.575 142.222 80 146.148 80 151.33v22.215c0 1.73-1.268 2.986-2.935 2.986-1.742 0-2.935-1.255-2.935-2.826v-3.69c-2.853 3.69-7.612 6.986-14.825 6.986C51.693 177 44 172.684 44 164.362m79.186-11.187v-.155c0-8.296-7.226-13.695-14.921-13.695-7.7 0-14.06 5.32-14.06 13.616v.154c0 8.142 6.52 13.776 14.06 13.776 7.695 0 14.92-5.56 14.92-13.696m-31.808 30.054c-.94-.469-1.57-1.411-1.57-2.508 0-1.326 1.335-2.657 2.746-2.657.55 0 .941.154 1.336.388 4.243 2.817 9.112 4.383 14.376 4.383 8.951 0 14.76-4.931 14.76-14.399v-4.776c-3.532 4.701-8.48 8.53-15.941 8.53-9.737 0-19.084-7.274-19.084-18.935v-.16C88 141.28 97.422 134 107.084 134c7.62 0 12.57 3.76 15.867 8.142v-4.617c0-1.645 1.255-3.056 2.987-3.056a3.064 3.064 0 0 1 3.062 3.056v30.752c0 6.262-1.886 11.038-5.189 14.323-3.607 3.6-9.031 5.4-15.471 5.4-6.205 0-11.859-1.64-16.963-4.771m75.834-22.008v-3.926c-3.01-.865-7.056-1.725-12.052-1.725-7.693 0-11.971 3.296-11.971 8.397v.16c0 5.101 4.758 8.082 10.304 8.082 7.537 0 13.72-4.551 13.72-10.988M137 164.362v-.16c0-8.552 7.137-13.108 17.528-13.108 5.233 0 8.956.705 12.602 1.725v-1.41c0-7.302-4.52-11.068-12.208-11.068-4.127 0-7.612.94-10.623 2.27a3.1 3.1 0 0 1-1.111.24c-1.425 0-2.698-1.18-2.698-2.59 0-1.255.874-2.2 1.667-2.51 4.041-1.73 8.168-2.751 13.401-2.751 5.784 0 10.229 1.49 13.24 4.476 2.778 2.746 4.202 6.672 4.202 11.853v22.215c0 1.73-1.268 2.986-2.935 2.986-1.742 0-2.935-1.255-2.935-2.826v-3.69c-2.853 3.69-7.612 6.986-14.825 6.986-7.612 0-15.305-4.316-15.305-12.638m47.54-26.73c0-1.647 1.308-3.065 2.92-3.065 1.697 0 3.006 1.338 3.006 3.066v35.302c0 1.728-1.23 3.065-2.927 3.065-1.691 0-3-1.337-3-3.065v-35.302zm-.54-15.411c0-1.964 1.54-3.221 3.46-3.221 2.006 0 3.54 1.257 3.54 3.22v1.022c0 1.889-1.534 3.226-3.54 3.226-1.92 0-3.46-1.337-3.46-3.226v-1.021zm19 15.323c0-1.651 1.317-3.072 2.94-3.072 1.707 0 3.024 1.34 3.024 3.072v4.413c2.63-4.413 6.813-7.957 13.704-7.957 9.679 0 15.332 6.617 15.332 16.311v22.617c0 1.732-1.317 3.072-2.94 3.072-1.707 0-3.024-1.34-3.024-3.072v-21.12c0-7.562-4.025-12.29-11.07-12.29-6.891 0-12.002 5.12-12.002 12.761v20.649c0 1.732-1.243 3.072-2.945 3.072-1.702 0-3.019-1.34-3.019-3.072v-35.384zm44.094 33.36c-.547-.39-1.094-1.174-1.094-2.192 0-1.412 1.174-2.586 2.656-2.586.547 0 1.095.155 1.483.47 4.138 2.82 8.431 4.307 12.804 4.307 4.845 0 8.356-2.505 8.356-6.424v-.155c0-4.078-4.76-5.645-10.073-7.133-6.322-1.802-13.35-3.993-13.35-11.436v-.16c0-6.973 5.775-11.595 13.743-11.595 4.293 0 8.979 1.333 12.884 3.45.78.468 1.482 1.327 1.482 2.505 0 1.408-1.174 2.586-2.656 2.586-.547 0-1.015-.16-1.328-.315-3.432-1.961-7.104-3.134-10.54-3.134-4.761 0-7.81 2.51-7.81 5.875v.16c0 3.838 4.999 5.326 10.386 6.973 6.248 1.877 12.963 4.308 12.963 11.596v.154c0 7.677-6.327 12.15-14.366 12.15-5.312 0-11.167-1.962-15.54-5.097m40.806-6.38v-24.521h-3.26c-1.399 0-2.64-1.262-2.64-2.674 0-1.493 1.241-2.674 2.64-2.674h3.26v-9.59c0-1.647 1.241-3.064 2.948-3.064 1.632 0 3.031 1.417 3.031 3.065v9.589h10.4c1.475 0 2.721 1.257 2.721 2.674 0 1.492-1.246 2.674-2.72 2.674h-10.4v23.735c0 4.952 2.714 6.76 6.75 6.76 2.097 0 3.185-.551 3.65-.551 1.4 0 2.562 1.177 2.562 2.594 0 1.102-.698 1.963-1.706 2.358-1.712.706-3.571 1.102-5.9 1.102-6.445 0-11.336-3.225-11.336-11.477M81.795 229.117v-.158c0-9.502-6.594-15.583-14.295-15.583-7.54 0-14.686 6.31-14.686 15.508v.154c0 9.353 7.145 15.587 14.686 15.587 7.856 0 14.295-5.768 14.295-15.508zM47 211.505c0-1.713 1.336-3.038 2.987-3.038 1.726 0 3.062 1.325 3.062 3.038v5.455c3.298-4.83 8.091-8.96 15.552-8.96C78.338 208 88 215.635 88 228.884v.154c0 13.17-9.582 20.964-19.4 20.964-7.54 0-12.408-4.051-15.55-8.573v17.533c0 1.713-1.256 3.038-2.988 3.038-1.726 0-3.062-1.325-3.062-3.038v-47.457zm83.845 17.651v-.158c0-8.631-6.468-15.707-14.962-15.707-8.726 0-14.728 7.076-14.728 15.553v.154c0 8.635 6.394 15.636 14.887 15.636 8.722 0 14.803-7 14.803-15.478m-35.845 0v-.158C95 217.647 103.885 208 116.042 208c12.073 0 20.958 9.493 20.958 20.844v.154c0 11.355-8.96 21.002-21.117 21.002C103.806 250 95 240.512 95 229.156M160.193 250h-.312c-1.633 0-2.718-1.03-3.42-2.615l-15.075-34.705c-.153-.556-.386-1.111-.386-1.666 0-1.585 1.322-3.014 3.03-3.014 1.708 0 2.564 1.035 3.03 2.378l12.98 32.015 13.208-32.172c.39-1.186 1.242-2.221 2.802-2.221 1.628 0 2.95 1.353 2.95 3.014 0 .555-.158 1.11-.312 1.504l-15.153 34.867c-.698 1.585-1.708 2.615-3.342 2.615m54.81-23.255c-.62-7.308-4.826-13.69-12.847-13.69-7.008 0-12.301 5.836-13.08 13.69h25.927zM203.09 250C192.033 250 183 241.522 183 229.08v-.16c0-11.584 8.18-20.92 19.31-20.92 11.914 0 18.69 9.722 18.69 20.376 0 1.635-1.324 2.804-2.803 2.804h-29.12c.857 8.711 7.008 13.612 14.17 13.612 4.985 0 8.641-1.942 11.602-4.668.467-.391 1.012-.698 1.712-.698 1.478 0 2.648 1.164 2.648 2.566 0 .7-.312 1.398-.937 1.943-3.814 3.657-8.328 6.065-15.183 6.065zM230 210.253c0-1.665 1.335-3.096 2.98-3.096 1.731 0 3.066 1.35 3.066 3.096v7.704c2.981-6.83 8.867-10.957 13.973-10.957 1.8 0 2.981 1.346 2.981 3.096 0 1.664-1.1 2.858-2.67 3.095-7.847.951-14.284 6.905-14.284 18.737v13.976c0 1.67-1.26 3.096-2.985 3.096-1.726 0-3.061-1.35-3.061-3.096v-35.651zm31.9 28.27v-24.521h-3.26c-1.399 0-2.64-1.262-2.64-2.674 0-1.493 1.241-2.674 2.64-2.674h3.26v-9.59c0-1.647 1.241-3.064 2.948-3.064 1.632 0 3.031 1.417 3.031 3.065v9.589h10.4c1.475 0 2.721 1.257 2.721 2.674 0 1.492-1.246 2.674-2.72 2.674h-10.4v23.735c0 4.952 2.714 6.76 6.755 6.76 2.092 0 3.18-.551 3.645-.551 1.4 0 2.562 1.177 2.562 2.594 0 1.102-.698 1.963-1.706 2.358-1.712.706-3.571 1.102-5.9 1.102-6.445 0-11.336-3.225-11.336-11.477m26.393 22.292c-.953-.392-1.9-1.185-1.9-2.601 0-1.497 1.27-2.602 2.61-2.602.555 0 1.029.156 1.502.317 1.19.391 2.374.708 4.43.708 3.8 0 6.012-2.285 8.23-7.252l.317-.633-17.089-36.102c-.237-.552-.393-1.105-.393-1.652 0-1.657 1.34-2.998 3.084-2.998 1.658 0 2.53 1.024 3.084 2.365l14.242 32.005 12.654-32.085c.473-1.26 1.345-2.285 2.927-2.285a3.001 3.001 0 0 1 3.009 2.998c0 .472-.161 1.025-.323 1.497l-15.974 37.99C305.14 258.922 301.189 262 295.016 262c-2.692 0-4.667-.477-6.723-1.185" fill="#FFFFFE"/></g></svg>