<?xml version="1.0" encoding="UTF-8"?>
<svg width="552px" height="552px" viewBox="0 0 552 552" version="1.1" xmlns="http://www.w3.org/2000/svg" xmlns:xlink="http://www.w3.org/1999/xlink">
    <!-- Generator: Sketch 55 (78076) - https://sketchapp.com -->
    <title>CAP</title>
    <desc>Created with Sketch.</desc>
    <defs>
        <polygon id="path-1" points="0.38 0.355 551.8245 0.355 551.8245 551.805 0.38 551.805"></polygon>
    </defs>
    <g id="CAP" stroke="none" stroke-width="1" fill="none" fill-rule="evenodd">
        <g id="Group-59">
            <path d="M225.316646,517.753348 L225.366708,517.763283 C219.434293,530.828078 210.733417,542.457235 200.005006,551.990065 L200,552 L340,552 L311.544431,506 L225.316646,517.753348 Z" id="Fill-2" fill="#7DBC42"></path>
            <polygon id="Fill-4" fill="#7DBC42" points="236 477 290 469.593222 254.174226 409"></polygon>
            <g id="Group-8">
                <mask id="mask-2" fill="white">
                    <use xlink:href="#path-1"></use>
                </mask>
                <g id="Clip-7"></g>
                <path d="M0.3795,0.35 L0.3795,551.795 L62.4395,551.805 C62.4345,551.805 62.4345,551.8 62.4295,551.795 C45.4995,536.3 33.8545,514.78 30.4145,489.735 L30.3345,489.165 C22.6945,433.52 58.3795,382.195 118.4895,373.945 C147.8545,369.92 168.7795,375.01 186.6495,384.81 C191.5795,387.555 196.3445,393.15 197.3695,400.71 C198.9795,412.465 190.7395,422.99 179.0045,424.605 C173.1345,425.41 168.9095,423.705 165.5645,422.185 C152.3145,414.88 139.0445,411.575 123.6595,413.695 C90.6595,418.22 70.6695,448.87 75.2695,482.43 L75.3445,482.99 C79.9595,516.535 107.0045,541.305 140.5495,536.705 C143.4495,536.3 146.1545,535.785 148.7245,535.145 C168.9345,529.895 184.5795,513.85 190.5145,493.525 L193.5795,482.875 L224.0495,377.115 C227.3395,365.85 235.1245,358.21 246.8645,356.6 L249.3895,356.265 C261.1295,354.64 270.3945,359.93 276.6095,369.9 L339.9845,472.495 L326.0145,370.805 C324.3645,358.77 332.5745,347.97 344.5995,346.325 L403.0245,338.295 C449.7295,331.895 481.7645,355.69 487.2495,395.675 L487.3295,396.23 C493.5445,441.535 461.5445,469.845 417.6395,475.87 L384.9195,480.37 L394.7495,551.795 L394.7495,551.805 L551.8245,551.795 L551.8245,0.35 L0.3795,0.35 Z" id="Fill-6" fill="#7DBC42" mask="url(#mask-2)"></path>
            </g>
            <path d="M443.692018,402.978771 L443.616674,402.428613 C440.974606,383.118056 426.051445,374.610608 404.42768,377.576461 L371,382.142775 L379.242648,442 L413.509159,437.303649 C435.147993,434.352799 446.012617,419.763601 443.692018,402.978771" id="Fill-9" fill="#7DBC42"></path>
            <path d="M44,82.1560694 L44,81.9975227 C44,70.6465731 52.9728887,61 64.8648502,61 C71.6358954,61 76.2000813,63.566474 79.8213366,66.8364988 C80.292802,67.2229562 80.7692829,68.0008258 80.7692829,68.9322874 C80.7692829,70.5672998 79.4251051,71.8109001 77.8502101,71.8109001 C77.0627626,71.8109001 76.3555646,71.5037159 75.8840992,71.1123039 C72.9750576,68.4665566 69.6647689,66.2914946 64.7846008,66.2914946 C56.5189101,66.2914946 50.2193304,73.2130471 50.2193304,81.8439306 L50.2193304,81.9975227 C50.2193304,90.7126342 56.6743934,97.6341866 65.1758167,97.6341866 C69.8252677,97.6341866 73.5217568,95.5334434 76.5160634,92.734104 C76.9072794,92.3476466 77.4589942,91.9562345 78.2464416,91.9562345 C79.7410872,91.9562345 81,93.2791082 81,94.6763006 C81,95.3798514 80.6890335,96.0784476 80.2125525,96.5441784 C76.3555646,100.354253 71.7111292,103 64.8648502,103 C52.9728887,103 44,93.4327002 44,82.1560694" id="Fill-11" fill="#FFFFFE"></path>
            <path d="M90,48.0557851 C90,46.413051 91.3171247,45 92.9400987,45 C94.6469345,45 95.9640592,46.413051 95.9640592,48.0557851 L95.9640592,69.136708 C98.5983087,64.7477617 102.776603,61.222624 109.668076,61.222624 C119.346723,61.222624 125,67.8085399 125,77.4452479 L125,99.9392218 C125,101.666839 123.682875,103 122.059901,103 C120.353066,103 119.035941,101.666839 119.035941,99.9392218 L119.035941,78.9381887 C119.035941,71.4135675 115.010571,66.7100551 107.966173,66.7100551 C101.0747,66.7100551 95.9640592,71.8080234 95.9640592,79.4075413 L95.9640592,99.9392218 C95.9640592,101.666839 94.7258633,103 93.0190275,103 C91.3171247,103 90,101.666839 90,99.9392218 L90,48.0557851 Z" id="Fill-13" fill="#FFFFFE"></path>
            <path d="M136,64.2525593 C136,62.5883416 137.33529,61.1568108 138.980648,61.1568108 C140.711024,61.1568108 142.046314,62.507407 142.046314,64.2525593 L142.046314,71.9565217 C145.026962,65.1276647 150.913242,61 156.019352,61 C157.824745,61 159,62.3455378 159,64.0957485 C159,65.7599663 157.904762,66.9537517 156.334421,67.191497 C148.482714,68.1424786 142.046314,74.0962303 142.046314,85.9278574 L142.046314,99.9042515 C142.046314,101.573528 140.791042,103 139.060665,103 C137.33529,103 136,101.649404 136,99.9042515 L136,64.2525593 Z" id="Fill-15" fill="#FFFFFE"></path>
            <path d="M166.539216,64.6326889 C166.539216,62.9847979 167.848039,61.5673111 169.460784,61.5673111 C171.156863,61.5673111 172.465686,62.9046573 172.465686,64.6326889 L172.465686,99.9346221 C172.465686,101.662654 171.230392,103 169.539216,103 C167.848039,103 166.539216,101.662654 166.539216,99.9346221 L166.539216,64.6326889 Z M166,49.2206503 C166,47.2572056 167.539216,46 169.460784,46 C171.465686,46 173,47.2572056 173,49.2206503 L173,50.2424429 C173,52.1307557 171.465686,53.4681019 169.460784,53.4681019 C167.539216,53.4681019 166,52.1307557 166,50.2424429 L166,49.2206503 Z" id="Fill-17" fill="#FFFFFE"></path>
            <path d="M182.094352,97.9034942 C181.547176,97.5141431 181,96.7304493 181,95.7121464 C181,94.2995008 182.173941,93.1264559 183.65629,93.1264559 C184.203466,93.1264559 184.750642,93.281198 185.138639,93.5956739 C189.277279,96.4159734 193.570122,97.9034942 197.942555,97.9034942 C202.787548,97.9034942 206.299422,95.3976705 206.299422,91.4792013 L206.299422,91.3244592 C206.299422,87.2462562 201.538992,85.6788686 196.226412,84.1913478 C189.904044,82.3893511 182.875321,80.1980033 182.875321,72.750416 L182.875321,72.5956739 C182.875321,65.6222962 188.650513,61 196.619384,61 C200.912227,61 205.598042,62.3327787 209.502888,64.4492512 C210.283858,64.9184692 210.985237,65.7770383 210.985237,66.9550749 C210.985237,68.3627288 209.811297,69.5407654 208.328947,69.5407654 C207.781772,69.5407654 207.314185,69.3810316 207.000802,69.2262895 C203.568517,67.2645591 199.897465,66.0915141 196.460205,66.0915141 C191.699775,66.0915141 188.650513,68.6023295 188.650513,71.9667221 L188.650513,72.1264559 C188.650513,75.9650582 193.649711,77.452579 199.036906,79.0998336 C205.28466,80.9767055 212,83.4076539 212,90.6955075 L212,90.8502496 C212,98.5274542 205.672657,103 197.634146,103 C192.321566,103 186.466784,101.03827 182.094352,97.9034942" id="Fill-19" fill="#FFFFFE"></path>
            <path d="M222.900099,91.522997 L222.900099,67.0016691 L219.64095,67.0016691 C218.241345,67.0016691 217,65.7397997 217,64.3277077 C217,62.835497 218.241345,61.6537463 219.64095,61.6537463 L222.900099,61.6537463 L222.900099,52.0645401 C222.900099,50.4170994 224.141444,49 225.847676,49 C227.479723,49 228.879327,50.4170994 228.879327,52.0645401 L228.879327,61.6537463 L239.279921,61.6537463 C240.753709,61.6537463 242,62.9106083 242,64.3277077 C242,65.8199184 240.753709,67.0016691 239.279921,67.0016691 L228.879327,67.0016691 L228.879327,90.7368323 C228.879327,95.6891691 231.594461,97.4968472 235.635015,97.4968472 C237.727003,97.4968472 238.815035,96.9460312 239.279921,96.9460312 C240.679525,96.9460312 241.841741,98.1227745 241.841741,99.5398739 C241.841741,100.641506 241.144411,101.502782 240.135509,101.898368 C238.424332,102.604414 236.564787,103 234.23541,103 C227.791296,103 222.900099,99.7752226 222.900099,91.522997" id="Fill-21" fill="#FFFFFE"></path>
            <path d="M251.539216,64.6326889 C251.539216,62.9847979 252.848039,61.5673111 254.460784,61.5673111 C256.156863,61.5673111 257.465686,62.9046573 257.465686,64.6326889 L257.465686,99.9346221 C257.465686,101.662654 256.230392,103 254.539216,103 C252.848039,103 251.539216,101.662654 251.539216,99.9346221 L251.539216,64.6326889 Z M251,49.2206503 C251,47.2572056 252.539216,46 254.460784,46 C256.465686,46 258,47.2572056 258,49.2206503 L258,50.2424429 C258,52.1307557 256.465686,53.4681019 254.460784,53.4681019 C252.539216,53.4681019 251,52.1307557 251,50.2424429 L251,49.2206503 Z" id="Fill-23" fill="#FFFFFE"></path>
            <path d="M296.211309,87.2212432 L296.211309,83.2953084 C293.200786,82.4301024 289.154764,81.5698976 284.159113,81.5698976 C276.466115,81.5698976 272.187737,84.8656823 272.187737,89.9668969 L272.187737,90.126935 C272.187737,95.2281496 276.94598,98.2088593 282.492213,98.2088593 C290.023572,98.2088593 296.211309,93.6577757 296.211309,87.2212432 M266,90.361991 L266,90.2019528 C266,81.6499166 273.137365,77.0938319 283.527712,77.0938319 C288.755718,77.0938319 292.483513,77.7989998 296.135541,78.8192427 L296.135541,77.4089069 C296.135541,70.1071684 291.609653,66.3412717 283.921706,66.3412717 C279.799916,66.3412717 276.309527,67.2814956 273.299004,68.6118123 C272.899958,68.7718504 272.505963,68.8518695 272.187737,68.8518695 C270.763295,68.8518695 269.490389,67.6715885 269.490389,66.2612527 C269.490389,65.0059538 270.364249,64.0607287 271.157289,63.7506549 C275.19826,62.0202429 279.325102,61 284.558159,61 C290.34685,61 294.786867,62.4903548 297.79739,65.4760657 C300.575558,68.2217195 302,72.1476542 302,77.3288878 L302,99.5441772 C302,101.274589 300.732145,102.529888 299.065245,102.529888 C297.322576,102.529888 296.135541,101.274589 296.135541,99.7042153 L296.135541,96.0133365 C293.276554,99.7042153 288.523362,103 281.305177,103 C273.692998,103 266,98.6839724 266,90.361991" id="Fill-25" fill="#FFFFFE"></path>
            <path d="M313,64.5443462 C313,62.8926608 314.317125,61.4719101 315.940099,61.4719101 C317.646934,61.4719101 318.964059,62.8123356 318.964059,64.5443462 L318.964059,68.9572077 C321.593376,64.5443462 325.776603,61 332.668076,61 C342.346723,61 348,67.6167822 348,77.3110208 L348,99.9275639 C348,101.659574 346.682875,103 345.059901,103 C343.353066,103 342.035941,101.659574 342.035941,99.9275639 L342.035941,78.8070763 C342.035941,71.2464738 338.010571,66.5173321 330.966173,66.5173321 C324.0747,66.5173321 318.964059,71.6380588 318.964059,79.2789864 L318.964059,99.9275639 C318.964059,101.659574 317.72093,103 316.019027,103 C314.317125,103 313,101.659574 313,99.9275639 L313,64.5443462 Z" id="Fill-27" fill="#FFFFFE"></path>
            <path d="M357.094352,97.9034942 C356.547176,97.5141431 356,96.7304493 356,95.7121464 C356,94.2995008 357.173941,93.1264559 358.65629,93.1264559 C359.203466,93.1264559 359.750642,93.281198 360.138639,93.5956739 C364.277279,96.4159734 368.570122,97.9034942 372.942555,97.9034942 C377.787548,97.9034942 381.299422,95.3976705 381.299422,91.4792013 L381.299422,91.3244592 C381.299422,87.2462562 376.538992,85.6788686 371.226412,84.1913478 C364.904044,82.3893511 357.875321,80.1980033 357.875321,72.750416 L357.875321,72.5956739 C357.875321,65.6222962 363.650513,61 371.619384,61 C375.912227,61 380.598042,62.3327787 384.502888,64.4492512 C385.283858,64.9184692 385.985237,65.7770383 385.985237,66.9550749 C385.985237,68.3627288 384.816271,69.5407654 383.328947,69.5407654 C382.781772,69.5407654 382.314185,69.3810316 382.000802,69.2262895 C378.568517,67.2645591 374.897465,66.0915141 371.460205,66.0915141 C366.699775,66.0915141 363.650513,68.6023295 363.650513,71.9667221 L363.650513,72.1264559 C363.650513,75.9650582 368.649711,77.452579 374.041881,79.0998336 C380.28466,80.9767055 387,83.4076539 387,90.6955075 L387,90.8502496 C387,98.5274542 380.677632,103 372.634146,103 C367.32654,103 361.466784,101.03827 357.094352,97.9034942" id="Fill-29" fill="#FFFFFE"></path>
            <path d="M74.2113091,161.221243 L74.2113091,157.295308 C71.2007857,156.430102 67.1547636,155.569898 62.1591132,155.569898 C54.4661148,155.569898 50.1826856,158.865682 50.1826856,163.966897 L50.1826856,164.126935 C50.1826856,169.22815 54.9459801,172.208859 60.4922127,172.208859 C68.0286235,172.208859 74.2113091,167.657776 74.2113091,161.221243 M44,164.361991 L44,164.201953 C44,155.649917 51.137365,151.093832 61.5277115,151.093832 C66.7607689,151.093832 70.4835134,151.799 74.1304897,152.819243 L74.1304897,151.408907 C74.1304897,144.107168 69.6096534,140.341272 61.9217062,140.341272 C57.7948646,140.341272 54.3095272,141.281496 51.2990038,142.611812 C50.8999579,142.77185 50.5059632,142.851869 50.1826856,142.851869 C48.7632945,142.851869 47.4903887,141.671588 47.4903887,140.261253 C47.4903887,139.005954 48.3642486,138.060729 49.1572892,137.750655 C53.1982601,136.020243 57.3251017,135 62.5581591,135 C68.3417988,135 72.7868668,136.490355 75.7973902,139.476066 C78.5755577,142.221719 80,146.147654 80,151.328888 L80,173.544177 C80,175.274589 78.7321454,176.529888 77.0652448,176.529888 C75.3225761,176.529888 74.1304897,175.274589 74.1304897,173.704215 L74.1304897,170.013337 C71.2765539,173.704215 66.5183106,177 59.3051775,177 C51.6929985,177 44,172.683972 44,164.361991" id="Fill-31" fill="#FFFFFE"></path>
            <path d="M123.185746,153.174961 L123.185746,153.020404 C123.185746,144.724218 115.960459,139.324716 108.264828,139.324716 C100.564193,139.324716 94.2045399,144.644446 94.2045399,152.940633 L94.2045399,153.09519 C94.2045399,161.23682 100.72431,166.870649 108.264828,166.870649 C115.960459,166.870649 123.185746,161.311606 123.185746,153.174961 M91.3774713,183.228695 C90.436783,182.760041 89.8063217,181.817745 89.8063217,180.720894 C89.8063217,179.3947 91.1422992,178.063521 92.5533317,178.063521 C93.1037344,178.063521 93.49402,178.218078 93.8893093,178.452405 C98.132414,181.26932 103.000976,182.834826 108.264828,182.834826 C117.216378,182.834826 123.025629,177.903979 123.025629,168.436155 L123.025629,163.659865 C119.493044,168.36137 114.544423,172.190379 107.083964,172.190379 C97.3468392,172.190379 88,164.916259 88,153.254732 L88,153.09519 C88,141.279106 97.4218941,134 107.083964,134 C114.70454,134 119.653161,137.75921 122.950574,142.141631 L122.950574,137.524882 C122.950574,135.879605 124.206493,134.468655 125.937759,134.468655 C127.664022,134.468655 129,135.879605 129,137.524882 L129,168.276613 C129,174.538639 127.11362,179.314929 123.811203,182.600499 C120.203564,186.200166 114.779595,188 108.339883,188 C102.135343,188 96.4812058,186.359708 91.3774713,183.228695" id="Fill-33" fill="#FFFFFE"></path>
            <path d="M167.211309,161.221243 L167.211309,157.295308 C164.200786,156.430102 160.154764,155.569898 155.159113,155.569898 C147.466115,155.569898 143.187737,158.865682 143.187737,163.966897 L143.187737,164.126935 C143.187737,169.22815 147.94598,172.208859 153.492213,172.208859 C161.028624,172.208859 167.211309,167.657776 167.211309,161.221243 M137,164.361991 L137,164.201953 C137,155.649917 144.137365,151.093832 154.527712,151.093832 C159.760769,151.093832 163.483513,151.799 167.13049,152.819243 L167.13049,151.408907 C167.13049,144.107168 162.609653,140.341272 154.921706,140.341272 C150.794865,140.341272 147.309527,141.281496 144.299004,142.611812 C143.899958,142.77185 143.505963,142.851869 143.187737,142.851869 C141.763295,142.851869 140.490389,141.671588 140.490389,140.261253 C140.490389,139.005954 141.364249,138.060729 142.157289,137.750655 C146.19826,136.020243 150.325102,135 155.558159,135 C161.341799,135 165.786867,136.490355 168.79739,139.476066 C171.575558,142.221719 173,146.147654 173,151.328888 L173,173.544177 C173,175.274589 171.732145,176.529888 170.065245,176.529888 C168.322576,176.529888 167.13049,175.274589 167.13049,173.704215 L167.13049,170.013337 C164.276554,173.704215 159.518311,177 152.305177,177 C144.692998,177 137,172.683972 137,164.361991" id="Fill-35" fill="#FFFFFE"></path>
            <path d="M184.539216,137.632689 C184.539216,135.984798 185.848039,134.567311 187.460784,134.567311 C189.156863,134.567311 190.465686,135.904657 190.465686,137.632689 L190.465686,172.934622 C190.465686,174.662654 189.235294,176 187.539216,176 C185.848039,176 184.539216,174.662654 184.539216,172.934622 L184.539216,137.632689 Z M184,122.22065 C184,120.257206 185.539216,119 187.460784,119 C189.465686,119 191,120.257206 191,122.22065 L191,123.242443 C191,125.130756 189.465686,126.468102 187.460784,126.468102 C185.539216,126.468102 184,125.130756 184,123.242443 L184,122.22065 Z" id="Fill-37" fill="#FFFFFE"></path>
            <path d="M203,137.544346 C203,135.892661 204.317125,134.47191 205.940099,134.47191 C207.646934,134.47191 208.964059,135.812336 208.964059,137.544346 L208.964059,141.957208 C211.593376,137.544346 215.776603,134 222.668076,134 C232.346723,134 238,140.616782 238,150.311021 L238,172.927564 C238,174.659574 236.682875,176 235.059901,176 C233.353066,176 232.035941,174.659574 232.035941,172.927564 L232.035941,151.807076 C232.035941,144.246474 228.010571,139.517332 220.966173,139.517332 C214.0747,139.517332 208.964059,144.638059 208.964059,152.278986 L208.964059,172.927564 C208.964059,174.659574 207.72093,176 206.019027,176 C204.317125,176 203,174.659574 203,172.927564 L203,137.544346 Z" id="Fill-39" fill="#FFFFFE"></path>
            <path d="M247.094352,170.903494 C246.547176,170.514143 246,169.730449 246,168.712146 C246,167.299501 247.173941,166.126456 248.65629,166.126456 C249.203466,166.126456 249.750642,166.281198 250.138639,166.595674 C254.277279,169.415973 258.570122,170.903494 262.942555,170.903494 C267.787548,170.903494 271.299422,168.397671 271.299422,164.479201 L271.299422,164.324459 C271.299422,160.246256 266.538992,158.678869 261.226412,157.191348 C254.904044,155.389351 247.875321,153.198003 247.875321,145.755408 L247.875321,145.595674 C247.875321,138.622296 253.650513,134 261.619384,134 C265.912227,134 270.598042,135.332779 274.502888,137.449251 C275.283858,137.918469 275.985237,138.777038 275.985237,139.955075 C275.985237,141.362729 274.811297,142.540765 273.328947,142.540765 C272.781772,142.540765 272.314185,142.381032 272.000802,142.22629 C268.568517,140.264559 264.897465,139.091514 261.460205,139.091514 C256.699775,139.091514 253.650513,141.602329 253.650513,144.966722 L253.650513,145.126456 C253.650513,148.965058 258.649711,150.452579 264.036906,152.099834 C270.28466,153.976705 277,156.407654 277,163.695507 L277,163.85025 C277,171.527454 270.672657,176 262.634146,176 C257.321566,176 251.466784,174.03827 247.094352,170.903494" id="Fill-41" fill="#FFFFFE"></path>
            <path d="M287.900099,164.522997 L287.900099,140.001669 L284.64095,140.001669 C283.241345,140.001669 282,138.7398 282,137.327708 C282,135.835497 283.241345,134.653746 284.64095,134.653746 L287.900099,134.653746 L287.900099,125.06454 C287.900099,123.417099 289.141444,122 290.847676,122 C292.479723,122 293.879327,123.417099 293.879327,125.06454 L293.879327,134.653746 L304.279921,134.653746 C305.753709,134.653746 307,135.910608 307,137.327708 C307,138.819918 305.753709,140.001669 304.279921,140.001669 L293.879327,140.001669 L293.879327,163.736832 C293.879327,168.689169 296.594461,170.496847 300.630069,170.496847 C302.727003,170.496847 303.815035,169.946031 304.279921,169.946031 C305.679525,169.946031 306.841741,171.122774 306.841741,172.539874 C306.841741,173.641506 306.144411,174.502782 305.135509,174.898368 C303.424332,175.604414 301.564787,176 299.23541,176 C292.791296,176 287.900099,172.775223 287.900099,164.522997" id="Fill-43" fill="#FFFFFE"></path>
            <path d="M81.7954601,229.117485 L81.7954601,228.958632 C81.7954601,219.457253 75.2006346,213.376172 67.5,213.376172 C59.9594825,213.376172 52.8142543,219.685604 52.8142543,228.88417 L52.8142543,229.038058 C52.8142543,238.390513 59.9594825,244.625483 67.5,244.625483 C75.3557481,244.625483 81.7954601,238.857143 81.7954601,229.117485 L81.7954601,229.117485 Z M47,211.504688 C47,209.792057 48.3359775,208.46663 49.9871857,208.46663 C51.7134489,208.46663 53.0494264,209.792057 53.0494264,211.504688 L53.0494264,216.960287 C56.3468392,212.130171 61.1403466,208 68.6008055,208 C78.3379302,208 88,215.634859 88,228.88417 L88,229.038058 C88,242.207943 78.4179888,250.001655 68.6008055,250.001655 C61.060288,250.001655 56.1917257,245.95091 53.0494264,241.428571 L53.0494264,258.961942 C53.0494264,260.674573 51.7935074,262 50.0622407,262 C48.3359775,262 47,260.674573 47,258.961942 L47,211.504688 Z" id="Fill-45" fill="#FFFFFE"></path>
            <path d="M130.844699,229.156069 L130.844699,228.997523 C130.844699,220.366639 124.376669,213.291495 115.883347,213.291495 C107.156719,213.291495 101.155301,220.366639 101.155301,228.843931 L101.155301,228.997523 C101.155301,237.633361 107.548871,244.634187 116.042194,244.634187 C124.763858,244.634187 130.844699,237.633361 130.844699,229.156069 M95,229.156069 L95,228.997523 C95,217.646573 103.885475,208 116.042194,208 C128.114525,208 137,217.492981 137,228.843931 L137,228.997523 C137,240.353427 128.040066,250 115.883347,250 C103.806051,250 95,240.511974 95,229.156069" id="Fill-47" fill="#FFFFFE"></path>
            <path d="M160.193069,250 L159.881188,250 C158.247525,250 157.163366,248.970192 156.460396,247.385096 L141.386139,212.679567 C141.232673,212.124279 141,211.56899 141,211.013702 C141,209.428606 142.321782,208 144.029703,208 C145.737624,208 146.594059,209.034856 147.059406,210.377644 L160.039604,242.392548 L173.247525,210.221154 C173.638614,209.034856 174.490099,208 176.049505,208 C177.678218,208 179,209.352885 179,211.013702 C179,211.56899 178.841584,212.124279 178.688119,212.518029 L163.534653,247.385096 C162.836634,248.970192 161.826733,250 160.193069,250" id="Fill-49" fill="#FFFFFE"></path>
            <path d="M215.003133,226.745399 C214.383109,219.436527 210.17687,213.054271 202.156246,213.054271 C195.1475,213.054271 189.85498,218.891458 189.07623,226.745399 L215.003133,226.745399 Z M203.088761,250 C192.032502,250 183,241.521708 183,229.079283 L183,228.920717 C183,217.335536 191.17935,208 202.310012,208 C214.224383,208 221,217.722039 221,228.375649 C221,230.010854 219.67563,231.180274 218.197494,231.180274 L189.07623,231.180274 C189.934343,239.891458 196.084976,244.792119 203.247487,244.792119 C208.232476,244.792119 211.888135,242.849693 214.849367,240.124351 C215.315625,239.732893 215.861245,239.425672 216.560632,239.425672 C218.038768,239.425672 219.209372,240.590137 219.209372,241.992449 C219.209372,242.691128 218.89688,243.389807 218.271897,243.934875 C214.457512,247.591789 209.943741,250 203.088761,250 L203.088761,250 Z" id="Fill-51" fill="#FFFFFE"></path>
            <path d="M230,210.252559 C230,208.588342 231.33529,207.156811 232.980648,207.156811 C234.711024,207.156811 236.046314,208.507407 236.046314,210.252559 L236.046314,217.956522 C239.026962,211.127665 244.913242,207 250.019352,207 C251.819743,207 253,208.345538 253,210.095749 C253,211.759966 251.899761,212.953752 250.329419,213.191497 C242.482714,214.142479 236.046314,220.09623 236.046314,231.927857 L236.046314,245.904251 C236.046314,247.573528 234.78604,249 233.060665,249 C231.33529,249 230,247.649404 230,245.904251 L230,210.252559 Z" id="Fill-53" fill="#FFFFFE"></path>
            <path d="M261.900099,238.522997 L261.900099,214.001669 L258.64095,214.001669 C257.241345,214.001669 256,212.7398 256,211.327708 C256,209.835497 257.241345,208.653746 258.64095,208.653746 L261.900099,208.653746 L261.900099,199.06454 C261.900099,197.417099 263.141444,196 264.847676,196 C266.479723,196 267.879327,197.417099 267.879327,199.06454 L267.879327,208.653746 L278.279921,208.653746 C279.753709,208.653746 281,209.910608 281,211.327708 C281,212.819918 279.753709,214.001669 278.279921,214.001669 L267.879327,214.001669 L267.879327,237.736832 C267.879327,242.689169 270.594461,244.496847 274.635015,244.496847 C276.727003,244.496847 277.815035,243.946031 278.279921,243.946031 C279.679525,243.946031 280.841741,245.122774 280.841741,246.539874 C280.841741,247.641506 280.144411,248.502782 279.135509,248.898368 C277.424332,249.604414 275.564787,250 273.23541,250 C266.791296,250 261.900099,246.775223 261.900099,238.522997" id="Fill-55" fill="#FFFFFE"></path>
            <path d="M288.292932,260.814842 C287.340483,260.423138 286.393074,259.629685 286.393074,258.213522 C286.393074,256.717009 287.663006,255.612201 289.003489,255.612201 C289.557824,255.612201 290.031529,255.767879 290.505233,255.928578 C291.694534,256.320283 292.878796,256.63666 294.934875,256.63666 C298.734591,256.63666 300.946892,254.351716 303.164233,249.385102 L303.481716,248.752348 L286.393074,212.650237 C286.156222,212.097833 286,211.545429 286,210.998047 C286,209.340835 287.340483,208 289.084119,208 C290.742086,208 291.613904,209.024458 292.168239,210.365293 L306.409614,242.369571 L319.063574,210.284944 C319.537279,209.024458 320.409097,208 321.991472,208 C323.654477,208 325,209.340835 325,210.998047 C325,211.470101 324.838739,212.022505 324.677478,212.49456 L308.702546,250.484888 C305.139682,258.921603 301.188784,262 295.015506,262 C292.324461,262 290.349012,261.522924 288.292932,260.814842" id="Fill-57" fill="#FFFFFE"></path>
        </g>
    </g>
</svg>