<?xml version="1.0" encoding="UTF-8"?>
<svg width="715px" height="407px" viewBox="0 0 715 407" version="1.1" xmlns="http://www.w3.org/2000/svg" xmlns:xlink="http://www.w3.org/1999/xlink">
    <!-- Generator: Sketch 56.3 (81716) - https://sketch.com -->
    <title>Artboard</title>
    <desc>Created with Sketch.</desc>
    <g id="Artboard" stroke="none" stroke-width="1" fill="none" fill-rule="evenodd">
        <path d="M72.863,86.136 C71.6989942,87.8820087 70.2601752,89.5309922 68.5465,91.083 C66.8328248,92.6350078 64.8766777,93.9768277 62.678,95.1085 C60.4793223,96.2401723 58.1028461,97.1293301 55.5485,97.776 C52.9941539,98.4226699 50.2943476,98.746 47.449,98.746 C42.3403078,98.746 37.6035218,97.8406757 33.2385,96.03 C28.8734782,94.2193243 25.090516,91.713516 21.8895,88.5125 C18.688484,85.311484 16.1826757,81.5123553 14.372,77.115 C12.5613243,72.7176447 11.656,67.9000262 11.656,62.662 C11.656,57.4239738 12.5613243,52.6063553 14.372,48.209 C16.1826757,43.8116447 18.688484,40.012516 21.8895,36.8115 C25.090516,33.610484 28.8734782,31.1046757 33.2385,29.294 C37.6035218,27.4833243 42.3403078,26.578 47.449,26.578 C51.7170213,26.578 55.9849787,27.4186583 60.253,29.1 C64.5210213,30.7813417 68.1746515,33.5619806 71.214,37.442 L65.103,42.001 C64.3916631,40.9016612 63.4216728,39.8023388 62.193,38.703 C60.9643272,37.6036612 59.5578413,36.6336709 57.9735,35.793 C56.3891587,34.9523291 54.6916757,34.2733359 52.881,33.756 C51.0703243,33.2386641 49.2596757,32.98 47.449,32.98 C43.0516447,32.98 39.1070175,33.7883253 35.615,35.405 C32.1229825,37.0216748 29.1645121,39.1879864 26.7395,41.904 C24.3144879,44.6200136 22.4553398,47.7724821 21.162,51.3615 C19.8686602,54.9505179 19.222,58.7173136 19.222,62.662 C19.222,66.6066864 19.8686602,70.3734821 21.162,73.9625 C22.4553398,77.5515179 24.3144879,80.7039864 26.7395,83.42 C29.1645121,86.1360136 32.1229825,88.3023252 35.615,89.919 C39.1070175,91.5356747 43.0516447,92.344 47.449,92.344 C49.2596757,92.344 51.0541578,92.1823349 52.8325,91.859 C54.6108422,91.5356651 56.3568248,90.9860039 58.0705,90.21 C59.7841752,89.4339961 61.4008257,88.3831733 62.9205,87.0575 C64.4401743,85.7318267 65.8466602,84.0666767 67.14,82.062 L72.863,86.136 Z M89.490589,28.324 L96.474589,28.324 L96.474589,58.103 L133.916589,58.103 L133.916589,28.324 L140.900589,28.324 L140.900589,97 L133.916589,97 L133.916589,64.505 L96.474589,64.505 L96.474589,97 L89.490589,97 L89.490589,28.324 Z M171.399178,58.685 L183.815178,58.685 C186.919194,58.685 189.554334,58.3616699 191.720678,57.715 C193.887022,57.0683301 195.616838,56.2115053 196.910178,55.1445 C198.203518,54.0774947 199.141175,52.8165073 199.723178,51.3615 C200.305181,49.9064927 200.596178,48.3383417 200.596178,46.657 C200.596178,45.0403252 200.305181,43.5045073 199.723178,42.0495 C199.141175,40.5944927 198.203518,39.3173388 196.910178,38.218 C195.616838,37.1186612 193.887022,36.2618364 191.720678,35.6475 C189.554334,35.0331636 186.919194,34.726 183.815178,34.726 L171.399178,34.726 L171.399178,58.685 Z M171.399178,97 L164.415178,97 L164.415178,28.324 L185.561178,28.324 C192.545213,28.324 198.057991,29.8436515 202.099678,32.883 C206.141365,35.9223485 208.162178,40.513636 208.162178,46.657 C208.162178,51.4423573 206.658693,55.467817 203.651678,58.7335 C200.644663,61.999183 196.295873,63.8906641 190.605178,64.408 L210.393178,97 L201.857178,97 L183.039178,65.087 L171.399178,65.087 L171.399178,97 Z M233.810767,97 L226.826767,97 L226.826767,28.324 L233.810767,28.324 L233.810767,97 Z M289.820356,39.673 C286.781007,35.2109777 282.351385,32.98 276.531356,32.98 C274.72068,32.98 272.942365,33.2224976 271.196356,33.7075 C269.450347,34.1925024 267.882196,34.9361617 266.491856,35.9385 C265.101516,36.9408383 263.986027,38.2341587 263.145356,39.8185 C262.304685,41.4028413 261.884356,43.2619893 261.884356,45.396 C261.884356,48.5000155 262.757347,50.9088248 264.503356,52.6225 C266.249365,54.3361752 268.415676,55.7426612 271.002356,56.842 C273.589036,57.9413388 276.418174,58.9274956 279.489856,59.8005 C282.561538,60.6735044 285.390676,61.8374927 287.977356,63.2925 C290.564036,64.7475073 292.730347,66.6713214 294.476356,69.064 C296.222365,71.4566786 297.095356,74.7223126 297.095356,78.861 C297.095356,81.9650155 296.432529,84.7618209 295.106856,87.2515 C293.781183,89.7411791 292.0352,91.8266583 289.868856,93.508 C287.702512,95.1893417 285.277536,96.4826621 282.593856,97.388 C279.910176,98.2933379 277.21037,98.746 274.494356,98.746 C270.291002,98.746 266.297875,97.9538413 262.514856,96.3695 C258.731837,94.7851587 255.514703,92.1823514 252.863356,88.561 L259.168356,84.002 C260.655697,86.5240126 262.725009,88.5448257 265.376356,90.0645 C268.027703,91.5841743 271.164005,92.344 274.785356,92.344 C276.531365,92.344 278.277347,92.0691694 280.023356,91.5195 C281.769365,90.9698306 283.337516,90.1615053 284.727856,89.0945 C286.118196,88.0274947 287.266018,86.7180078 288.171356,85.166 C289.076694,83.6139922 289.529356,81.8356767 289.529356,79.831 C289.529356,77.4383214 289.028194,75.4498413 288.025856,73.8655 C287.023518,72.2811587 285.697864,70.9555053 284.048856,69.8885 C282.399848,68.8214947 280.524533,67.9323369 278.422856,67.221 C276.321179,66.5096631 274.154867,65.7983369 271.923856,65.087 C269.692845,64.3756631 267.526533,63.5673379 265.424856,62.662 C263.323179,61.7566621 261.447864,60.6088403 259.798856,59.2185 C258.149848,57.8281597 256.824194,56.0821772 255.821856,53.9805 C254.819518,51.8788228 254.318356,49.2436825 254.318356,46.075 C254.318356,42.7769835 254.94885,39.8993456 256.209856,37.442 C257.470862,34.9846544 259.152179,32.9476748 261.253856,31.331 C263.355533,29.7143253 265.732009,28.5180039 268.383356,27.742 C271.034703,26.9659961 273.750675,26.578 276.531356,26.578 C280.411375,26.578 283.935673,27.1923272 287.104356,28.421 C290.273039,29.6496728 293.215342,31.8159845 295.931356,34.92 L289.820356,39.673 Z M338.166945,97 L331.182945,97 L331.182945,34.726 L308.193945,34.726 L308.193945,28.324 L361.155945,28.324 L361.155945,34.726 L338.166945,34.726 L338.166945,97 Z M383.700534,97 L376.716534,97 L376.716534,28.324 L383.700534,28.324 L383.700534,97 Z M416.236123,72.556 L446.015123,72.556 L431.174123,36.472 L416.236123,72.556 Z M406.051123,97 L397.903123,97 L427.779123,28.324 L434.569123,28.324 L464.445123,97 L456.297123,97 L448.731123,78.958 L413.617123,78.958 L406.051123,97 Z M528.311712,86.524 L528.505712,86.524 L528.505712,28.324 L535.489712,28.324 L535.489712,97 L526.759712,97 L485.825712,38.218 L485.631712,38.218 L485.631712,97 L478.647712,97 L478.647712,28.324 L487.377712,28.324 L528.311712,86.524 Z M565.988301,97 L559.004301,97 L559.004301,28.324 L565.988301,28.324 L565.988301,97 Z M611.52189,97 L604.53789,97 L604.53789,34.726 L581.54889,34.726 L581.54889,28.324 L634.51089,28.324 L634.51089,34.726 L611.52189,34.726 L611.52189,97 Z M672.090479,97 L665.106479,97 L665.106479,67.415 L639.401479,28.324 L648.131479,28.324 L668.598479,60.722 L689.065479,28.324 L697.795479,28.324 L672.090479,67.415 L672.090479,97 Z" id="CHRISTIANITY" fill="#D0112D" fill-rule="nonzero"></path>
        <path d="M53.845,347.028 L82.764,277.332 L96.074,277.332 L96.074,363 L87.362,363 L87.362,288.948 L87.12,288.948 L56.144,363 L51.546,363 L20.57,288.948 L20.328,288.948 L20.328,363 L11.616,363 L11.616,277.332 L24.926,277.332 L53.845,347.028 Z M134.918632,363 L126.206632,363 L126.206632,277.332 L134.918632,277.332 L134.918632,363 Z M227.003264,349.932 L227.245264,349.932 L227.245264,277.332 L235.957264,277.332 L235.957264,363 L225.067264,363 L174.005264,289.674 L173.763264,289.674 L173.763264,363 L165.051264,363 L165.051264,277.332 L175.941264,277.332 L227.003264,349.932 Z M274.801896,363 L266.089896,363 L266.089896,277.332 L274.801896,277.332 L274.801896,363 Z M345.469528,291.489 C341.678176,285.922972 336.152564,283.14 328.892528,283.14 C326.63385,283.14 324.415539,283.442497 322.237528,284.0475 C320.059517,284.652503 318.10337,285.58016 316.369028,286.8305 C314.634686,288.08084 313.2432,289.694157 312.194528,291.6705 C311.145856,293.646843 310.621528,295.965987 310.621528,298.628 C310.621528,302.500019 311.710517,305.504823 313.888528,307.6425 C316.066539,309.780177 318.768845,311.53466 321.995528,312.906 C325.222211,314.27734 328.751342,315.507495 332.583028,316.5965 C336.414714,317.685505 339.943845,319.137491 343.170528,320.9525 C346.397211,322.767509 349.099517,325.167318 351.277528,328.152 C353.455539,331.136682 354.544528,335.210308 354.544528,340.373 C354.544528,344.245019 353.717703,347.733818 352.064028,350.8395 C350.410353,353.945182 348.232375,356.546656 345.530028,358.644 C342.827681,360.741344 339.802711,362.354661 336.455028,363.484 C333.107345,364.613339 329.739545,365.178 326.351528,365.178 C321.108168,365.178 316.127052,364.189843 311.408028,362.2135 C306.689004,360.237157 302.675878,356.990356 299.368528,352.473 L307.233528,346.786 C309.088871,349.932016 311.670178,352.452824 314.977528,354.3485 C318.284878,356.244176 322.197172,357.192 326.714528,357.192 C328.892539,357.192 331.070517,356.84917 333.248528,356.1635 C335.426539,355.47783 337.382686,354.469507 339.117028,353.1385 C340.85137,351.807493 342.283189,350.17401 343.412528,348.238 C344.541867,346.30199 345.106528,344.083679 345.106528,341.583 C345.106528,338.598318 344.481368,336.117843 343.231028,334.1415 C341.980688,332.165157 340.327038,330.511507 338.270028,329.1805 C336.213018,327.849493 333.873708,326.740338 331.252028,325.853 C328.630348,324.965662 325.928042,324.078338 323.145028,323.191 C320.362014,322.303662 317.659708,321.295339 315.038028,320.166 C312.416348,319.036661 310.077038,317.604842 308.020028,315.8705 C305.963018,314.136158 304.309368,311.95818 303.059028,309.3365 C301.808688,306.71482 301.183528,303.427686 301.183528,299.475 C301.183528,295.360979 301.97002,291.771349 303.543028,288.706 C305.116036,285.640651 307.213348,283.099677 309.835028,281.083 C312.456708,279.066323 315.421178,277.574005 318.728528,276.606 C322.035878,275.637995 325.423844,275.154 328.892528,275.154 C333.732552,275.154 338.128842,275.920326 342.081528,277.453 C346.034214,278.985674 349.704511,281.687981 353.092528,285.56 L345.469528,291.489 Z M406.57816,363 L397.86616,363 L397.86616,285.318 L369.18916,285.318 L369.18916,277.332 L435.25516,277.332 L435.25516,285.318 L406.57816,285.318 L406.57816,363 Z M464.177792,315.205 L479.665792,315.205 C483.537811,315.205 486.824945,314.801671 489.527292,313.995 C492.229639,313.188329 494.387451,312.119507 496.000792,310.7885 C497.614133,309.457493 498.783788,307.884509 499.509792,306.0695 C500.235796,304.254491 500.598792,302.298344 500.598792,300.201 C500.598792,298.184323 500.235796,296.268509 499.509792,294.4535 C498.783788,292.638491 497.614133,291.04534 496.000792,289.674 C494.387451,288.30266 492.229639,287.233837 489.527292,286.4675 C486.824945,285.701163 483.537811,285.318 479.665792,285.318 L464.177792,285.318 L464.177792,315.205 Z M464.177792,363 L455.465792,363 L455.465792,277.332 L481.843792,277.332 C490.555836,277.332 497.4326,279.227648 502.474292,283.019 C507.515984,286.810352 510.036792,292.537628 510.036792,300.201 C510.036792,306.170363 508.161311,311.191813 504.410292,315.2655 C500.659273,319.339187 495.234494,321.698663 488.135792,322.344 L512.819792,363 L502.171792,363 L478.697792,323.191 L464.177792,323.191 L464.177792,363 Z M542.831424,363 L534.119424,363 L534.119424,277.332 L542.831424,277.332 L542.831424,363 Z M581.676056,355.014 L627.535056,355.014 L627.535056,363 L572.964056,363 L572.964056,277.332 L626.083056,277.332 L626.083056,285.318 L581.676056,285.318 L581.676056,314.479 L623.179056,314.479 L623.179056,322.465 L581.676056,322.465 L581.676056,355.014 Z M692.152688,291.489 C688.361336,285.922972 682.835724,283.14 675.575688,283.14 C673.31701,283.14 671.098699,283.442497 668.920688,284.0475 C666.742677,284.652503 664.78653,285.58016 663.052188,286.8305 C661.317846,288.08084 659.92636,289.694157 658.877688,291.6705 C657.829016,293.646843 657.304688,295.965987 657.304688,298.628 C657.304688,302.500019 658.393677,305.504823 660.571688,307.6425 C662.749699,309.780177 665.452005,311.53466 668.678688,312.906 C671.905371,314.27734 675.434502,315.507495 679.266188,316.5965 C683.097874,317.685505 686.627005,319.137491 689.853688,320.9525 C693.080371,322.767509 695.782677,325.167318 697.960688,328.152 C700.138699,331.136682 701.227688,335.210308 701.227688,340.373 C701.227688,344.245019 700.400863,347.733818 698.747188,350.8395 C697.093513,353.945182 694.915535,356.546656 692.213188,358.644 C689.510841,360.741344 686.485871,362.354661 683.138188,363.484 C679.790505,364.613339 676.422705,365.178 673.034688,365.178 C667.791328,365.178 662.810212,364.189843 658.091188,362.2135 C653.372164,360.237157 649.359038,356.990356 646.051688,352.473 L653.916688,346.786 C655.772031,349.932016 658.353338,352.452824 661.660688,354.3485 C664.968038,356.244176 668.880332,357.192 673.397688,357.192 C675.575699,357.192 677.753677,356.84917 679.931688,356.1635 C682.109699,355.47783 684.065846,354.469507 685.800188,353.1385 C687.53453,351.807493 688.966349,350.17401 690.095688,348.238 C691.225027,346.30199 691.789688,344.083679 691.789688,341.583 C691.789688,338.598318 691.164528,336.117843 689.914188,334.1415 C688.663848,332.165157 687.010198,330.511507 684.953188,329.1805 C682.896178,327.849493 680.556868,326.740338 677.935188,325.853 C675.313508,324.965662 672.611202,324.078338 669.828188,323.191 C667.045174,322.303662 664.342868,321.295339 661.721188,320.166 C659.099508,319.036661 656.760198,317.604842 654.703188,315.8705 C652.646178,314.136158 650.992528,311.95818 649.742188,309.3365 C648.491848,306.71482 647.866688,303.427686 647.866688,299.475 C647.866688,295.360979 648.65318,291.771349 650.226188,288.706 C651.799196,285.640651 653.896508,283.099677 656.518188,281.083 C659.139868,279.066323 662.104338,277.574005 665.411688,276.606 C668.719038,275.637995 672.107004,275.154 675.575688,275.154 C680.415712,275.154 684.812002,275.920326 688.764688,277.453 C692.717374,278.985674 696.387671,281.687981 699.775688,285.56 L692.152688,291.489 Z" id="MINISTRIES" fill="#D0112D" fill-rule="nonzero"></path>
        <path d="M11.828,136.792 L72.434,136.792 L72.434,154.936 L31.484,154.936 L31.484,171.568 L70.166,171.568 L70.166,189.712 L31.484,189.712 L31.484,207.856 L74.702,207.856 L74.702,226 L11.828,226 L11.828,136.792 Z M121.129177,180.38 L89.645177,136.792 L114.341177,136.792 L133.367177,164.04 L153.637177,136.792 L177.451177,136.792 L144.597177,181.002 L176.853177,226 L154.157177,226 L132.5,196.5 L88,256 L64.69,256 L121.129177,180.38 Z M188.426354,136.792 L221.564354,136.792 C226.184377,136.792 230.552333,137.211996 234.668354,138.052 C238.784375,138.892004 242.375339,140.34099 245.441354,142.399 C248.507369,144.45701 250.943345,147.228983 252.749354,150.715 C254.555363,154.201017 255.458354,158.589974 255.458354,163.882 C255.458354,169.090026 254.618362,173.457982 252.938354,176.986 C251.258346,180.514018 248.948369,183.32799 246.008354,185.428 C243.068339,187.52801 239.582374,189.018996 235.550354,189.901 C231.518334,190.783004 227.150378,191.224 222.446354,191.224 L208.082354,191.224 L208.082354,226 L188.426354,226 L188.426354,136.792 Z M208.082354,174.592 L221.186354,174.592 C222.950363,174.592 224.651346,174.424 226.289354,174.088 C227.927362,173.751998 229.397347,173.185004 230.699354,172.387 C232.001361,171.588996 233.05135,170.497007 233.849354,169.111 C234.647358,167.724993 235.046354,165.982011 235.046354,163.882 C235.046354,161.613989 234.521359,159.787007 233.471354,158.401 C232.421349,157.014993 231.077362,155.944004 229.439354,155.188 C227.801346,154.431996 225.974364,153.949001 223.958354,153.739 C221.942344,153.528999 220.010363,153.424 218.162354,153.424 L208.082354,153.424 L208.082354,174.592 Z M272.063531,136.792 L291.719531,136.792 L291.719531,207.856 L328.133531,207.856 L328.133531,226 L272.063531,226 L272.063531,136.792 Z M337.682708,181.396 C337.682708,174.255964 338.879696,167.788029 341.273708,161.992 C343.66772,156.195971 347.006687,151.26102 351.290708,147.187 C355.574729,143.11298 360.656679,139.984011 366.536708,137.8 C372.416737,135.615989 378.842673,134.524 385.814708,134.524 C392.786743,134.524 399.212679,135.615989 405.092708,137.8 C410.972737,139.984011 416.054687,143.11298 420.338708,147.187 C424.622729,151.26102 427.961696,156.195971 430.355708,161.992 C432.74972,167.788029 433.946708,174.255964 433.946708,181.396 C433.946708,188.536036 432.74972,195.003971 430.355708,200.8 C427.961696,206.596029 424.622729,211.53098 420.338708,215.605 C416.054687,219.67902 410.972737,222.807989 405.092708,224.992 C399.212679,227.176011 392.786743,228.268 385.814708,228.268 C378.842673,228.268 372.416737,227.176011 366.536708,224.992 C360.656679,222.807989 355.574729,219.67902 351.290708,215.605 C347.006687,211.53098 343.66772,206.596029 341.273708,200.8 C338.879696,195.003971 337.682708,188.536036 337.682708,181.396 Z M358.094708,181.396 C358.094708,185.596021 358.745701,189.438983 360.047708,192.925 C361.349715,196.411017 363.218696,199.434987 365.654708,201.997 C368.09072,204.559013 371.009691,206.553993 374.411708,207.982 C377.813725,209.410007 381.614687,210.124 385.814708,210.124 C390.014729,210.124 393.815691,209.410007 397.217708,207.982 C400.619725,206.553993 403.538696,204.559013 405.974708,201.997 C408.41072,199.434987 410.279701,196.411017 411.581708,192.925 C412.883715,189.438983 413.534708,185.596021 413.534708,181.396 C413.534708,177.279979 412.883715,173.458018 411.581708,169.93 C410.279701,166.401982 408.41072,163.357013 405.974708,160.795 C403.538696,158.232987 400.619725,156.238007 397.217708,154.81 C393.815691,153.381993 390.014729,152.668 385.814708,152.668 C381.614687,152.668 377.813725,153.381993 374.411708,154.81 C371.009691,156.238007 368.09072,158.232987 365.654708,160.795 C363.218696,163.357013 361.349715,166.401982 360.047708,169.93 C358.745701,173.458018 358.094708,177.279979 358.094708,181.396 Z M450.803885,136.792 L485.327885,136.792 C489.863908,136.792 494.168865,137.232996 498.242885,138.115 C502.316905,138.997004 505.88687,140.46699 508.952885,142.525 C512.0189,144.58301 514.454876,147.354983 516.260885,150.841 C518.066894,154.327017 518.969885,158.673974 518.969885,163.882 C518.969885,170.182031 517.331901,175.536978 514.055885,179.947 C510.779869,184.357022 505.991917,187.149994 499.691885,188.326 L522.371885,226 L498.809885,226 L480.161885,190.342 L470.459885,190.342 L470.459885,226 L450.803885,226 L450.803885,136.792 Z M470.459885,173.71 L482.051885,173.71 C483.815894,173.71 485.684875,173.647001 487.658885,173.521 C489.632895,173.394999 491.417877,173.017003 493.013885,172.387 C494.609893,171.756997 495.93288,170.770007 496.982885,169.426 C498.03289,168.081993 498.557885,166.192012 498.557885,163.756 C498.557885,161.487989 498.09589,159.682007 497.171885,158.338 C496.24788,156.993993 495.071892,155.965004 493.643885,155.251 C492.215878,154.536996 490.577894,154.054001 488.729885,153.802 C486.881876,153.549999 485.075894,153.424 483.311885,153.424 L470.459885,153.424 L470.459885,173.71 Z M536.709062,136.792 L597.315062,136.792 L597.315062,154.936 L556.365062,154.936 L556.365062,171.568 L595.047062,171.568 L595.047062,189.712 L556.365062,189.712 L556.365062,207.856 L599.583062,207.856 L599.583062,226 L536.709062,226 L536.709062,136.792 Z M618.834239,136.792 L648.318239,136.792 C655.458275,136.792 662.241207,137.589992 668.667239,139.186 C675.093271,140.782008 680.700215,143.364982 685.488239,146.935 C690.276263,150.505018 694.077225,155.145971 696.891239,160.858 C699.705253,166.570029 701.112239,173.499959 701.112239,181.648 C701.112239,188.872036 699.747253,195.234972 697.017239,200.737 C694.287225,206.239028 690.612262,210.858981 685.992239,214.597 C681.372216,218.335019 676.038269,221.16999 669.990239,223.102 C663.942209,225.03401 657.600272,226 650.964239,226 L618.834239,226 L618.834239,136.792 Z M638.490239,207.856 L648.696239,207.856 C653.232262,207.856 657.453219,207.394005 661.359239,206.47 C665.265259,205.545995 668.646225,204.013011 671.502239,201.871 C674.358253,199.728989 676.605231,196.915017 678.243239,193.429 C679.881247,189.942983 680.700239,185.680025 680.700239,180.64 C680.700239,176.271978 679.881247,172.471016 678.243239,169.237 C676.605231,166.002984 674.400253,163.33601 671.628239,161.236 C668.856225,159.135989 665.601258,157.561005 661.863239,156.511 C658.12522,155.460995 654.19826,154.936 650.082239,154.936 L638.490239,154.936 L638.490239,207.856 Z" id="EXPLORED" fill="#D0112D" fill-rule="nonzero"></path>
    </g>
</svg>