<svg width="715" height="360" xmlns="http://www.w3.org/2000/svg"><g fill="none" fill-rule="evenodd"><path d="M10 129.26h60.581v18.072H29.648v16.567h38.666v18.073H29.648v18.073h43.2v18.073H10v-88.859zm109.256 43.416l-31.47-43.417h24.685l19.018 27.141 20.262-27.14h23.804l-32.84 44.036 32.242 44.822H152.27l-21.648-29.385L86.141 248h-23.3l56.415-75.324zm72.27-43.417h33.124c4.618 0 8.984.418 13.098 1.255 4.115.837 7.704 2.28 10.769 4.33 3.065 2.05 5.5 4.811 7.305 8.284 1.805 3.472 2.708 7.844 2.708 13.115 0 5.188-.84 9.538-2.52 13.053-1.678 3.514-3.987 6.317-6.926 8.409-2.939 2.091-6.424 3.576-10.454 4.455s-8.396 1.318-13.098 1.318h-14.359v34.64h-19.647v-88.859zm15.647 37.652h13.099c1.763 0 3.464-.167 5.1-.502 1.638-.335 3.108-.9 4.41-1.694 1.3-.795 2.35-1.883 3.148-3.264.797-1.38 1.196-3.116 1.196-5.208 0-2.26-.524-4.079-1.574-5.46-1.05-1.38-2.393-2.447-4.03-3.2-1.638-.753-3.464-1.234-5.48-1.443a56.173 56.173 0 0 0-5.793-.314h-10.076v21.085zm64.955-37.652h19.648v70.786h36.4v18.073h-56.048v-88.859zm63.592 44.43c0-7.113 1.197-13.555 3.59-19.329 2.393-5.773 5.73-10.689 10.013-14.747 4.282-4.058 9.362-7.174 15.24-9.35 5.877-2.175 12.3-3.263 19.27-3.263 6.969 0 13.392 1.088 19.27 3.263 5.877 2.176 10.957 5.292 15.24 9.35 4.282 4.058 7.62 8.974 10.012 14.747 2.393 5.774 3.59 12.216 3.59 19.328s-1.197 13.555-3.59 19.328c-2.393 5.774-5.73 10.69-10.013 14.747-4.282 4.058-9.362 7.175-15.24 9.35-5.877 2.176-12.3 3.264-19.27 3.264-6.969 0-13.392-1.088-19.27-3.263-5.877-2.176-10.957-5.293-15.24-9.35-4.282-4.059-7.62-8.974-10.012-14.748-2.393-5.773-3.59-12.216-3.59-19.328zm20.404 0c0 4.183.65 8.01 1.952 11.483 1.302 3.473 3.17 6.485 5.605 9.037 2.435 2.552 5.353 4.539 8.753 5.961 3.4 1.423 7.2 2.134 11.398 2.134 4.199 0 7.998-.711 11.399-2.134 3.4-1.422 6.318-3.41 8.753-5.961 2.435-2.552 4.303-5.564 5.605-9.037 1.301-3.472 1.952-7.3 1.952-11.484 0-4.1-.65-7.907-1.952-11.42-1.302-3.515-3.17-6.548-5.605-9.1-2.435-2.552-5.353-4.54-8.753-5.961-3.4-1.423-7.2-2.134-11.399-2.134-4.198 0-7.997.711-11.398 2.134-3.4 1.422-6.318 3.41-8.753 5.961-2.435 2.552-4.303 5.585-5.605 9.1-1.301 3.513-1.952 7.32-1.952 11.42zm92.67-44.43h34.51c4.535 0 8.838.44 12.91 1.318 4.073.878 7.641 2.343 10.706 4.393 3.065 2.05 5.5 4.81 7.305 8.283 1.805 3.472 2.708 7.802 2.708 12.99 0 6.275-1.638 11.61-4.912 16.002-3.275 4.393-8.06 7.175-14.358 8.346l22.67 37.527h-23.552l-18.64-35.519h-9.698v35.519h-19.648v-88.859zm19.649 36.773h11.587c1.763 0 3.631-.062 5.605-.188 1.973-.125 3.757-.502 5.352-1.13a9.256 9.256 0 0 0 3.968-2.949c1.05-1.339 1.574-3.221 1.574-5.648 0-2.259-.462-4.058-1.385-5.396a9.226 9.226 0 0 0-3.527-3.075c-1.427-.711-3.065-1.193-4.912-1.444a40.204 40.204 0 0 0-5.416-.376h-12.846v20.206zm67.222-36.773h60.58v18.073h-40.932v16.567h38.666v18.073h-38.666v18.073h43.2v18.073h-62.848v-88.859zm84.09 0h29.473c7.137 0 13.917.795 20.34 2.385 6.424 1.59 12.028 4.162 16.814 7.718s8.586 8.18 11.399 13.869c2.813 5.69 4.219 12.592 4.219 20.708 0 7.196-1.364 13.534-4.093 19.015-2.73 5.48-6.403 10.082-11.02 13.805-4.619 3.724-9.95 6.547-15.996 8.472-6.046 1.924-12.385 2.887-19.018 2.887h-32.117v-88.859zm19.649 70.786h10.202c4.534 0 8.753-.46 12.657-1.38 3.905-.921 7.284-2.448 10.14-4.582 2.854-2.134 5.1-4.936 6.737-8.409 1.638-3.472 2.456-7.718 2.456-12.739 0-4.35-.818-8.137-2.456-11.358-1.637-3.221-3.841-5.878-6.612-7.97-2.77-2.091-6.024-3.66-9.76-4.706-3.737-1.046-7.663-1.569-11.777-1.569h-11.587v52.713zM61.036 72.592c-1.008 1.512-2.254 2.94-3.738 4.284-1.484 1.344-3.178 2.506-5.082 3.486a28.98 28.98 0 0 1-6.174 2.31c-2.212.56-4.55.84-7.014.84-4.424 0-8.526-.784-12.306-2.352-3.78-1.568-7.056-3.738-9.828-6.51-2.772-2.772-4.942-6.062-6.51-9.87-1.568-3.808-2.352-7.98-2.352-12.516s.784-8.708 2.352-12.516c1.568-3.808 3.738-7.098 6.51-9.87 2.772-2.772 6.048-4.942 9.828-6.51 3.78-1.568 7.882-2.352 12.306-2.352 3.696 0 7.392.728 11.088 2.184 3.696 1.456 6.86 3.864 9.492 7.224l-5.292 3.948c-.616-.952-1.456-1.904-2.52-2.856a18.34 18.34 0 0 0-3.654-2.52 22.657 22.657 0 0 0-4.41-1.764 17.052 17.052 0 0 0-4.704-.672c-3.808 0-7.224.7-10.248 2.1-3.024 1.4-5.586 3.276-7.686 5.628-2.1 2.352-3.71 5.082-4.83 8.19-1.12 3.108-1.68 6.37-1.68 9.786 0 3.416.56 6.678 1.68 9.786 1.12 3.108 2.73 5.838 4.83 8.19 2.1 2.352 4.662 4.228 7.686 5.628 3.024 1.4 6.44 2.1 10.248 2.1 1.568 0 3.122-.14 4.662-.42 1.54-.28 3.052-.756 4.536-1.428 1.484-.672 2.884-1.582 4.2-2.73 1.316-1.148 2.534-2.59 3.654-4.326l4.956 3.528zm24-50.064h6.047v25.788h32.424V22.528h6.048V82h-6.048V53.86H91.083V82h-6.048V22.528zm80.53 26.292h10.752c2.688 0 4.97-.28 6.846-.84 1.876-.56 3.374-1.302 4.494-2.226 1.12-.924 1.932-2.016 2.436-3.276.504-1.26.756-2.618.756-4.074 0-1.4-.252-2.73-.756-3.99-.504-1.26-1.316-2.366-2.436-3.318-1.12-.952-2.618-1.694-4.494-2.226s-4.158-.798-6.846-.798h-10.752V48.82zm0 33.18h-6.048V22.528h18.312c6.048 0 10.822 1.316 14.322 3.948 3.5 2.632 5.25 6.608 5.25 11.928 0 4.144-1.302 7.63-3.906 10.458-2.604 2.828-6.37 4.466-11.298 4.914L199.334 82h-7.392l-16.296-27.636h-10.08V82zm63.647 0h-6.048V22.528h6.048V82zm58.104-49.644c-2.632-3.864-6.468-5.796-11.508-5.796-1.568 0-3.108.21-4.62.63a12.723 12.723 0 0 0-4.074 1.932c-1.204.868-2.17 1.988-2.898 3.36-.728 1.372-1.092 2.982-1.092 4.83 0 2.688.756 4.774 2.268 6.258 1.512 1.484 3.388 2.702 5.628 3.654s4.69 1.806 7.35 2.562c2.66.756 5.11 1.764 7.35 3.024a17.521 17.521 0 0 1 5.628 4.998c1.512 2.072 2.268 4.9 2.268 8.484 0 2.688-.574 5.11-1.722 7.266-1.148 2.156-2.66 3.962-4.536 5.418a21.291 21.291 0 0 1-6.3 3.36c-2.324.784-4.662 1.176-7.014 1.176-3.64 0-7.098-.686-10.374-2.058-3.276-1.372-6.062-3.626-8.358-6.762l5.46-3.948c1.288 2.184 3.08 3.934 5.376 5.25 2.296 1.316 5.012 1.974 8.148 1.974 1.512 0 3.024-.238 4.536-.714a13.083 13.083 0 0 0 4.074-2.1 11.62 11.62 0 0 0 2.982-3.402c.784-1.344 1.176-2.884 1.176-4.62 0-2.072-.434-3.794-1.302-5.166-.868-1.372-2.016-2.52-3.444-3.444-1.428-.924-3.052-1.694-4.872-2.31a334.696 334.696 0 0 0-5.628-1.848 61.23 61.23 0 0 1-5.628-2.1c-1.82-.784-3.444-1.778-4.872-2.982-1.428-1.204-2.576-2.716-3.444-4.536-.868-1.82-1.302-4.102-1.302-6.846 0-2.856.546-5.348 1.638-7.476 1.092-2.128 2.548-3.892 4.368-5.292 1.82-1.4 3.878-2.436 6.174-3.108a24.991 24.991 0 0 1 7.056-1.008c3.36 0 6.412.532 9.156 1.596 2.744 1.064 5.292 2.94 7.644 5.628l-5.292 4.116zM338.784 82h-6.048V28.072h-19.908v-5.544h45.864v5.544h-19.908V82zm49.03 0h-6.047V22.528h6.048V82zm37.776-21.168h25.788l-12.852-31.248-12.936 31.248zM416.77 82h-7.056l25.872-59.472h5.88L467.338 82h-7.056l-6.552-15.624h-30.408L416.77 82zm115.475-9.072h.168v-50.4h6.048V82h-7.56l-35.448-50.904h-.168V82h-6.048V22.528h7.56l35.448 50.4zM574.472 82h-6.048V22.528h6.048V82zm49.031 0h-6.048V28.072h-19.908v-5.544h45.864v5.544h-19.908V82zm62.052 0h-6.048V56.38l-22.26-33.852h7.56l17.724 28.056 17.724-28.056h7.56l-22.26 33.852V82zM41.38 323.912l20.076-48.384h9.24V335h-6.048v-51.408h-.168L42.976 335h-3.192L18.28 283.592h-.168V335h-6.048v-59.472h9.24l20.076 48.384zM120.507 335h-6.048v-59.472h6.048V335zm86.771-9.072h.168v-50.4h6.048V335h-7.56l-35.448-50.904h-.168V335h-6.048v-59.472h7.56l35.448 50.4zM263.305 335h-6.048v-59.472h6.048V335zm71.904-49.644c-2.632-3.864-6.468-5.796-11.508-5.796-1.568 0-3.108.21-4.62.63a12.723 12.723 0 0 0-4.074 1.932c-1.204.868-2.17 1.988-2.898 3.36-.728 1.372-1.092 2.982-1.092 4.83 0 2.688.756 4.774 2.268 6.258 1.512 1.484 3.388 2.702 5.628 3.654s4.69 1.806 7.35 2.562c2.66.756 5.11 1.764 7.35 3.024a17.521 17.521 0 0 1 5.628 4.998c1.512 2.072 2.268 4.9 2.268 8.484 0 2.688-.574 5.11-1.722 7.266-1.148 2.156-2.66 3.962-4.536 5.418a21.291 21.291 0 0 1-6.3 3.36c-2.324.784-4.662 1.176-7.014 1.176-3.64 0-7.098-.686-10.374-2.058-3.276-1.372-6.062-3.626-8.358-6.762l5.46-3.948c1.288 2.184 3.08 3.934 5.376 5.25 2.296 1.316 5.012 1.974 8.148 1.974 1.512 0 3.024-.238 4.536-.714a13.083 13.083 0 0 0 4.074-2.1 11.62 11.62 0 0 0 2.982-3.402c.784-1.344 1.176-2.884 1.176-4.62 0-2.072-.434-3.794-1.302-5.166-.868-1.372-2.016-2.52-3.444-3.444-1.428-.924-3.052-1.694-4.872-2.31a334.696 334.696 0 0 0-5.628-1.848 61.23 61.23 0 0 1-5.628-2.1c-1.82-.784-3.444-1.778-4.872-2.982-1.428-1.204-2.576-2.716-3.444-4.536-.868-1.82-1.302-4.102-1.302-6.846 0-2.856.546-5.348 1.638-7.476 1.092-2.128 2.548-3.892 4.368-5.292 1.82-1.4 3.878-2.436 6.174-3.108a24.991 24.991 0 0 1 7.056-1.008c3.36 0 6.412.532 9.156 1.596 2.744 1.064 5.292 2.94 7.644 5.628l-5.292 4.116zM400.476 335h-6.048v-53.928H374.52v-5.544h45.864v5.544h-19.908V335zm62.83-33.18h10.753c2.688 0 4.97-.28 6.846-.84 1.876-.56 3.374-1.302 4.494-2.226 1.12-.924 1.932-2.016 2.436-3.276.504-1.26.756-2.618.756-4.074 0-1.4-.252-2.73-.756-3.99-.504-1.26-1.316-2.366-2.436-3.318-1.12-.952-2.618-1.694-4.494-2.226s-4.158-.798-6.846-.798h-10.752v20.748zm0 33.18h-6.047v-59.472h18.312c6.048 0 10.822 1.316 14.322 3.948 3.5 2.632 5.25 6.608 5.25 11.928 0 4.144-1.302 7.63-3.906 10.458-2.604 2.828-6.37 4.466-11.298 4.914L497.075 335h-7.392l-16.296-27.636h-10.08V335zm77.448 0h-6.048v-59.472h6.048V335zm49.811-5.544h31.836V335h-37.884v-59.472h36.876v5.544h-30.828v20.244h28.812v5.544h-28.812v22.596zm99.54-44.1c-2.633-3.864-6.469-5.796-11.509-5.796-1.568 0-3.108.21-4.62.63a12.723 12.723 0 0 0-4.074 1.932c-1.204.868-2.17 1.988-2.898 3.36-.728 1.372-1.092 2.982-1.092 4.83 0 2.688.756 4.774 2.268 6.258 1.512 1.484 3.388 2.702 5.628 3.654s4.69 1.806 7.35 2.562c2.66.756 5.11 1.764 7.35 3.024a17.521 17.521 0 0 1 5.628 4.998c1.512 2.072 2.268 4.9 2.268 8.484 0 2.688-.574 5.11-1.722 7.266-1.148 2.156-2.66 3.962-4.536 5.418a21.291 21.291 0 0 1-6.3 3.36c-2.324.784-4.662 1.176-7.014 1.176-3.64 0-7.098-.686-10.374-2.058-3.276-1.372-6.062-3.626-8.358-6.762l5.46-3.948c1.288 2.184 3.08 3.934 5.376 5.25 2.296 1.316 5.012 1.974 8.148 1.974 1.512 0 3.024-.238 4.536-.714a13.083 13.083 0 0 0 4.074-2.1 11.62 11.62 0 0 0 2.982-3.402c.784-1.344 1.176-2.884 1.176-4.62 0-2.072-.434-3.794-1.302-5.166-.868-1.372-2.016-2.52-3.444-3.444-1.428-.924-3.052-1.694-4.872-2.31a334.696 334.696 0 0 0-5.628-1.848 61.23 61.23 0 0 1-5.628-2.1c-1.82-.784-3.444-1.778-4.872-2.982-1.428-1.204-2.576-2.716-3.444-4.536-.868-1.82-1.302-4.102-1.302-6.846 0-2.856.546-5.348 1.638-7.476 1.092-2.128 2.548-3.892 4.368-5.292 1.82-1.4 3.878-2.436 6.174-3.108a24.991 24.991 0 0 1 7.056-1.008c3.36 0 6.412.532 9.156 1.596 2.744 1.064 5.292 2.94 7.644 5.628l-5.292 4.116z" fill="#D0112D" fill-rule="nonzero"/></g></svg>