<?xml version="1.0" encoding="UTF-8"?>
<svg width="667px" height="162px" viewBox="0 0 667 162" version="1.1" xmlns="http://www.w3.org/2000/svg" xmlns:xlink="http://www.w3.org/1999/xlink">
    <!-- Generator: Sketch 54 (76480) - https://sketchapp.com -->
    <title>LEEDS</title>
    <desc>Created with Sketch.</desc>
    <g id="Page-1" stroke="none" stroke-width="1" fill="none" fill-rule="evenodd">
        <g id="eventbrite-leeds" transform="translate(-926.000000, -460.000000)" fill="#FFFFFF" fill-rule="nonzero">
            <g id="Group-2" transform="translate(568.000000, 354.000000)">
                <path d="M388.433358,239 L464,239 C465.104569,239 466,239.895431 466,241 L466,264 C466,265.104569 465.104569,266 464,266 L362.822023,266 C361.717453,266 360.822023,265.104569 360.822023,264 C360.822023,263.470218 361.032221,262.962079 361.406482,262.587115 L382.488087,241.465883 C384.063844,239.887164 386.202807,239 388.433358,239 Z M360,107 L383,107 C384.104569,107 385,107.895431 385,109 L385,200.662981 C385,202.899272 384.108277,205.043252 382.522385,206.61994 L361.410092,227.6097 C360.626773,228.388472 359.360449,228.384787 358.581677,227.601468 C358.209119,227.226736 358,226.719793 358,226.191377 L358,109 C358,107.895431 358.895431,107 360,107 Z M512.105408,239 L589,239 C590.104569,239 591,239.895431 591,241 L591,264 C591,265.104569 590.104569,266 589,266 L503.674747,266 C499.29056,266 495.736475,262.445915 495.736475,258.061728 C495.736475,255.981469 496.553056,253.984333 498.010531,252.5 L510.678343,239.598756 C511.05441,239.215758 511.568645,239 512.105408,239 Z M504.073982,106 L591,106 C592.104569,106 593,106.895431 593,108 L593,131 C593,132.104569 592.104569,133 591,133 L512.778871,133 C512.247787,133 511.73851,132.78877 511.36333,132.412885 L498.474672,119.5 C495.38806,116.407586 495.392763,111.398497 498.485177,108.311885 C499.968385,106.83146 501.978376,106 504.073982,106 Z M638.778871,239 L717,239 C718.104569,239 719,239.895431 719,241 L719,264 C719,265.104569 718.104569,266 717,266 L630.073982,266 C625.704749,266 622.162786,262.458037 622.162786,258.088805 C622.162786,255.993199 622.994247,253.983208 624.474672,252.5 L637.36333,239.587115 C637.73851,239.21123 638.247787,239 638.778871,239 Z M630.073982,106 L717,106 C718.104569,106 719,106.895431 719,108 L719,131 C719,132.104569 718.104569,133 717,133 L638.778871,133 C638.247787,133 637.73851,132.78877 637.36333,132.412885 L624.474672,119.5 C621.38806,116.407586 621.392763,111.398497 624.485177,108.311885 C625.968385,106.83146 627.978376,106 630.073982,106 Z M452.5,174 L792.5,174 C799.955844,174 806,180.044156 806,187.5 L806,187.5 C806,194.955844 799.955844,201 792.5,201 L452.5,201 C445.044156,201 439,194.955844 439,187.5 L439,187.5 C439,180.044156 445.044156,174 452.5,174 Z M865.809309,157.2 C870.003003,166.8 872,177 872,188 C872,199 870.003003,209.2 865.809309,218.8 C861.415916,228.6 855.824324,237 848.635135,244.4 C841.445946,251.6 832.858859,257.4 823.073574,261.6 C813.487988,265.8 803.103604,268 792.12012,268 L757.865821,268 C753.522533,268 750.001602,264.479069 750.001602,260.135781 C750.001602,258.062312 750.820473,256.072742 752.28003,254.6 L764.092914,242.6804 C765.031856,241.732976 766.310435,241.2 767.64431,241.2 L792.12012,241.2 C799.509009,241.2 806.498498,239.8 812.888889,237.2 C819.279279,234.4 825.070571,230.6 829.863363,225.6 C834.656156,220.6 838.45045,215 841.246246,208.6 C844.042042,202 845.43994,195.2 845.43994,188 C845.43994,180.8 844.042042,174 841.246246,167.4 C838.45045,161 834.656156,155.4 829.663664,150.4 C824.870871,145.6 819.07958,141.6 812.689189,138.8 C806.298799,136.2 799.309309,134.8 792.12012,134.8 L767.64431,134.8 C766.310435,134.8 765.031856,134.267024 764.092914,133.3196 L752.28003,121.4 C749.222702,118.315053 749.245092,113.335755 752.33004,110.278428 C753.802782,108.818871 755.792351,108 757.865821,108 L792.12012,108 C803.103604,108 813.288288,110.2 823.073574,114.4 C832.659159,118.6 841.246246,124.4 848.435435,131.6 C855.824324,139 861.415916,147.4 865.809309,157.2 Z M978.27027,201.439771 L938.53003,201.439771 C925.54955,201.439771 914.566066,196.825133 905.57958,187.796492 C896.593093,178.567214 892,167.532208 892,154.490838 C892,141.650104 896.593093,130.815735 905.57958,121.586457 C910.238467,116.801699 917.916502,113.427681 928.613687,111.464403 L928.613687,111.464403 C933.176665,110.62695 937.55458,113.647084 938.392033,118.210062 C938.483841,118.71029 938.53003,119.217823 938.53003,119.726406 L938.530027,130.167635 C938.530027,132.616162 936.75685,134.704471 934.340722,135.101472 C932.831273,135.349494 931.631613,135.659764 930.741742,136.032283 C928.145646,137.035465 926.148649,138.43992 924.151652,140.446285 C922.354354,142.252013 920.956456,144.459014 919.957958,146.866652 C918.959459,149.27429 918.56006,151.882564 918.56006,154.490838 C918.56006,160.108659 920.357357,164.723298 924.151652,168.736027 C928.145646,172.748756 932.738739,174.755121 938.53003,174.755121 L978.27027,174.755121 C991.250751,174.755121 1002.23423,179.36976 1011.22072,188.398401 C1020.40691,197.627679 1025,208.662684 1025,221.503418 C1025,234.344152 1020.40691,245.379158 1011.22072,254.608436 C1006.55908,259.291946 998.874712,262.603539 988.167625,264.543215 L988.167625,264.543214 C983.602735,265.370181 979.231771,262.339995 978.404804,257.775105 C978.315295,257.281011 978.27027,256.779885 978.27027,256.277749 L978.270274,245.826621 C978.270274,243.378094 980.04345,241.289785 982.459578,240.892784 C983.969028,240.644762 985.168688,240.334492 986.058559,239.961973 C988.654655,238.958791 990.851351,237.554336 992.648649,235.748608 C994.445946,233.942879 995.843844,231.936515 996.842342,229.328241 C997.840841,226.920603 998.43994,224.312329 998.43994,221.503418 C998.43994,216.086234 996.243243,211.471595 992.448949,207.458865 C988.454955,203.446136 983.861862,201.439771 978.27027,201.439771 Z" id="LEEDS"></path>
            </g>
        </g>
    </g>
</svg>