<?xml version="1.0" encoding="UTF-8"?>
<svg width="1206px" height="1371px" viewBox="0 0 1206 1371" version="1.1" xmlns="http://www.w3.org/2000/svg" xmlns:xlink="http://www.w3.org/1999/xlink">
    <title>BUILD22</title>
    <g id="Page-1" stroke="none" stroke-width="1" fill="none" fill-rule="evenodd">
        <g id="BUILD22" fill="#FFFFFF">
            <path d="M302,541.655172 L209.200165,527 L209.200165,876.126904 C209.200165,890.490207 216.886003,903.776467 229.39229,910.986894 L248.996496,922.283503 L253.205937,895.784978 L302,588.607632 L302,541.655172 Z M206.023913,951.306089 L241.168831,971.556125 L227.908885,1055.03922 L112.754896,988.681917 C111.085137,987.7282 109.475572,986.684045 107.92785,985.582338 L162.493094,642.073318 L162.493094,876.126904 C162.493094,907.13914 179.090085,935.791749 206.023913,951.306089 Z M187.333333,1088 L99.6813028,1037.50235 L94,1073.26672 L187.333333,1088 Z" id="Shape"></path>
            <path d="M83.7945737,551.796939 L89.2909175,583 L162.620729,570.055459 L162.620729,468.301193 C162.620729,449.1791 168.898271,430.954332 179.99457,416.144342 L168.131052,348.792226 L304.857949,324.656634 C313.562961,323.120479 321.730179,322.127658 329.362071,321.679818 L438.707571,258.421648 C435.882924,257.62558 432.999071,256.903604 430.058477,256.257365 C425.194493,255.10319 420.240876,254.150707 415.195982,253.398271 C433.05581,239.56299 446.338641,222.866969 455.044475,203.308562 C461.898458,187.427543 465.079989,170.393996 464.591535,152.20792 L164.123096,326.032259 L155.99946,330.731283 L113.017953,355.597084 C94.9212984,366.066158 83.7945737,385.374302 83.7945737,406.247416 L83.7945737,551.796939 Z M495.244918,291.795579 C492.693279,289.121713 490.038028,286.582857 487.279166,284.179836 L392.638277,338.929876 C400.838387,346.84116 406.143132,357.637059 408.553333,371.319218 C412.379558,393.046025 407.228586,410.384169 393.098772,423.332826 C379.366958,435.713451 357.309219,444.585451 326.925556,449.948824 L209.199036,470.730558 L209.199036,561.832992 L301.74467,545.496725 L301.74467,535.948027 C301.74467,512.842301 314.061283,491.500767 334.04268,479.940907 L530,366.577387 C529.804289,365.286555 529.592132,363.98996 529.362707,362.688426 C524.174731,333.236385 512.802957,309.605436 495.244918,291.795579 Z M527.943394,418.829733 L356.138245,518.220493 C349.797385,521.888826 345.90702,528.648405 345.90702,535.948027 L345.90702,537.701516 L351.169004,536.772084 C417.722952,525.023703 465.995224,504.056741 495.985822,473.871198 C512.07192,457.373577 522.724992,439.026971 527.943394,418.829733 Z M454.021517,101.902524 C443.190003,76.5271405 424.19127,56.990137 397.024497,43.2915133 C360.942201,24.7695581 311.070528,21.1275682 247.40948,32.3655437 L0,76.0389624 L48.8635161,353.469022 C58.1326345,337.043845 71.7188991,323.068615 88.6034633,313.300936 L146.981147,279.52856 L155.103961,274.829537 L184.592125,257.77047 L153.079425,263.333066 L132.032309,143.835625 L248.503157,123.27534 C276.957673,118.252786 299.553204,119.490931 316.289752,126.991421 C332.529623,133.561657 342.639146,145.910176 346.618321,164.036155 L454.021517,101.902524 Z" id="Shape"></path>
            <path d="M369.37811,835.171793 L366.159279,823.149743 L344.684787,743 L344.684787,809.10483 C344.684787,816.390423 348.575338,823.149743 354.91516,826.808985 L369.37811,835.171793 Z M385.546259,895.520512 L332.823211,865.046012 C312.844262,853.500897 300.529665,832.178615 300.530488,809.10483 L300.530488,744.447251 L208,769.247869 L208,788.654188 L239.047122,904.541161 L243.261612,920.271792 L419.461142,1022.11385 L385.546259,895.520512 Z M260.314426,983.926163 L436.513956,1085.76 L465.404502,1193.59664 L289.20415,1091.7628 L260.314426,983.926163 Z M781.332526,1168.47532 L773.661596,1139.85923 L499.537262,1213.32366 L572.300101,1255.37616 C590.446413,1265.86051 612.823658,1265.86051 630.969148,1255.37616 L781.332526,1168.47532 Z M794.405171,1217.27893 L670.568575,1288.84384 L804,1253.09017 L794.405171,1217.27893 Z M587.510412,1311.10355 C573.762757,1309.28626 560.288066,1304.78827 547.890429,1297.62602 L307.068455,1158.44324 L364.015036,1371 L587.510412,1311.10355 Z" id="Shape"></path>
            <path d="M519.323666,574.647546 C507.996216,562.165095 498.204162,548.568286 489.947504,533.857119 C476.409739,509.736826 467.722021,483.432227 463.884351,454.944145 L592.2624,380.639101 C595.977731,378.488514 600.200483,377.595383 604.337022,377.960531 C595.216601,420.857957 597.182238,455.146456 610.232288,480.824383 C625.674931,511.208929 653.527191,532.183527 693.784143,543.74653 C734.049306,555.310356 768.764051,552.306935 797.936588,534.735447 C809.316587,527.883175 819.65383,518.224037 828.964739,505.757212 L848.916685,517.304589 C855.247118,520.969223 859.138979,527.721984 859.138979,535.014242 L859.138979,648.776595 C820.154682,667.370332 776.457456,674.29662 728.03088,669.554638 L728.03088,620.243281 C728.03088,611.515105 724.927243,603.234317 719.508196,596.748837 C716.806883,593.521723 713.530823,590.738707 709.778543,588.566737 L620.82242,537.078476 C609.50318,530.527204 595.551597,530.527204 584.232357,537.078476 L519.323666,574.647546 Z M462,405.024209 L570.199488,342.397305 C584.167493,334.313072 600.40575,331.873821 615.744116,335.080375 L642.942807,240.071305 L622.723192,228.367671 C610.232288,221.137915 594.828236,221.137915 582.338154,228.367671 L487.498259,283.261507 L476.8564,320.435 C468.322222,350.243864 463.370362,378.440815 462,405.024209 Z M850.714824,467.333664 L870.978776,479.063616 C890.930722,490.611816 903.230317,511.931823 903.230317,535.014242 L903.230317,620.825543 C944.677818,586.849557 975.024482,536.25525 994.27031,469.04262 L995.534755,464.61973 C994.606948,451.351061 987.159863,439.306951 975.525333,432.572283 L879.337246,376.895517 L865.09172,426.634524 C860.813957,441.59159 856.018921,455.15797 850.714824,467.333664 Z M1036.16119,322.711415 L1013.2534,402.727234 C1008.85247,398.78545 1004.0246,395.262271 998.794394,392.23829 L892.548226,330.74137 L914.930533,252.545532 L1036.16119,322.711415 Z M678.545126,115.720498 L656.154608,193.916335 L645.992252,188.033678 C619.104747,172.470501 585.956599,172.470501 559.068272,188.033678 L505.959968,218.772681 L537.237723,109.51628 L573.235796,88.6806693 C591.356762,78.1917259 613.703763,78.1917259 631.825549,88.6806693 L678.545126,115.720498 Z M656.203872,46.4271853 C625.485264,28.6476285 588.151313,27.3161561 556.442498,42.4327681 L568.590195,0 L700.796062,37.9720476 L692.380118,67.3697088 L656.203872,46.4271853 Z M1086,148.60762 L1050.00439,274.360626 L928.773735,204.193921 L955.425595,111.10352 L1086,148.60762 Z" id="Shape"></path>
            <path d="M860.172828,610 L727.424192,610 C728.394301,613.310455 728.91224,616.784582 728.91224,620.332731 L728.91224,723.379577 C728.91224,736.455256 721.940614,748.520938 710.636386,755.0596 L635,798.782276 L635,950.586157 L766.39295,874.622531 L766.39295,717.92 L860.172828,717.92 L860.172828,610 Z M766.39295,925.640544 L635.615772,1001.24228 C635.411063,1001.36565 635.206354,1001.4808 635,1001.59595 L635,1108.61616 L766.39295,1032.65253 L766.39295,925.640544 Z M904.329199,718.488329 L904.329199,610.138175 C937.321103,610.940909 968.167259,615.256426 996.851224,623.084726 L996.851224,746.6128 C992.905021,744.211179 988.819056,741.949377 984.576887,739.827396 C961.442271,727.575836 934.690301,720.462265 904.329199,718.488329 Z M886.439744,1070.07507 L794.731623,1070.07507 L646.758864,1155.6205 C642.953244,1157.82473 639.021839,1159.7082 635,1161.28734 L635,1178 L765.727028,1178 L1093.00704,988.790038 C1111.10203,978.336403 1122.22539,959.041182 1122.22539,938.191486 L1122.22539,690.788254 C1103.03698,673.087808 1080.94646,658.059577 1055.95384,645.70274 C1051.82677,643.616948 1047.65037,641.623273 1043.41642,639.72007 L1043.41642,790.944107 C1045.53751,794.094179 1047.55172,797.334723 1049.46727,800.682189 C1065.14521,826.647669 1072.98828,857.753606 1072.98828,894 C1072.98828,929.703562 1065.14521,960.809499 1049.46727,987.309586 C1034.32371,1013.8179 1012.69359,1034.37973 984.576887,1048.97863 C957.002792,1063.04292 924.290411,1070.07507 886.439744,1070.07507 Z M1171.01033,938.191486 L1171.01033,751.777932 C1194.34226,792.284738 1206,839.683869 1206,894 C1206,951.342832 1192.75556,1001.3821 1166.25844,1044.10959 C1139.76133,1086.31069 1102.99587,1119.30831 1055.95384,1143.11069 C1008.91181,1166.37023 954.5693,1178 892.926315,1178 L863.231135,1178 L1117.41596,1031.04871 C1150.58051,1011.87686 1171.01033,976.494063 1171.01033,938.191486 Z" id="Shape"></path>
            <path d="M1102.42126,338.136484 L641.682597,72.0219459 C617.445057,58.0228852 587.559056,58.0228852 563.320694,72.0219459 L102.579559,338.136484 C78.40701,352.09772 63.5273555,377.859281 63.5273555,405.728307 L63.5273555,938.273954 C63.5273555,966.140513 78.40701,991.902074 102.579559,1005.86413 L563.320694,1271.97374 C587.559056,1285.97691 617.445057,1285.97691 641.683419,1271.97374 L1102.42126,1005.86413 C1126.59957,991.902074 1141.47347,966.140513 1141.47347,938.273954 L1141.47347,405.728307 C1141.47347,377.859281 1126.59957,352.09772 1102.42126,338.136484 Z M1107.19276,329.891633 L646.449976,63.7770952 C619.262338,48.0743016 585.741776,48.0743016 558.554137,63.7770952 L97.812179,329.891633 C70.6977579,345.552491 54,374.455104 54,405.728307 L54,938.273954 C54,969.54469 70.6977579,998.447303 97.812179,1014.11145 L558.554137,1280.22105 C585.741776,1295.92632 619.262338,1295.92632 646.449976,1280.22105 L1107.19276,1014.11145 C1134.308,998.447303 1151,969.54469 1151,938.273954 L1151,405.728307 C1151,374.455104 1134.308,345.552491 1107.19276,329.891633 Z" id="Shape"></path>
            <path d="M1102.42126,338.136484 L641.682597,72.0219459 C617.445057,58.0228852 587.559056,58.0228852 563.320694,72.0219459 L102.579559,338.136484 C78.40701,352.09772 63.5273555,377.859281 63.5273555,405.728307 L63.5273555,938.273954 C63.5273555,966.140513 78.40701,991.902074 102.579559,1005.86413 L563.320694,1271.97374 C587.559056,1285.97691 617.445057,1285.97691 641.683419,1271.97374 L1102.42126,1005.86413 C1126.59957,991.902074 1141.47347,966.140513 1141.47347,938.273954 L1141.47347,405.728307 C1141.47347,377.859281 1126.59957,352.09772 1102.42126,338.136484 Z M1107.19276,329.891633 L646.449976,63.7770952 C619.262338,48.0743016 585.741776,48.0743016 558.554137,63.7770952 L97.812179,329.891633 C70.6977579,345.552491 54,374.455104 54,405.728307 L54,938.273954 C54,969.54469 70.6977579,998.447303 97.812179,1014.11145 L558.554137,1280.22105 C585.741776,1295.92632 619.262338,1295.92632 646.449976,1280.22105 L1107.19276,1014.11145 C1134.308,998.447303 1151,969.54469 1151,938.273954 L1151,405.728307 C1151,374.455104 1134.308,345.552491 1107.19276,329.891633 Z" id="Shape"></path>
            <path d="M859.069285,500.991615 L622.606556,364.285322 C610.166688,357.093761 594.829201,357.093761 582.390155,364.285322 L345.931537,500.991615 C333.526204,508.163433 325.889117,521.398143 325.889117,535.71463 L325.889117,809.285987 C325.889117,823.600006 333.526204,836.836361 345.931537,844.009824 L582.390155,980.71694 C594.829201,987.906855 610.16751,987.906855 622.606556,980.71694 L859.069285,844.009824 C871.468862,836.836361 879.107594,823.600006 879.107594,809.285987 L879.107594,535.71463 C879.107594,521.398143 871.468862,508.163433 859.069285,500.991615 Z M861.511377,496.755817 L625.052759,360.049524 C611.099945,351.983492 593.896766,351.983492 579.943952,360.049524 L343.484512,496.755817 C329.5687,504.801283 321,519.648377 321,535.71463 L321,809.285987 C321,825.35224 329.5687,840.200979 343.484512,848.246445 L579.943952,984.953561 C593.896766,993.01548 611.099945,993.01548 625.052759,984.953561 L861.511377,848.246445 C875.4239,840.200979 884,825.35224 884,809.285987 L884,535.71463 C884,519.648377 875.4239,504.801283 861.511377,496.755817 Z" id="Shape"></path>
            <path d="M986.709313,416.448356 L633.072457,212.355921 C614.469088,201.618756 591.530089,201.618756 572.925897,212.355921 L219.286572,416.448356 C200.733406,427.15593 189.312464,446.913201 189.312464,468.28643 L189.312464,876.710488 C189.312464,898.081251 200.733406,917.840988 219.286572,928.551028 L572.92672,1132.64182 C591.530089,1143.37652 614.469088,1143.37652 633.072457,1132.64182 L986.709313,928.551028 C1005.26824,917.840988 1016.68342,898.081251 1016.68342,876.710488 L1016.68342,468.28643 C1016.68342,446.913201 1005.26824,427.15593 986.709313,416.448356 Z M990.371718,410.125075 L636.73157,206.031819 C615.864093,193.989394 590.135083,193.989394 569.267607,206.031819 L215.628282,410.124254 C194.815947,422.135445 182,444.301858 182,468.28643 L182,876.710488 C182,900.69506 194.815947,922.863117 215.628282,934.871842 L569.267607,1138.96263 C590.135083,1151.01246 615.864093,1151.01246 636.73157,1138.96263 L990.371718,934.871842 C1011.1857,922.863117 1024,900.69506 1024,876.710488 L1024,468.28643 C1024,444.301858 1011.1857,422.135445 990.371718,410.125075 Z" id="Shape"></path>
            <path d="M347.636126,656.34281 L346.975549,642.718152 L371.549864,617 L384.75316,617 L362.600688,640.678513 L355.998214,647.672499 L347.636126,656.34281 Z M337,668 L337,617 L348.809477,617 L348.809477,668 L337,668 Z M372.136126,668 L353.871154,645.778841 L361.646979,637.399672 L386,668 L372.136126,668 Z" id="Shape" fill-rule="nonzero"></path>
            <polygon id="Path" fill-rule="nonzero" points="390 668 390 617 402 617 402 668"></polygon>
            <polygon id="Path" fill-rule="nonzero" points="415 668 415 617 424.601178 617 454.19352 653.720066 449.53569 653.720066 449.53569 617 461 617 461 668 451.470605 668 421.807287 631.279934 426.46431 631.279934 426.46431 668"></polygon>
            <path d="M498.17154,669 C494.090585,669 490.330063,668.365496 486.888313,667.096489 C483.495542,665.778864 480.52116,663.923972 477.965167,661.532635 C475.457323,659.141298 473.490727,656.335474 472.065382,653.114338 C470.688184,649.893203 470,646.355639 470,642.5 C470,638.644361 470.688184,635.105973 472.065382,631.885662 C473.490727,628.664526 475.482227,625.857878 478.03822,623.466541 C480.595042,621.075204 483.594329,619.245032 487.035248,617.976849 C490.476997,616.659224 494.262423,616 498.392356,616 C502.964752,616 507.069781,616.75646 510.708273,618.26938 C514.395743,619.7823 517.492985,621.978342 520,624.857505 L512.330361,631.885662 C510.462553,629.933533 508.422075,628.493128 506.209759,627.566093 C503.997443,626.590441 501.588385,626.101791 498.982584,626.101791 C496.475569,626.101791 494.189371,626.492382 492.123989,627.273563 C490.059438,628.05392 488.264681,629.177073 486.740549,630.640552 C485.265395,632.104854 484.110674,633.83779 483.274726,635.838537 C482.487755,637.839283 482.09427,640.060045 482.09427,642.5 C482.09427,644.891337 482.487755,647.087378 483.274726,649.088125 C484.110674,651.088871 485.265395,652.845704 486.740549,654.358624 C488.264681,655.822927 490.034534,656.945256 492.050107,657.726437 C494.115489,658.506794 496.376783,658.897385 498.834819,658.897385 C501.1949,658.897385 503.481098,658.531515 505.693414,657.799776 C507.954708,657.018595 510.14295,655.725691 512.257309,653.919416 L519.042022,662.48439 C516.239478,664.583196 512.969567,666.193352 509.233119,667.315681 C505.545649,668.438835 501.859009,669 498.17154,669 Z M508.127376,660.947573 L508.127376,641.694922 L519.042022,641.694922 L519.042022,662.48439 L508.127376,660.947573 Z" id="Shape" fill-rule="nonzero"></path>
            <path d="M530,668 L530,617 L553.036888,617 C558.542908,617 563.396556,618.068617 567.597832,620.20585 C571.799923,622.294697 575.083801,625.233188 577.450281,629.021323 C579.81676,632.810279 581,637.302898 581,642.5 C581,647.648715 579.81676,652.141334 577.450281,655.978677 C575.083801,659.766812 571.799923,662.729907 567.597832,664.867141 C563.396556,666.955167 558.542908,668 553.036888,668 L530,668 Z M541.736173,658.309459 L552.457092,658.309459 C555.83801,658.309459 558.759822,657.677966 561.223341,656.415801 C563.734158,655.104429 565.665995,653.258338 567.018852,650.878349 C568.419005,648.49836 569.11949,645.70585 569.11949,642.5 C569.11949,639.245763 568.419005,636.452433 567.018852,634.121651 C565.665995,631.741662 563.734158,629.920175 561.223341,628.65719 C558.759822,627.345817 555.83801,626.689721 552.457092,626.689721 L541.736173,626.689721 L541.736173,658.309459 Z" id="Shape" fill-rule="nonzero"></path>
            <path d="M615.07283,669 C611.027274,669 607.274684,668.340776 603.814237,667.023151 C600.402342,665.705526 597.429896,663.851457 594.895252,661.46012 C592.409984,659.068783 590.460448,656.262135 589.046643,653.040999 C587.682214,649.820688 587,646.306197 587,642.5 C587,638.692979 587.682214,635.179312 589.046643,631.958177 C590.460448,628.737865 592.433849,625.931217 594.968493,623.53988 C597.503137,621.148543 600.475584,619.294474 603.887478,617.976849 C607.299373,616.659224 611.003409,616 614.999589,616 C619.045144,616 622.749181,616.659224 626.111699,617.976849 C629.523593,619.294474 632.472174,621.148543 634.958265,623.53988 C637.492087,625.931217 639.466311,628.737865 640.879293,631.958177 C642.293098,635.130694 643,638.644361 643,642.5 C643,646.306197 642.293098,649.844585 640.879293,653.114338 C639.466311,656.335474 637.492087,659.141298 634.958265,661.532635 C632.472174,663.875354 629.523593,665.705526 626.111699,667.023151 C622.749181,668.340776 619.069009,669 615.07283,669 Z M614.999589,658.897385 C617.290644,658.897385 619.38584,658.506794 621.286823,657.726437 C623.236359,656.945256 624.942306,655.822927 626.404664,654.358624 C627.866199,652.895146 628.987039,651.16221 629.767182,649.161463 C630.595879,647.160717 631.009816,644.939955 631.009816,642.5 C631.009816,640.060045 630.595879,637.839283 629.767182,635.838537 C628.987039,633.83779 627.866199,632.104854 626.404664,630.640552 C624.99086,629.177073 623.3096,628.05392 621.360064,627.273563 C619.410528,626.492382 617.290644,626.101791 614.999589,626.101791 C612.709356,626.101791 610.588649,626.492382 608.639113,627.273563 C606.738953,628.05392 605.056871,629.177073 603.595336,630.640552 C602.132978,632.104854 600.98745,633.83779 600.158753,635.838537 C599.379432,637.839283 598.989361,640.060045 598.989361,642.5 C598.989361,644.891337 599.379432,647.112099 600.158753,649.161463 C600.98745,651.16221 602.10829,652.895146 603.522094,654.358624 C604.983629,655.822927 606.689577,656.945256 608.639113,657.726437 C610.588649,658.506794 612.709356,658.897385 614.999589,658.897385 Z" id="Shape" fill-rule="nonzero"></path>
            <polygon id="Path" fill-rule="nonzero" points="652 668 652 617 661.847339 617 683.751462 652.990979 678.538165 652.990979 700.06991 617 709.851049 617 710 668 698.820374 668 698.754173 633.97567 700.806392 633.97567 683.610786 662.608529 678.240263 662.608529 660.672278 633.97567 663.171351 633.97567 663.171351 668"></polygon>
            <path d="M520.801237,730 C516.839422,730 513.147619,729.365496 509.724175,728.096489 C506.350275,726.778864 503.415658,724.923972 500.921978,722.532635 C498.427471,720.141298 496.471336,717.335474 495.053571,714.114338 C493.684524,710.893203 493,707.355639 493,703.5 C493,699.644361 493.684524,696.105973 495.053571,692.885662 C496.471336,689.664526 498.427471,686.857878 500.921978,684.466541 C503.465202,682.075204 506.423764,680.245032 509.797664,678.976849 C513.172391,677.659224 516.864194,677 520.8739,677 C525.324542,677 529.334249,677.781181 532.904671,679.342719 C536.522985,680.855639 539.555037,683.100299 542,686.077521 L534.371154,693.104854 C532.610714,691.104108 530.654579,689.615908 528.502747,688.639432 C526.351741,687.614338 524.004213,687.102615 521.460989,687.102615 C519.064743,687.102615 516.864194,687.492382 514.859341,688.273563 C512.854488,689.05392 511.117994,690.177073 509.650686,691.640552 C508.184203,693.104854 507.034798,694.83779 506.203296,696.838537 C505.421337,698.839283 505.029945,701.060045 505.029945,703.5 C505.029945,705.939955 505.421337,708.160717 506.203296,710.161463 C507.034798,712.16221 508.184203,713.895146 509.650686,715.358624 C511.117994,716.822927 512.854488,717.945256 514.859341,718.726437 C516.864194,719.507618 519.064743,719.897385 521.460989,719.897385 C524.004213,719.897385 526.351741,719.409559 528.502747,718.433907 C530.654579,717.408812 532.610714,715.871171 534.371154,713.821807 L542,720.84914 C539.555037,723.826363 536.522985,726.095743 532.904671,727.657281 C529.334249,729.218819 525.299771,730 520.801237,730 Z" id="Path" fill-rule="nonzero"></path>
            <path d="M574.07283,730 C570.027274,730 566.274684,729.340776 562.814237,728.023151 C559.403165,726.705526 556.429896,724.851457 553.895252,722.46012 C551.409984,720.068783 549.460448,717.262135 548.046643,714.040999 C546.682214,710.820688 546,707.306197 546,703.5 C546,699.692979 546.682214,696.179312 548.046643,692.958177 C549.460448,689.737865 551.433849,686.931217 553.968493,684.53988 C556.503137,682.148543 559.475584,680.294474 562.887478,678.976849 C566.299373,677.659224 570.003409,677 573.999589,677 C578.045144,677 581.749181,677.659224 585.111699,678.976849 C588.523593,680.294474 591.472174,682.148543 593.958265,684.53988 C596.492087,686.931217 598.466311,689.737865 599.879293,692.958177 C601.293098,696.130694 602,699.644361 602,703.5 C602,707.306197 601.293098,710.844585 599.879293,714.114338 C598.466311,717.335474 596.492087,720.141298 593.958265,722.532635 C591.472174,724.875354 588.523593,726.705526 585.111699,728.023151 C581.749181,729.340776 578.069832,730 574.07283,730 Z M573.999589,719.897385 C576.290644,719.897385 578.38584,719.507618 580.286823,718.726437 C582.236359,717.945256 583.942306,716.822927 585.404664,715.358624 C586.867022,713.895146 587.987862,712.16221 588.767182,710.161463 C589.595879,708.160717 590.010639,705.939955 590.010639,703.5 C590.010639,701.060045 589.595879,698.839283 588.767182,696.838537 C587.987862,694.83779 586.867022,693.104854 585.404664,691.640552 C583.99086,690.177073 582.3096,689.05392 580.360064,688.273563 C578.410528,687.492382 576.290644,687.102615 573.999589,687.102615 C571.709356,687.102615 569.589472,687.492382 567.639936,688.273563 C565.738953,689.05392 564.057694,690.177073 562.595336,691.640552 C561.132978,693.104854 559.98745,694.83779 559.158753,696.838537 C558.379432,698.839283 557.989361,701.060045 557.989361,703.5 C557.989361,705.891337 558.379432,708.112099 559.158753,710.161463 C559.98745,712.16221 561.10829,713.895146 562.522094,715.358624 C563.984452,716.822927 565.6904,717.945256 567.639936,718.726437 C569.589472,719.507618 571.709356,719.897385 573.999589,719.897385 Z" id="Shape" fill-rule="nonzero"></path>
            <path d="M612,729 L612,678 L635.035415,678 C640.540267,678 645.393605,679.068617 649.595427,681.20585 C653.793988,683.294697 657.080102,686.233188 659.4448,690.021323 C661.809497,693.810279 663,698.302898 663,703.5 C663,708.648715 661.809497,713.141334 659.4448,716.978677 C657.080102,720.766812 653.793988,723.729907 649.595427,725.867141 C645.393605,727.955167 640.540267,729 635.035415,729 L612,729 Z M623.734607,719.309459 L634.455656,719.309459 C637.836358,719.309459 640.757982,718.678786 643.220529,717.415801 C645.732001,716.104429 647.663714,714.258338 649.015669,711.878349 C650.416548,709.49836 651.116172,706.70585 651.116172,703.5 C651.116172,700.245763 650.416548,697.452433 649.015669,695.121651 C647.663714,692.741662 645.732001,690.920175 643.220529,689.65719 C640.757982,688.345817 637.836358,687.689721 634.455656,687.689721 L623.734607,687.689721 L623.734607,719.309459 Z" id="Shape" fill-rule="nonzero"></path>
            <path d="M681.723988,698.545653 L705.966355,698.545653 L705.966355,707.72526 L681.723988,707.72526 L681.723988,698.545653 Z M682.582555,719.528431 L710,719.528431 L710,729 L671,729 L671,678 L709.060436,678 L709.060436,687.471569 L682.582555,687.471569 L682.582555,719.528431 Z" id="Shape" fill-rule="nonzero"></path>
        </g>
    </g>
</svg>