<?xml version="1.0" encoding="UTF-8"?>
<svg width="1275px" height="461px" viewBox="0 0 1275 461" version="1.1" xmlns="http://www.w3.org/2000/svg" xmlns:xlink="http://www.w3.org/1999/xlink">
    <g id="Build/Logo" stroke="none" stroke-width="1" fill="none" fill-rule="evenodd">
        <g id="Logo/Mark">
            <g id="Mark">
                <path d="M216.024742,8.35434396 L384.024742,105.549331 C393.911631,111.269307 400,121.825554 400,133.247844 L400,327.752156 C400,339.174446 393.911631,349.730693 384.024742,355.450669 L216.024742,452.645656 C206.11134,458.380972 193.88866,458.380972 183.975258,452.645656 L15.975258,355.450669 C6.08836894,349.730693 -3.41283097e-14,339.174446 0,327.752156 L0,133.247844 C-4.95154076e-15,121.825554 6.08836894,111.269307 15.975258,105.549331 L183.975258,8.35434396 C193.88866,2.6190285 206.11134,2.6190285 216.024742,8.35434396 Z" id="Polygon-1" fill="#EE5C53"></path>
                <path d="M109.23081,338.415909 L88.1476149,338.415909 C84.9090865,338.415909 82.2837406,335.790563 82.2837406,332.552035 C82.2837406,331.873042 82.4016673,331.199208 82.6322638,330.560572 L181.182842,57.625 L201.86865,57.625 C205.107179,57.625 207.732525,60.250346 207.732525,63.4888743 C207.732525,64.1653293 207.615478,64.8366834 207.386563,65.4732283 L109.23081,338.415909 Z M292.009785,128.581154 L307.785633,143.842752 C310.113241,146.094486 310.174748,149.806777 307.923014,152.134385 C307.909619,152.148231 307.896156,152.162011 307.882625,152.175725 L228.642938,232.48616 C234.911518,238.808454 241.316275,245.199372 247.857401,251.659107 C254.398528,258.118842 261.212099,264.784639 268.29832,271.656698 C275.38454,278.803639 282.743197,286.156631 290.374511,293.715895 C298.005826,301.27516 305.228211,308.353274 312.041885,314.95045 L296.573491,330.876409 C294.317121,333.199524 290.604716,333.253631 288.281601,330.997262 C288.257995,330.974334 288.234582,330.951208 288.211365,330.927886 L190.214012,232.48616 L292.009785,128.581154 Z" id="/&lt;" stroke="#FFFFFF" stroke-width="8.79581152" fill="#FFFFFF"></path>
            </g>
        </g>
        <path d="M599.87049,183.872516 C599.87049,175.237664 598.250035,167.142491 595.009125,159.586995 C591.768216,151.76166 587.176927,145.285521 581.505335,139.6189 C575.833743,133.682439 569.081848,129.365013 561.249649,125.857104 C553.417451,122.619035 545.315176,121 536.942826,121 L443.549085,121 C438.136694,121 433.749085,125.387609 433.749085,130.8 C433.749085,133.387893 434.772705,135.870734 436.596561,137.706693 L454.688268,155.918454 C455.476704,156.712122 456.549199,157.158443 457.667921,157.158443 L536.942826,157.158443 C540.453812,157.158443 543.964797,157.698121 547.205707,159.047317 C550.716692,160.396512 553.687526,162.285386 556.118209,164.983778 C558.548891,167.41233 560.439422,170.38056 561.789801,173.61863 C563.14018,176.856699 563.950407,180.364608 563.950407,183.872516 C563.950407,187.650264 563.14018,191.158173 561.789801,194.396242 C560.439422,197.634312 558.548891,200.602542 556.118209,203.031094 C553.687526,205.729486 550.716692,207.618359 547.205707,208.967555 C543.964797,210.58659 540.453812,211.126268 536.942826,211.126268 L425.6,211.126268 C422.507205,211.126268 420,213.633474 420,216.726268 L420,241.414872 C420,244.507666 422.507205,247.014872 425.6,247.014872 L536.942826,247.014872 C540.723887,247.014872 544.234873,247.824389 547.745858,249.173585 C550.986768,250.522781 553.687526,252.681494 556.118209,255.110046 C558.548891,257.538598 560.439422,260.506828 561.789801,263.744898 C563.14018,266.982967 563.950407,270.490876 563.950407,273.998784 C563.950407,277.506693 563.14018,281.014602 561.789801,284.252671 C560.439422,287.490741 558.548891,290.458971 556.118209,292.887523 C553.687526,295.585915 550.716692,297.474788 547.205707,298.823984 C543.964797,300.17318 540.453812,300.712858 536.942826,300.712858 L461.520083,300.712858 C458.427288,300.712858 455.920083,303.220063 455.920083,306.312858 L455.920083,331.271301 C455.920083,334.364095 458.427288,336.871301 461.520083,336.871301 L536.942826,336.871301 C545.585252,336.871301 553.687526,335.252266 561.249649,332.014197 C569.081848,328.506288 575.833743,324.188862 581.505335,318.252401 C587.176927,312.585779 591.768216,306.10964 595.009125,298.284306 C598.250035,290.72881 599.87049,282.633637 599.87049,273.998784 C599.87049,256.189402 593.658746,241.078411 580.965183,228.93565 C593.658746,216.523051 599.87049,201.41206 599.87049,183.872516 Z M778.690685,247.014872 C778.690685,261.586185 773.019093,274.268624 762.486136,284.79235 C751.95318,295.316075 739.259617,300.712858 724.405447,300.712858 C709.551278,300.712858 696.587639,295.585915 686.054682,284.79235 C675.791801,274.538463 670.660361,261.856024 670.660361,247.014872 L670.660361,126.6 C670.660361,123.507205 668.153155,121 665.060361,121 L640.340278,121 C637.247483,121 634.740278,123.507205 634.740278,126.6 L634.740278,247.014872 C634.740278,271.570232 643.382704,293.157362 660.937632,310.696906 C678.492559,328.236449 699.828548,336.871301 724.405447,336.871301 C748.982346,336.871301 770.588411,328.236449 788.143338,310.696906 C805.968342,293.157362 814.610768,271.840071 814.610768,247.014872 C814.610768,247.014872 778.690685,247.014872 778.690685,247.014872 Z M885.130563,171.863475 L856.381561,143.355635 C854.734465,141.722356 852.075195,141.733557 850.441916,143.380653 C849.660507,144.168673 849.222738,145.23393 849.224251,146.343693 L849.481696,335.141643 C849.484859,337.461237 851.367825,339.339075 853.687419,339.335912 C854.804156,339.33439 855.874308,338.888187 856.661345,338.095928 L885.415643,309.150821 L885.130563,171.863475 Z M957.180788,300.712858 L930.744454,327.324619 C928.564762,329.518775 928.576487,333.06448 930.770643,335.244172 C931.819762,336.286375 933.238529,336.871301 934.717325,336.871301 L1059.61111,336.871301 C1062.70391,336.871301 1065.21111,334.364095 1065.21111,331.271301 L1065.21111,300.712858 L957.180788,300.712858 Z M921.260705,126.6 L921.260705,274.46617 C921.260705,276.785766 923.141109,278.66617 925.460705,278.66617 C926.579428,278.66617 927.651922,278.219849 928.440358,277.426181 L957.180788,248.495034 L957.180788,121 L926.860705,121 C923.76791,121 921.260705,123.507205 921.260705,126.6 Z M1266.62765,187.380425 C1260.68598,174.158308 1253.12386,162.825065 1243.13105,152.841017 C1233.40833,143.126808 1221.79507,135.301474 1208.83143,129.634852 C1195.59771,123.96823 1181.82385,121 1166.96968,121 L1115.31444,121 C1110.67525,121 1106.91444,124.760808 1106.91444,129.4 C1106.91444,131.618194 1107.79183,133.746344 1109.35513,135.320022 L1131.04959,157.158443 L1166.96968,157.158443 C1176.6924,157.158443 1186.14506,159.047317 1194.78748,162.555225 C1203.42991,166.332973 1211.26211,171.729756 1217.74393,178.205895 C1224.49582,184.951873 1229.62726,192.507368 1233.40833,201.14222 C1237.18939,210.046912 1239.07992,219.221442 1239.07992,228.93565 C1239.07992,238.649859 1237.18939,247.824389 1233.40833,256.72908 C1229.62726,265.363932 1224.49582,272.919428 1218.014,279.665406 C1211.53218,286.411384 1203.69999,291.538328 1195.05756,295.316075 C1186.41513,298.823984 1176.96248,300.712858 1166.96968,300.712858 L1131.04959,300.712858 L1109.35513,322.551279 C1106.0856,325.842513 1106.10318,331.161069 1109.39442,334.430607 C1110.9681,335.993912 1113.09625,336.871301 1115.31444,336.871301 L1166.96968,336.871301 C1181.82385,336.871301 1195.86779,333.90307 1208.83143,328.236449 C1222.06514,322.569827 1233.6784,314.744493 1243.40113,305.030284 C1253.12386,295.046236 1260.68598,283.712993 1266.62765,270.490876 C1272.29924,257.538598 1275,243.776802 1275,228.93565 C1275,214.094498 1272.29924,200.332703 1266.62765,187.380425 Z" id="BUILD" fill="#FFFFFF"></path>
    </g>
</svg>
