<svg width="599" height="623" viewBox="0 0 599 623" fill="none" xmlns="http://www.w3.org/2000/svg">
<g clip-path="url(#clip0_727_148)">
<path d="M338.229 149.563C338.229 66.9804 270.393 0 186.757 0C103.12 0 35.1654 66.9804 35.1654 149.563C35.1654 197.892 58.3318 240.707 94.3291 268.157C37.8979 301.47 0 362.468 0 432.147C0 537.603 86.6067 623 193.291 623C266.473 623 330.151 582.882 362.94 523.761L452.517 609.276H599L256.375 282.467C304.965 257.599 338.11 207.393 338.11 149.679L338.229 149.563ZM186.757 100.529C214.2 100.529 236.416 122.465 236.416 149.563C236.416 176.659 214.2 198.595 186.757 198.595C159.314 198.595 137.098 176.659 137.098 149.563C137.098 122.465 159.314 100.529 186.757 100.529ZM275.264 440.123C271.225 481.297 236.06 513.555 193.291 513.555C147.79 513.555 110.843 477.074 110.843 432.147C110.843 390.856 141.969 356.838 182.361 351.559L275.264 440.123Z" fill="#12143D"/>
<path d="M560.755 336.543L567.645 15.2484H463.813L470.703 336.543H560.755Z" fill="#12143D"/>
<path d="M515.729 469.333C544.36 469.333 567.645 446.342 567.645 418.072C567.645 389.802 544.36 366.811 515.729 366.811C487.097 366.811 463.813 389.802 463.813 418.072C463.813 446.342 487.097 469.333 515.729 469.333Z" fill="#12143D"/>
</g>
<defs>
<clipPath id="clip0_727_148">
<rect width="599" height="623" fill="white"/>
</clipPath>
</defs>
</svg>
