<svg height="244" viewBox="0 0 244 244" width="244" xmlns="http://www.w3.org/2000/svg"><g fill="white"><path d="m125.987849 88.8283399v-34.5586376h-6.116069l-31.843759 34.0432644v90.7343183h68.798599v-90.2189451zm-7.121057-23.0486357v23.0486357h-21.5641685zm-23.717714 30.1779653h23.717714v43.2913505l-23.717714 25.339183zm54.556485 75.9889185h-51.6850911l27.9673771-29.891647v-46.0972715h23.717714z"/><path d="m67.3690177 13.8460883 15.9584779 28.9537894-6.1756135 3.3507353-.057716-.1431939-15.987336-28.9824281 6.1756136-3.3507353z"/><path d="m162.598749 35.6953835 14.739255 7.5368765-2.987687 5.9095964-20.942261-10.6772418.085363-.1427438 14.85307-29.3481405 6.174553 3.1403652-.056909.1427439z"/><path d="m214.606324 52.009102-6.131226 4.4105463 8.480575 12.1146824-4.927902 3.3508696-8.423273-12.1433223-6.217178 4.496466 9.082237 13.0597994-5.013853 3.4654293-.114603-.1431996-12.892765-18.3581829.143253-.1145597 27.017506-18.988261.114602.1431996 12.892765 18.3868228-4.89925 3.3795095z"/><path d="m157.659877 209.77821 3.250344 6.867717 13.372031-6.235542 2.309455 5.229809-13.37203 6.149337 3.221832 7.212539 14.426967-6.637835 2.452014 5.373486-.142559.086206-20.357419 9.338945-.057024-.172411-13.628637-30.143243.142559-.086206 20.35742-9.338945 2.452014 5.632102z"/><path d="m38.6063346 165.207219c-4.4910041-.802202-9.0678235.257851-12.9009097 2.950959-7.9236187 5.558116-9.6685311 15.843496-4.0333222 23.894169 3.4326146 4.899164 8.7245621 7.506322 14.13093 7.506322 3.3754043 0 6.7794137-1.031403 9.8115566-3.122859 7.8950135-5.529466 9.7257412-16.101347 4.1477426-24.03742-2.6888814-3.839111-6.6363882-6.388968-11.1559973-7.191171zm-13.0439354 15.385095c.4862871-2.635808 2.0023585-4.985115 4.3479785-6.618169 1.887938-1.317904 4.004717-1.948206 6.0642857-1.948206 3.1751685 0 6.2359165 1.489804 8.1810647 4.268862 1.5732817 2.234707 2.1739892 4.899165 1.6877022 7.506322-.4862871 2.664458-2.0309636 5.042415-4.3765836 6.70412-2.3170148 1.633054-5.0345013 2.292006-7.6661725 1.833605-2.603066-.458401-4.9200809-1.948206-6.5219677-4.211562-1.5732816-2.263357-2.2025943-4.956465-1.7163073-7.563622z"/><path d="m95.2924694 214.169895v.143664s-6.1162169 2.097498-6.1162169 2.097498l-.0571609-.20113c-.885994-3.792736-3.1152693-6.723487-6.2876995-8.27506-2.5436603-1.235513-5.3445446-1.40791-7.8596245-.488459-2.5722407.919451-4.7157746 2.902018-5.9733145 5.574173-2.5436603 5.315577-.4858677 11.234543 4.7729355 13.791767 3.2295912 1.551573 7.0593718 1.494108 10.5176065-.172398l.1714828-.086198 2.400758 6.033898-.1429023.086198c-2.3721775 1.264246-5.115901 1.925101-7.9167853 1.925101-2.8008844 0-5.6589296-.632122-8.2883312-1.896368-8.8885208-4.309927-12.2610142-13.877965-8.0025267-22.756415 4.2584874-8.907183 14.1187435-12.41259 22.8929424-8.160129 5.2873837 2.557224 8.9742621 7.211945 9.8602561 12.41259z"/><path d="m118.795096 210.669002 6.809107.028733.028021 33.302265-6.837128-.028734z"/><path d="m200.672394 176.536593 21.106941 16.117671-4.232829 5.622444-21.10694-16.117672-5.634238 7.525425-5.348235-4.06546.114401-.144165 15.444102-20.529127 5.319636 4.065459z"/><path d="m244 133.042152-.865063 6.863654-11.505344-1.458526-23.097194 8.550969 1.009241-7.921801.115342-.028599 14.907926-4.94755-13.293141-8.665363 1.009241-7.921801 20.213648 14.070491z"/><path d="m129.180221 15.0694073c2.455428-1.121578 4.111414-3.7961102 4.111414-6.67195131 0-2.12812241-.856545-4.22748641-2.369773-5.75168219-1.713089-1.72550465-4.168516-2.6457738-7.080767-2.6457738h-14.447049v33.1584478.1725504h15.103733c3.169214 0 5.853053-1.0065443 7.766002-2.9045995 1.798744-1.7830214 2.769494-4.1987279 2.769494-6.8732602 0-4.1699695-2.227016-7.3621532-5.824502-8.5124896zm-13.447747 12.4811504v-9.2026915h7.7089c1.655986 0 3.026457.4888929 3.940104 1.4379205.799442.8339939 1.227714 1.955572 1.227714 3.1634252 0 1.1503364-.456824 2.3006729-1.256265 3.1059084-.942199.9490275-2.284119 1.4666789-3.911553 1.4666789h-7.7089zm0-21.79887552h7.166422.085654c2.655288.02875841 4.025759 1.8405383 4.025759 3.65231819 0 1.00654443-.371169 1.95557193-1.056405 2.64577383-.799441.8052355-1.9415 1.2366116-3.340523 1.2366116h-6.880907z"/><path d="m39.846989 53.9888782c.4858956-2.6745936-.7145524-5.5792597-3.0582841-7.2185267-1.7435078-1.23664-3.9443291-1.7255442-6.0308221-1.3516763-2.4008959.4313861-4.5731351 1.9556168-6.2308966 4.3426197l-8.2888076 11.9062551 27.0100797 19.0097455.1429105.0862772 8.6603747-12.4814365c1.800672-2.6170755 2.5438065-5.4067053 2.086493-8.0812988-.4001494-2.5020391-1.8292541-4.7164876-4.0014933-6.2407183-3.3726872-2.3870028-7.2884342-2.3870028-10.2895542-.0575181zm2.4580602 18.2332506-7.4885089-5.2629099 4.4302247-6.3557545c.9717913-1.3804354 2.1436571-2.2144484 3.4298514-2.4157619 1.1147017-.2013135 2.2865676.0862772 3.2869409.8052539.9432092.6614586 1.6005973 1.6967852 1.800672 2.8183889.2286568 1.3229173-.1143284 2.7321117-1.0575375 4.0550289l-4.4302247 6.3557546zm-17.778063-12.4814365 4.1158216-5.9243685s0-.0287591.0571642-.0575182c1.5434331-2.1569302 3.8014186-2.2719665 5.2591055-1.23664.8288807.5751814 1.3719405 1.4091945 1.5434331 2.3870028.2000747 1.1216038-.1143284 2.3294847-.914627 3.4798476l-3.9443291 5.6655368z"/><path d="m25.5723665 140.706827 5.2222478 3.004269.0856107-.115549c2.5397817-3.206479 3.6812567-7.279574 3.1961298-11.468218-.3709793-3.235366-1.6836755-6.037425-3.7097936-7.915092-1.9975811-1.848781-4.5658997-2.657623-7.2483659-2.368751h-.0856106c-3.2246667.404421-5.8500591 2.484299-7.448124 6.29741l-.0856106.20221c-.5992744 1.44436-.91318 2.917607-1.3126962 4.419741v.173323c-.2853687.953278-.5422006 1.935443-.8561062 2.859833-.7419587 2.224314-1.6551387 3.235366-3.0819824 3.40869-.1141475 0-.228295 0-.37097933 0-.85610621 0-1.68367554-.375534-2.34002364-1.068827-.74195871-.779954-1.22708556-1.964329-1.36976993-3.29314-.39951623-3.40869.88464308-6.759605 3.53857233-9.215017l.28536874-.259985-5.07956351-3.350915-.08561062.086662c-3.59564608 3.206479-5.3078585 8.059528-4.70858415 13.345886.39951623 3.553125 1.74074929 6.499619 3.85247794 8.521723 1.76928616 1.704345 4.05223605 2.599848 6.47787027 2.599848.3709794 0 .7704956 0 1.1700119-.057774h.1426843c3.5671092-.433308 5.878596-2.599848 7.3339766-6.759605l.0570737-.115548c.5136637-1.44436 1.0558643-3.322028 1.4839174-4.85305l.1141475-.404421c.2568319-.895503.4851269-1.733231.684885-2.36875.4851268-1.328811 1.2270856-2.88872 2.939298-3.09093.7990324-.115549 1.4839174.086661 2.1117286.577744.8275694.664405 1.3983068 1.848781 1.5409912 3.322028.2568319 2.137652-.3424425 5.315244-2.2258761 7.597333l-.1712213.231097z"/></g></svg>
