<svg width="256" height="130" viewBox="0 0 256 130" fill="none" xmlns="http://www.w3.org/2000/svg">
<path fill-rule="evenodd" clip-rule="evenodd" d="M96.3065 103.225C98.7325 103.225 100.717 101.229 100.717 98.7849V30.997C100.717 28.5541 98.7325 26.5531 96.3065 26.5531H29.03C26.6034 26.5531 24.6208 28.5541 24.6208 30.997V98.7849C24.6208 101.229 26.6034 103.225 29.03 103.225H96.3065ZM52.4495 42.9251V85.4529L64.6307 85.3918C70.648 85.3918 75.5262 80.4752 75.5262 74.4147C75.5262 69.7286 72.6144 65.7368 68.5176 64.1589C72.6144 62.58 75.5262 58.5855 75.5262 53.9015C75.5262 47.8394 70.648 42.9251 64.6307 42.9251H52.4495ZM43.5163 38.0053H61.067C61.2968 38.0033 61.5277 38.0011 61.7593 37.9989C66.6142 37.9523 71.8264 37.9022 75.5202 39.6459C80.8236 42.1494 84.1261 47.5996 84.1261 53.2129V53.3358C84.089 57.474 82.2225 61.5112 78.9219 64.156C78.9219 64.156 85.9319 65.7846 85.9319 75.2542C85.9319 76.2287 85.8213 77.2103 85.5911 78.1848C84.1275 84.4081 78.5778 90.4436 63.526 90.4436H43.5163V38.0053Z" fill="white"/>
<path d="M118.03 60.2142C118.64 60.3291 119.439 60.3291 120.507 60.3291C123.516 60.3291 126.221 59.2161 126.221 56.0309C126.221 52.9975 123.592 51.7692 120.354 51.7692H118.03V60.2142ZM118.03 48.3532H120.43C123.707 48.3532 125.497 46.8173 125.497 44.6301C125.497 42.1735 123.668 41.0598 120.697 41.0598C119.325 41.0598 118.525 41.1359 118.03 41.2515V48.3532ZM113.382 38.1423C114.867 37.8349 117.573 37.5664 120.24 37.5664C123.668 37.5664 125.84 38.0274 127.555 39.2172C129.155 40.1766 130.221 41.8661 130.221 44.0922C130.221 46.472 128.736 48.6217 125.955 49.658V49.7728C128.66 50.4644 131.135 52.6135 131.135 56.1456C131.135 58.4485 130.145 60.2529 128.697 61.5195C126.868 63.0929 123.859 63.8992 119.135 63.8992C116.544 63.8992 114.602 63.7078 113.382 63.554V38.1423Z" fill="white"/>
<path d="M135.138 63.8115V45.1179H139.824V63.8115H135.138ZM140.129 39.8976C140.129 41.2792 139.1 42.4309 137.462 42.4309C135.9 42.4309 134.872 41.2792 134.872 39.8976C134.872 38.4385 135.939 37.3255 137.5 37.3255C139.1 37.3255 140.091 38.4385 140.129 39.8976Z" fill="white"/>
<path d="M149.579 55.9321C149.579 56.3156 149.616 56.6999 149.693 57.0452C150.188 58.9654 151.826 60.3461 153.845 60.3461C156.778 60.3461 158.569 58.0045 158.569 54.2044C158.569 50.9037 157.007 48.2166 153.883 48.2166C151.978 48.2166 150.226 49.598 149.73 51.6712C149.654 52.0172 149.579 52.4388 149.579 52.8998V55.9321ZM144.892 36.3935H149.579V47.525H149.654C150.797 45.7212 152.816 44.5314 155.597 44.5314C160.131 44.5314 163.37 48.3322 163.331 54.0126C163.331 60.7302 159.103 64.0692 154.912 64.0692C152.511 64.0692 150.378 63.1487 149.045 60.8452H148.969L148.74 63.6472H144.739C144.816 62.3803 144.892 60.3082 144.892 58.3887V36.3935Z" fill="white"/>
<path d="M167.182 36.3056H171.868V63.5593H167.182V36.3056Z" fill="white"/>
<path d="M188.441 52.3827C188.479 50.6554 187.717 47.8146 184.593 47.8146C181.697 47.8146 180.478 50.4636 180.287 52.3827H188.441ZM180.287 55.6838C180.402 59.0616 182.993 60.5207 186.003 60.5207C188.174 60.5207 189.698 60.1755 191.146 59.6764L191.832 62.9004C190.232 63.5912 188.022 64.0903 185.355 64.0903C179.335 64.0903 175.792 60.3672 175.792 54.6477C175.792 49.4655 178.916 44.5904 184.86 44.5904C190.879 44.5904 192.86 49.581 192.86 53.6884C192.86 54.5707 192.784 55.2615 192.708 55.6838H180.287Z" fill="white"/>
<path d="M113.306 88.4928C114.792 89.3758 117.116 90.1437 119.516 90.1437C122.487 90.1437 124.164 88.7233 124.164 86.6121C124.164 84.6547 122.869 83.5028 119.63 82.3124C115.363 80.7779 112.658 78.5129 112.658 74.7891C112.658 70.5282 116.163 67.3422 121.763 67.3422C124.545 67.3422 126.564 67.9568 127.897 68.6476L126.793 72.4482C125.84 71.9486 124.05 71.2196 121.649 71.2196C118.678 71.2196 117.42 72.7937 117.42 74.3283C117.42 76.3245 118.905 77.2458 122.335 78.5899C126.793 80.278 128.926 82.5427 128.926 86.2668C128.926 90.4509 125.802 94.0593 119.211 94.0593C116.467 94.0593 113.648 93.2917 112.24 92.4084L113.306 88.4928Z" fill="white"/>
<path d="M136.853 84.2691C136.853 87.8775 138.643 90.6027 141.463 90.6027C144.129 90.6027 145.997 87.9924 145.997 84.1924C145.997 81.2748 144.701 77.8966 141.501 77.8966C138.186 77.8966 136.853 81.1599 136.853 84.2691ZM150.835 84.0768C150.835 90.9479 146.034 94.0192 141.311 94.0192C136.09 94.0192 132.014 90.4109 132.014 84.3841C132.014 78.2426 136.015 74.4813 141.615 74.4813C147.139 74.4813 150.835 78.3956 150.835 84.0768Z" fill="white"/>
<path d="M168.324 93.06C167.333 93.5207 165.39 94.0192 163.066 94.0192C157.276 94.0192 153.503 90.2572 153.503 84.4617C153.503 78.8565 157.313 74.5201 163.829 74.5201C165.543 74.5201 167.295 74.9037 168.362 75.364L167.523 78.934C166.761 78.55 165.657 78.2044 163.981 78.2044C160.4 78.2044 158.266 80.8529 158.304 84.2692C158.304 88.108 160.781 90.296 163.981 90.296C165.581 90.296 166.761 89.9507 167.677 89.5664L168.324 93.06Z" fill="white"/>
<path d="M171.793 93.2307V74.5371H176.479V93.2307H171.793ZM176.783 69.3161C176.783 70.6977 175.755 71.8496 174.116 71.8496C172.554 71.8496 171.526 70.6977 171.526 69.3161C171.526 67.8569 172.593 66.7447 174.155 66.7447C175.755 66.7447 176.745 67.8569 176.783 69.3161Z" fill="white"/>
<path d="M193.014 82.3112C193.052 80.5841 192.29 77.7441 189.166 77.7441C186.27 77.7441 185.051 80.3924 184.861 82.3112H193.014ZM184.861 85.6128C184.975 88.9914 187.566 90.4497 190.575 90.4497C192.747 90.4497 194.271 90.1037 195.719 89.6052L196.405 92.8294C194.804 93.5207 192.595 94.0192 189.928 94.0192C183.909 94.0192 180.365 90.296 180.365 84.5768C180.365 79.3943 183.489 74.5201 189.433 74.5201C195.452 74.5201 197.433 79.5092 197.433 83.6166C197.433 84.4997 197.357 85.1905 197.281 85.6128H184.861Z" fill="white"/>
<path d="M206.578 69.8919V74.6906H211.036V78.2216H206.578V86.4749C206.578 88.777 207.188 89.9296 208.979 89.9296C209.817 89.9296 210.274 89.8909 210.807 89.7371L210.884 93.3066C210.198 93.5759 208.941 93.8065 207.493 93.8065C205.74 93.8065 204.331 93.2304 203.455 92.2706C202.426 91.1963 201.969 89.4686 201.969 87.0121V78.2216H199.34V74.6906H201.969V71.1968L206.578 69.8919Z" fill="white"/>
<path d="M217.819 74.6173L221.133 84.6351C221.514 85.787 221.933 87.2073 222.2 88.2442H222.314C222.581 87.2073 222.924 85.787 223.304 84.5972L226.2 74.6173H231.191L226.543 87.3609C223.991 94.347 222.276 97.4563 220.104 99.3757C218.238 100.988 216.332 101.602 215.19 101.756L214.123 97.8018C214.923 97.61 215.876 97.1877 216.828 96.4964C217.742 95.9211 218.771 94.808 219.419 93.5414C219.609 93.1959 219.685 92.9268 219.685 92.6963C219.685 92.5045 219.648 92.236 219.457 91.7758L212.638 74.6173H217.819Z" fill="white"/>
</svg>
