<svg width="256" height="130" viewBox="0 0 256 130" fill="none" xmlns="http://www.w3.org/2000/svg">
<path fill-rule="evenodd" clip-rule="evenodd" d="M135.147 34.1324C132.247 34.4702 128.958 35.3666 126.1 36.5986C118.715 39.7825 114.916 44.3612 114.916 50.0782C114.916 55.1594 117.263 59.5464 122.446 64.1529C128.881 69.8727 134.677 71.5869 143.797 70.4682L146.231 70.1699L150.375 71.7047C152.654 72.5488 155.49 73.4391 156.676 73.6832C159.35 74.2331 162.345 74.2846 162.121 73.7769C161.032 71.3042 160.559 69.7417 160.404 68.1095L160.219 66.1503L161.847 65.1895C166.51 62.4369 168.985 57.7958 168.549 52.6226C168.031 46.483 162.352 39.4343 155.692 36.6647C150.112 34.3445 141.959 33.3395 135.147 34.1324Z" fill="white"/>
<path fill-rule="evenodd" clip-rule="evenodd" d="M108.338 26.2555C105.215 26.6113 101.017 27.8665 97.8902 29.3798C95.5121 30.5303 94.5764 31.1836 92.631 33.0515C87.6081 37.8734 85.4805 42.9361 86.3509 47.9948C87.0075 51.812 89.0637 54.7454 92.7572 57.1341L94.5462 58.2911L94.3553 60.2615C94.2501 61.3454 93.8541 62.9877 93.4754 63.9113C93.0965 64.8349 92.7595 65.7165 92.7265 65.8704C92.6324 66.3079 96.6945 66.1134 98.8636 65.5766C99.919 65.3152 102.466 64.4736 104.523 63.7062L108.264 62.311L112.434 62.6642C114.727 62.8584 116.673 62.9474 116.758 62.8621C116.844 62.7767 116.479 62.096 115.947 61.3499C111.86 55.6108 110.954 48.3939 113.654 43.0673C114.557 41.2845 117.381 38.2703 119.491 36.8376C123.032 34.4332 128.062 32.5015 132.095 31.9977C133.081 31.8746 133.654 31.6773 133.592 31.4819C133.428 30.9622 129.519 28.8578 127.074 27.9731C123.147 26.5519 121.097 26.2253 115.476 26.1246C112.628 26.0736 109.416 26.1324 108.338 26.2555ZM40.8763 82.3167C40.8015 82.511 40.7741 86.2579 40.815 90.643L40.8894 98.6158L42.0789 98.7017C43.0014 98.7686 43.2684 98.6911 43.2684 98.3561C43.2684 97.9922 43.4114 98.0115 44.178 98.4789C48.5521 101.146 52.9442 94.4258 49.5012 90.334C48.1247 88.6982 46.1494 88.2705 44.307 89.2098L43.2684 89.7393V85.8513V81.9632H42.1402C41.4895 81.9632 40.9544 82.113 40.8763 82.3167ZM52.7841 90.3595V98.7557H54.0435H55.303V90.3595V81.9632H54.0435H52.7841V90.3595ZM84.1301 90.3595V98.7557H85.3895H86.649V90.3595V81.9632H85.3895H84.1301V90.3595ZM161.655 90.3435V98.7557H162.919H164.183L164.109 90.4295L164.034 82.1032L162.845 82.0173L161.655 81.9311V90.3435ZM166.54 82.3167C166.465 82.511 166.438 86.2579 166.479 90.643L166.553 98.6158L167.743 98.7017L168.932 98.7879V90.3754V81.9632H167.804C167.153 81.9632 166.618 82.113 166.54 82.3167ZM99.9162 83.577C95.6296 85.1102 93.4849 89.5621 94.9545 93.8756C95.6097 95.798 97.8068 97.9528 99.7804 98.6082C101.55 99.1963 104.232 99.0846 105.623 98.3656C106.45 97.9379 106.52 97.7932 106.52 96.5095C106.52 95.7437 106.47 95.1174 106.409 95.1174C106.347 95.1174 105.749 95.4308 105.079 95.8137C102.41 97.3399 99.1807 96.4207 97.7779 93.7356C96.8219 91.9055 96.7779 90.3615 97.6341 88.6858C98.5666 86.8602 100.027 85.8154 101.859 85.6635C103.271 85.5465 103.997 85.7547 106.31 86.94C106.426 86.9993 106.52 86.4107 106.52 85.6321C106.52 84.3223 106.453 84.1821 105.623 83.7528C104.265 83.0506 101.616 82.9688 99.9162 83.577ZM24.5167 91.025V98.7557L27.2455 98.7496C30.3124 98.7426 31.8254 98.2559 32.8576 96.9433C34.1674 95.2783 33.9871 92.73 32.4579 91.2878C31.5117 90.3953 31.5002 90.3575 31.922 89.542C32.8618 87.7247 32.051 84.926 30.3213 84.017C29.7465 83.7147 28.5184 83.4953 26.9656 83.4172L24.5167 83.294V91.025ZM205.427 83.7558C205.338 83.9898 205.309 86.6103 205.365 89.5795C205.474 95.4317 205.58 95.8918 207.18 97.4115C209.745 99.8481 213.8 99.4496 215.808 96.5635L216.651 95.3508L216.736 89.3567L216.822 83.3626H215.563H214.304L214.218 89.1236L214.132 94.8845L213.218 95.7006C212.008 96.7809 210.204 96.842 209.04 95.842L208.255 95.1672L208.115 89.3349L207.975 83.5026L206.783 83.4164C205.916 83.3537 205.546 83.4463 205.427 83.7558ZM220.149 91.0592V98.7557H221.409H222.668V95.5372C222.668 93.767 222.78 92.3186 222.918 92.3186C223.055 92.3186 224.339 93.767 225.771 95.5372L228.374 98.7557H230.016C231.254 98.7557 231.606 98.6698 231.448 98.4059C231.28 98.1252 227.141 93.0911 225.226 90.8375C224.831 90.3729 225.04 90.0947 228.072 87.055C229.872 85.2504 231.344 83.6814 231.344 83.5683C231.344 83.4553 230.685 83.3626 229.88 83.3626H228.415L225.542 86.2263L222.668 89.09V86.2263V83.3626H221.409H220.149V91.0592ZM35.9908 84.0631C35.4733 84.6867 35.5676 85.9238 36.1663 86.3612C36.9443 86.9302 38.0112 86.692 38.485 85.8437C38.8539 85.1832 38.8469 85.0301 38.4173 84.3744C37.8699 83.5389 36.5648 83.3716 35.9908 84.0631ZM58.0318 83.9448C57.4172 84.3027 57.3875 85.687 57.9817 86.2814C58.5716 86.8711 59.589 86.8375 60.1574 86.2092C61.4292 84.8043 59.7068 82.9691 58.0318 83.9448ZM171.634 84.1544C171.056 84.7931 171.049 85.3027 171.607 86.099C172.115 86.8247 173.179 86.9126 173.81 86.2814C174.33 85.7609 174.389 84.4538 173.914 83.9783C173.412 83.4765 172.16 83.5731 171.634 84.1544ZM27.0356 87.8406V89.7997H27.9718C29.159 89.7997 29.8344 89.0718 29.8344 87.7919C29.8344 86.5831 29.1324 85.8815 27.9231 85.8815H27.0356V87.8406ZM65.7983 89.0222C63.6777 89.774 62.2999 91.7177 62.2999 93.9576C62.2999 95.2173 63.0189 96.9083 63.8895 97.6956C65.2287 98.9063 67.7177 99.3619 69.5349 98.7283C70.3768 98.435 70.4162 98.3533 70.4162 96.9091C70.4162 96.0776 70.3398 95.3972 70.2466 95.3972C70.1534 95.3972 69.7031 95.7121 69.2458 96.0969C66.8229 98.1355 63.7255 95.2444 65.2254 92.3441C65.997 90.8521 68.3314 90.5375 69.4509 91.7748C70.2237 92.6284 70.4162 92.4325 70.4162 90.7925C70.4162 89.2674 70.4157 89.266 69.3667 88.9749C68.0742 88.6159 66.9002 88.6315 65.7983 89.0222ZM74.3362 89.31C71.2553 90.8789 70.9234 96.1658 73.7778 98.1982C74.9611 99.0406 77.0244 99.2511 78.1906 98.648C78.7352 98.3661 79.1251 98.3023 79.2329 98.477C79.3277 98.6304 79.9015 98.7557 80.5082 98.7557H81.6112V93.8579V88.9601H80.5477C79.9628 88.9601 79.3546 89.0897 79.1962 89.2481C78.9986 89.4457 78.651 89.4023 78.0907 89.1099C76.9468 88.5134 75.7778 88.5758 74.3362 89.31ZM111.622 89.0306C110.422 89.4158 108.88 91.1493 108.444 92.6052C107.781 94.8171 108.982 97.4322 111.14 98.4767C113.698 99.7151 116.861 98.681 118.161 96.1809C118.627 95.2864 118.678 92.9593 118.256 91.847C117.338 89.4236 114.352 88.1558 111.622 89.0306ZM134.718 89.1043C134.241 89.3727 133.948 89.4216 133.948 89.2327C133.948 89.0472 133.482 88.9615 132.758 89.0141L131.569 89.1001V93.8579V98.6158L132.723 98.7L133.878 98.7846L133.999 95.3734C134.112 92.2268 134.171 91.922 134.765 91.4409C135.536 90.8171 136.169 90.7799 136.903 91.3158C137.381 91.6651 137.457 92.1336 137.539 95.2341L137.632 98.7557H138.869H140.105L140.103 95.4672C140.102 91.7152 139.836 90.4502 138.855 89.5288C137.972 88.6996 135.827 88.4793 134.718 89.1043ZM144.132 88.9402C143.202 89.3388 142.344 90.6268 142.344 91.6256C142.344 92.7933 142.98 93.5624 144.724 94.5044C145.823 95.0981 146.122 95.4079 146.122 95.9542C146.122 96.8937 145.278 97.0208 144.416 96.2114C143.758 95.5929 143.712 95.5884 142.752 96.0463C141.946 96.4305 141.813 96.6069 142.029 97.0065C143.328 99.4165 146.952 99.6866 148.397 97.4815C149.004 96.5548 148.993 94.6956 148.376 94.0141C148.111 93.7216 147.213 93.1261 146.38 92.6906C145.426 92.1921 144.864 91.7174 144.864 91.409C144.863 90.8006 145.364 90.779 146.005 91.3595C146.447 91.7597 146.569 91.7591 147.356 91.3522C148.389 90.8185 148.417 90.6175 147.591 89.6581C146.9 88.8546 145.17 88.4955 144.132 88.9402ZM152.699 89.2918C150.405 90.4723 149.497 93.7247 150.714 96.4045C152.018 99.2752 155.86 99.9444 158.314 97.7278C159.598 96.5674 159.671 96.1879 158.727 95.5694C157.792 94.9573 157.63 94.9878 156.661 95.957C155.765 96.8523 155.099 96.985 154.003 96.486C153.441 96.2299 152.699 95.205 152.699 94.6844C152.699 94.6147 154.226 94.5576 156.093 94.5576H159.486L159.357 93.0068C159.068 89.5243 155.796 87.6984 152.699 89.2918ZM179.777 89.1202C179.332 89.362 179.008 89.4163 179.008 89.2489C179.008 89.09 178.441 88.9601 177.748 88.9601H176.489V93.8579V98.7557H177.725H178.962L179.055 95.2341C179.136 92.1336 179.213 91.6651 179.691 91.3158C180.407 90.7936 181.38 90.8123 181.927 91.3589C182.279 91.7116 182.366 92.4882 182.366 95.2772V98.7557H183.626H184.885V94.9634C184.885 90.6279 184.605 89.725 183.056 89.0779C181.85 88.5742 180.758 88.5882 179.777 89.1202ZM189.693 89.151C187.729 90.1185 186.717 92.5249 187.182 95.1174C187.431 96.5069 188.019 97.4434 189.191 98.3186C190.248 99.1075 192.96 99.1333 193.812 98.3625C194.401 97.8296 194.401 97.8299 194.401 98.8708C194.401 99.934 194.001 100.972 193.449 101.34C193.28 101.453 192.669 101.548 192.092 101.55C190.853 101.555 189.923 100.777 189.923 99.7353C189.923 99.0896 189.823 99.0356 188.626 99.0356H187.33L187.479 100.142C187.783 102.412 189.533 103.857 192.022 103.893C193.974 103.921 195.461 103.106 196.279 101.559C196.886 100.411 196.92 100.048 196.92 94.6536V88.9601H195.66C194.771 88.9601 194.401 89.0746 194.401 89.3497C194.401 89.6576 194.183 89.6282 193.362 89.2098C192.094 88.5635 190.923 88.5448 189.693 89.151ZM35.9916 93.8579V98.7879L37.1811 98.7017L38.3705 98.6158V93.8579V89.1001L37.1811 89.0141L35.9916 88.9279V93.8579ZM57.8219 93.8579V98.7557H59.0813H60.3407V93.8579V88.9601H59.0813H57.8219V93.8579ZM120.795 92.6525C120.796 95.8025 120.877 96.5097 121.322 97.2388C122.748 99.5788 126.762 99.5942 128.47 97.2662C128.987 96.5621 129.049 96.0768 129.05 92.7882L129.05 89.1001L127.884 89.0153L126.717 88.9302L126.624 92.4667C126.542 95.582 126.467 96.0505 125.988 96.4C125.364 96.8554 124.481 96.9072 123.872 96.5235C123.548 96.3191 123.421 95.4454 123.313 92.6794L123.173 89.1001L121.983 89.0141L120.794 88.9279L120.795 92.6525ZM171.451 93.8579V98.7557H172.711H173.97V93.8579V88.9601H172.711H171.451V93.8579ZM44.7677 91.1969C43.8337 91.5736 43.2684 92.6088 43.2684 93.9416C43.2684 96.1375 45.4584 97.5279 47.1029 96.376C48.6476 95.294 48.5281 92.1776 46.9098 91.3407C45.9988 90.8694 45.6386 90.8454 44.7677 91.1969ZM75.7395 91.2786C74.1433 92.0863 73.8234 94.6491 75.1526 95.9785C76.5978 97.4238 78.7411 96.7544 79.2575 94.6964C79.5564 93.5056 78.9152 91.8263 77.9759 91.3407C76.9913 90.8314 76.6426 90.8218 75.7395 91.2786ZM112.07 91.3335C110.386 92.2797 110.414 95.4958 112.115 96.3751C113.358 97.0183 114.298 96.8979 115.218 95.9785C116.284 94.9122 116.372 93.0163 115.406 91.905C114.628 91.0094 113.11 90.7494 112.07 91.3335ZM153.625 91.61L152.839 92.301H154.938H157.038L156.252 91.61C155.82 91.2302 155.229 90.9192 154.938 90.9192C154.648 90.9192 154.057 91.2302 153.625 91.61ZM190.864 91.2467C190.535 91.4057 190.126 91.8439 189.955 92.2204C189.511 93.1949 189.569 95.1675 190.063 95.8725C190.954 97.1442 193.441 96.917 194.085 95.505C195.284 92.8725 193.2 90.1157 190.864 91.2467ZM27.0356 94.1378V96.2369H28.4476C29.5738 96.2369 29.9989 96.0978 30.5466 95.5498C32.1772 93.9195 30.7988 92.0387 27.9735 92.0387H27.0356V94.1378Z" fill="white"/>
</svg>
