<?xml version="1.0" encoding="UTF-8"?>
<svg width="206px" height="76px" viewBox="0 0 206 76" version="1.1" xmlns="http://www.w3.org/2000/svg" xmlns:xlink="http://www.w3.org/1999/xlink">
    <title>Artboard</title>
    <g id="Artboard" stroke="none" stroke-width="1" fill="none" fill-rule="evenodd">
        <g id="BibleSoc" transform="translate(-0.379200, -0.446900)" fill="#FFFFFF">
            <path d="M71.6857,76.6719 C74.1117,76.6719 76.0962,74.6759 76.0962,72.2318 L76.0962,4.4439 C76.0962,2.001 74.1117,0 71.6857,0 L4.4092,0 C1.9826,0 -7.10542736e-15,2.001 -7.10542736e-15,4.4439 L-7.10542736e-15,72.2318 C-7.10542736e-15,74.6759 1.9826,76.6719 4.4092,76.6719 L71.6857,76.6719 Z M27.8287,16.372 L27.8287,58.8998 L40.0099,58.8387 C46.0272,58.8387 50.9054,53.9221 50.9054,47.8616 C50.9054,43.1755 47.9936,39.1837 43.8968,37.6058 C47.9936,36.0269 50.9054,32.0324 50.9054,27.3484 C50.9054,21.2863 46.0272,16.372 40.0099,16.372 L27.8287,16.372 Z M18.8955,11.4522 L36.4462,11.4522 C36.676,11.4502 36.9069,11.448 37.1385,11.4458 C41.9934,11.3992 47.2056,11.3491 50.8994,13.0928 C56.2028,15.5963 59.5053,21.0465 59.5053,26.6598 L59.5053,26.7827 C59.4682,30.9209 57.6017,34.9581 54.3011,37.6029 C54.3011,37.6029 61.3111,39.2315 61.3111,48.7011 C61.3111,49.6756 61.2005,50.6572 60.9703,51.6317 C59.5067,57.855 53.957,63.8905 38.9052,63.8905 L18.8955,63.8905 L18.8955,11.4522 Z" id="Shape"></path>
            <path d="M93.4092,33.6611 C94.0192,33.776 94.8182,33.776 95.8862,33.776 C98.8952,33.776 101.6002,32.663 101.6002,29.4778 C101.6002,26.4444 98.9712,25.2161 95.7332,25.2161 L93.4092,25.2161 L93.4092,33.6611 Z M93.4092,21.8001 L95.8092,21.8001 C99.0862,21.8001 100.8762,20.2642 100.8762,18.077 C100.8762,15.6204 99.0472,14.5067 96.0762,14.5067 C94.7042,14.5067 93.9042,14.5828 93.4092,14.6984 L93.4092,21.8001 Z M88.7612,11.5892 C90.2462,11.2818 92.9522,11.0133 95.6192,11.0133 C99.0472,11.0133 101.2192,11.4743 102.9342,12.6641 C104.5342,13.6235 105.6002,15.313 105.6002,17.5391 C105.6002,19.9189 104.1152,22.0686 101.3342,23.1049 L101.3342,23.2197 C104.0392,23.9113 106.5142,26.0604 106.5142,29.5925 C106.5142,31.8954 105.5242,33.6998 104.0762,34.9664 C102.2472,36.5398 99.2382,37.3461 94.5142,37.3461 C91.9232,37.3461 89.9812,37.1547 88.7612,37.0009 L88.7612,11.5892 Z" id="Shape" fill-rule="nonzero"></path>
            <path d="M110.5172,37.2584 L110.5172,18.5648 L115.2032,18.5648 L115.2032,37.2584 L110.5172,37.2584 Z M115.5082,13.3445 C115.5082,14.7261 114.4792,15.8778 112.8412,15.8778 C111.2792,15.8778 110.2512,14.7261 110.2512,13.3445 C110.2512,11.8854 111.3182,10.7724 112.8792,10.7724 C114.4792,10.7724 115.4702,11.8854 115.5082,13.3445 Z" id="Shape" fill-rule="nonzero"></path>
            <path d="M124.9582,29.379 C124.9582,29.7625 124.9952,30.1468 125.0722,30.4921 C125.5672,32.4123 127.2052,33.793 129.2242,33.793 C132.1572,33.793 133.9482,31.4514 133.9482,27.6513 C133.9482,24.3506 132.3862,21.6635 129.2622,21.6635 C127.3572,21.6635 125.6052,23.0449 125.1092,25.1181 C125.0332,25.4641 124.9582,25.8857 124.9582,26.3467 L124.9582,29.379 Z M120.2712,9.8404 L124.9582,9.8404 L124.9582,20.9719 L125.0332,20.9719 C126.1762,19.1681 128.1952,17.9783 130.9762,17.9783 C135.5102,17.9783 138.7492,21.7791 138.7102,27.4595 C138.7102,34.1771 134.4822,37.5161 130.2912,37.5161 C127.8902,37.5161 125.7572,36.5956 124.4242,34.2921 L124.3482,34.2921 L124.1192,37.0941 L120.1182,37.0941 C120.1952,35.8272 120.2712,33.7551 120.2712,31.8356 L120.2712,9.8404 Z" id="Shape" fill-rule="nonzero"></path>
            <polygon id="Path" fill-rule="nonzero" points="142.5612 9.7525 147.2472 9.7525 147.2472 37.0062 142.5612 37.0062"></polygon>
            <path d="M163.8202,25.8296 C163.8582,24.1023 163.0962,21.2615 159.9722,21.2615 C157.0762,21.2615 155.8572,23.9105 155.6662,25.8296 L163.8202,25.8296 Z M155.6662,29.1307 C155.7812,32.5085 158.3722,33.9676 161.3822,33.9676 C163.5532,33.9676 165.0772,33.6224 166.5252,33.1233 L167.2112,36.3473 C165.6112,37.0381 163.4012,37.5372 160.7342,37.5372 C154.7142,37.5372 151.1712,33.8141 151.1712,28.0946 C151.1712,22.9124 154.2952,18.0373 160.2392,18.0373 C166.2582,18.0373 168.2392,23.0279 168.2392,27.1353 C168.2392,28.0176 168.1632,28.7084 168.0872,29.1307 L155.6662,29.1307 Z" id="Shape" fill-rule="nonzero"></path>
            <path d="M88.6852,61.9397 C90.1712,62.8227 92.4952,63.5906 94.8952,63.5906 C97.8662,63.5906 99.5432,62.1702 99.5432,60.059 C99.5432,58.1016 98.2482,56.9497 95.0092,55.7593 C90.7422,54.2248 88.0372,51.9598 88.0372,48.236 C88.0372,43.9751 91.5422,40.7891 97.1422,40.7891 C99.9242,40.7891 101.9432,41.4037 103.2762,42.0945 L102.1722,45.8951 C101.2192,45.3955 99.4292,44.6665 97.0282,44.6665 C94.0572,44.6665 92.7992,46.2406 92.7992,47.7752 C92.7992,49.7714 94.2842,50.6927 97.7142,52.0368 C102.1722,53.7249 104.3052,55.9896 104.3052,59.7137 C104.3052,63.8978 101.1812,67.5062 94.5902,67.5062 C91.8462,67.5062 89.0272,66.7386 87.6192,65.8553 L88.6852,61.9397 Z" id="Path" fill-rule="nonzero"></path>
            <path d="M112.2322,57.716 C112.2322,61.3244 114.0222,64.0496 116.8422,64.0496 C119.5082,64.0496 121.3762,61.4393 121.3762,57.6393 C121.3762,54.7217 120.0802,51.3435 116.8802,51.3435 C113.5652,51.3435 112.2322,54.6068 112.2322,57.716 Z M126.2142,57.5237 C126.2142,64.3948 121.4132,67.4661 116.6902,67.4661 C111.4692,67.4661 107.3932,63.8578 107.3932,57.831 C107.3932,51.6895 111.3942,47.9282 116.9942,47.9282 C122.5182,47.9282 126.2142,51.8425 126.2142,57.5237 Z" id="Shape" fill-rule="nonzero"></path>
            <path d="M143.7032,66.5069 C142.7122,66.9676 140.7692,67.4661 138.4452,67.4661 C132.6552,67.4661 128.8822,63.7041 128.8822,57.9086 C128.8822,52.3034 132.6922,47.967 139.2082,47.967 C140.9222,47.967 142.6742,48.3506 143.7412,48.8109 L142.9022,52.3809 C142.1402,51.9969 141.0362,51.6513 139.3602,51.6513 C135.7792,51.6513 133.6452,54.2998 133.6832,57.7161 C133.6832,61.5549 136.1602,63.7429 139.3602,63.7429 C140.9602,63.7429 142.1402,63.3976 143.0562,63.0133 L143.7032,66.5069 Z" id="Path" fill-rule="nonzero"></path>
            <path d="M147.1722,66.6776 L147.1722,47.984 L151.8582,47.984 L151.8582,66.6776 L147.1722,66.6776 Z M152.1622,42.763 C152.1622,44.1446 151.1342,45.2965 149.4952,45.2965 C147.9332,45.2965 146.9052,44.1446 146.9052,42.763 C146.9052,41.3038 147.9722,40.1916 149.5342,40.1916 C151.1342,40.1916 152.1242,41.3038 152.1622,42.763 Z" id="Shape" fill-rule="nonzero"></path>
            <path d="M168.3932,55.7581 C168.4312,54.031 167.6692,51.191 164.5452,51.191 C161.6492,51.191 160.4302,53.8393 160.2402,55.7581 L168.3932,55.7581 Z M160.2402,59.0597 C160.3542,62.4383 162.9452,63.8966 165.9542,63.8966 C168.1262,63.8966 169.6502,63.5506 171.0982,63.0521 L171.7842,66.2763 C170.1832,66.9676 167.9742,67.4661 165.3072,67.4661 C159.2882,67.4661 155.7442,63.7429 155.7442,58.0237 C155.7442,52.8412 158.8682,47.967 164.8122,47.967 C170.8312,47.967 172.8122,52.9561 172.8122,57.0635 C172.8122,57.9466 172.7362,58.6374 172.6602,59.0597 L160.2402,59.0597 Z" id="Shape" fill-rule="nonzero"></path>
            <path d="M181.9572,43.3388 L181.9572,48.1375 L186.4152,48.1375 L186.4152,51.6685 L181.9572,51.6685 L181.9572,59.9218 C181.9572,62.2239 182.5672,63.3765 184.3582,63.3765 C185.1962,63.3765 185.6532,63.3378 186.1862,63.184 L186.2632,66.7535 C185.5772,67.0228 184.3202,67.2534 182.8722,67.2534 C181.1192,67.2534 179.7102,66.6773 178.8342,65.7175 C177.8052,64.6432 177.3482,62.9155 177.3482,60.459 L177.3482,51.6685 L174.7192,51.6685 L174.7192,48.1375 L177.3482,48.1375 L177.3482,44.6437 L181.9572,43.3388 Z" id="Path" fill-rule="nonzero"></path>
            <path d="M193.1982,48.0642 L196.5122,58.082 C196.8932,59.2339 197.3122,60.6542 197.5792,61.6911 L197.6932,61.6911 C197.9602,60.6542 198.3032,59.2339 198.6832,58.0441 L201.5792,48.0642 L206.5702,48.0642 L201.9222,60.8078 C199.3702,67.7939 197.6552,70.9032 195.4832,72.8226 C193.6172,74.4349 191.7112,75.0489 190.5692,75.2029 L189.5022,71.2487 C190.3022,71.0569 191.2552,70.6346 192.2072,69.9433 C193.1212,69.368 194.1502,68.2549 194.7982,66.9883 C194.9882,66.6428 195.0642,66.3737 195.0642,66.1432 C195.0642,65.9514 195.0272,65.6829 194.8362,65.2227 L188.0172,48.0642 L193.1982,48.0642 Z" id="Path" fill-rule="nonzero"></path>
        </g>
    </g>
</svg>