<svg width="2519" height="1000" viewBox="0 0 2519 1000" fill="none" xmlns="http://www.w3.org/2000/svg">
<path d="M300 114.468V115.468C322.822 113.667 343.741 112.51 364.83 123.588C390.853 137.258 413.376 177.423 392.471 204.467C386.84 211.751 377.643 218.48 368 218.207C356.532 217.883 344.412 206.418 347.944 194.468C353.834 174.536 373.527 184.463 377 199.468C387.376 193.956 386.685 179.862 381.863 170.468C374.399 155.929 358.074 147.218 342 146.507C330.828 146.014 319.69 147.567 309 150.763C229.742 174.461 222.777 274.551 249 338.468C239.533 340.658 230.063 343.88 221 347.379C217.444 348.752 212.004 352.203 208.133 350.347C204.275 348.497 202.641 342.178 201.345 338.468C197.271 326.803 194.295 313.853 194 301.468C193.222 268.779 196.329 238.853 209.861 208.468C216.602 193.331 226.97 180.263 234 165.468C223.578 170.113 215.127 181.064 207.715 189.468C196.426 202.267 185.235 214.52 175.291 228.468C121.105 304.476 103 391.894 103 483.468H104C147.306 418.021 220.869 366.86 302 366.469C324.806 366.359 346.8 367.791 369 373.341C376.041 375.102 392.931 383.418 399.683 380.774C403.377 379.327 403.973 368.936 404.884 365.468C408.439 351.948 414.123 339.219 421.692 327.468C450.282 283.085 507.373 255.786 559 274.16C592.036 285.918 619.061 312.691 623.711 348.468C627.838 380.227 604.374 417.789 569 413.179C536.706 408.97 521.663 357.16 558 346.468C555.31 353.684 552.949 362.483 557.703 369.453C565.454 380.816 582.876 377.083 588.427 365.468C602.366 336.306 562.907 309.184 539 305.768C485.244 298.088 439.271 349.13 444.059 401.428C444.767 409.168 458.993 414.285 465 417.752L527 454.865C591.47 493.09 667.967 523.793 743 498.801C775.532 487.966 804.019 467.951 817.575 435.468C838.488 385.353 807.022 309.569 744 320.933C725.742 324.225 707 336.316 707.002 356.468C707.002 362.077 707.819 367.978 712.329 371.895C720.298 378.817 736.372 373.703 738.602 363.468C740.273 355.8 735.003 348.108 732 341.468C762.71 348.762 775.831 385.754 758.794 411.468C737.412 443.739 695.474 454.358 659 446.118C647.89 443.609 632.506 439.549 625 430.468C655.55 438.372 706.139 433.43 726 405.468C685.56 405.468 663.879 363.029 678.746 327.468C689.806 301.014 716.861 285.046 744 279.928C760.14 276.884 776.608 279.468 792 284.812C883.3 316.514 893.58 432.921 864.086 510.468C852.972 539.687 834.064 567.396 812 589.468C753.704 647.787 670.614 680.478 588 678.453C534.038 677.131 482.039 662.88 433 640.851C403.326 627.522 375.44 611.02 350 590.668C340.07 582.724 328.385 574.952 321 564.468C427.991 628.887 566.307 650.768 685 606.518C741.673 585.39 798.817 545.128 819 485.468C811.981 488.683 806.893 495.001 801 499.853C790.915 508.156 780.123 515.435 769 522.26C736.955 541.921 692.579 553.211 655 552.209C602.787 550.816 551.917 535.291 505 513.07C471.159 497.042 439.886 475.421 405 461.582C370.113 447.743 334.261 442.898 297 446.639C238.373 452.523 180.851 493.72 155.515 546.468C143.28 571.94 137.056 603.49 149 630.468C220.105 612.071 289.451 644.945 352 675.21C401.424 699.124 452.398 720.575 507 729.044C580.426 740.431 656.421 724.793 723 693.148C738.221 685.913 753.252 676.77 767 667.044C775.432 661.078 783.971 652.419 794 649.468C778.577 680.47 747.417 708.367 720 728.584C664.069 769.827 593.824 793.16 524 788.379C478.677 785.275 435.191 771.381 394 752.761C339.336 728.051 290.171 690.395 231 676.352C212.558 671.975 194.733 672.468 176 672.468C176.942 679.514 182.704 685.067 187.004 690.468C196.595 702.514 206.873 714.028 217.169 725.468C222.292 731.16 230.225 737.433 231.391 745.468C232.255 751.418 228.491 757.147 226.427 762.468C221.207 775.93 215.389 789.195 209.692 802.468C190.206 847.868 167.709 893.635 152 940.468C174.924 936.394 199.685 920.746 221 911.328L344 858.187C366.389 848.527 389.433 835.95 413 829.561C426.655 825.859 444.179 832.369 458 834.186C483.418 837.529 509.449 838.73 535 836.298C572.222 832.756 608.666 826.351 644 813.776C744.716 777.931 824.261 702.368 865.139 603.468C888.728 546.397 900.71 480.21 894.83 418.468C879.843 261.096 766.822 121.276 615 76.0375C555.162 58.2076 492.222 55.6329 431 66.3839C386.104 74.268 338.366 89.1656 300 114.468Z" fill="white"/>
<path d="M1063.5 397.416H1015.89L1015.64 368.217H1054.23C1061.17 368.217 1066.72 367.455 1070.87 365.932C1075.01 364.324 1078.02 361.996 1079.88 358.949C1081.83 355.902 1082.8 352.094 1082.8 347.523C1082.8 342.276 1081.83 338.044 1079.88 334.828C1077.93 331.612 1074.84 329.285 1070.61 327.846C1066.46 326.322 1061.09 325.561 1054.49 325.561H1032.65V476H988.092V291.156H1054.49C1065.91 291.156 1076.11 292.214 1085.08 294.33C1094.06 296.361 1101.67 299.493 1107.94 303.725C1114.28 307.956 1119.11 313.288 1122.41 319.721C1125.71 326.068 1127.36 333.559 1127.36 342.191C1127.36 349.724 1125.75 356.791 1122.54 363.393C1119.32 369.994 1113.94 375.368 1106.41 379.516C1098.96 383.578 1088.77 385.694 1075.82 385.863L1063.5 397.416ZM1061.72 476H1005.1L1020.34 441.723H1061.72C1067.82 441.723 1072.68 440.792 1076.32 438.93C1080.05 436.983 1082.71 434.444 1084.32 431.312C1086.01 428.096 1086.86 424.542 1086.86 420.648C1086.86 415.909 1086.06 411.804 1084.45 408.334C1082.93 404.864 1080.47 402.198 1077.09 400.336C1073.7 398.389 1069.17 397.416 1063.5 397.416H1026.05L1026.3 368.217H1071.12L1081.53 379.896C1093.89 379.389 1103.66 381.124 1110.86 385.102C1118.13 389.079 1123.34 394.327 1126.47 400.844C1129.6 407.361 1131.17 414.174 1131.17 421.283C1131.17 433.386 1128.54 443.5 1123.3 451.625C1118.13 459.75 1110.39 465.844 1100.06 469.906C1089.74 473.969 1076.96 476 1061.72 476Z" fill="white"/>
<path d="M1155.92 291.156H1228.67C1242.89 291.156 1255.24 293.272 1265.74 297.504C1276.23 301.736 1284.32 307.999 1289.99 316.293C1295.74 324.587 1298.62 334.828 1298.62 347.016C1298.62 357.595 1296.97 366.439 1293.67 373.549C1290.37 380.658 1285.75 386.54 1279.83 391.195C1273.99 395.766 1267.18 399.532 1259.39 402.494L1244.79 410.746H1183.73L1183.47 376.342H1228.67C1234.34 376.342 1239.04 375.326 1242.76 373.295C1246.48 371.264 1249.28 368.386 1251.14 364.662C1253.09 360.854 1254.06 356.326 1254.06 351.078C1254.06 345.746 1253.09 341.176 1251.14 337.367C1249.19 333.559 1246.31 330.639 1242.51 328.607C1238.78 326.576 1234.17 325.561 1228.67 325.561H1200.48V476H1155.92V291.156ZM1257.11 476L1216.23 394.242L1263.45 393.988L1304.84 474.096V476H1257.11Z" fill="white"/>
<path d="M1452.74 441.723V476H1354.22V441.723H1452.74ZM1370.09 291.156V476H1325.53V291.156H1370.09ZM1440.04 364.535V397.67H1354.22V364.535H1440.04ZM1453.12 291.156V325.561H1354.22V291.156H1453.12Z" fill="white"/>
<path d="M1598.23 441.723V476H1499.71V441.723H1598.23ZM1515.58 291.156V476H1471.02V291.156H1515.58ZM1585.53 364.535V397.67H1499.71V364.535H1585.53ZM1598.61 291.156V325.561H1499.71V291.156H1598.61Z" fill="white"/>
<path d="M1754.89 441.723V476H1621.08V441.723H1754.89ZM1754 314.008L1643.17 476H1610.92V452.514L1723.02 291.156H1754V314.008ZM1739.65 291.156V325.561H1610.29V291.156H1739.65Z" fill="white"/>
<path d="M1902.41 441.723V476H1803.89V441.723H1902.41ZM1819.76 291.156V476H1775.2V291.156H1819.76ZM1889.71 364.535V397.67H1803.89V364.535H1889.71ZM1902.79 291.156V325.561H1803.89V291.156H1902.79Z" fill="white"/>
<path d="M1085.59 489.156V674H1041.03V489.156H1085.59ZM1141.2 489.156V523.561H986.697V489.156H1141.2Z" fill="white"/>
<path d="M1160.12 489.156H1232.86C1247.08 489.156 1259.43 491.272 1269.93 495.504C1280.42 499.736 1288.51 505.999 1294.18 514.293C1299.93 522.587 1302.81 532.828 1302.81 545.016C1302.81 555.595 1301.16 564.439 1297.86 571.549C1294.56 578.658 1289.95 584.54 1284.02 589.195C1278.18 593.766 1271.37 597.532 1263.58 600.494L1248.98 608.746H1187.92L1187.66 574.342H1232.86C1238.53 574.342 1243.23 573.326 1246.95 571.295C1250.68 569.264 1253.47 566.386 1255.33 562.662C1257.28 558.854 1258.25 554.326 1258.25 549.078C1258.25 543.746 1257.28 539.176 1255.33 535.367C1253.38 531.559 1250.51 528.639 1246.7 526.607C1242.97 524.576 1238.36 523.561 1232.86 523.561H1204.68V674H1160.12V489.156ZM1261.3 674L1220.42 592.242L1267.64 591.988L1309.03 672.096V674H1261.3Z" fill="white"/>
<path d="M1408.05 528.004L1362.99 674H1315.12L1383.04 489.156H1413.39L1408.05 528.004ZM1445.38 674L1400.18 528.004L1394.34 489.156H1425.07L1493.37 674H1445.38ZM1443.6 605.064V639.469H1348.77V605.064H1443.6Z" fill="white"/>
<path d="M1661.33 489.156V674H1616.89L1551.51 558.98V674H1506.95V489.156H1551.51L1616.89 604.176V489.156H1661.33Z" fill="white"/>
<path d="M1784.72 624.869C1784.72 621.992 1784.3 619.41 1783.46 617.125C1782.61 614.755 1781.04 612.555 1778.76 610.523C1776.47 608.492 1773.17 606.461 1768.86 604.43C1764.62 602.314 1759.04 600.113 1752.1 597.828C1743.97 595.12 1736.14 592.073 1728.61 588.688C1721.08 585.217 1714.35 581.197 1708.43 576.627C1702.5 571.972 1697.8 566.555 1694.33 560.377C1690.86 554.114 1689.13 546.835 1689.13 538.541C1689.13 530.585 1690.91 523.434 1694.46 517.086C1698.02 510.654 1702.97 505.195 1709.31 500.709C1715.75 496.139 1723.28 492.669 1731.91 490.299C1740.54 487.844 1749.98 486.617 1760.22 486.617C1773.76 486.617 1785.7 488.987 1796.02 493.727C1806.43 498.382 1814.56 505.025 1820.4 513.658C1826.32 522.206 1829.29 532.32 1829.29 544H1784.98C1784.98 539.345 1784.01 535.24 1782.06 531.686C1780.2 528.131 1777.36 525.338 1773.55 523.307C1769.74 521.275 1764.96 520.26 1759.21 520.26C1753.62 520.26 1748.92 521.106 1745.12 522.799C1741.31 524.492 1738.43 526.777 1736.48 529.654C1734.54 532.447 1733.56 535.536 1733.56 538.922C1733.56 541.715 1734.32 544.254 1735.85 546.539C1737.46 548.74 1739.7 550.813 1742.58 552.76C1745.54 554.706 1749.09 556.568 1753.24 558.346C1757.47 560.123 1762.21 561.858 1767.46 563.551C1777.28 566.682 1785.99 570.195 1793.61 574.088C1801.31 577.896 1807.79 582.255 1813.04 587.164C1818.37 591.988 1822.39 597.49 1825.1 603.668C1827.89 609.846 1829.29 616.829 1829.29 624.615C1829.29 632.91 1827.68 640.273 1824.46 646.705C1821.24 653.137 1816.63 658.596 1810.62 663.082C1804.61 667.483 1797.42 670.826 1789.04 673.111C1780.66 675.396 1771.31 676.539 1760.98 676.539C1751.51 676.539 1742.15 675.354 1732.93 672.984C1723.79 670.53 1715.49 666.806 1708.04 661.812C1700.6 656.734 1694.63 650.26 1690.14 642.389C1685.74 634.433 1683.54 624.996 1683.54 614.078H1728.23C1728.23 619.495 1728.95 624.065 1730.39 627.789C1731.83 631.513 1733.94 634.518 1736.74 636.803C1739.53 639.003 1742.96 640.611 1747.02 641.627C1751.08 642.558 1755.74 643.023 1760.98 643.023C1766.65 643.023 1771.23 642.219 1774.7 640.611C1778.17 638.919 1780.7 636.718 1782.31 634.01C1783.92 631.217 1784.72 628.17 1784.72 624.869Z" fill="white"/>
<path d="M1974.39 639.723V674H1880.96V639.723H1974.39ZM1896.82 489.156V674H1852.26V489.156H1896.82Z" fill="white"/>
<path d="M2074.05 528.004L2028.98 674H1981.12L2049.04 489.156H2079.38L2074.05 528.004ZM2111.38 674L2066.18 528.004L2060.34 489.156H2091.06L2159.36 674H2111.38ZM2109.6 605.064V639.469H2014.76V605.064H2109.6Z" fill="white"/>
<path d="M2247.21 489.156V674H2202.65V489.156H2247.21ZM2302.82 489.156V523.561H2148.32V489.156H2302.82Z" fill="white"/>
<path d="M2448.94 639.723V674H2350.43V639.723H2448.94ZM2366.3 489.156V674H2321.74V489.156H2366.3ZM2436.25 562.535V595.67H2350.43V562.535H2436.25ZM2449.32 489.156V523.561H2350.43V489.156H2449.32Z" fill="white"/>
</svg>
