<svg width="256" height="130" viewBox="0 0 256 130" fill="none" xmlns="http://www.w3.org/2000/svg">
<path fill-rule="evenodd" clip-rule="evenodd" d="M121.614 95.378L121.62 95.3793C120.874 97.0222 119.78 98.4845 118.431 99.6833L118.43 99.6845H136.035L132.457 93.9001L121.614 95.378V95.378Z" fill="white"/>
<path fill-rule="evenodd" clip-rule="evenodd" d="M122.957 90.2533L129.748 89.3219L125.243 81.7024L122.957 90.2533Z" fill="white"/>
<mask id="mask0_1_16" style="mask-type:alpha" maskUnits="userSpaceOnUse" x="93" y="30" width="70" height="70">
<path d="M93.3281 30.3155H162.672V99.66H93.3281V30.3155Z" fill="white"/>
</mask>
<g mask="url(#mask0_1_16)">
<path fill-rule="evenodd" clip-rule="evenodd" d="M93.3281 30.3146V99.6585L101.132 99.6598C101.131 99.6598 101.131 99.6592 101.131 99.6585C99.0019 97.71 97.5375 95.0039 97.1048 91.8545L97.0948 91.7828C96.134 84.7855 100.622 78.3314 108.18 77.294C111.873 76.7878 114.504 77.4279 116.751 78.6602C117.371 79.0054 117.971 79.709 118.099 80.6597C118.302 82.1378 117.266 83.4614 115.79 83.6645C115.052 83.7657 114.521 83.5513 114.1 83.3601C112.434 82.4415 110.765 82.0259 108.83 82.2925C104.681 82.8615 102.167 86.7158 102.745 90.9359L102.755 91.0063C103.335 95.2246 106.736 98.3394 110.954 97.761C111.319 97.71 111.659 97.6453 111.982 97.5648C114.524 96.9046 116.491 94.887 117.237 92.3311L117.623 90.9919L121.454 77.6926C121.868 76.276 122.847 75.3153 124.323 75.1129L124.641 75.0707C126.117 74.8664 127.282 75.5316 128.064 76.7853L136.033 89.6866L134.277 76.8991C134.069 75.3857 135.101 74.0276 136.613 73.8208L143.96 72.811C149.833 72.0062 153.862 74.9984 154.552 80.0265L154.562 80.0963C155.343 85.7934 151.319 89.3534 145.798 90.111L141.684 90.6769L142.92 99.6585V99.6598L162.672 99.6585V30.3146H93.3281Z" fill="white"/>
<path fill-rule="evenodd" clip-rule="evenodd" d="M149.074 80.9452L149.065 80.8761C148.733 78.4478 146.856 77.378 144.137 77.7508L139.933 78.3251L140.97 85.8521L145.279 85.2616C148 84.8905 149.366 83.0559 149.074 80.9452Z" fill="white"/>
</g>
</svg>
