<svg width="256" height="130" viewBox="0 0 256 130" fill="none" xmlns="http://www.w3.org/2000/svg">
<path d="M61.5183 37.6055C61.2465 38.013 60.9104 38.3979 60.5102 38.7602C60.1099 39.1224 59.653 39.4356 59.1395 39.6998C58.6259 39.9639 58.0709 40.1715 57.4743 40.3224C56.8776 40.4733 56.2471 40.5488 55.5825 40.5488C54.3893 40.5488 53.2829 40.3375 52.2634 39.9149C51.2439 39.4922 50.3603 38.9073 49.6126 38.1602C48.865 37.413 48.2797 36.5262 47.8568 35.4998C47.4339 34.4734 47.2224 33.3489 47.2224 32.1263C47.2224 30.9036 47.4339 29.7791 47.8568 28.7527C48.2797 27.7263 48.865 26.8395 49.6126 26.0924C50.3603 25.3452 51.2439 24.7603 52.2634 24.3377C53.2829 23.915 54.3893 23.7037 55.5825 23.7037C56.5794 23.7037 57.5762 23.8999 58.5731 24.2924C59.5699 24.6848 60.4233 25.3339 61.1332 26.2395L59.7059 27.3037C59.5397 27.0471 59.3132 26.7905 59.0262 26.5339C58.7392 26.2773 58.4107 26.0509 58.0407 25.8546C57.6706 25.6584 57.2741 25.4999 56.8512 25.3792C56.4283 25.2584 56.0054 25.198 55.5825 25.198C54.5554 25.198 53.6341 25.3867 52.8185 25.7641C52.0028 26.1414 51.3118 26.6471 50.7454 27.281C50.179 27.915 49.7448 28.6508 49.4427 29.4886C49.1406 30.3263 48.9896 31.2055 48.9896 32.1263C48.9896 33.047 49.1406 33.9262 49.4427 34.764C49.7448 35.6017 50.179 36.3375 50.7454 36.9715C51.3118 37.6055 52.0028 38.1111 52.8185 38.4885C53.6341 38.8658 54.5554 39.0545 55.5825 39.0545C56.0054 39.0545 56.4245 39.0168 56.8399 38.9413C57.2553 38.8658 57.6631 38.7375 58.0633 38.5564C58.4636 38.3753 58.8412 38.13 59.1961 37.8205C59.5511 37.5111 59.8796 37.1224 60.1816 36.6545L61.5183 37.6055ZM65.402 24.1113H67.0332V31.0621H75.7784V24.1113H77.4096V40.1413H75.7784V32.5564H67.0332V40.1413H65.402V24.1113ZM84.5331 31.198H87.4331C88.158 31.198 88.7735 31.1225 89.2795 30.9716C89.7855 30.8206 90.1895 30.6206 90.4916 30.3716C90.7937 30.1225 91.0127 29.8282 91.1486 29.4886C91.2846 29.1489 91.3525 28.7829 91.3525 28.3905C91.3525 28.0131 91.2846 27.6546 91.1486 27.315C91.0127 26.9754 90.7937 26.6773 90.4916 26.4207C90.1895 26.1641 89.7855 25.9641 89.2795 25.8207C88.7735 25.6773 88.158 25.6056 87.4331 25.6056H84.5331V31.198ZM84.5331 40.1413H82.9019V24.1113H87.8409C89.4721 24.1113 90.7597 24.466 91.7037 25.1754C92.6477 25.8848 93.1197 26.9565 93.1197 28.3905C93.1197 29.5074 92.7685 30.447 92.0662 31.2093C91.3639 31.9716 90.3481 32.4131 89.019 32.5338L93.6408 40.1413H91.6471L87.2518 32.6923H84.5331V40.1413ZM99.1103 40.1413H97.4791V24.1113H99.1103V40.1413ZM112.192 26.7603C111.482 25.7188 110.448 25.198 109.088 25.198C108.666 25.198 108.25 25.2546 107.842 25.3678C107.435 25.481 107.068 25.6546 106.744 25.8886C106.419 26.1226 106.158 26.4244 105.962 26.7942C105.766 27.1641 105.667 27.598 105.667 28.0961C105.667 28.8206 105.871 29.3829 106.279 29.7829C106.687 30.1829 107.193 30.5112 107.797 30.7678C108.401 31.0244 109.062 31.2546 109.779 31.4583C110.497 31.6621 111.158 31.9338 111.762 32.2734C112.366 32.6131 112.872 33.0621 113.28 33.6206C113.688 34.1791 113.892 34.9413 113.892 35.9074C113.892 36.6319 113.737 37.2847 113.427 37.8658C113.117 38.447 112.71 38.9337 112.204 39.3262C111.698 39.7186 111.131 40.0205 110.504 40.2318C109.878 40.4432 109.247 40.5488 108.613 40.5488C107.631 40.5488 106.698 40.3639 105.815 39.9941C104.931 39.6243 104.18 39.0168 103.56 38.1715L105.033 37.1073C105.38 37.696 105.864 38.1677 106.483 38.5224C107.102 38.8771 107.835 39.0545 108.681 39.0545C109.088 39.0545 109.496 38.9903 109.904 38.862C110.312 38.7337 110.678 38.5451 111.003 38.296C111.328 38.047 111.596 37.7413 111.807 37.379C112.019 37.0168 112.124 36.6017 112.124 36.1338C112.124 35.5753 112.007 35.1111 111.773 34.7413C111.539 34.3715 111.229 34.0621 110.844 33.813C110.459 33.564 110.021 33.3564 109.53 33.1904C109.039 33.0244 108.533 32.8583 108.012 32.6923C107.491 32.5263 106.985 32.3376 106.494 32.1263C106.003 31.9149 105.565 31.647 105.18 31.3225C104.795 30.998 104.486 30.5904 104.251 30.0999C104.017 29.6093 103.9 28.9942 103.9 28.2546C103.9 27.4848 104.047 26.8131 104.342 26.2395C104.637 25.666 105.029 25.1905 105.52 24.8131C106.011 24.4358 106.566 24.1565 107.185 23.9754C107.805 23.7943 108.439 23.7037 109.088 23.7037C109.995 23.7037 110.818 23.8471 111.558 24.1339C112.298 24.4207 112.985 24.9263 113.62 25.6509L112.192 26.7603ZM123.484 40.1413H121.853V25.6056H116.484V24.1113H128.854V25.6056H123.484V40.1413ZM134.12 40.1413H132.488V24.1113H134.12V40.1413ZM141.719 34.4357H148.674L145.208 26.0131L141.719 34.4357ZM139.34 40.1413H137.437L144.415 24.1113H146.001L152.979 40.1413H151.076L149.309 35.93H141.107L139.34 40.1413ZM167.896 37.696H167.941V24.1113H169.572V40.1413H167.533L157.973 26.4207H157.927V40.1413H156.296V24.1113H158.335L167.896 37.696ZM176.696 40.1413H175.065V24.1113H176.696V40.1413ZM187.331 40.1413H185.7V25.6056H180.33V24.1113H192.7V25.6056H187.331V40.1413ZM201.478 40.1413H199.847V33.2357L193.843 24.1113H195.882L200.662 31.6734L205.443 24.1113H207.482L201.478 33.2357V40.1413Z" fill="white"/>
<path d="M57.0764 98.5016L63.8309 82.2335H66.9397V102.23H64.9048V84.9449H64.8483L57.6134 102.23H56.5394L49.3045 84.9449H49.2479V102.23H47.2131V82.2335H50.3219L57.0764 98.5016ZM76.0125 102.23H73.9776V82.2335H76.0125V102.23ZM97.5203 99.1795H97.5769V82.2335H99.6117V102.23H97.0682L85.1418 85.1143H85.0853V102.23H83.0504V82.2335H85.594L97.5203 99.1795ZM108.684 102.23H106.65V82.2335H108.684V102.23ZM125.19 85.538C124.305 84.2388 123.014 83.5892 121.318 83.5892C120.791 83.5892 120.273 83.6598 119.764 83.801C119.255 83.9422 118.798 84.1588 118.393 84.4506C117.988 84.7425 117.663 85.119 117.418 85.5803C117.173 86.0416 117.051 86.583 117.051 87.2043C117.051 88.1081 117.305 88.8095 117.814 89.3084C118.323 89.8074 118.954 90.2169 119.707 90.537C120.461 90.8571 121.285 91.1443 122.18 91.3984C123.075 91.6526 123.899 91.9916 124.653 92.4152C125.407 92.8389 126.038 93.399 126.547 94.0957C127.055 94.7923 127.31 95.7432 127.31 96.9482C127.31 97.852 127.117 98.6664 126.73 99.3913C126.344 100.116 125.835 100.723 125.204 101.213C124.573 101.703 123.867 102.079 123.085 102.343C122.303 102.606 121.516 102.738 120.725 102.738C119.5 102.738 118.337 102.507 117.234 102.046C116.132 101.585 115.195 100.827 114.422 99.7726L116.259 98.4451C116.693 99.1795 117.296 99.7679 118.068 100.21C118.841 100.653 119.754 100.874 120.81 100.874C121.318 100.874 121.827 100.794 122.336 100.634C122.844 100.474 123.301 100.239 123.706 99.9279C124.111 99.6172 124.446 99.2359 124.71 98.7841C124.973 98.3322 125.105 97.8144 125.105 97.2307C125.105 96.534 124.959 95.955 124.667 95.4937C124.375 95.0324 123.989 94.6464 123.509 94.3357C123.028 94.0251 122.482 93.7662 121.869 93.559C121.257 93.3519 120.626 93.1448 119.976 92.9377C119.326 92.7306 118.695 92.4952 118.082 92.2316C117.47 91.968 116.924 91.6338 116.443 91.229C115.963 90.8242 115.576 90.3158 115.284 89.7038C114.992 89.0919 114.846 88.3246 114.846 87.402C114.846 86.4417 115.03 85.6039 115.397 84.8884C115.765 84.1729 116.255 83.5798 116.867 83.1091C117.479 82.6383 118.172 82.29 118.944 82.064C119.717 81.8381 120.508 81.7251 121.318 81.7251C122.449 81.7251 123.476 81.904 124.399 82.2618C125.322 82.6195 126.179 83.2503 126.971 84.154L125.19 85.538ZM139.463 102.23H137.428V84.0976H130.73V82.2335H146.161V84.0976H139.463V102.23ZM152.916 91.0736H156.534C157.438 91.0736 158.206 90.9795 158.837 90.7912C159.468 90.6029 159.972 90.3534 160.349 90.0428C160.726 89.7321 160.999 89.3649 161.169 88.9413C161.338 88.5176 161.423 88.061 161.423 87.5715C161.423 87.1008 161.338 86.6536 161.169 86.2299C160.999 85.8063 160.726 85.4344 160.349 85.1143C159.972 84.7942 159.468 84.5447 158.837 84.3659C158.206 84.187 157.438 84.0976 156.534 84.0976H152.916V91.0736ZM152.916 102.23H150.882V82.2335H157.043C159.077 82.2335 160.684 82.676 161.861 83.5609C163.039 84.4459 163.627 85.7827 163.627 87.5715C163.627 88.9648 163.189 90.1369 162.313 91.0878C161.437 92.0386 160.17 92.5894 158.512 92.74L164.277 102.23H161.79L156.308 92.9377H152.916V102.23ZM171.287 102.23H169.252V82.2335H171.287V102.23ZM180.36 100.366H191.071V102.23H178.325V82.2335H190.732V84.0976H180.36V90.9042H190.054V92.7682H180.36V100.366ZM206.164 85.538C205.278 84.2388 203.987 83.5892 202.292 83.5892C201.764 83.5892 201.246 83.6598 200.737 83.801C200.229 83.9422 199.772 84.1588 199.367 84.4506C198.962 84.7425 198.637 85.119 198.392 85.5803C198.147 86.0416 198.024 86.583 198.024 87.2043C198.024 88.1081 198.279 88.8095 198.787 89.3084C199.296 89.8074 199.927 90.2169 200.681 90.537C201.435 90.8571 202.259 91.1443 203.154 91.3984C204.049 91.6526 204.873 91.9916 205.627 92.4152C206.38 92.8389 207.011 93.399 207.52 94.0957C208.029 94.7923 208.283 95.7432 208.283 96.9482C208.283 97.852 208.09 98.6664 207.704 99.3913C207.318 100.116 206.809 100.723 206.178 101.213C205.547 101.703 204.84 102.079 204.058 102.343C203.276 102.606 202.49 102.738 201.698 102.738C200.474 102.738 199.31 102.507 198.208 102.046C197.106 101.585 196.168 100.827 195.396 99.7726L197.233 98.4451C197.666 99.1795 198.269 99.7679 199.042 100.21C199.814 100.653 200.728 100.874 201.783 100.874C202.292 100.874 202.801 100.794 203.309 100.634C203.818 100.474 204.275 100.239 204.68 99.9279C205.085 99.6172 205.419 99.2359 205.683 98.7841C205.947 98.3322 206.079 97.8144 206.079 97.2307C206.079 96.534 205.933 95.955 205.641 95.4937C205.349 95.0324 204.963 94.6464 204.482 94.3357C204.002 94.0251 203.455 93.7662 202.843 93.559C202.231 93.3519 201.599 93.1448 200.949 92.9377C200.299 92.7306 199.668 92.4952 199.056 92.2316C198.444 91.968 197.897 91.6338 197.417 91.229C196.936 90.8242 196.55 90.3158 196.258 89.7038C195.966 89.0919 195.82 88.3246 195.82 87.402C195.82 86.4417 196.004 85.6039 196.371 84.8884C196.738 84.1729 197.228 83.5798 197.841 83.1091C198.453 82.6383 199.145 82.29 199.918 82.064C200.69 81.8381 201.482 81.7251 202.292 81.7251C203.422 81.7251 204.449 81.904 205.372 82.2618C206.296 82.6195 207.153 83.2503 207.944 84.154L206.164 85.538Z" fill="white"/>
<path d="M47.2626 49.4293H61.4182V53.6644H51.8536V57.5466H60.8884V61.7817H51.8536V66.0168H61.9479V70.2518H47.2626V49.4293ZM72.7917 59.6034L65.4381 49.4293H71.2063L75.6501 55.7894L80.3845 49.4293H85.9466L78.2731 59.7486L85.807 70.2518H80.506L75.4476 63.3661L65.0539 77.2543H59.6094L72.7917 59.6034ZM88.5101 49.4293H96.25C97.3291 49.4293 98.3493 49.5274 99.3107 49.7234C100.272 49.9195 101.111 50.2577 101.827 50.7381C102.543 51.2185 103.112 51.8655 103.534 52.6792C103.956 53.4929 104.167 54.5173 104.167 55.7526C104.167 56.9682 103.97 57.9877 103.578 58.8112C103.186 59.6347 102.646 60.2915 101.959 60.7817C101.273 61.2719 100.458 61.6199 99.5167 61.8258C98.5749 62.0317 97.5547 62.1346 96.456 62.1346H93.1011V70.2518H88.5101V49.4293ZM93.1011 58.2524H96.1617C96.5737 58.2524 96.971 58.2132 97.3536 58.1348C97.7362 58.0564 98.0795 57.924 98.3836 57.7377C98.6877 57.5515 98.933 57.2966 99.1194 56.9731C99.3058 56.6496 99.399 56.2427 99.399 55.7526C99.399 55.2232 99.2763 54.7967 99.0311 54.4732C98.7858 54.1497 98.4719 53.8997 98.0893 53.7232C97.7068 53.5468 97.28 53.434 96.8092 53.385C96.3383 53.336 95.887 53.3115 95.4554 53.3115H93.1011V58.2524ZM108.045 49.4293H112.636V66.0168H121.141V70.2518H108.045V49.4293ZM123.371 59.8406C123.371 58.174 123.651 56.6643 124.21 55.3114C124.769 53.9585 125.549 52.8066 126.55 51.8557C127.55 50.9047 128.737 50.1744 130.111 49.6646C131.484 49.1548 132.985 48.8999 134.613 48.8999C136.242 48.8999 137.743 49.1548 139.116 49.6646C140.489 50.1744 141.676 50.9047 142.677 51.8557C143.678 52.8066 144.458 53.9585 145.017 55.3114C145.576 56.6643 145.855 58.174 145.855 59.8406C145.855 61.5072 145.576 63.0169 145.017 64.3698C144.458 65.7227 143.678 66.8745 142.677 67.8255C141.676 68.7764 140.489 69.5068 139.116 70.0166C137.743 70.5263 136.242 70.7812 134.613 70.7812C132.985 70.7812 131.484 70.5263 130.111 70.0166C128.737 69.5068 127.55 68.7764 126.55 67.8255C125.549 66.8745 124.769 65.7227 124.21 64.3698C123.651 63.0169 123.371 61.5072 123.371 59.8406ZM128.139 59.8406C128.139 60.8209 128.291 61.7179 128.595 62.5316C128.899 63.3453 129.336 64.0512 129.905 64.6492C130.474 65.2472 131.155 65.7128 131.95 66.0462C132.745 66.3795 133.632 66.5461 134.613 66.5461C135.594 66.5461 136.482 66.3795 137.277 66.0462C138.071 65.7128 138.753 65.2472 139.322 64.6492C139.891 64.0512 140.328 63.3453 140.632 62.5316C140.936 61.7179 141.088 60.8209 141.088 59.8406C141.088 58.8798 140.936 57.9877 140.632 57.1642C140.328 56.3408 139.891 55.63 139.322 55.032C138.753 54.434 138.071 53.9683 137.277 53.635C136.482 53.3017 135.594 53.135 134.613 53.135C133.632 53.135 132.745 53.3017 131.95 53.635C131.155 53.9683 130.474 54.434 129.905 55.032C129.336 55.63 128.899 56.3408 128.595 57.1642C128.291 57.9877 128.139 58.8798 128.139 59.8406ZM149.793 49.4293H157.856C158.916 49.4293 159.921 49.5323 160.873 49.7381C161.824 49.944 162.658 50.2871 163.374 50.7675C164.09 51.2479 164.659 51.8949 165.081 52.7086C165.503 53.5223 165.714 54.5369 165.714 55.7526C165.714 57.2231 165.331 58.473 164.566 59.5024C163.801 60.5317 162.683 61.1837 161.211 61.4582L166.509 70.2518H161.005L156.65 61.9287H154.384V70.2518H149.793V49.4293ZM154.384 58.0466H157.091C157.503 58.0466 157.94 58.0319 158.401 58.0024C158.862 57.973 159.279 57.8848 159.652 57.7377C160.024 57.5907 160.333 57.3603 160.579 57.0466C160.824 56.7329 160.946 56.2917 160.946 55.7231C160.946 55.1938 160.838 54.7722 160.623 54.4585C160.407 54.1448 160.132 53.9046 159.799 53.7379C159.465 53.5713 159.083 53.4585 158.651 53.3997C158.219 53.3409 157.797 53.3115 157.385 53.3115H154.384V58.0466ZM169.857 49.4293H184.013V53.6644H174.448V57.5466H183.483V61.7817H174.448V66.0168H184.542V70.2518H169.857V49.4293ZM189.039 49.4293H195.925C197.593 49.4293 199.177 49.6156 200.678 49.9881C202.179 50.3607 203.489 50.9636 204.607 51.7969C205.725 52.6302 206.613 53.7134 207.27 55.0467C207.928 56.38 208.256 57.9975 208.256 59.8994C208.256 61.5856 207.937 63.0708 207.3 64.3551C206.662 65.6393 205.804 66.7177 204.725 67.5902C203.646 68.4627 202.4 69.1244 200.987 69.5754C199.575 70.0264 198.093 70.2518 196.543 70.2518H189.039V49.4293ZM193.63 66.0168H196.014C197.073 66.0168 198.059 65.9089 198.971 65.6932C199.884 65.4776 200.673 65.1197 201.34 64.6198C202.007 64.1198 202.532 63.463 202.915 62.6493C203.297 61.8356 203.489 60.8405 203.489 59.6641C203.489 58.6446 203.297 57.7574 202.915 57.0025C202.532 56.2476 202.017 55.6251 201.37 55.1349C200.722 54.6448 199.962 54.2771 199.089 54.032C198.216 53.787 197.299 53.6644 196.337 53.6644H193.63V66.0168Z" fill="white"/>
</svg>
