<?xml version="1.0" encoding="UTF-8"?><svg version="1.1" width="997px" height="146px" viewBox="0 0 997.0 146.0" xmlns="http://www.w3.org/2000/svg" xmlns:xlink="http://www.w3.org/1999/xlink"><defs><clipPath id="i0"><path d="M364.7,31.2 C373.7,31.2 382.5,33.7 390.1,38.4 L390.1,51 L389.5,50.7 C382.6,45.9 374.3,43.4 365.9,43.4 C357.4,43.4 350.8,45.8 346,50.7 C341.2,55.5 338.8,62 338.8,69.9 C338.8,77.8 341.2,84.2 346,89.1 C350.8,94 357.4,96.4 365.9,96.4 C374.3,96.4 382.6,93.9 389.5,89.1 L390.1,89.1 L390.1,101.6 C382.4,106.3 373.7,108.7 364.7,108.8 C354.4,109 344.5,105.3 336.9,98.3 C329.2,91.3 325.4,81.9 325.4,70 C325.4,58.1 329.2,48.7 336.9,41.7 C344.4,34.7 354.4,31 364.7,31.2 Z M86.3,12.8 L86.3,26.1 L85.5,26.1 C75.6,19.5 64,16 52.1,16.1 C40,16.1 30.5,19.8 23.6,27.3 C16.7,34.7 13.3,44.3 13.3,56.1 C13.3,67.8 16.7,77.4 23.6,84.9 C30.5,92.3 40,96.1 52.1,96.1 C64,96.2 75.6,92.7 85.5,86.1 L86.3,86.1 L86.3,99.3 C75.8,105.6 63.7,108.9 51.5,108.8 C36.5,108.8 24.2,104 14.5,94.5 C4.8,85 0,72.2 0,56.1 C0,40 4.8,27.2 14.5,17.6 C24.1,8 36.4,3.3 51.4,3.4 C63.7,3.3 75.8,6.5 86.3,12.8 Z M786.1,30.9 C797.6,30.9 806.3,34.7 812.3,42.2 C818.3,50.1 821.5,59.9 821.2,69.8 L821.2,74.5 L764.5,74.5 C764.9,80.6 767.7,86.3 772.1,90.5 C776.4,94.3 783,96.2 791.7,96.2 C800.4,96.2 808.8,93.7 816,88.9 L816.7,88.9 L816.7,101.8 C807.8,106.6 797.8,108.9 787.7,108.7 C776.6,108.7 767.7,105.3 761,98.5 C754.3,91.7 750.9,82.5 750.9,70.9 C750.9,59.3 753.9,49.7 759.9,42.2 C765.9,34.7 774.6,30.9 786.1,30.9 Z M196,100.5 C191.2,94.7 188.7,87.4 189,79.9 L189,32.3 L202.4,32.3 L202.4,78.4 C202.4,90.4 207.8,96.3 218.6,96.3 C227.1,96.3 235.1,91.6 242.7,82.2 L242.7,32.3 L256.1,32.3 L256.1,107.2 L244.3,107.2 L242.7,97.8 L242.7,95.6 L242.4,95.6 C234.537931,104.15 225.710048,108.546998 215.821433,108.696077 L215.3,108.7 C207.1,108.7 200.7,106 196,100.5 Z M593.1,32.3 L593.1,78.4 C593.1,90.4 598.5,96.3 609.3,96.3 C617.8,96.3 625.9,91.6 633.4,82.2 L633.4,32.3 L646.8,32.3 L646.8,107.2 L635,107.2 L633.4,97.8 L633.4,95.6 L633.1,95.6 C625.1,104.3 616.1,108.7 606,108.7 C597.8,108.7 591.4,106 586.7,100.5 C581.9,94.7 579.4,87.4 579.7,79.9 L579.7,32.3 L593.1,32.3 Z M720,16.2 L720,32.3 L741.4,32.3 L741.4,43.8 L720,43.8 L720,88.1 C720,92.2 721.1,94.8 723.4,95.7 C725.7,96.6 728.1,97 730.6,96.9 C734,96.8 737.3,96 740.3,94.6 L741.4,94.6 L741.4,105.4 C737.3,107.6 732.8,108.7 728.2,108.6 C713.9,108.6 706.8,102.1 706.7,89.2 L706.7,43.8 L692.7,43.8 L692.7,42.9 L720,16.2 Z M557.6,8.4 L557.6,21 L556.6,21 C548.2,17.5 539.2,15.6 530.1,15.4 C521.6,15.4 515,16.9 510,19.9 C505.6,22.3 502.8,27.1 502.8,32.3 C502.8,36 504.5,39.4 507.5,41.6 C510.9,44.2 514.8,46.1 518.9,47.2 L533.8,51.6 L549,56.1 C553.7,57.5 557.8,60.4 560.6,64.4 C563.7,69 565.3,74.5 565.1,80 C565.2,88.2 561.4,95.9 554.7,100.6 C547.8,105.9 538.2,108.6 525.8,108.6 C513.6,108.6 501.5,105.9 490.5,100.7 L490.5,87.6 L491.2,87.6 C501.9,93.4 513.9,96.3 526,96.1 C543.2,96.1 551.7,90.4 551.7,79.1 C551.7,73.5 547.5,69.5 539.2,66.9 L527.2,63.4 L513.9,59.5 C509.6,58.3 505.5,56.6 501.6,54.5 C497.9,52.5 494.9,49.6 492.6,46.1 C490.2,42.3 489,37.9 489.1,33.4 C489,25 492.8,17.1 499.4,11.9 C506.1,6.1 515.2,3.2 526.6,3.2 C537.2,3 547.6,4.8 557.6,8.4 Z M116.3,-7.10542736e-15 L116.3,43.9 L116.7,43.9 C124.7,35.2 133.7,30.9 143.7,30.9 C151.9,30.9 158.3,33.6 163,39.1 C167.8,44.9 170.3,52.2 170,59.7 L170,107.3 L156.6,107.3 L156.6,61.2 C156.6,49.3 151.2,43.3 140.4,43.3 C131.9,43.3 123.8,48 116.3,57.3 L116.3,107.2 L102.9,107.2 L102.9,-7.10542736e-15 L116.3,-7.10542736e-15 Z M419.5,-7.10542736e-15 L419.5,43.9 L419.9,43.9 C427.9,35.2 436.8,30.9 446.8,30.9 C455,30.9 461.4,33.6 466.1,39.1 C470.9,44.9 473.4,52.2 473.1,59.7 L473.1,107.3 L459.8,107.3 L459.8,61.2 C459.8,49.3 454.4,43.3 443.6,43.3 C435.1,43.3 427,48 419.5,57.3 L419.5,107.2 L406.1,107.2 L406.1,-7.10542736e-15 L419.5,-7.10542736e-15 Z M317.6,30.9 L318.8,30.9 L318.8,43.6 L317.6,43.6 C312,43.6 306.5,44.8 301.4,47.1 C296.7,49.1 292.6,52.4 289.6,56.5 L289.6,107.2 L276.2,107.2 L276.2,32.3 L288,32.3 L289.6,41.7 L289.6,43.9 L289.9,43.9 C296.6,35.4 306.8,30.6 317.6,30.9 Z M681,32.3 L681,107.2 L667.6,107.2 L667.6,32.3 L681,32.3 Z M786.2,42.3 C780.8,42.3 775.7,44.2 771.6,47.7 C767.2,51.2 764.9,56.5 764.5,63.7 L807.9,63.7 C807.5,56.7 805.1,51.4 800.8,47.7 C796.7,44.2 791.6,42.3 786.2,42.3 Z"></path></clipPath><clipPath id="i1"><path d="M72.7,0 C112.851101,0 145.4,32.5041272 145.4,72.6 C145.4,112.695873 112.851101,145.2 72.7,145.2 C32.5488987,145.2 0,112.695873 0,72.6 C0,32.5041272 32.5488987,0 72.7,0 Z"></path></clipPath><clipPath id="i2"><path d="M64.6766407,60.2936083 C71.2766407,60.6936083 77.7766407,61.4936083 84.1766407,62.8936083 C88.8766407,63.9936083 93.5766407,65.3936083 98.2766407,66.7936083 C100.576641,67.4936083 102.776641,68.3936083 105.076641,69.0936083 C105.676641,69.2936083 105.876641,69.5936083 105.676641,70.2936083 C102.476641,80.1936083 96.4766407,88.9936083 88.3766407,95.5936083 C83.0766407,99.9936083 76.9766407,103.393608 70.3766407,105.593608 C69.7766407,105.793608 69.4766407,105.593608 69.2766407,105.093608 C67.2766407,100.193608 65.6766407,95.1936083 64.5766407,90.0936083 C63.4766407,84.6936083 62.3766407,79.2936083 61.5766407,73.8936083 C60.9766407,70.2936083 60.8766407,66.5936083 60.5766407,62.9936083 C60.5766407,62.2936083 60.5766407,61.6936083 60.4766407,60.9936083 C60.3828907,60.3373583 60.6407032,60.2963427 61.0028858,60.2937792 L64.6766407,60.2936083 Z M44.5766407,60.0936083 C45.1766407,60.0936083 45.3766407,60.2936083 45.2766407,60.8936083 C45.2766407,61.5936083 45.2766407,62.5936083 45.1766407,63.2936083 C44.7766407,70.1936083 43.8766407,77.0936083 42.4766407,83.7936083 C41.1766407,90.2936083 39.3766407,96.6936083 37.1766407,102.893608 C36.8766407,103.593608 36.5766407,104.393608 36.3766407,105.093608 C36.1766407,105.593608 35.9766407,105.693608 35.4766407,105.493608 C22.3766407,101.193608 11.3766407,92.0936083 4.57664068,80.0936083 C2.67664068,76.8936083 1.17664068,73.4936083 0.076640683,69.8936083 C-0.123359317,69.2936083 0.076640683,68.9936083 0.576640683,68.8936083 C7.07664068,66.3936083 13.7766407,64.3936083 20.5766407,62.7936083 C26.8766407,61.4936083 33.3766407,60.5936083 39.8766407,60.2936083 C41.4766407,60.2936083 43.0766407,60.1936083 44.5766407,60.0936083 Z M70.1766407,0.0936083291 C84.5766407,4.79360833 96.4766407,15.2936083 102.876641,28.9936083 C103.876641,31.0936083 104.676641,33.3936083 105.476641,35.4936083 C105.676641,35.9936083 105.476641,36.2936083 104.976641,36.4936083 C99.0766407,38.6936083 93.0766407,40.4936083 86.9766407,41.9936083 C79.8766407,43.6936083 72.6766407,44.6936083 65.3766407,44.9936083 L65.4766407,45.2936083 L60.9766407,45.2936083 C60.4766407,45.2936083 60.2766407,45.1936083 60.2766407,44.5936083 C60.5766407,36.8936083 61.5766407,29.2936083 63.0766407,21.6936083 C63.9766407,16.8936083 65.0766407,12.1936083 66.5766407,7.59360833 C67.3766407,5.19360833 68.3766407,2.89360833 69.0766407,0.593608329 C69.2766407,-0.00639167095 69.6766407,-0.106391671 70.1766407,0.0936083291 Z M36.5766407,0.593608329 C37.7766407,4.09360833 39.0766407,7.59360833 40.0766407,11.1936083 C41.9766407,17.9936083 43.3766407,24.9936083 44.2766407,32.0936083 C44.6766407,35.0936083 44.8766407,37.9936083 45.1766407,40.9936083 L45.0766407,40.8936083 C45.0766407,42.0936083 45.1766407,43.3936083 45.2766407,44.5936083 C45.2766407,45.0936083 45.1766407,45.2936083 44.6766407,45.2936083 C36.6766407,45.0936083 28.5766407,44.1936083 20.7766407,42.5936083 C13.8766407,40.9936083 7.07664068,38.9936083 0.476640683,36.4936083 C-0.023359317,36.2936083 -0.023359317,35.9936083 0.076640683,35.5936083 C2.97664068,26.5936083 8.17664068,18.4936083 15.0766407,12.1936083 C20.9766407,6.79360833 27.9766407,2.59360833 35.5766407,0.0936083291 C36.0766407,-0.106391671 36.3766407,0.0936083291 36.5766407,0.593608329 Z"></path></clipPath><clipPath id="i3"><path d="M14.2,0.2 C14.7,1.6 15.1,2.9 15.5,4.3 C16.2,6.9 16.8,9.6 17.1,12.4 C17.3,13.5 17.4,14.7 17.5,15.9 L17.5,17.3 C17.5,17.5 17.5,17.6 17.3,17.6 C14.2,17.5 11.1,17.2 8,16.6 C5.3,16 2.7,15.2 0.2,14.2 C0,14.2 0,14 0,13.8 C1.1,10.3 3.2,7.2 5.9,4.8 C8.2,2.7 10.8,1.1 13.8,0 C14,0 14.1,0 14.2,0.2 Z"></path></clipPath></defs><g transform="translate(174.80000000000007 17.999999999999993)"><g clip-path="url(#i0)"><polygon points="0,-7.10542736e-15 821.219341,-7.10542736e-15 821.219341,108.807702 0,108.807702 0,-7.10542736e-15" stroke="none" fill="#1F2453"></polygon></g></g><g clip-path="url(#i1)"><polygon points="0,0 145.4,0 145.4,145.2 0,145.2 0,0" stroke="none" fill="#1F2453"></polygon></g><g transform="translate(19.823359317032967 19.806391670948415)"><g clip-path="url(#i2)"><polygon points="7.10542736e-15,0 105.751641,0 105.751641,105.670249 7.10542736e-15,105.670249 7.10542736e-15,0" stroke="none" fill="#FFFFFF"></polygon></g></g><g transform="translate(840.3 19.599999999999994)"><g clip-path="url(#i3)"><polygon points="0,0 17.5,0 17.5,17.6 0,17.6 0,0" stroke="none" fill="#1F2453"></polygon></g></g></svg>