<?xml version="1.0" encoding="UTF-8"?>
<svg width="1000px" height="274px" viewBox="0 0 1000 274" version="1.1" xmlns="http://www.w3.org/2000/svg" xmlns:xlink="http://www.w3.org/1999/xlink">
    <title>CMS/White</title>
    <g id="CMS/White" stroke="none" stroke-width="1" fill="none" fill-rule="evenodd">
        <path d="M559.769563,273.606477 C556.793087,273.151009 552.592415,272.024324 549.831973,270.945584 C547.527604,270.05862 542.510802,267.54156 541.574652,266.846372 L541.022564,266.414876 L542.246759,258.024674 C542.942871,253.42205 543.518963,249.634473 543.542967,249.610501 C543.542967,249.610501 544.551128,250.233773 545.727316,251.000877 C549.879981,253.757658 554.608737,255.93911 558.929429,257.13771 C561.833893,257.928786 566.946711,258.168506 568.891023,257.61715 C570.835334,257.041822 572.347576,255.987054 573.139702,254.644622 C573.715795,253.637798 573.81181,253.254246 573.81181,251.576205 C573.81181,249.370781 573.475756,248.603677 572.011522,247.165357 C570.595295,245.798953 568.62698,244.864044 563.538166,243.13806 C556.457033,240.764832 552.856457,238.895016 549.663946,235.946459 C544.047048,230.744534 541.646663,222.618025 543.326932,214.515488 C544.695151,207.947159 548.919827,202.69729 555.328853,199.532986 C561.281805,196.608401 568.218915,195.937185 576.476236,197.54331 C579.476716,198.118638 585.573692,200.06037 587.854057,201.187054 L589.43831,201.954158 L588.214114,210.248471 L587.013922,218.566757 L585.573692,217.823624 C575.156025,212.549784 565.674508,211.135436 562.217955,214.371656 C560.585694,215.905864 560.081613,219.118113 561.137782,221.155733 C562.31397,223.385129 564.378301,224.535785 571.291407,226.885042 C573.859818,227.748034 577.172348,229.042522 578.612578,229.761682 C586.965915,233.884867 591.694671,240.644972 592.102736,249.083117 C592.726836,261.956083 584.56553,271.592828 571.291407,273.630449 C568.43495,274.085917 562.794047,274.061945 559.769563,273.606477 Z M636.581853,273.726337 C635.717715,273.630449 633.989438,273.294841 632.741239,273.007177 C617.378781,269.507264 606.240999,258.21645 602.952472,242.826424 C602.160346,239.158708 602.136342,231.895191 602.904465,228.083642 C604.104657,222.210501 606.553048,216.672968 609.865578,212.310064 C611.521843,210.128611 614.81037,206.796503 617.018723,205.070519 C626.164186,197.926862 638.50216,195.146109 650.31205,197.519338 C671.147384,201.73841 684.517523,220.987929 681.06097,241.867544 C678.348536,258.45617 665.098416,271.113388 647.839654,273.630449 C645.103217,274.014001 639.270283,274.061945 636.581853,273.726337 Z M647.263562,255.555558 C649.831973,254.884342 653.144503,253.230274 655.088814,251.600177 C658.209313,249.035173 660.705713,245.103764 661.833893,241.004552 C662.265963,239.4224 662.337974,238.46352 662.337974,235.275243 C662.361978,231.799303 662.289966,231.247946 661.713874,229.330186 C659.697552,222.737885 655.304849,217.991429 649.159866,215.762032 C646.423428,214.77918 644.047048,214.443572 640.710514,214.611376 C637.229957,214.803152 635.693711,215.186704 632.621219,216.69694 C627.292367,219.333861 623.739798,223.720737 622.035526,229.785654 C621.43543,231.943135 621.31541,237.264919 621.795487,239.710064 C623.523764,248.172181 629.644743,254.237098 638.142103,255.915138 C640.422468,256.370606 644.791167,256.17883 647.263562,255.555558 Z M725.204033,273.606477 C715.866539,272.264044 706.961114,267.54156 701.032165,260.829399 C690.830533,249.250921 688.526164,232.758183 695.175228,218.854421 C698.847816,211.18338 705.616899,204.471219 713.394143,200.77953 C723.931829,195.793353 736.74988,195.361857 747.863658,199.604902 L750.072012,200.443922 L749.951992,201.211026 C749.903985,201.61855 749.279885,205.669819 748.583773,210.224499 C747.887662,214.77918 747.215554,218.470869 747.095535,218.446897 C746.975516,218.422925 745.847336,217.943485 744.599136,217.392128 C743.350936,216.840772 741.070571,216.073668 739.558329,215.666144 C736.941911,214.970956 736.557849,214.923012 732.237158,214.923012 C727.916467,214.923012 727.556409,214.946984 725.540086,215.570256 C717.066731,218.183205 711.641863,224.607701 710.801728,232.997903 C709.697552,243.85722 716.058569,252.798778 726.740278,255.45967 C727.964474,255.747334 729.428709,255.867194 732.237158,255.867194 C735.597696,255.867194 736.389822,255.795278 738.62218,255.243922 C741.50264,254.524762 744.167067,253.517938 746.711474,252.175506 C747.647624,251.696065 748.43975,251.408401 748.43975,251.552233 C748.463754,251.696065 749.039846,255.795278 749.735958,260.637623 L751.008161,269.45932 L749.879981,270.034648 C748.343735,270.801752 744.167067,272.240072 741.742679,272.815401 C736.941911,273.966057 729.956793,274.301665 725.204033,273.606477 Z M0,136.630449 L0,0.229748724 L90.9745559,0.229748724 L181.949112,0.229748724 L181.949112,45.6566954 L181.949112,91.083642 L136.461834,91.083642 L90.9745559,91.083642 L90.9745559,136.630449 L90.9745559,182.177255 L136.461834,182.177255 L181.949112,182.177255 L181.949112,227.604202 L181.949112,273.031149 L90.9745559,273.031149 L0,273.031149 L0,136.630449 Z M273.163706,227.604202 L273.163706,182.177255 L318.650984,182.177255 L364.138262,182.177255 L364.138262,136.630449 L364.138262,91.083642 L318.650984,91.083642 L273.163706,91.083642 L273.163706,45.6566954 L273.163706,0.229748724 L364.138262,0.229748724 L455.112818,0.229748724 L455.112818,136.630449 L455.112818,273.031149 L364.138262,273.031149 L273.163706,273.031149 L273.163706,227.604202 Z M765.722516,235.395103 L765.722516,198.238498 L775.084013,198.238498 L784.445511,198.238498 L784.445511,235.395103 L784.445511,272.551708 L775.084013,272.551708 L765.722516,272.551708 L765.722516,235.395103 Z M802.208353,235.395103 L802.208353,198.238498 L823.931829,198.238498 L845.655305,198.238498 L845.775324,198.789854 C845.823332,199.077518 846.327412,202.45757 846.855497,206.269119 C847.383581,210.104639 847.887662,213.508664 847.959674,213.892216 L848.103697,214.53946 L834.397504,214.53946 L820.691311,214.53946 L820.691311,220.532461 L820.691311,226.525462 L831.733077,226.525462 L842.774844,226.525462 L842.774844,234.675943 L842.774844,242.826424 L831.733077,242.826424 L820.691311,242.826424 L820.691311,249.418725 L820.691311,256.011026 L834.853577,256.011026 C846.015362,256.011026 849.015843,256.082942 849.015843,256.322662 C849.039846,256.466494 848.535766,260.206127 847.911666,264.593003 L846.783485,272.551708 L824.483917,272.551708 L802.208353,272.551708 L802.208353,235.395103 Z M876.140182,244.144884 L876.140182,215.73806 L866.898704,215.73806 L857.657225,215.73806 L857.801248,214.851096 C857.87326,214.347684 858.449352,210.440247 859.073452,206.149259 L860.201632,198.358358 L885.453673,198.286442 C899.351896,198.26247 910.705713,198.26247 910.705713,198.310414 C910.705713,198.358358 911.257801,202.074018 911.905905,206.580755 C912.578012,211.087492 913.106097,214.994928 913.106097,215.25862 C913.106097,215.73806 912.93807,215.73806 903.984638,215.73806 L894.863178,215.73806 L894.863178,244.144884 L894.863178,272.551708 L885.50168,272.551708 L876.140182,272.551708 L876.140182,244.144884 Z M943.110898,259.079443 L943.110898,245.583205 L931.589054,222.066669 C925.25204,209.097815 920.067211,198.454246 920.067211,198.38233 C920.067211,198.310414 924.675948,198.238498 930.340855,198.238498 L940.590494,198.238498 L943.807009,205.621875 C951.848296,224.128261 952.304369,225.111114 952.496399,224.799478 C952.616419,224.631673 955.256841,218.590729 958.401344,211.375156 L964.114258,198.238498 L974.483917,198.238498 L984.853577,198.238498 L982.357177,203.344534 C981.012962,206.125287 975.828133,216.672968 970.859337,226.765182 L961.833893,245.103764 L961.833893,258.81575 L961.833893,272.551708 L952.472396,272.551708 L943.110898,272.551708 L943.110898,259.079443 Z M698.055689,175.441122 C695.319251,175.153458 691.070571,174.170606 688.094095,173.163782 C685.861738,172.396678 679.020643,169.160457 678.06049,168.441297 C677.676428,168.129661 677.724436,167.554333 678.87662,159.73946 C679.548728,155.136835 680.12482,151.349259 680.148824,151.301315 C680.196831,151.253371 681.228997,151.876643 682.453193,152.691691 C686.989918,155.616275 691.766683,157.797728 696.087374,158.876468 C698.199712,159.403852 699.183869,159.49974 701.8723,159.49974 C704.608737,159.523712 705.304849,159.427824 706.337014,159.0203 C709.169467,157.869644 710.513682,155.975855 710.513682,153.195103 C710.513682,151.205427 709.985598,150.006827 708.521363,148.688366 C707.009121,147.274018 705.160826,146.434998 699.951992,144.66107 C692.774844,142.239897 689.390302,140.441997 686.197792,137.373581 C683.293327,134.592828 681.517043,131.668244 680.364858,127.832723 C679.572732,125.219775 679.284686,119.874018 679.788766,117.117238 C681.829093,105.706564 691.790687,98.275243 705.040807,98.275243 C710.753721,98.275243 718.530965,100.073143 724.483917,102.78198 C726.020163,103.477168 726.092175,103.549084 725.996159,104.196328 C725.924148,104.555908 725.37206,108.271568 724.771964,112.418725 C724.171867,116.565882 723.667787,119.993878 723.619779,120.01785 C723.571771,120.065794 722.323572,119.514438 720.81133,118.795278 C706.865098,112.202977 697.239558,112.802277 697.239558,120.209626 C697.239558,122.007527 697.839654,123.278043 699.327892,124.572531 C700.792127,125.867019 702.232357,126.514263 708.209313,128.599827 C715.746519,131.212776 718.698992,132.8189 722.131541,136.127037 C724.339894,138.260545 725.588094,140.010501 726.836294,142.719338 C728.204513,145.667894 728.56457,147.321962 728.68459,151.253371 C728.780605,154.106039 728.708593,155.136835 728.324532,157.054596 C727.820451,159.523712 726.692271,162.400352 725.348056,164.605777 C724.291887,166.379705 721.363418,169.472093 719.491119,170.814526 C714.138262,174.626074 706.385022,176.304114 698.055689,175.441122 Z M760.681709,175.465094 C757.681229,175.081542 754.080653,174.314438 751.368219,173.427474 C748.55977,172.492566 740.566491,168.681017 740.37446,168.153633 C740.254441,167.841997 742.582813,151.517063 742.75084,151.325287 C742.798848,151.301315 743.903024,151.972531 745.223236,152.835523 C748.295727,154.849171 752.68843,157.006652 755.880941,158.06142 C761.137782,159.811376 766.418627,160.09904 769.25108,158.804552 C771.963514,157.58198 773.019683,155.975855 773.043687,153.171131 C773.043687,151.636923 772.947672,151.205427 772.395583,150.246547 C771.027364,147.945234 769.011042,146.81855 761.905905,144.445322 C756.361018,142.575506 753.504561,141.209101 750.672108,139.051621 C746.711474,136.031149 743.879021,131.764132 742.630821,126.921787 C741.862698,123.901315 741.886702,118.267894 742.654825,115.415226 C744.335094,109.158533 748.391743,104.172356 754.176668,101.271743 C760.417667,98.155383 767.882861,97.4841669 776.284205,99.2820672 C781.012962,100.288891 788.526164,103.0217 788.526164,103.764832 C788.526164,104.2203 786.365819,119.370606 786.245799,119.77813 C786.173788,119.969906 785.045607,119.562382 782.981277,118.603502 C772.275564,113.713213 764.618339,112.850221 761.305809,116.158358 C760.153625,117.332986 759.841575,118.124062 759.841575,120.089766 C759.841575,121.623974 759.93759,122.055471 760.513682,123.038323 C761.785886,125.171831 763.538166,126.154683 770.451272,128.503939 C773.18771,129.438848 776.452232,130.685392 777.652424,131.284692 C783.677388,134.209276 788.022084,138.739985 789.966395,144.037798 C792.222756,150.222575 791.766683,157.174456 788.694191,163.119513 C785.453673,169.376205 779.764762,173.403502 771.915506,175.009626 C769.083053,175.584954 763.514162,175.800702 760.681709,175.465094 Z M874.459914,175.441122 C858.905425,173.787054 845.919347,163.598953 841.118579,149.21575 C839.654345,144.804902 839.318291,142.527561 839.318291,136.990029 C839.318291,132.675068 839.390302,131.596328 839.870379,129.438848 C843.734998,111.411901 858.37734,99.1861792 877.100336,98.347159 C885.957753,97.963607 894.383101,100.312863 901.824292,105.251096 C904.896783,107.288716 909.841575,112.226949 911.881901,115.295366 C918.819011,125.699215 920.403265,138.116713 916.298608,149.910939 C913.130101,159.116188 906.00096,167.050921 896.903505,171.58163 C890.518483,174.745934 881.8771,176.232198 874.459914,175.441122 Z M884.421507,157.150484 C887.758041,156.215575 891.142583,154.201927 893.566971,151.684867 C896.087374,149.09589 897.743639,146.123362 898.7518,142.503589 C899.183869,140.921437 899.255881,139.962557 899.255881,136.870169 C899.255881,133.53806 899.183869,132.93876 898.607777,131.021 C896.303409,123.421875 891.022564,118.387754 883.413346,116.589854 C881.277004,116.06247 876.596255,116.06247 874.315891,116.565882 C866.370619,118.291866 860.345655,124.476643 858.737398,132.531236 C858.401344,134.089416 858.353337,135.311988 858.449352,137.924937 C858.593375,141.904289 859.073452,143.846022 860.681709,146.93841 C863.490158,152.380055 868.146904,155.927911 874.339894,157.366232 C876.308209,157.845672 882.453193,157.70184 884.421507,157.150484 Z M541.286606,173.643222 C541.286606,173.163782 548.415747,102.829924 548.631781,101.103939 L548.775804,99.9532833 L557.321171,99.9532833 L565.890542,99.9532833 L575.25204,118.45967 C580.412866,128.623799 584.733557,137.109889 584.87758,137.301665 C585.093615,137.589329 587.085934,133.753808 594.599136,118.81925 L604.056649,99.9532833 L612.62602,99.9532833 L621.195391,99.9532833 L621.339414,100.984079 C621.555449,102.566232 628.660586,172.876118 628.660586,173.475418 L628.660586,174.026774 L619.299088,174.026774 L609.93759,174.026774 L609.841575,173.49939 C609.769563,173.187754 609.025444,164.749609 608.137302,154.729311 C607.273164,144.709014 606.481037,136.127037 606.385022,135.69554 C606.216995,134.904464 605.640903,135.911289 595.655305,154.321787 C589.846375,165.013301 585.045607,173.763082 584.973596,173.787054 C584.901584,173.787054 580.100816,165.061245 574.291887,154.369731 C568.482957,143.70219 563.682189,134.952408 563.610178,134.952408 C563.538166,134.952408 562.722036,143.726162 561.80989,154.441647 L560.129621,173.906914 L550.696111,173.97883 C542.030725,174.026774 541.286606,174.002802 541.286606,173.643222 Z M644.263082,136.990029 L644.263082,99.9532833 L653.62458,99.9532833 L662.986078,99.9532833 L662.986078,136.990029 L662.986078,174.026774 L653.62458,174.026774 L644.263082,174.026774 L644.263082,136.990029 Z M806.529045,136.990029 L806.529045,99.9532833 L815.770523,99.9532833 L825.012002,99.9532833 L825.012002,136.990029 L825.012002,174.026774 L815.770523,174.026774 L806.529045,174.026774 L806.529045,136.990029 Z M932.309169,136.990029 L932.309169,99.9532833 L941.166587,99.9532833 L950,99.9532833 L965.43447,120.641122 C973.931829,132.003852 981.06097,141.520737 981.301008,141.784429 C981.757081,142.239897 981.757081,141.736485 981.757081,121.09659 L981.757081,99.9532833 L990.878541,99.9532833 L1000,99.9532833 L1000,136.990029 L1000,174.026774 L991.286606,174.026774 L982.549208,174.026774 L966.730677,152.763607 L950.912146,131.50044 L950.840134,152.763607 L950.792127,174.026774 L941.550648,174.026774 L932.309169,174.026774 L932.309169,136.990029 Z M573.907825,76.8202999 C565.146423,75.4538957 557.585214,71.6663192 551.608257,65.6733183 C548.295727,62.3651818 546.279405,59.5844294 544.383101,55.7249368 C542.726836,52.3448843 541.742679,49.4202999 540.99856,45.7286114 C540.302448,42.1567828 540.254441,35.6124259 540.902544,31.9926534 C541.430629,29.0920409 542.702832,24.9928283 543.927028,22.403852 C549.039846,11.4007024 559.721555,3.25022116 572.395583,0.68521679 C576.068171,-0.0579153182 583.053289,-0.225719343 586.893903,0.325636738 C592.102736,1.09274085 598.895823,3.17830515 598.895823,4.01732528 C598.895823,4.73648538 596.303409,21.5888038 596.183389,21.7086639 C596.111378,21.7805799 595.487278,21.5408598 594.791167,21.1812798 C592.870859,20.2223996 590.68651,19.4552955 587.854057,18.7361354 C585.597696,18.1608073 584.901584,18.1128633 581.132981,18.1128633 C576.284205,18.1368353 574.555929,18.4724434 571.051368,20.1504836 C565.650504,22.715488 561.737878,27.4140007 560.225636,33.1912535 C559.601536,35.5165379 559.481517,40.7424346 559.985598,43.019775 C561.401824,49.3723559 565.506481,54.4544206 571.459434,57.211201 C574.171867,58.4577452 576.50024,58.9851293 580.052808,59.1289613 C585.141623,59.3447094 589.270283,58.4337732 594.551128,55.9406849 C596.06337,55.2215248 597.31157,54.6701687 597.335574,54.6941407 C597.503601,54.9338607 599.903985,72.6491713 599.807969,72.7690313 C599.735958,72.8409473 598.655785,73.3443594 597.431589,73.8717435 C594.599136,75.0703436 590.182429,76.2929158 586.725876,76.7963279 C583.485358,77.251796 576.884301,77.275768 573.907825,76.8202999 Z M724.075852,76.9161879 C712.962074,76.0292238 704.176668,70.515663 699.735958,61.6220497 C698.415747,59.0091013 697.743639,57.067369 696.99952,53.8790926 C696.495439,51.6976402 696.495439,51.1462842 696.423428,26.5510086 L696.327412,1.4283489 L705.712914,1.4283489 L715.074412,1.4283489 L715.074412,24.7531083 C715.074412,50.5230121 715.050408,49.827824 716.634662,53.1599325 C718.530965,57.163257 722.419587,59.4405974 727.388382,59.4405974 C733.1253,59.4405974 737.349976,56.1804049 739.006241,50.4510961 C739.390302,49.1326359 739.43831,47.0230996 739.510322,25.2325484 L739.582333,1.4283489 L748.943831,1.4283489 L758.305329,1.4283489 L758.209313,26.3112885 C758.137302,48.8449718 758.089294,51.3620322 757.705233,53.3037645 C756.00096,62.0056017 751.704273,68.4300987 744.839174,72.5772553 C739.318291,75.9093638 731.637062,77.53946 724.075852,76.9161879 Z M872.05953,76.7963279 C855.49688,74.2313235 842.870859,62.4850418 839.366299,46.3998275 C838.910226,44.2902912 838.838214,43.283467 838.838214,38.5849543 C838.838214,33.9104136 838.910226,32.8796175 839.366299,30.8419972 C843.038886,14.3732308 855.760922,2.84269711 873.019683,0.325636738 C875.156025,0.0140006923 876.81229,-0.0339433147 880.340855,0.0619446993 C886.317811,0.20577672 889.798368,0.876992818 895.295247,2.91461312 C897.191551,3.63377322 897.31157,3.70568923 897.191551,4.28101732 C897.119539,4.61662536 896.495439,8.69186596 895.823332,13.2944906 C895.12722,17.9210873 894.551128,21.7086639 894.50312,21.7566079 C894.479117,21.7805799 893.662986,21.4449718 892.678829,20.9895038 C884.901584,17.4416472 876.092175,17.0101512 869.731157,19.8867916 C865.098416,21.9963279 861.257801,25.9037645 859.433509,30.3865291 C858.449352,32.8316735 858.089294,34.5576577 857.969275,37.5301862 C857.825252,40.7664066 858.06529,42.7560829 859.00144,45.5368353 C860.849736,51.2182002 865.746519,56.0126009 871.699472,57.9783052 C874.771964,59.0091013 876.932309,59.2727933 880.580893,59.1289613 C885.117619,58.9371853 890.230437,57.4988651 894.119059,55.3413848 C894.81517,54.9338607 895.43927,54.6701687 895.511282,54.7181127 C895.631301,54.8619447 898.24772,72.6731433 898.151704,72.7690313 C897.93567,73.0087513 893.807009,74.6388476 891.93471,75.2141757 C887.638022,76.6045519 884.925588,77.0120759 879.380701,77.0839919 C875.780125,77.131936 873.691791,77.0600199 872.05953,76.7963279 Z M614.49832,38.5849543 L614.49832,1.4283489 L623.859818,1.4283489 L633.221315,1.4283489 L633.221315,15.2122509 L633.221315,28.9961529 L646.903505,28.9961529 L660.585694,28.9961529 L660.585694,15.2122509 L660.585694,1.4283489 L669.947192,1.4283489 L679.308689,1.4283489 L679.308689,38.5849543 L679.308689,75.7415597 L669.947192,75.7415597 L660.585694,75.7415597 L660.585694,61.3583576 L660.585694,46.9751555 L646.903505,46.9751555 L633.221315,46.9751555 L633.221315,61.3583576 L633.221315,75.7415597 L623.859818,75.7415597 L614.49832,75.7415597 L614.49832,38.5849543 Z M775.324052,38.5609823 L775.324052,1.38040489 L790.158425,1.50026491 C805.832933,1.62012493 806.31301,1.64409693 810.753721,2.84269711 C811.785886,3.13036115 813.850216,3.94540927 815.31445,4.66456937 C820.139222,7.01382571 823.355737,10.1062142 825.516083,14.4930908 C827.268363,18.0888913 827.74844,20.3902037 827.74844,24.9209123 C827.74844,29.307789 827.316371,31.3933533 825.612098,34.8932658 C823.427748,39.4000024 820.019203,42.7321109 815.290446,44.9854793 C814.306289,45.4409473 813.490158,45.9203874 813.490158,46.0162754 C813.490158,46.1361354 817.594815,52.8482964 822.611618,60.9268616 L831.733077,75.6216997 L820.883341,75.6936157 C814.906385,75.7175877 809.961594,75.6696437 809.865578,75.5737557 C809.745559,75.4538957 806.192991,68.9574828 801.968315,61.1186376 C797.719635,53.2797925 794.167067,46.7594075 794.023044,46.6155755 C793.903024,46.4957155 793.807009,51.9133883 793.807009,61.0706936 L793.807009,75.7415597 L784.56553,75.7415597 L775.324052,75.7415597 L775.324052,38.5609823 Z M800.840134,36.067894 C805.448872,35.1090138 808.257321,32.3282614 808.953433,28.0852168 C809.481517,24.8489963 808.545367,21.7566079 806.361018,19.5751555 C804.176668,17.3937032 801.512242,16.5307111 796.879501,16.5307111 L793.807009,16.5307111 L793.807009,26.4790926 L793.807009,36.427474 L796.519443,36.427474 C797.983677,36.427474 799.951992,36.25967 800.840134,36.067894 Z M912.866059,38.5849543 L912.866059,1.4283489 L922.107537,1.4283489 L931.349016,1.4283489 L931.349016,15.2122509 L931.349016,28.9961529 L945.031205,28.9961529 L958.713394,28.9961529 L958.713394,15.2122509 L958.713394,1.4283489 L968.074892,1.4283489 L977.43639,1.4283489 L977.43639,38.5849543 L977.43639,75.7415597 L968.074892,75.7415597 L958.713394,75.7415597 L958.713394,61.3583576 L958.713394,46.9751555 L945.031205,46.9751555 L931.349016,46.9751555 L931.349016,61.3583576 L931.349016,75.7415597 L922.107537,75.7415597 L912.866059,75.7415597 L912.866059,38.5849543 Z" id="CMS" fill="#FFFFFF" fill-rule="nonzero"></path>
    </g>
</svg>