<svg width="256" height="130" viewBox="0 0 256 130" fill="none" xmlns="http://www.w3.org/2000/svg">
<path d="M85.1218 61.3107H82.9475C83.0793 57.969 83.0793 56.0828 83.0793 52.6748C83.0793 50.1269 83.0793 48.4724 82.9804 46.2224C80.4435 46.2224 78.4999 46.2224 76.787 46.2886L77.5448 44.601H91.0518V46.2555C89.6682 46.2221 87.1972 46.2221 85.1221 46.2221C85.0562 48.4393 85.0562 50.1266 85.0562 52.6745C85.0229 56.0828 85.0229 57.969 85.1218 61.3107Z" fill="white"/>
<path d="M95.4005 51.9138H104.889C104.889 49.2665 104.856 47.48 104.757 44.6014H106.931C106.832 47.9431 106.832 49.8293 106.832 53.2372C106.832 56.3807 106.832 58.2007 106.931 61.2776H104.757C104.889 58.2665 104.889 56.4797 104.889 53.5348H95.4005C95.4005 56.4797 95.4005 58.2997 95.4994 61.2776H93.3577C93.4565 58.1672 93.4565 56.3807 93.4565 53.2372C93.4565 49.8293 93.4565 47.9431 93.3577 44.6014H95.499C95.4335 47.5131 95.4005 49.2997 95.4005 51.9138Z" fill="white"/>
<path d="M112.993 46.2224C112.96 48.1748 112.96 49.9617 112.96 51.9797C115.332 51.9797 118.33 51.9466 119.911 51.8807V53.6341C118.297 53.5683 115.266 53.5348 112.96 53.5348C112.96 55.8179 112.96 57.671 112.993 59.6893C115.464 59.6893 119.186 59.6562 120.932 59.5904L120.175 61.2779H110.884C110.983 58.1676 110.983 56.381 110.983 53.2376C110.983 49.8297 110.983 47.9435 110.884 44.6017H120.142V46.2562C118.725 46.2224 115.562 46.2224 112.993 46.2224Z" fill="white"/>
<path d="M128.938 53.3365C128.938 47.6455 133.056 44.3365 138.063 44.3365C140.304 44.3365 141.49 44.5683 142.874 45.1307L142.215 46.7186C141.062 46.2224 139.678 45.9245 138.229 45.9245C134.077 45.9245 131.112 48.4059 131.112 52.9393C131.112 57.0752 134.077 59.9538 138.063 59.9538C139.744 59.9538 140.897 59.6231 142.215 58.8621L142.906 60.3841C141.226 61.211 139.777 61.5421 137.603 61.5421C132.76 61.5755 128.938 58.2665 128.938 53.3365Z" fill="white"/>
<path d="M147.65 51.9138H157.139C157.139 49.2665 157.105 47.48 157.007 44.6014H159.181C159.082 47.9431 159.082 49.8293 159.082 53.2372C159.082 56.3807 159.082 58.2007 159.181 61.2776H157.007C157.139 58.2665 157.139 56.4797 157.139 53.5348H147.65C147.65 56.4797 147.65 58.2997 147.749 61.2776H145.608C145.707 58.1672 145.707 56.3807 145.707 53.2372C145.707 49.8293 145.707 47.9431 145.608 44.6014H147.749C147.684 47.5131 147.65 49.2997 147.65 51.9138Z" fill="white"/>
<path d="M165.276 44.6014C165.177 47.9431 165.177 51.7814 165.177 55.1893C165.177 58.5645 167.417 59.9538 170.053 59.9538C172.655 59.9538 174.863 58.7297 174.863 55.1893C174.863 51.7814 174.863 47.9431 174.764 44.6345H176.708C176.642 46.8845 176.609 49.399 176.609 51.5169C176.609 52.8072 176.675 54.1969 176.675 55.421C176.675 59.3917 173.776 61.5755 169.954 61.5755C166.33 61.5755 163.167 59.5569 163.167 55.421C163.167 54.0976 163.2 52.8731 163.2 51.5169C163.2 49.4983 163.167 47.3476 163.101 44.6345H165.276V44.6014V44.6014Z" fill="white"/>
<path d="M182.769 61.3107H180.628C180.727 58.2004 180.727 56.4138 180.727 53.2704C180.727 49.8624 180.727 47.9435 180.628 44.6345H184.581C188.798 44.6345 191.269 46.1897 191.269 49.1345C191.269 51.3845 189.853 52.9066 187.876 53.6014C188.996 55.6859 190.972 59.0607 192.257 61.0131L190.116 61.6748C188.831 59.491 187.184 56.48 185.998 54.0976C184.878 54.1307 183.791 54.1307 182.737 54.0976C182.67 56.7114 182.704 59.3586 182.769 61.3107ZM182.704 46.2224C182.67 47.7114 182.67 50.8552 182.67 52.5424C183.066 52.5755 183.659 52.5755 184.515 52.5755C187.513 52.5755 189.128 51.4176 189.128 49.2338C189.128 47.2483 187.415 46.2559 184.483 46.2559C183.791 46.2224 183.132 46.2224 182.704 46.2224Z" fill="white"/>
<path d="M194.234 53.3365C194.234 47.6455 198.352 44.3365 203.36 44.3365C205.6 44.3365 206.786 44.5683 208.17 45.1307L207.511 46.7186C206.358 46.2224 204.974 45.9245 203.525 45.9245C199.373 45.9245 196.408 48.4059 196.408 52.9393C196.408 57.0752 199.374 59.9538 203.36 59.9538C205.04 59.9538 206.193 59.6231 207.511 58.8621L208.203 60.3841C206.522 61.211 205.073 61.5421 202.899 61.5421C198.056 61.5755 194.234 58.2665 194.234 53.3365Z" fill="white"/>
<path d="M212.979 51.9138H222.467C222.467 49.2665 222.435 47.48 222.336 44.6014H224.51C224.411 47.9431 224.411 49.8293 224.411 53.2372C224.411 56.3807 224.411 58.2007 224.51 61.2776H222.336C222.467 58.2665 222.467 56.4797 222.467 53.5348H212.979C212.979 56.4797 212.979 58.2997 213.078 61.2776H210.937C211.036 58.1672 211.036 56.3807 211.036 53.2372C211.036 49.8293 211.036 47.9431 210.937 44.6014H213.078C212.979 47.5131 212.979 49.2997 212.979 51.9138Z" fill="white"/>
<path d="M85.4181 67.6303C90.36 67.6303 93.918 70.8728 93.918 76.0345C93.918 81.6597 90.0304 84.869 85.4181 84.869C80.4765 84.869 76.9185 81.6928 76.9185 76.4979C76.9185 70.8728 80.872 67.6303 85.4181 67.6303ZM85.4181 69.1855C81.7283 69.1855 79.1258 71.8328 79.1258 76.2331C79.1258 80.7662 81.8272 83.2807 85.4181 83.2807C89.1079 83.2807 91.7104 80.7 91.7104 76.2331C91.7104 71.7662 89.009 69.1855 85.4181 69.1855Z" fill="white"/>
<path d="M97.2123 67.8952H106.47V69.5497C105.053 69.5166 101.891 69.5166 99.321 69.5166C99.2881 71.4686 99.2881 73.5866 99.2881 75.671C101.66 75.671 104.658 75.6376 106.239 75.5717V77.2921C104.724 77.1928 101.627 77.1928 99.2881 77.1928C99.2881 80.1045 99.2881 81.5938 99.3866 84.6045H97.2456C97.3444 81.4941 97.3445 79.7076 97.3445 76.5645C97.3111 73.1562 97.3111 71.2369 97.2123 67.8952Z" fill="white"/>
<path d="M117.803 69.5166C117.77 71.4686 117.77 73.2555 117.77 75.2738C120.142 75.2738 123.14 75.2404 124.721 75.1745V76.9279C123.107 76.8621 120.076 76.829 117.77 76.829C117.77 79.1117 117.77 80.9648 117.803 82.9835C120.274 82.9835 123.996 82.95 125.743 82.8841L124.985 84.5717H115.694C115.793 81.4614 115.793 79.6748 115.793 76.5314C115.793 73.1235 115.793 71.2372 115.694 67.8955H124.952V69.55C123.535 69.5166 120.373 69.5166 117.803 69.5166Z" fill="white"/>
<path d="M140.304 67.8952H142.248C142.149 71.2369 142.149 73.1231 142.149 76.531C142.149 79.6745 142.149 81.4945 142.248 84.5714H140.468C136.845 79.4097 132.99 74.0166 130.355 70.4759C130.355 77.0603 130.388 80.1707 130.486 84.5714H128.543C128.642 81.461 128.642 79.6745 128.642 76.531C128.642 73.1231 128.642 71.2369 128.543 67.8952H130.75C134.638 73.0238 138.229 77.9872 140.436 81.1634C140.403 75.0752 140.403 71.9979 140.304 67.8952Z" fill="white"/>
<path d="M160.037 83.9427C158.357 84.6045 156.545 84.8693 154.239 84.8693C149.792 84.8693 145.542 81.5607 145.542 76.73C145.542 71.3696 149.166 67.6638 154.964 67.6638C157.039 67.6638 158.653 68.061 160.037 68.6565L159.411 70.1786C158.192 69.6824 156.578 69.2521 155.161 69.2521C150.286 69.2521 147.782 72.0976 147.782 76.2665C147.782 80.6341 151.109 83.3141 154.7 83.3141C156.084 83.3141 157.105 83.1817 157.863 82.9172C157.929 82.0238 157.929 81.3293 157.929 80.27C157.929 79.0459 157.929 78.4172 157.863 77.5238H160.037C160.004 78.4172 159.972 79.5424 159.972 80.5679C159.972 81.6596 159.972 82.7517 160.037 83.9427Z" fill="white"/>
<path d="M166.033 82.9835C168.537 82.9835 172.26 82.95 173.973 82.8841L173.215 84.5717H163.925C164.024 81.4614 164.024 79.6748 164.024 76.5314C164.024 73.1235 164.024 71.2372 163.925 67.8955H166.066C165.968 71.2372 165.968 73.1235 165.968 76.5314C166 79.0786 166 80.7662 166.033 82.9835Z" fill="white"/>
<path d="M174.731 84.6045C176.773 80.5017 180.2 72.8914 182.341 67.7962H184.384C186.195 72.5938 188.831 79.1783 191.236 84.6045H188.996C188.271 82.9169 187.546 81.0641 186.789 79.2776H179.178C178.322 81.1303 177.498 82.9834 176.708 84.6045H174.731V84.6045ZM179.837 77.7224H186.196C185.075 74.9427 184.054 72.1638 183.198 69.8472C182.275 72.0972 181.056 74.91 179.837 77.7224Z" fill="white"/>
<path d="M205.139 67.8952H207.082C206.984 71.2369 206.984 73.1231 206.984 76.531C206.984 79.6745 206.984 81.4945 207.082 84.5714H205.337C201.712 79.4097 197.858 74.0166 195.223 70.4759C195.223 77.0603 195.256 80.1707 195.354 84.5714H193.41C193.509 81.461 193.509 79.6745 193.509 76.531C193.509 73.1231 193.509 71.2369 193.41 67.8952H195.618C199.505 73.0238 203.096 77.9872 205.304 81.1634C205.27 75.0752 205.27 71.9979 205.139 67.8952Z" fill="white"/>
<path d="M210.179 84.6045C210.278 81.4941 210.278 79.7076 210.278 76.5645C210.278 73.1562 210.278 71.2703 210.179 67.9286H215.055C221.051 67.9286 224.905 70.4762 224.905 75.671C224.905 81.2297 221.413 84.6045 215.088 84.6045H210.179ZM212.255 76.0679C212.255 78.4834 212.255 80.8324 212.288 82.95C212.65 82.9834 214.067 82.9834 214.923 82.9834C220.095 82.9834 222.797 80.7334 222.797 76.0348C222.797 71.6341 219.799 69.4838 214.627 69.4838C213.803 69.4838 212.914 69.4838 212.288 69.4838C212.255 71.2038 212.255 73.52 212.255 76.0679Z" fill="white"/>
<path d="M45.852 83.5128C37.0888 83.5128 29.9725 75.2076 29.9725 64.7521C29.9725 63.66 30.0384 62.5683 30.2032 61.5424C33.86 61.3438 39.5927 61.0462 44.3036 60.9797C44.4354 69.5166 43.4799 81.1304 43.4799 81.1304H48.2237C48.2237 81.1304 47.2686 69.5166 47.4004 60.9797C54.9774 61.079 65.4869 61.7741 65.4869 61.7741C64.0373 52.1455 55.8011 44.6014 45.8523 44.6014C34.8818 44.6014 25.9867 53.7007 25.9867 64.719C25.9867 75.7369 34.8818 84.8362 45.8523 84.8362C55.8014 84.8362 64.0377 77.2921 65.4869 67.6969H61.5334C60.3475 76.7628 53.7586 83.5128 45.852 83.5128ZM45.852 45.991C52.4079 45.991 58.0084 50.5241 60.4464 57.2741C56.7566 57.4724 51.7161 57.7041 47.4993 57.77C47.7297 53.3693 48.2237 48.34 48.2237 48.34H43.4799C43.4799 48.34 43.974 53.3693 44.2047 57.7369C39.9546 57.671 34.8815 57.4393 31.2905 57.2407C33.6956 50.5241 39.2957 45.991 45.852 45.991Z" fill="white"/>
</svg>
