<svg xmlns="http://www.w3.org/2000/svg" width="150" height="54.451" viewBox="0 0 150 54.451">
  <g id="Group_89" data-name="Group 89" transform="translate(0 -0.014)">
    <path id="Path_6" data-name="Path 6" d="M68.2,7.6a3.838,3.838,0,0,0,4.218-3.483A4.09,4.09,0,0,0,64.3,3.773,3.905,3.905,0,0,0,68.2,7.6Z" transform="translate(-39.145 -0.166)" fill="#fff"/>
    <path id="Path_7" data-name="Path 7" d="M71.46.163a18.959,18.959,0,0,1-6.811,6.386C59.966,9.219,55.786,10.767,51.8,16.96c0,0,1.2-.542.348.774a4.524,4.524,0,0,1,1.122-.774s.31-.077.194.31c0,0,2.09-1.625,1.587-.851-.31.464,1.664-1.509,1.9-1.316,0,0,.077.116-.232.581,0,0,4.76-2.864,6.54-3.6,7.7-3.29,9.327-8.669,8.63-11.726C71.924.357,71.886-.262,71.46.163Z" transform="translate(-31.753 0)" fill="#fff"/>
    <path id="Path_8" data-name="Path 8" d="M61.2,42.877s.348-8.011,5.341-12.113,9.753-3.367,11.726-3.483a23.243,23.243,0,0,0,6.076-.581s.31,3.56-9.675,5.3c0,0-3.29-.039-6.076,3.677a34.747,34.747,0,0,0-5.341,9.559s-.039-.929-.387-.271L61.9,47.134l-.039-2.051s-.155-.5-.387.194c0,0-.193.232.116-2.477C61.587,42.8,61.51,42.219,61.2,42.877Z" transform="translate(-37.231 -16.19)" fill="#fff"/>
    <path id="Path_9" data-name="Path 9" d="M20.2,67.215a7.933,7.933,0,0,0-7.779-5.225c-5.689-.039-9.211,4.1-9.211,9.83,0,6.153,4.412,10.681,9.6,10.681a9.088,9.088,0,0,0,8.321-5.031h.658a21.854,21.854,0,0,1-2.167,4.954c-2.167-.31-3.677.929-7.7.929C4.954,83.353,0,78.786,0,72.478,0,65.86,5.109,61.1,12.229,61.1c4.3,0,6.115,1.355,7.2,1.355a.8.8,0,0,0,.619-.194h.464l.31,4.954Z" transform="translate(0 -36.899)" fill="#fff"/>
    <path id="Path_10" data-name="Path 10" d="M66.553,81.4A7.146,7.146,0,1,1,59.2,88.637,7.107,7.107,0,0,1,66.553,81.4Zm.464,13.429c2.012,0,4.3-2.051,4.3-5.457,0-3.87-2.4-7.2-5.225-7.2-2.245,0-4.334,2.322-4.334,5.225C61.754,91.578,64.076,94.829,67.018,94.829Z" transform="translate(-36.031 -49.455)" fill="#fff"/>
    <path id="Path_11" data-name="Path 11" d="M101.883,92.468c0,1.78.464,2.129,2.4,2.129v.658H97.2V94.6c1.974,0,2.4-.89,2.4-2.632V85.309c0-1.316-.194-1.625-1.006-1.742l-1.316-.155v-.581l4.1-1.432h.5v2.709c2.438-1.742,4.683-2.709,6.076-2.709a3.212,3.212,0,0,1,3.251,2.709c2.283-1.432,4.373-2.709,6.037-2.709,2.438,0,3.406,1.858,3.406,5.147,0,2.167,0,4.451-.116,6.54,0,.7.426,1.548,1.819,1.548h1.084v.658h-7.663v-.658h.31c1.006,0,1.432-.155,1.742-.464.5-.5.542-2.477.542-4.838v-2.67c0-2.632-.89-3.87-2.554-3.87-1.045,0-2.4.5-4.528,1.9v7.779c0,1.7.426,2.129,2.129,2.129v.658h-6.966V94.6c1.9,0,2.593-.7,2.593-2.632V85.657c0-2.129-1.316-2.941-2.516-2.941-.968,0-2.245.426-4.567,1.974v7.779Z" transform="translate(-59.12 -49.459)" fill="#fff"/>
    <path id="Path_12" data-name="Path 12" d="M164.915,99.841c0,1.7.851,2.206,2.283,2.206h.851v.658H160v-.658h.348c1.742,0,2.283-.581,2.283-2.516V83.9c0-.658-.155-.929-.968-1.122L160.58,82.5v-.658l3.638-2.245h.7v3.251c2.129-1.587,3.909-2.477,5.263-2.477,2.67,0,5.031,2.98,5.031,6.347,0,4.1-3.328,7.663-7.2,7.663a8.088,8.088,0,0,1-3.1-.7Zm0-8.359a6.706,6.706,0,0,0,4.025,1.858c2.322,0,4.025-2.283,4.025-5.07,0-4.489-2.67-6.192-4.451-6.192a5.941,5.941,0,0,0-3.56,1.664v7.74Z" transform="translate(-97.379 -48.239)" fill="#fff"/>
    <path id="Path_13" data-name="Path 13" d="M202.548,85.812a1.166,1.166,0,0,1-.116-.464c0-1.2,2.825-3.948,5.031-3.948a4.484,4.484,0,0,1,3.56,1.819c.5.7.5,1.161.5,2.941v4.567c0,2.709,0,3.328.89,3.328a2.346,2.346,0,0,0,1.664-.735l.155.5c-1.858,1.509-2.787,1.858-3.367,1.858-1.393,0-1.548-1.548-1.548-2.09-2.361,1.935-3.019,2.09-3.947,2.09-1.974,0-3.173-1.122-3.173-2.786,0-2.09,1.819-2.786,4.025-3.328a11.082,11.082,0,0,0,3.019-1.277v-2.67a2.733,2.733,0,0,0-.58-2.167,2.58,2.58,0,0,0-1.9-1.006,2.17,2.17,0,0,0-2.129,1.664,1.736,1.736,0,0,0,.155.658Zm6.734,3.1a16.291,16.291,0,0,1-2.012.968c-2.09.851-2.864,1.2-2.864,2.593a2,2,0,0,0,2.012,2.012c.542,0,.968-.155,2.864-1.509Z" transform="translate(-123.084 -49.455)" fill="#fff"/>
    <path id="Path_14" data-name="Path 14" d="M236.442,91.749c.426,2.051,1.7,3.212,3.251,3.212a2.308,2.308,0,0,0,2.4-2.245c0-.7-.155-1.161-1.084-2.09-2.4-2.4-5.109-2.67-5.109-5.5,0-2.245,1.78-3.831,4.373-3.831a7.2,7.2,0,0,1,2.709.542l.077,3.1h-.581a2.9,2.9,0,0,0-2.709-2.825,1.971,1.971,0,0,0-2.09,1.9c0,2.98,6.347,3.522,6.347,7.663a3.97,3.97,0,0,1-4.218,3.87,4.94,4.94,0,0,1-1.509-.232,3.312,3.312,0,0,0-.929-.193.75.75,0,0,0-.581.426h-.5l-.387-3.831h.542Z" transform="translate(-143.626 -49.394)" fill="#fff"/>
    <path id="Path_15" data-name="Path 15" d="M261.242,91.749c.426,2.051,1.7,3.212,3.251,3.212a2.308,2.308,0,0,0,2.4-2.245c0-.7-.155-1.161-1.084-2.09-2.4-2.4-5.109-2.67-5.109-5.5,0-2.245,1.78-3.831,4.373-3.831a7.2,7.2,0,0,1,2.709.542l.077,3.1h-.581a2.9,2.9,0,0,0-2.709-2.825,1.971,1.971,0,0,0-2.09,1.9c0,2.98,6.347,3.522,6.347,7.663a3.993,3.993,0,0,1-4.218,3.87,4.94,4.94,0,0,1-1.509-.232,3.313,3.313,0,0,0-.929-.193.75.75,0,0,0-.58.426h-.5l-.387-3.831h.542Z" transform="translate(-158.725 -49.394)" fill="#fff"/>
    <path id="Path_16" data-name="Path 16" d="M289.408,92.356c0,1.2.658,1.935,2.438,1.935v.658H284.3v-.658c2.09,0,2.825-.7,2.825-2.477v-6.85c0-1.316-.155-1.509-1.045-1.664l-1.587-.31v-.542l4.412-1.548h.5Z" transform="translate(-173.099 -49.153)" fill="#fff"/>
    <path id="Path_17" data-name="Path 17" d="M310.753,81.4a7.146,7.146,0,1,1-7.353,7.237A7.107,7.107,0,0,1,310.753,81.4Zm.464,13.429c2.012,0,4.3-2.051,4.3-5.457,0-3.87-2.4-7.2-5.225-7.2-2.245,0-4.334,2.322-4.334,5.225C305.954,91.578,308.276,94.829,311.218,94.829Z" transform="translate(-184.477 -49.455)" fill="#fff"/>
    <path id="Path_18" data-name="Path 18" d="M345.867,92.336c0,1.858.426,2.322,2.283,2.322v.658H341.3v-.658a2,2,0,0,0,2.283-2.129V85.37c0-1.277-.155-1.509-1.006-1.664l-1.161-.232v-.542l3.909-1.432h.542v2.67c2.283-1.432,4.18-2.67,5.844-2.67,2.322,0,3.638,1.7,3.638,5.109,0,4.528-.232,5.418-.271,6.734-.039.929.5,1.355,1.9,1.355h.735v.658h-7.314V94.7a2.657,2.657,0,0,0,1.935-.658c.658-.658.7-3.135.7-7.663,0-2.709-1.316-3.56-2.67-3.56-1.084,0-2.748.968-4.528,2.167v7.353Z" transform="translate(-207.709 -49.52)" fill="#fff"/>
  </g>
</svg>
