<svg height="21.99mm" viewBox="0 0 383.79 62.32" width="135.39mm" xmlns="http://www.w3.org/2000/svg"><g fill="#ffffff" transform="translate(-228.96 -266.86)"><path d="m244.23 269.48c-10.4 0-10.22 13.23-10.22 15.62 0 .12-4.89.06-5 .19s.12 9.21.12 9.21l4.77-.06s.75 10.91.75 11-4.7.81-5.08 1 .5 8.91 1.13 9.28c.15.08 2.49.11 5.54.11 6.12 0 15.09-.11 15.09-.11l-.31-9.91-5.46-.37-.19-10.85 7.72.12s.44-6.2-.38-9.21l-7.46-.44s-.19-4.71 1.75-4.71a11.07 11.07 0 0 1 4.83 1.45l5.14-8.28s-5.83-4.08-12.73-4.08"/><path d="m291.55 283.92c-3.79 0-11 .24-11 .24v3.13a16.39 16.39 0 0 0 -9.28-3.13c-6.4 0-14.05 3.51-14.05 15.42 0 12.92 8.09 16.75 13.86 16.75 6.4 0 8.9-4.14 8.9-4.14s.63 3 .63 3.2 14 .43 14.24.43.25-8.34.12-8.77-3.17-.38-4.58-.38h-.68s-.32-13.11-.13-13.23 4.51-1.07 4.64-1.07-.38-8-.38-8.34a9.62 9.62 0 0 0 -2.28-.11m-18.28 21.81c-2.51 0-5-2.32-5-6s2.07-6 5.21-6c2.57 0 4.64 2.76 4.64 6.09 0 3.51-2.07 5.83-4.89 5.83"/><path d="m308.88 267.6a6.1 6.1 0 0 0 -6.15 6.52c.13 4 2.51 6.4 6.84 6.4s5.83-3.32 5.83-6.71a6.59 6.59 0 0 0 -6.52-6.21m-1.37 18.33c-4.69 0-9.35.3-9.35.48s.94 8.53 1 8.53 3.42-.21 4.61-.21h.4l-.06 12.73-5.39.24a66.33 66.33 0 0 0 .44 8s6.35.06 12.21.06c4.88 0 9.41 0 9.55-.18l-.13-7.53-5.14-.81v-20.76a43 43 0 0 0 -8.14-.55"/><path d="m338 275s-9.6.63-11.29 1.82c0 .13-.69 7.4-.69 7.4l-4.51.5s-.26 9.09-.13 9.22 4.45.06 4.45.19c0 12-.44 23 10 23 6.9 0 12.67-5.33 12.67-5.33l-4.52-9s-2.69 1.94-4.64 1.94c-2.38 0-1.69-10.59-1.69-10.59l8.28-.44c.81-3 .37-9.22.37-9.22l-7.9.13z"/><path d="m366.44 270.61s-15.18.32-15.18.63-.43 8.53-.37 8.53 5 .56 5.14.69l-.06 27-3.51.25a64 64 0 0 0 .44 8s5 .06 9.71.06a74.33 74.33 0 0 0 7.66-.18l-.13-7.53-3.76-.82-.06-6.89c0-3.76 2.25-6.34 4.7-6.34 3 0 4.76 2.14 4.76 6.34l.07 6.71-3.08.56c-.12 1.07.32 8 .32 8l16.24.18c.44-2 0-8.15 0-8.15l-2.64-.56.07-8.22c0-13-6.46-16.05-12.86-16.05-5.33 0-7.46 2.32-7.46 2.32z"/><path d="m488.36 270.65c-1.75 0-14.1 1.73-14.16 1.91s-.31 8.08-.25 8.21 4.95.19 4.95.19l.13 26.09s-4.2.31-4.52.31.32 8.4.38 8.53 17.24 0 17.24-.32.26-7.58.26-7.71-2.64-.5-2.64-.81-.06-4.39.19-4.71a.29.29 0 0 1 .21-.08c1.27 0 6.46 4.82 6.82 5.22a8.82 8.82 0 0 1 -2.39.57 59.67 59.67 0 0 0 .75 7.84c.1.25 2 .34 4.69.34 5.87 0 15.19-.44 15.32-.53s-.32-7.53-.38-7.59-3.82-.38-4.14-.5-9.47-8.59-9.22-9.09 6.34-5.33 6.53-5.46a.42.42 0 0 1 .16 0c.29 0 .92.06 1.6.12s1.41.12 1.9.12c.33 0 .56 0 .6-.09.19-.32 0-8 0-8.34s-12.47-.72-17.56-.72a10.4 10.4 0 0 0 -2.13.09c0 .31.44 6.71.56 7s2.82.63 2.82 1-6.52 3.88-6.52 3.88c0-8.59.69-24.14-1-25.45a.38.38 0 0 0 -.2 0"/><path d="m529.5 267.6a6.1 6.1 0 0 0 -6.14 6.52c.12 4 2.51 6.4 6.83 6.4s5.84-3.32 5.84-6.71a6.6 6.6 0 0 0 -6.53-6.21m-1.37 18.33c-4.68 0-9.35.3-9.35.48s.94 8.53 1 8.53 3.42-.21 4.6-.21h.41l-.06 12.73-5.39.24a64 64 0 0 0 .44 8s6.34.06 12.2.06c4.89 0 9.41 0 9.55-.18l-.12-7.53-5.14-.81v-20.76a43.11 43.11 0 0 0 -8.15-.55"/><path d="m572.13 270.72c-4.84 0-11.92.08-11.84.08s-.63 7.52-.25 7.84 4.83.88 4.83.88v6.48s-2.13-2.32-7.46-2.32c-6.4 0-13.74 3-13.74 16s8.85 16.68 14.61 16.68c6.4 0 7.91-2.76 7.91-2.76l.75 2.26a11.14 11.14 0 0 0 2.23.1c4.13 0 12.55-.29 12.5-.29s0-5.27-.06-9.28l-5-.31-.07-35.37c-.12-.06-2-.08-4.4-.08m-12.78 35.7c-2.45 0-4.14-2.2-4.14-6.33s1.38-6.84 4.39-6.84c2.45 0 4.14 3.13 4.14 6.9 0 4-1.69 6.27-4.39 6.27"/><path d="m605.05 282.57c-.8 0-1.31 0-1.31 0l-.37 2.19a9.27 9.27 0 0 0 -6.09-1.81c-7.33 0-11.41 4.38-11.41 8.78 0 6.52 4.33 8.9 8.09 10.53 2.51 1.13 5.21 1.76 5.21 3.76 0 1.07-1.07 1.63-2.32 1.63s-3.08-1.25-3.83-3.63a18.89 18.89 0 0 0 -2.2-.09 34.35 34.35 0 0 0 -5.58.4c0 1.82 0 11.1.13 12 0 0 8.28.63 8.53.69.06 0 .19-1.57.31-2.57.82.75 2.51 2.07 8.15 2.07s10.35-3.89 10.35-9c0-5.58-4.08-9.16-7.84-10.91-3.07-1.51-6.58-2.45-6.58-3.7s1.19-1.57 1.94-1.57a3.09 3.09 0 0 1 3.26 2.76 48.41 48.41 0 0 0 7 .5c.93 0 1.58-.05 1.58-.19 0-1.13.88-11 .63-11.16-1.93-.67-5.68-.77-7.66-.77"/><path d="m455.89 266.86s-8.29 1.95-12.74 4.82a56.18 56.18 0 0 0 -10.43-1c-22.61 0-40.93 13.09-40.93 29.24s18.32 29.24 40.93 29.24 40.93-13.06 40.93-29.16c0-11.18-8.79-20.89-21.69-25.81-.11-3.93 3.93-7.28 3.93-7.28m-40.2 23.27a4.84 4.84 0 0 1 -.63-9.65h.32a4.92 4.92 0 0 1 4.88 4.32c.18 2.53-.82 5.1-4 5.32a5.33 5.33 0 0 1 -.56 0m22.52 3.17a8 8 0 0 1 5.94-3.39q.5 0 1 0c4.46 0 8.83 2.28 9.47 11.37l.38 6.16 2 .28a37 37 0 0 1 .43 6.1l-12.17.71s-.69-5.14-.65-5.95l2.27-.58-.4-5c-.21-3-1.51-4.5-3.58-4.5h-.31c-1.83.13-3.39 2.17-3.19 5l.41 5.16 2.85.41.49 5.63c-.22.25-13.42 1-13.46 1a48.63 48.63 0 0 1 -.75-6l3.08-.4-.73-11.22h-.09c-.48 0-2.63.34-2.72.35s-1.19-6.29-1.2-6.52 9.2-1.87 9.2-1.87zm-29 8.15s-1.18-6.1-1.19-6.33 6.58-1 10.76-1a16.51 16.51 0 0 1 2.33.13l1.09 15.58 3.89.34.48 5.63c-.21.25-16.26 1.23-16.27 1.23a48.63 48.63 0 0 1 -.75-6l4-.47-.61-9.53h-.1c-.57 0-3.56.4-3.65.41"/></g></svg>
