<svg xmlns="http://www.w3.org/2000/svg" width="100%" viewBox="0 0 33 48" fill="currentColor"><g clip-path="url(#clip0_31_1430)"><path d="M30.6579 23.2258H25.0837C24.4354 23.2258 24.1063 23.2258 23.8644 23.3516C23.6418 23.4581 23.4676 23.6419 23.3612 23.8548C23.2354 24.1065 23.2354 24.4258 23.2354 25.0742V30.6484C23.2354 31.2968 23.2354 31.6258 23.3612 31.8677C23.4676 32.0903 23.6515 32.2645 23.8644 32.371C24.116 32.4968 24.4354 32.4968 25.0837 32.4968H30.6579C31.3063 32.4968 31.6354 32.4968 31.8773 32.371C32.0999 32.2645 32.2741 32.0806 32.3805 31.8677C32.5063 31.6161 32.5063 31.2968 32.5063 30.6484V25.0742C32.5063 24.4258 32.5063 24.0968 32.3805 23.8548C32.2741 23.6323 32.0902 23.4581 31.8773 23.3516C31.6354 23.2258 31.3063 23.2258 30.6579 23.2258Z" fill="currentColor"></path><path fill-rule="evenodd" clip-rule="evenodd" d="M26.6323 7.74194C25.9839 7.74194 25.6548 7.74194 25.4129 7.61613C25.1903 7.5 25.0161 7.32581 24.9097 7.1129C24.7839 6.86129 24.7839 6.54194 24.7839 5.89355V1.85806C24.7839 1.20968 24.7839 0.880645 24.6581 0.63871C24.5516 0.416129 24.3677 0.241935 24.1548 0.135484C23.8935 0 23.5645 0 22.9161 0H17.3419C16.6935 0 16.3645 0 16.1226 0.125806C15.9 0.241935 15.7258 0.416129 15.6194 0.629032C15.4935 0.880645 15.4935 1.2 15.4935 1.84839V5.87419C15.4935 6.52258 15.4935 6.85161 15.3677 7.09355C15.2613 7.31613 15.0774 7.49032 14.8645 7.59677C14.6129 7.72258 14.2935 7.72258 13.6452 7.72258H9.6C8.95161 7.72258 8.62258 7.72258 8.38064 7.84839C8.15806 7.96452 7.98387 8.13871 7.87742 8.35161C7.74194 8.62258 7.74194 8.95161 7.74194 9.6V13.6258C7.74194 14.2742 7.74193 14.6032 7.61613 14.8452C7.5 15.0677 7.32581 15.2419 7.1129 15.3484C6.86129 15.4742 6.54194 15.4742 5.89355 15.4742H1.85806C1.20968 15.4742 0.880645 15.4742 0.63871 15.6C0.416129 15.7065 0.241935 15.8903 0.135484 16.1032C0 16.3645 0 16.6935 0 17.3419V22.9161C0 23.5645 0 23.8935 0.125806 24.1355C0.241935 24.3581 0.416129 24.5323 0.629032 24.6387C0.880645 24.7645 1.2 24.7645 1.84839 24.7645H5.87419C6.52258 24.7645 6.85161 24.7645 7.09355 24.8903C7.31613 24.9968 7.49032 25.1806 7.59677 25.3935C7.72258 25.6452 7.72258 25.9645 7.72258 26.6129V46.1226C7.72258 46.771 7.72258 47.1 7.84839 47.3419C7.96452 47.5645 8.13871 47.7387 8.35161 47.8452C8.60323 47.971 8.92258 47.971 9.57097 47.971H15.1452C15.7935 47.971 16.1226 47.971 16.3645 47.8452C16.5871 47.7387 16.7613 47.5548 16.8677 47.3419C16.9935 47.0903 16.9935 46.771 16.9935 46.1226V25.0839C16.9935 24.4355 16.9935 24.1065 16.8677 23.8645C16.7613 23.6419 16.5774 23.4677 16.3645 23.3613C16.1129 23.2355 15.7935 23.2355 15.1452 23.2355H11.1194C10.471 23.2355 10.1419 23.2355 9.9 23.1097C9.67742 23.0032 9.50323 22.8194 9.39677 22.6065C9.27097 22.3548 9.27097 22.0355 9.27097 21.3871V18.9097C9.27097 18.2613 9.27097 17.9323 9.39677 17.6903C9.5129 17.4677 9.6871 17.2936 9.9 17.1871C10.1516 17.0613 10.471 17.0613 11.1194 17.0613H15.1452C15.7935 17.0613 16.1226 17.0613 16.3645 16.9355C16.5871 16.829 16.7613 16.6452 16.8677 16.4323C16.9935 16.1806 16.9935 15.8613 16.9935 15.2129V11.1871C16.9935 10.5387 16.9935 10.2097 17.1194 9.96774C17.2258 9.74516 17.4097 9.57097 17.6226 9.46452C17.8742 9.33871 18.1935 9.33871 18.8419 9.33871H21.3194C21.9677 9.33871 22.2968 9.33871 22.5387 9.46452C22.7613 9.58065 22.9355 9.75484 23.0419 9.96774C23.1677 10.2194 23.1677 10.5387 23.1677 11.1871V15.2129C23.1677 15.8613 23.1677 16.1903 23.2935 16.4323C23.4 16.6548 23.5839 16.829 23.7968 16.9355C24.0484 17.0613 24.3677 17.0613 25.0161 17.0613H30.5903C31.2387 17.0613 31.5677 17.0613 31.8097 16.9355C32.0323 16.829 32.2065 16.6452 32.3129 16.4323C32.4387 16.1806 32.4387 15.8613 32.4387 15.2129V9.6C32.4387 8.95161 32.4387 8.62258 32.3129 8.38065C32.2065 8.15806 32.0226 7.98387 31.8097 7.87742C31.5581 7.75161 31.2387 7.75161 30.5903 7.75161H26.6323V7.74194Z" fill="currentColor"></path></g></svg>
