<svg width="256" height="130" viewBox="0 0 256 130" fill="none" xmlns="http://www.w3.org/2000/svg">
<path d="M102.687 58.5722H97.0119V48.1052C97.0807 47.1721 96.8306 46.2434 96.3025 45.471C96.0652 45.1889 95.7659 44.9654 95.428 44.8181C95.0901 44.6709 94.7226 44.6037 94.3544 44.6221C93.9811 44.6301 93.6125 44.707 93.267 44.8488C92.8473 45.0131 92.4551 45.2406 92.104 45.5234C91.7268 45.8312 91.3871 46.1826 91.0922 46.5701C90.7857 46.9793 90.5462 47.4347 90.3828 47.9192V58.5722H84.7365V32.6781H90.4119V43.0694C91.0716 41.9858 92.0092 41.0984 93.1275 40.4992C94.2669 39.8925 95.5408 39.5826 96.8316 39.5979C97.8816 39.547 98.9269 39.7673 99.8671 40.2375C100.579 40.6385 101.179 41.2125 101.612 41.9064C102.033 42.6014 102.315 43.3716 102.443 44.1743C102.595 44.9857 102.676 45.8087 102.687 46.634V58.5722Z" fill="white"/>
<path d="M113.544 58.9269C112.097 58.9501 110.66 58.6853 109.316 58.1477C108.136 57.6675 107.067 56.9489 106.176 56.0369C105.325 55.1516 104.666 54.1005 104.24 52.9491C103.364 50.5794 103.364 47.9745 104.24 45.6048C104.666 44.4551 105.325 43.4058 106.176 42.5228C107.066 41.6053 108.135 40.8808 109.316 40.3945C110.66 39.8413 112.103 39.5701 113.556 39.5979C115.001 39.5695 116.436 39.8407 117.771 40.3945C118.946 40.884 120.009 41.6083 120.894 42.5228C121.746 43.4081 122.411 44.4564 122.848 45.6048C123.297 46.7779 123.525 48.0238 123.522 49.2798C123.526 50.5325 123.303 51.7754 122.865 52.9491C122.446 54.1001 121.793 55.1516 120.946 56.0369C120.057 56.9475 118.99 57.6659 117.812 58.1477C116.456 58.6894 115.004 58.9543 113.544 58.9269ZM109.392 49.2798C109.328 50.56 109.742 51.8184 110.555 52.8095C110.922 53.2392 111.38 53.5816 111.896 53.812C112.412 54.0423 112.973 54.1548 113.538 54.1412C114.101 54.1461 114.658 54.0228 115.166 53.7806C115.664 53.5478 116.107 53.2107 116.463 52.7921C116.847 52.3362 117.142 51.8113 117.329 51.2453C117.549 50.6136 117.657 49.9486 117.649 49.2798C117.714 47.9996 117.3 46.741 116.486 45.7501C116.126 45.3227 115.675 44.9812 115.166 44.7508C114.657 44.5204 114.103 44.4069 113.544 44.4185C112.981 44.4133 112.424 44.5313 111.912 44.7644C111.399 44.9974 110.944 45.3399 110.578 45.7676C110.195 46.2221 109.901 46.7449 109.712 47.3086C109.492 47.9423 109.384 48.6092 109.392 49.2798V49.2798Z" fill="white"/>
<path d="M153.976 58.5722H148.277V48.1052C148.356 47.1623 148.121 46.2196 147.608 45.4245C147.403 45.1584 147.139 44.9445 146.835 44.8C146.532 44.6555 146.199 44.5846 145.864 44.593C145.464 44.5965 145.068 44.6795 144.701 44.8372C144.305 45.0078 143.94 45.2415 143.619 45.5292C143.277 45.8401 142.974 46.1916 142.718 46.5759C142.442 46.9829 142.221 47.4249 142.061 47.8901V58.5722H136.385V48.1052C136.463 47.1616 136.226 46.2189 135.711 45.4245C135.506 45.1577 135.242 44.9432 134.939 44.7987C134.635 44.6541 134.302 44.5836 133.966 44.593C133.143 44.6169 132.357 44.9369 131.751 45.4943C131.009 46.127 130.462 46.958 130.175 47.8901V58.5722H124.494V39.9642H129.669V43.0869C130.33 41.9753 131.297 41.0771 132.454 40.4992C133.723 39.8881 135.117 39.5853 136.525 39.6153C137.215 39.6029 137.904 39.697 138.566 39.8945C139.11 40.0671 139.619 40.3327 140.072 40.6795C140.486 40.9982 140.835 41.3929 141.101 41.8425C141.365 42.2773 141.561 42.7499 141.683 43.2439C142.358 42.1137 143.326 41.1874 144.486 40.5632C145.709 39.9212 147.076 39.5991 148.457 39.627C149.443 39.5706 150.425 39.7815 151.301 40.2375C152.002 40.666 152.583 41.2664 152.987 41.982C153.393 42.6895 153.663 43.4665 153.784 44.2731C153.907 45.0542 153.971 45.8434 153.976 46.634V58.5722Z" fill="white"/>
<path d="M164.832 58.9269C163.395 58.949 161.966 58.6902 160.628 58.1652C159.445 57.6965 158.37 56.9899 157.47 56.0892C156.61 55.2169 155.941 54.1753 155.505 53.0305C155.053 51.8846 154.824 50.6629 154.83 49.431C154.82 48.1309 155.049 46.8399 155.505 45.6222C155.935 44.4544 156.598 43.3861 157.453 42.4821C158.338 41.5599 159.408 40.8347 160.593 40.3538C161.94 39.8131 163.381 39.5481 164.832 39.5746C166.278 39.547 167.714 39.812 169.054 40.3538C170.228 40.8359 171.291 41.5544 172.177 42.4647C173.023 43.3435 173.68 44.3865 174.107 45.5292C174.546 46.6986 174.768 47.9379 174.764 49.1868C174.764 49.5183 174.764 49.8381 174.729 50.1579C174.711 50.4389 174.676 50.7185 174.625 50.9953H160.861C160.868 51.5457 160.995 52.0879 161.232 52.5848C161.468 53.0816 161.81 53.5213 162.233 53.8737C163.019 54.5128 164.005 54.8564 165.018 54.8448C165.85 54.8491 166.671 54.6494 167.408 54.2633C168.111 53.9321 168.663 53.3488 168.955 52.6293L173.776 53.9784C173.008 55.4688 171.827 56.7064 170.374 57.543C168.689 58.5046 166.771 58.9834 164.832 58.9269V58.9269ZM168.769 47.5063C168.71 46.4457 168.255 45.4458 167.495 44.7034C166.755 44.0152 165.773 43.6456 164.762 43.6742C164.257 43.6569 163.754 43.7405 163.282 43.9202C162.809 44.1 162.378 44.3722 162.012 44.7209C161.269 45.4663 160.823 46.4562 160.756 47.5063H168.769Z" fill="white"/>
<path d="M85.946 89.3917V76.5987H83.5676V72.2956H85.946V70.7663C85.9316 69.698 86.0867 68.6342 86.4053 67.6145C86.6781 66.7305 87.1249 65.91 87.7195 65.2013C88.2797 64.5422 88.984 64.0209 89.778 63.6778C90.6218 63.3121 91.5335 63.1298 92.4529 63.1428C94.1307 63.179 95.7841 63.5528 97.3143 64.2418L96.285 68.4984C95.8779 68.3239 95.4555 68.1876 95.0232 68.0914C94.6002 67.9893 94.1673 67.9346 93.7322 67.9285C92.3366 67.9285 91.6388 68.8047 91.6388 70.5569V72.3014H95.9419V76.5929H91.6214V89.3859L85.946 89.3917Z" fill="white"/>
<path d="M106.339 89.7464C104.888 89.7699 103.447 89.5051 102.1 88.9672C100.922 88.4854 99.8551 87.7669 98.9657 86.8563C98.1129 85.9727 97.4534 84.9211 97.0293 83.7686C96.1532 81.3989 96.1532 78.794 97.0293 76.4242C97.4535 75.2735 98.113 74.2238 98.9657 73.3423C99.8542 72.4263 100.921 71.702 102.1 71.214C103.444 70.6619 104.887 70.3907 106.339 70.4174C107.786 70.3881 109.224 70.6594 110.561 71.214C111.736 71.7035 112.798 72.4277 113.683 73.3423C114.534 74.2291 115.198 75.277 115.637 76.4242C116.08 77.5985 116.303 78.8443 116.294 80.0993C116.299 81.3516 116.079 82.5945 115.643 83.7686C115.217 84.92 114.558 85.9711 113.707 86.8563C112.816 87.7684 111.747 88.487 110.567 88.9672C109.223 89.5047 107.786 89.7696 106.339 89.7464V89.7464ZM102.193 80.0993C102.129 81.3795 102.543 82.6378 103.356 83.629C103.722 84.0579 104.18 84.3999 104.695 84.6302C105.21 84.8605 105.769 84.9734 106.333 84.9607C106.898 84.9661 107.457 84.8428 107.967 84.6001C108.464 84.3643 108.905 84.0276 109.264 83.6116C109.646 83.1543 109.94 82.6297 110.13 82.0648C110.35 81.4331 110.458 80.768 110.45 80.0993C110.515 78.819 110.101 77.5605 109.287 76.5696C108.926 76.142 108.474 75.8006 107.964 75.5702C107.454 75.3398 106.899 75.2263 106.339 75.238C105.777 75.2336 105.221 75.3521 104.71 75.5851C104.199 75.8181 103.745 76.1601 103.379 76.5871C102.996 77.0416 102.702 77.5644 102.513 78.128C102.293 78.7618 102.185 79.4287 102.193 80.0993V80.0993Z" fill="white"/>
<path d="M129.506 75.6276C128.234 75.6295 126.973 75.8539 125.779 76.2905C124.775 76.6292 123.921 77.308 123.365 78.2095V89.3917H117.69V70.7837H122.923V74.546C123.492 73.3781 124.339 72.3677 125.389 71.6036C126.314 70.9119 127.427 70.5183 128.581 70.4755H129.163C129.282 70.4759 129.401 70.4876 129.518 70.5104L129.506 75.6276Z" fill="white"/>
<path d="M143.334 89.4615C142.169 89.4773 141.017 89.2225 139.967 88.7171C138.966 88.2344 138.078 87.5447 137.362 86.6935C136.623 85.8127 136.051 84.8035 135.676 83.7162C135.275 82.541 135.078 81.306 135.094 80.0644C135.083 78.7652 135.299 77.4741 135.734 76.2498C136.13 75.1308 136.732 74.0955 137.507 73.1969C138.286 72.3104 139.248 71.6029 140.326 71.1231C141.404 70.6433 142.573 70.4025 143.753 70.4174C145.046 70.3843 146.324 70.6954 147.457 71.3187C148.504 71.9189 149.378 72.7804 149.992 73.8191V70.7663H154.923V88.1124C154.943 89.4328 154.671 90.7414 154.127 91.9445C153.61 93.0643 152.854 94.0569 151.911 94.852C150.905 95.6779 149.748 96.3 148.504 96.6837C147.092 97.12 145.62 97.3338 144.142 97.3175C142.379 97.3644 140.626 97.0394 138.996 96.3639C137.572 95.7183 136.303 94.7744 135.275 93.5959L138.322 90.5082C139.03 91.3033 139.901 91.9377 140.874 92.369C141.901 92.8342 143.016 93.0703 144.142 93.0609C144.802 93.0645 145.458 92.9704 146.09 92.7818C146.686 92.5997 147.241 92.3035 147.724 91.9096C148.213 91.4978 148.595 90.9755 148.841 90.386C149.13 89.6699 149.268 88.9019 149.248 88.1298V86.3039C148.701 87.3287 147.844 88.1549 146.8 88.6648C145.724 89.1999 144.536 89.4728 143.334 89.4615ZM145.288 84.9607C146.121 84.968 146.935 84.7115 147.614 84.228C148.292 83.7499 148.839 83.1103 149.207 82.3672V78.4653C148.864 77.5371 148.258 76.7289 147.463 76.1393C146.755 75.5816 145.881 75.2748 144.98 75.2671C144.393 75.2623 143.814 75.4021 143.293 75.6741C142.787 75.9477 142.342 76.3217 141.985 76.7731C141.61 77.2528 141.321 77.7939 141.13 78.3723C140.931 78.9725 140.829 79.6007 140.828 80.2331C140.823 80.8822 140.937 81.5267 141.165 82.1346C141.379 82.6924 141.699 83.2038 142.107 83.6406C142.512 84.0708 143.002 84.4126 143.545 84.6448C144.088 84.8769 144.674 84.9943 145.265 84.9897L145.288 84.9607Z" fill="white"/>
<path d="M165.931 89.7464C164.48 89.7699 163.04 89.5051 161.692 88.9672C160.513 88.484 159.445 87.7658 158.552 86.8563C157.703 85.9709 157.046 84.9197 156.621 83.7686C155.745 81.3989 155.745 78.794 156.621 76.4242C157.046 75.2749 157.703 74.2256 158.552 73.3423C159.444 72.4274 160.512 71.7033 161.692 71.214C163.036 70.6619 164.479 70.3907 165.931 70.4174C167.378 70.3881 168.816 70.6594 170.153 71.214C171.33 71.7028 172.394 72.4271 173.281 73.3423C174.132 74.2278 174.794 75.2761 175.229 76.4242C175.681 77.5966 175.91 78.843 175.904 80.0993C175.909 81.3516 175.688 82.5945 175.253 83.7686C174.824 84.919 174.165 85.9697 173.316 86.8563C172.426 87.7684 171.357 88.487 170.176 88.9672C168.827 89.507 167.384 89.7719 165.931 89.7464V89.7464ZM161.785 80.0993C161.721 81.3795 162.135 82.6378 162.948 83.629C163.315 84.0579 163.772 84.3999 164.287 84.6302C164.802 84.8605 165.361 84.9734 165.925 84.9607C166.49 84.9655 167.049 84.8422 167.559 84.6001C168.056 84.3643 168.497 84.0276 168.856 83.6116C169.236 83.1528 169.53 82.6287 169.723 82.0648C169.942 81.4331 170.05 80.768 170.042 80.0993C170.107 78.819 169.693 77.5605 168.879 76.5696C168.518 76.142 168.066 75.8006 167.556 75.5702C167.046 75.3398 166.491 75.2263 165.931 75.238C165.369 75.2336 164.813 75.3521 164.302 75.5851C163.791 75.8181 163.337 76.1601 162.971 76.5871C162.588 77.0427 162.293 77.5651 162.099 78.128C161.885 78.7629 161.779 79.4293 161.785 80.0993V80.0993Z" fill="white"/>
<path d="M186.505 89.7464C185.054 89.7699 183.613 89.5051 182.266 88.9672C181.086 88.484 180.018 87.7658 179.125 86.8563C178.276 85.9709 177.619 84.9197 177.195 83.7686C176.319 81.3989 176.319 78.794 177.195 76.4242C177.619 75.2749 178.276 74.2256 179.125 73.3423C180.017 72.4274 181.085 71.7033 182.266 71.214C183.609 70.6619 185.052 70.3907 186.505 70.4174C187.952 70.3881 189.389 70.6594 190.726 71.214C191.9 71.7065 192.962 72.4303 193.849 73.3423C194.699 74.2278 195.362 75.2761 195.797 76.4242C196.249 77.5966 196.477 78.843 196.472 80.0993C196.478 81.3522 196.255 82.5956 195.814 83.7686C195.39 84.9197 194.733 85.9709 193.884 86.8563C192.988 87.7704 191.913 88.4891 190.726 88.9672C189.385 89.504 187.95 89.7688 186.505 89.7464V89.7464ZM182.353 80.0993C182.289 81.3794 182.703 82.6376 183.516 83.629C183.882 84.0579 184.339 84.3999 184.854 84.6302C185.369 84.8605 185.929 84.9734 186.493 84.9607C187.058 84.9655 187.617 84.8422 188.127 84.6001C188.622 84.3657 189.062 84.0287 189.418 83.6116C189.802 83.1546 190.098 82.6301 190.29 82.0648C190.507 81.4323 190.615 80.7678 190.61 80.0993C190.678 78.8187 190.263 77.5591 189.447 76.5696C189.087 76.1422 188.636 75.8007 188.127 75.5703C187.618 75.3399 187.063 75.2263 186.505 75.238C185.943 75.232 185.386 75.3497 184.874 75.5829C184.363 75.816 183.909 76.1589 183.545 76.5871C183.162 77.0427 182.866 77.5651 182.673 78.128C182.456 78.7626 182.348 79.429 182.353 80.0993Z" fill="white"/>
<path d="M205.944 89.7464C204.729 89.7586 203.526 89.5107 202.414 89.0195C201.351 88.5462 200.401 87.8502 199.629 86.9785C198.834 86.0802 198.215 85.0407 197.803 83.914C197.348 82.6819 197.117 81.378 197.123 80.0644C197.107 78.7753 197.303 77.4924 197.704 76.2672C198.084 75.1415 198.676 74.0991 199.449 73.1969C200.167 72.3458 201.054 71.6528 202.054 71.1617C203.085 70.6577 204.221 70.4028 205.368 70.4174C206.607 70.3987 207.826 70.7162 208.898 71.3361C209.922 71.9237 210.763 72.783 211.329 73.8191V63.4975H217.004V83.0068C216.969 83.413 217.062 83.82 217.272 84.1698C217.392 84.2975 217.537 84.3994 217.698 84.4693C217.859 84.5393 218.033 84.5759 218.208 84.5769V89.3684C217.766 89.4739 217.317 89.5516 216.865 89.601C216.477 89.6359 216.122 89.6534 215.801 89.6534C214.963 89.7036 214.13 89.5054 213.405 89.0835C213.104 88.8846 212.852 88.6202 212.667 88.31C212.483 87.9998 212.371 87.652 212.341 87.2925L212.242 86.3039C211.628 87.4171 210.694 88.3205 209.561 88.8974C208.44 89.4632 207.2 89.7542 205.944 89.7464V89.7464ZM207.468 84.9607C208.269 84.953 209.051 84.7126 209.718 84.2687C210.439 83.8052 211.012 83.1454 211.37 82.3672V78.4653C211.025 77.5376 210.419 76.7297 209.625 76.1393C208.929 75.5684 208.06 75.2488 207.16 75.2322C206.574 75.2274 205.997 75.3672 205.479 75.6392C204.97 75.9112 204.518 76.2783 204.147 76.7208C203.763 77.1841 203.467 77.7144 203.275 78.285C203.073 78.8905 202.971 79.5249 202.973 80.1633C202.969 80.8161 203.083 81.4643 203.31 82.0764C203.518 82.6402 203.832 83.1592 204.235 83.6058C204.629 84.0355 205.114 84.373 205.653 84.5943C206.226 84.8408 206.844 84.9656 207.468 84.9607V84.9607Z" fill="white"/>
<path d="M37.792 43.3834L48.259 88.7404H75.008V32.9165L37.792 43.3834ZM68.9022 63.1544C68.4997 63.1544 68.1062 63.0351 67.7715 62.8114C67.4368 62.5878 67.176 62.2699 67.0219 61.898C66.8679 61.5261 66.8276 61.1169 66.9061 60.7221C66.9846 60.3273 67.1785 59.9647 67.4631 59.68C67.7477 59.3954 68.1104 59.2016 68.5052 59.123C68.9 59.0445 69.3092 59.0848 69.6811 59.2389C70.053 59.3929 70.3708 59.6538 70.5945 59.9885C70.8181 60.3232 70.9375 60.7166 70.9375 61.1192C70.9375 61.659 70.7231 62.1766 70.3414 62.5583C69.9597 62.94 69.442 63.1544 68.9022 63.1544V63.1544Z" fill="white"/>
</svg>
