<?xml version="1.0" encoding="UTF-8"?>
<svg width="120px" height="137px" viewBox="0 0 120 137" version="1.1" xmlns="http://www.w3.org/2000/svg" xmlns:xlink="http://www.w3.org/1999/xlink">
    <!-- Generator: Sketch 53.2 (72643) - https://sketchapp.com -->
    <title>Logo/Mark</title>
    <desc>Created with Sketch.</desc>
    <g id="Page-1" stroke="none" stroke-width="1" fill="none" fill-rule="evenodd">
        <g id="Artboard" transform="translate(-424.000000, -47.000000)">
            <g id="Logo/Mark" transform="translate(424.000000, 46.000000)">
                <g id="Mark">
                    <path d="M64.8074226,2.50630319 L115.207423,31.6647993 C118.173489,33.3807922 120,36.5476663 120,39.9743533 L120,98.3256467 C120,101.752334 118.173489,104.919208 115.207423,106.635201 L64.8074226,135.793697 C61.8334019,137.514291 58.1665981,137.514291 55.1925774,135.793697 L4.79257741,106.635201 C1.82651068,104.919208 7.67971342e-14,101.752334 6.57252031e-14,98.3256467 L2.30926389e-14,39.9743533 C2.26729908e-14,36.5476663 1.82651068,33.3807922 4.79257741,31.6647993 L55.1925774,2.50630319 C58.1665981,0.78570855 61.8334019,0.78570855 64.8074226,2.50630319 Z" id="Polygon-1" fill="#EE5C53"></path>
                    <path d="M32.7692429,101.524773 L26.4442845,101.524773 C25.472726,101.524773 24.6851222,100.737169 24.6851222,99.7656104 C24.6851222,99.5619126 24.7205002,99.3597625 24.7896791,99.1681716 L54.3548526,17.2875 L60.5605951,17.2875 C61.5321536,17.2875 62.3197574,18.0751038 62.3197574,19.0466623 C62.3197574,19.2495988 62.2846433,19.451005 62.215969,19.6419685 L32.7692429,101.524773 Z M87.6029355,38.5743461 L92.3356898,43.1528256 C93.0339722,43.8283459 93.0524245,44.942033 92.3769042,45.6403154 C92.3728857,45.6444693 92.3688467,45.6486034 92.3647875,45.6527175 L68.5928814,69.7458479 C70.4734553,71.6425361 72.3948824,73.5598116 74.3572204,75.4977322 C76.3195584,77.4356527 78.3636298,79.4353917 80.4894959,81.4970093 C82.615362,83.6410916 84.8229591,85.8469893 87.1123534,88.1147686 C89.4017477,90.3825479 91.5684634,92.5059822 93.6125654,94.485135 L88.9720473,99.2629228 C88.2951363,99.9598572 87.1814147,99.9760894 86.4844803,99.2991785 C86.4773984,99.2923001 86.4703746,99.2853623 86.4634096,99.2783657 L57.0642035,69.7458479 L87.6029355,38.5743461 Z" id="/&lt;" stroke="#FFFFFF" stroke-width="2.63874346" fill="#FFFFFF"></path>
                </g>
            </g>
        </g>
    </g>
</svg>