<svg width="841" height="204" xmlns="http://www.w3.org/2000/svg"><path d="M33.492 170H130a2 2 0 0 1 2 2v31a2 2 0 0 1-2 2H.725a2 2 0 0 1-1.436-3.392l28.172-29.055a8.4 8.4 0 0 1 6.03-2.553zM-5 2h31a2 2 0 0 1 2 2v119.06a8.4 8.4 0 0 1-2.51 5.989l-29.088 28.605A2 2 0 0 1-7 156.228V4a2 2 0 0 1 2-2zm197.093 168H292a2 2 0 0 1 2 2v31a2 2 0 0 1-2 2H177.024a8.4 8.4 0 0 1-6.011-14.267l19.649-20.13a2 2 0 0 1 1.431-.603zM337.048 0H453a2 2 0 0 1 2 2v31a2 2 0 0 1-2 2H352.273a2 2 0 0 1-1.425-.597L331.06 14.29A8.4 8.4 0 0 1 337.048 0zm-133.2 34.412v48.176h46.74c9.51 0 17.22 7.704 17.22 17.206 0 9.503-7.71 17.206-17.22 17.206H179a5 5 0 0 1-5-5V5a5 5 0 0 1 5-5h107.408A4.59 4.59 0 0 1 291 4.588v25.236a4.59 4.59 0 0 1-4.592 4.588h-82.56zm161 136.06h82.56a4.598 4.598 0 0 1 4.592 4.603v25.321a4.598 4.598 0 0 1-4.592 4.604H340a5 5 0 0 1-5-5V88a5 5 0 0 1 5-5h71.588c9.51 0 17.22 7.73 17.22 17.264 0 9.535-7.71 17.264-17.22 17.264h-46.74v52.944zm280.24-107.435c5.36 12.3 7.912 25.37 7.912 39.463 0 14.094-2.553 27.162-7.913 39.463-5.616 12.556-12.763 23.318-21.952 32.8-9.19 9.225-20.165 16.656-32.673 22.037-12.252 5.381-25.525 8.2-39.564 8.2h-47.78a8.4 8.4 0 0 1-5.974-14.306l18.337-18.547a5 5 0 0 1 3.556-1.484h31.86c9.445 0 18.38-1.794 26.547-5.126 8.169-3.587 15.571-8.456 21.697-14.862 6.126-6.406 10.976-13.581 14.55-21.781 3.573-8.457 5.36-17.169 5.36-26.394 0-9.225-1.787-17.938-5.36-26.394-3.574-8.2-8.424-15.375-14.805-21.781a71.154 71.154 0 0 0-21.697-14.863c-8.168-3.33-17.102-5.125-26.291-5.125h-21.35c-1.742 0-1.742 31.517 0 94.55 0 12.516-6.072 18.774-18.215 18.774s-18.214-6.258-18.214-18.775V8.4a8.4 8.4 0 0 1 8.4-8.4h49.379c14.039 0 27.057 2.819 39.564 8.2 12.253 5.381 23.229 12.813 32.418 22.038 9.444 9.48 16.591 20.243 22.207 32.8zm141.83 58.243h-51.094c-16.689 0-30.81-5.933-42.365-17.542C681.905 91.872 676 77.684 676 60.917c0-16.51 5.905-30.44 17.46-42.306 6.422-6.596 17.306-11.106 32.653-13.532a8.4 8.4 0 0 1 9.711 8.297v17.496a5 5 0 0 1-4.31 4.953c-2.454.342-4.355.795-5.703 1.36-3.338 1.29-5.906 3.095-8.473 5.675-2.311 2.321-4.108 5.159-5.392 8.254-1.284 3.096-1.797 6.45-1.797 9.803 0 7.223 2.31 13.156 7.189 18.315 5.135 5.16 11.04 7.739 18.486 7.739h51.095c16.69 0 30.81 5.933 42.365 17.541C841.094 116.378 847 130.566 847 147.076s-5.905 30.697-17.716 42.563c-6.424 6.455-17.313 10.883-32.667 13.284a8.4 8.4 0 0 1-9.698-8.3V177.12a5 5 0 0 1 4.31-4.952c2.454-.342 4.355-.795 5.703-1.36 3.338-1.29 6.163-3.095 8.473-5.417 2.311-2.322 4.109-4.901 5.392-8.255 1.284-3.095 2.054-6.449 2.054-10.06 0-6.965-2.824-12.898-7.702-18.057-5.135-5.16-11.04-7.74-18.23-7.74z" fill="#ffffff"/></svg>
