<?xml version="1.0" encoding="UTF-8"?>
<svg width="1047px" height="173px" viewBox="0 0 1047 173" version="1.1" xmlns="http://www.w3.org/2000/svg" xmlns:xlink="http://www.w3.org/1999/xlink">
    <!-- Generator: Sketch 54 (76480) - https://sketchapp.com -->
    <title>LONDON</title>
    <desc>Created with Sketch.</desc>
    <g id="Page-1" stroke="none" stroke-width="1" fill="none" fill-rule="evenodd">
        <g id="eventbrite-ldn" transform="translate(-557.000000, -708.000000)" fill="#FFFFFF">
            <path d="M585.724264,852.0225 L672.113027,852.0225 L672.113027,875.6 C672.113027,878.582338 669.695365,881 666.713027,881 L569.956266,881 C566.973929,881 564.556266,878.582338 564.556266,875.6 C564.556266,874.176041 565.118707,872.809718 566.121169,871.798418 L585.724264,852.0225 Z M562.4,708 L585.724264,708 L585.724264,812.88125 L566.235097,832.542235 C564.135542,834.660301 560.716484,834.675306 558.598418,832.57575 C557.575453,831.561725 557,830.181036 557,828.740653 L557,713.4 C557,710.417662 559.417662,708 562.4,708 Z M780.971775,708 C804.944657,708 825.030044,716.65 841.875853,733.5175 C858.937634,750.385 867.57651,770.7125 867.57651,794.5 C867.57651,818.50375 858.937634,838.83125 841.875853,855.4825 C825.030044,872.35 804.944657,881 780.971775,881 C756.998893,881 736.913506,872.35 720.067697,855.4825 C703.221888,838.615 694.583012,818.50375 694.583012,794.5 C694.583012,770.7125 703.221888,750.385 720.067697,733.5175 C736.697534,716.65 756.998893,708 780.971775,708 Z M780.971775,736.9775 C765.205826,736.9775 751.599595,742.38375 740.153084,753.845 C728.922545,765.09 723.523247,778.71375 723.523247,794.5 C723.523247,810.28625 728.922545,824.12625 740.153084,835.37125 C751.383623,846.61625 765.205826,852.0225 780.971775,852.0225 C796.737724,852.0225 810.343954,846.61625 821.574494,835.37125 C833.021005,823.91 838.420302,810.28625 838.420302,794.5 C838.420302,778.71375 832.805033,765.09 821.574494,753.845 C810.343954,742.6 796.737724,736.9775 780.971775,736.9775 Z M1023.94978,708 L1041.87404,708 C1044.85638,708 1047.27404,710.417662 1047.27404,713.4 L1047.27404,868.871384 C1047.27404,871.853721 1044.85638,874.271384 1041.87404,874.271384 C1040.5396,874.271384 1039.25242,873.77728 1038.26073,872.884362 L905.439415,753.291247 C904.302104,752.267205 903.652725,750.808674 903.652725,749.278269 L903.652725,720.138796 C903.652725,717.156459 906.070387,714.738796 909.052725,714.738796 C910.388328,714.738796 911.676546,715.233758 912.668535,716.128071 L1018.54978,811.58375 L1018.54978,713.4 C1018.54978,710.417662 1020.96744,708 1023.94978,708 Z M1212.28549,761.1975 C1216.8209,771.5775 1218.98062,782.60625 1218.98062,794.5 C1218.98062,806.39375 1216.8209,817.4225 1212.28549,827.8025 C1207.53411,838.39875 1201.48689,847.48125 1193.7119,855.4825 C1185.93691,863.2675 1176.65012,869.53875 1166.0675,874.08 C1155.70085,878.62125 1144.47031,881 1132.59185,881 L1088.09959,881 C1085.11725,881 1082.69959,878.582338 1082.69959,875.6 C1082.69959,874.176041 1083.26203,872.809718 1084.2645,871.798418 L1103.86759,852.0225 L1132.59185,852.0225 C1140.58281,852.0225 1148.14183,850.50875 1155.05293,847.6975 C1161.96403,844.67 1168.22722,840.56125 1173.41054,835.155 C1178.59387,829.74875 1182.69734,823.69375 1185.72094,816.77375 C1188.74455,809.6375 1190.25635,802.285 1190.25635,794.5 C1190.25635,786.715 1188.74455,779.3625 1185.72094,772.22625 C1182.69734,765.30625 1178.59387,759.25125 1173.19457,753.845 C1168.01125,748.655 1161.74806,744.33 1154.83696,741.3025 C1147.92586,738.49125 1140.36684,736.9775 1132.59185,736.9775 L1103.86759,736.9775 L1084.2645,717.201582 C1082.16494,715.083516 1082.17994,711.664458 1084.29801,709.564903 C1085.30931,708.56244 1086.67563,708 1088.09959,708 L1132.59185,708 C1144.47031,708 1155.48488,710.37875 1166.0675,714.92 C1176.43415,719.46125 1185.72094,725.7325 1193.49593,733.5175 C1201.48689,741.51875 1207.53411,750.60125 1212.28549,761.1975 Z M1343.62114,708 C1367.59402,708 1387.67941,716.65 1404.52521,733.5175 C1421.587,750.385 1430.22587,770.7125 1430.22587,794.5 C1430.22587,818.50375 1421.587,838.83125 1404.52521,855.4825 C1387.67941,872.35 1367.59402,881 1343.62114,881 C1319.64825,881 1299.56287,872.35 1282.71706,855.4825 C1265.87125,838.615 1257.23237,818.50375 1257.23237,794.5 C1257.23237,770.7125 1265.87125,750.385 1282.71706,733.5175 C1299.3469,716.65 1319.64825,708 1343.62114,708 Z M1343.62114,736.9775 C1327.85519,736.9775 1314.24896,742.38375 1302.80245,753.845 C1291.57191,765.09 1286.17261,778.71375 1286.17261,794.5 C1286.17261,810.28625 1291.57191,824.12625 1302.80245,835.37125 C1314.03298,846.61625 1327.85519,852.0225 1343.62114,852.0225 C1359.38709,852.0225 1372.99332,846.61625 1384.22386,835.37125 C1395.67037,823.91 1401.06966,810.28625 1401.06966,794.5 C1401.06966,778.71375 1395.45439,765.09 1384.22386,753.845 C1372.99332,742.6 1359.38709,736.9775 1343.62114,736.9775 Z M1580.67574,708 L1598.6,708 C1601.58234,708 1604,710.417662 1604,713.4 L1604,868.871384 C1604,871.853721 1601.58234,874.271384 1598.6,874.271384 C1597.26556,874.271384 1595.97837,873.77728 1594.98669,872.884362 L1462.16537,753.291247 C1461.02806,752.267205 1460.37868,750.808674 1460.37868,749.278269 L1460.37868,720.138796 C1460.37868,717.156459 1462.79634,714.738796 1465.77868,714.738796 C1467.11428,714.738796 1468.4025,715.233758 1469.39449,716.128071 L1575.27574,811.58375 L1575.27574,713.4 C1575.27574,710.417662 1577.6934,708 1580.67574,708 Z" id="LONDON"></path>
        </g>
    </g>
</svg>