<svg width="1602" height="583" viewBox="0 0 1602 583" fill="none" xmlns="http://www.w3.org/2000/svg">
<path d="M414.379 545.323C406.646 543.737 390.586 537.589 390.586 536.4C390.586 535.408 396.534 521.527 397.129 521.527C397.328 521.527 402.284 523.312 408.034 525.493C426.671 532.632 446.498 530.054 452.644 519.743C459.98 507.448 454.825 498.128 436.584 489.799C415.37 480.281 409.818 476.712 403.474 468.978C398.319 462.632 397.526 460.054 397.526 449.346C397.526 438.638 398.319 435.862 403.276 429.516C411.404 418.808 421.913 414.446 440.153 414.644C448.282 414.644 458.592 415.834 462.954 417.222C470.488 419.403 470.885 419.8 471.479 428.525L472.074 437.647L461.566 434.077C437.378 425.749 416.361 432.491 416.361 448.553C416.361 456.882 422.507 462.434 440.946 470.961C450.86 475.522 461.764 481.669 465.333 484.644C482.979 499.516 477.229 531.839 455.222 541.357C445.11 545.918 426.275 547.703 414.379 545.323Z" fill="white"/>
<path d="M509.547 544.728C496.065 541.556 489.72 538.184 489.72 534.218C489.72 531.839 492.496 524.7 494.479 522.122C494.677 521.726 499.634 523.312 505.185 525.493C523.624 532.632 545.83 529.658 551.183 519.743C554.157 513.794 553.562 504.672 549.795 499.913C547.813 497.533 536.908 490.989 525.408 485.238C503.401 474.332 497.056 467.986 494.479 455.097C491.505 439.233 502.806 421.584 518.866 416.825C528.779 413.851 549.597 414.049 560.105 417.222C567.639 419.403 568.036 419.998 568.631 427.93C569.424 437.448 569.622 437.25 556.338 433.284C535.322 426.938 517.874 431.499 514.702 444.389C512.124 455.097 516.883 460.649 537.106 470.168C566.45 484.049 572.992 491.386 572.992 509.629C572.992 520.734 570.018 528.071 562.683 534.813C551.778 544.927 529.175 549.289 509.547 544.728Z" fill="white"/>
<path d="M676.092 544.133C661.816 540.167 648.929 529.261 641.395 514.388C636.042 503.482 635.447 501.102 635.447 480.876C635.447 453.907 639.61 443.001 655.274 428.723C666.773 418.015 676.29 414.446 692.35 414.446C726.848 414.446 749.847 440.423 750.244 479.884C750.442 501.499 745.882 514.587 732.994 528.666C718.323 544.728 698.099 550.281 676.092 544.133ZM706.426 526.683C721.891 520.337 730.615 500.706 729.227 475.918C727.839 451.726 718.323 437.25 700.875 432.292C676.488 425.55 654.282 448.156 654.282 479.884C654.282 491.187 659.437 508.836 664.592 515.578C674.307 528.071 691.953 532.83 706.426 526.683Z" fill="white"/>
<path d="M150.683 455.097V366.854H160.2H169.519L202.233 416.429C220.275 443.596 235.343 465.805 235.938 465.805C236.533 465.805 245.257 452.321 255.567 435.664C265.876 419.006 279.953 396.797 286.893 386.287L299.384 366.854H308.306H317.228V455.097V543.34H307.314H297.401V472.547V401.754L290.858 412.661C281.143 428.525 271.428 443.992 264.687 454.502C261.515 459.658 254.773 470.168 250.015 477.703C236.136 500.111 236.533 500.508 201.043 447.76L171.501 403.539L170.906 473.539L170.51 543.34H160.596H150.683V455.097Z" fill="white"/>
<path d="M348.95 479.884V416.429H358.864H368.777V479.884V543.34H358.864H348.95V479.884Z" fill="white"/>
<path d="M594.802 479.884V416.429H604.715H614.628V479.884V543.34H604.715H594.802V479.884Z" fill="white"/>
<path d="M771.26 479.884V416.429H778.992C786.328 416.429 786.725 416.627 787.914 424.361C788.509 428.723 789.699 432.292 790.293 432.292C790.888 432.292 794.259 430.111 797.629 427.533C819.439 410.876 846.601 410.083 860.678 425.55C869.6 435.267 870.393 441.414 870.393 493.964V543.34H861.67H852.946L852.153 497.335C851.558 466.4 850.368 448.95 848.782 444.587C843.627 431.698 826.576 428.525 809.724 437.448C790.095 447.76 791.086 444.389 791.086 497.136V543.34H781.173H771.26V479.884Z" fill="white"/>
<path d="M348.95 384.304C340.425 375.182 346.175 362.888 359.062 362.888C367.984 362.888 370.76 365.862 370.76 374.984C370.76 387.477 357.278 393.227 348.95 384.304Z" fill="white"/>
<path d="M594.207 385.097C589.845 380.14 590.044 370.225 594.405 366.259C598.767 362.293 610.862 361.896 614.232 365.267C618.396 369.432 617.206 382.123 612.249 385.494C606.301 389.658 598.173 389.46 594.207 385.097Z" fill="white"/>
<path d="M883.876 311.925C882.091 309.942 878.919 304.389 876.936 299.432C874.755 294.475 858.498 258.979 840.852 220.509C823.404 181.841 808.931 161.5 808.931 147.733C808.931 133.966 824.594 110.056 848.188 59.0932C861.075 31.5296 867.221 32.9177 882.488 66.4303C888.039 78.5266 895.177 93.7956 898.349 100.736C901.522 107.677 904.099 113.626 904.099 114.022C904.099 114.22 908.064 122.946 912.823 133.059C917.581 143.37 930.469 171.331 941.373 195.325C952.278 219.319 963.976 245.296 967.545 252.832C971.113 260.565 976.268 271.67 978.846 277.619C981.622 283.568 985.19 291.5 986.776 294.871C990.544 303.2 988.957 309.942 982.415 312.916C979.044 314.503 962.39 315.296 932.055 315.296C891.41 315.296 886.651 314.899 883.876 311.925Z" fill="white"/>
<path d="M1064.7 544.332C1058.75 542.547 1051.81 539.771 1049.43 538.185C1045.07 535.408 1044.87 535.012 1048.04 528.864C1049.83 525.295 1051.41 522.321 1051.61 522.122C1051.81 521.726 1056.76 523.312 1062.32 525.493C1068.07 527.675 1077.58 529.459 1083.73 529.459C1099.99 529.459 1107.72 524.502 1109.7 512.604C1111.49 502.094 1106.93 497.335 1085.12 486.825C1062.51 476.117 1055.57 470.168 1052.6 459.261C1047.64 440.621 1056.76 423.369 1074.81 417.42C1085.91 413.653 1110.69 414.049 1120.8 418.015C1125.56 419.998 1126.16 421.386 1126.16 428.922V437.647L1114.86 434.077C1101.57 429.516 1090.87 429.318 1081.55 433.086C1073.22 436.655 1069.85 442.604 1071.44 451.329C1073.02 459.261 1077.78 462.831 1099.39 472.746C1123.18 483.652 1130.12 491.782 1130.12 508.638C1130.12 531.244 1116.05 543.935 1088.29 546.315C1079.96 546.91 1071.83 546.315 1064.7 544.332Z" fill="white"/>
<path d="M1169.78 545.918C1161.45 544.53 1146.18 539.176 1144.8 537.193C1143.61 535.21 1147.97 521.527 1149.95 521.527C1150.55 521.527 1155.11 523.312 1159.86 525.692C1166.8 529.063 1171.17 529.658 1183.06 529.063C1195.55 528.468 1198.33 527.675 1202.69 523.312C1206.26 519.544 1207.84 515.777 1208.04 510.621C1208.24 504.275 1207.05 502.094 1201.1 496.938C1197.14 493.567 1188.41 488.61 1181.47 486.032C1167.79 480.678 1155.7 470.961 1151.93 462.038C1150.55 458.667 1149.75 451.528 1150.35 445.182C1151.34 432.491 1157.68 424.361 1170.77 418.213C1180.09 413.851 1198.33 413.256 1213.2 416.825L1223.31 419.007V428.327V437.647L1212.01 434.077C1191.78 427.335 1173.94 430.905 1169.98 442.604C1166.01 454.106 1173.15 462.434 1195.55 472.151C1220.53 482.859 1231.04 497.137 1228.07 515.578C1226.48 524.502 1220.73 534.02 1214.39 538.185C1204.28 544.728 1184.05 548.298 1169.78 545.918Z" fill="white"/>
<path d="M1310.55 544.728C1297.06 541.556 1290.72 538.185 1290.72 534.219C1290.72 531.839 1293.69 524.502 1295.68 521.924C1295.88 521.726 1300.24 523.312 1305.39 525.493C1322.64 532.83 1346.63 529.856 1352.18 519.743C1355.16 513.794 1354.56 504.672 1350.8 499.913C1348.81 497.533 1337.91 490.989 1326.41 485.239C1311.74 477.902 1304.4 473.142 1301.43 468.581C1288.54 449.148 1297.66 423.568 1319.87 416.825C1329.98 413.851 1347.03 413.851 1359.92 416.825L1370.03 419.007V428.525V437.845L1361.7 434.871C1338.5 426.74 1319.07 430.706 1315.7 444.389C1313.12 455.295 1318.08 461.046 1338.11 470.366C1367.05 483.652 1373.99 491.188 1373.99 509.629C1373.99 520.734 1371.02 528.071 1363.68 534.813C1352.78 544.927 1330.18 549.289 1310.55 544.728Z" fill="white"/>
<path d="M1425.54 546.116C1416.82 542.944 1412.85 539.771 1409.48 533.029C1406.11 526.485 1405.72 520.932 1405.72 479.884V434.276H1394.81H1383.91V425.352V416.429H1394.81H1405.52L1406.11 402.349L1406.71 388.27L1414.64 385.494C1419 384.106 1423.16 382.718 1424.15 382.718C1424.95 382.718 1425.54 390.253 1425.54 399.573V416.429H1444.38C1454.69 416.429 1463.21 416.825 1463.21 417.42C1463.21 417.817 1461.82 421.981 1460.04 426.344L1456.87 434.276H1441.21H1425.54V477.505C1425.54 513.397 1426.14 521.329 1428.71 525.097C1432.28 530.451 1442 530.847 1452.7 526.485C1456.67 524.898 1460.04 523.709 1460.24 523.907C1462.22 526.286 1465.2 533.624 1465.2 536.003C1465.2 541.555 1434.46 549.289 1425.54 546.116Z" fill="white"/>
<path d="M890.22 542.349C890.22 541.952 892.599 535.408 895.375 528.071C907.866 495.154 932.649 429.715 946.726 391.641C950.89 380.735 955.054 370.622 956.243 369.233C957.433 367.845 961.002 366.854 964.372 367.25C970.32 367.845 970.717 368.639 984.001 403.539C991.535 423.171 998.276 441.018 999.267 443.199C1000.06 445.38 1002.44 451.131 1004.22 456.089C1012.15 476.712 1023.85 507.646 1029.01 521.527C1031.98 529.658 1035.15 537.986 1035.95 539.969C1037.14 542.944 1036.14 543.34 1026.43 543.34H1015.72L1012.35 534.02C1010.37 528.666 1006.4 518.355 1003.43 510.621L998.078 496.74L963.183 496.145L928.288 495.748L919.762 519.544L911.038 543.34H900.728C894.979 543.34 890.22 542.944 890.22 542.349ZM991.337 477.902C991.337 476.91 989.156 470.366 986.578 463.624C983.802 456.683 977.854 440.423 973.294 427.335C968.734 414.247 964.372 402.944 963.579 401.953C962.984 401.16 960.407 406.514 957.829 413.851C955.45 421.386 952.674 429.12 951.683 431.301C950.692 433.482 947.123 443.397 943.752 453.114C940.382 463.029 936.813 472.944 935.822 475.522L933.839 479.885H962.588C980.234 479.885 991.337 479.091 991.337 477.902Z" fill="white"/>
<path d="M1247.1 479.884V416.429H1257.01H1266.93V479.884V543.34H1257.01H1247.1V479.884Z" fill="white"/>
<path d="M1248.29 385.692C1243.73 380.933 1242.74 375.381 1245.52 369.432C1247.5 365.069 1249.68 363.681 1255.83 363.284C1264.95 362.491 1270.89 367.052 1270.89 374.786C1270.89 385.89 1255.83 393.228 1248.29 385.692Z" fill="white"/>
<path d="M632.869 312.123C630.49 310.537 628.507 306.967 628.507 304.39C628.507 301.812 633.861 288.327 640.403 274.446C646.946 260.764 652.299 249.064 652.299 248.667C652.299 248.073 655.868 239.942 660.428 230.424C664.989 220.906 671.928 205.636 676.091 196.316C684.617 176.883 690.962 163.2 703.056 137.223C707.814 126.912 711.78 118.385 711.78 117.988C711.78 117.592 716.736 106.883 722.684 94.1923C728.632 81.3028 733.589 70.5947 733.589 70.3964C733.589 69.9998 736.365 63.8525 739.537 56.7137C749.252 35.694 758.769 34.7025 767.294 54.1358C769.872 59.8865 776.613 74.5606 782.561 87.0535C788.311 99.3481 793.069 109.858 793.069 110.056C793.069 110.453 796.241 117.592 800.009 125.722C810.318 148.13 810.318 148.13 787.914 196.118C783.156 206.231 779.19 214.957 779.19 215.353C779.19 215.75 776.415 222.095 773.044 229.432C769.674 236.968 764.519 247.874 761.941 253.823C759.165 259.772 753.019 273.058 748.261 283.172C743.502 293.285 739.537 302.407 739.537 303.2C739.537 304.191 737.753 307.166 735.373 310.14L731.408 315.296H684.22C644.964 315.296 636.636 314.701 632.869 312.123Z" fill="white"/>
</svg>
