<?xml version="1.0" encoding="UTF-8"?>
<svg width="1000px" height="282px" viewBox="0 0 1000 282" version="1.1" xmlns="http://www.w3.org/2000/svg" xmlns:xlink="http://www.w3.org/1999/xlink">
    <title>PrayerMate/White</title>
    <defs>
        <path d="M0,282.015852 L281.711283,282.015852 L281.711283,0 L0,0 L0,282.015852 Z M0,282 L0,0 L281.711283,0 L281.711283,282 L197.351553,282 C194.607941,270.02253 186.396115,231.124283 193.247224,219.432142 C199.493218,208.78145 210.003533,201.25828 218.950369,183.857976 C227.691276,166.823845 228.201347,155.027083 231.602348,140.992074 C234.16696,130.423811 236.215165,123.856492 241.041831,105.654098 C244.282841,93.4103204 250.98188,75.1651265 243.804451,71.4748735 C242.873017,70.9961551 241.973265,70.786914 241.108362,70.786914 C239.090254,70.786914 237.268572,71.9329848 235.71935,73.4769309 C237.219466,74.8988196 237.838838,77.6332209 237.838838,80.6291737 C237.838838,77.6332209 237.219466,74.8988196 235.71935,73.4769309 C235.351846,73.1250253 234.920978,72.8428668 234.426748,72.6748398 C234.054491,72.5305902 233.696491,72.4545025 233.316314,72.3815852 C233.856482,70.3224621 234.274677,68.3917369 234.379226,67.194941 C234.710297,62.7834401 236.474952,54.4137943 228.885666,50.8170658 C227.952647,50.3732209 226.932505,50.1988533 225.904443,50.1988533 C222.053565,50.1988533 218.077545,52.6526813 218.077545,52.6526813 C218.077545,52.6526813 222.276919,41.4107251 214.570411,36.5680607 C212.739224,35.4156492 211.09971,34.9321754 209.520391,34.9321754 C207.453178,34.9321754 205.487345,35.7612142 203.323503,37.0119056 L203.298158,37.0499494 C197.967757,39.0757841 192.987436,46.5640809 192.987436,46.5640809 C192.987436,46.5640809 191.143577,40.2266105 185.787831,39.6591231 C185.748229,39.6559528 185.708628,39.6527825 185.667442,39.6527825 C180.63643,39.6527825 156.099162,69.3602698 153.149621,74.3677909 C153.149621,74.3677909 153.149621,74.3677909 153.149621,74.3693761 C153.144869,74.3773019 153.138532,74.3868128 153.13378,74.3963238 C153.132196,74.3963238 153.132196,74.3994941 153.130612,74.4010793 C153.129028,74.4042496 153.12586,74.4074199 153.124276,74.4121754 C153.124276,74.4121754 153.124276,74.4121754 153.124276,74.4137605 C153.121108,74.4153457 153.121108,74.418516 153.11794,74.4216863 C153.114771,74.4264418 153.111603,74.4327825 153.108435,74.4375379 C153.106851,74.4407083 153.105267,74.4438786 153.103683,74.4470489 C149.712186,80.3660371 148.411663,82.6137943 144.997989,89.043204 C143.342634,82.1715346 138.157968,78.1674199 134.926462,78.1674199 C134.30709,78.1674199 133.760585,78.3148398 133.323382,78.6160202 C132.653319,79.0741315 132.14008,81.7578078 131.541301,84.9915346 C129.752884,81.8703541 127.907441,80.4199325 126.073086,80.4183474 L126.069918,80.4183474 C125.26521,80.4183474 124.462085,80.6973356 123.668465,81.2378752 C123.665297,81.2394604 123.663713,81.2410455 123.662129,81.2426307 C123.654209,81.2473862 123.646288,81.2537268 123.636784,81.2584823 C122.428137,82.0922766 121.723226,90.2257336 120.105889,95.6866105 C117.260896,105.257808 113.511399,114.299562 112.96331,116.463305 C112.104743,119.879325 109.841105,140.177302 109.741308,148.955919 C109.741308,149.000304 109.739724,149.044688 109.739724,149.089073 C109.742893,155.372648 115.051116,173.462496 115.054284,189.694536 C115.054284,194.960438 114.496691,200.029781 113.018752,204.438111 C108.705326,217.296931 64.8360483,261.361214 39.0505317,282 L0,282 Z M211.890162,57.251231 C212.237074,56.2272175 213.654818,52.0106914 213.843322,48.2094772 C214.074597,52.1438449 212.28618,56.082968 211.890162,57.251231 Z" id="path-1"></path>
        <polygon id="path-3" points="-3.60527904e-15 -5.41163516e-15 281.711283 -5.41163516e-15 281.711283 282 -3.60527904e-15 282"></polygon>
        <path d="M0.866149612,0.95794849 C0.788091068,0.816698046 0.71153365,0.678452931 0.634976232,0.544715808 C0.71153365,0.678452931 0.788091068,0.816698046 0.866149612,0.95794849" id="path-5"></path>
        <linearGradient x1="435.8%" y1="12429.3%" x2="435.8%" y2="-3055.8%" id="linearGradient-7">
            <stop stop-color="#C7C7C1" offset="0%"></stop>
            <stop stop-color="#FFFFFE" offset="100%"></stop>
        </linearGradient>
        <path d="M103.532005,245.435169 L-5.27232044e-15,245.419319 C25.767445,224.782927 69.6059768,180.723755 73.9163806,167.866427 C75.3932836,163.458608 75.950486,158.389854 75.950486,153.124563 C75.94732,136.894405 70.6428165,118.806655 70.6396506,112.523809 C70.6396506,112.47943 70.6412336,112.43505 70.6412336,112.390671 C70.7409601,103.613072 73.0030119,83.3174504 73.860977,79.9018264 C74.4086816,77.7383338 78.1555511,68.6976288 80.9985497,59.1275418 C82.6147533,53.6672983 83.3191711,45.5347848 84.5269706,44.7010873 C84.5364684,44.6963323 84.5443832,44.6899924 84.552298,44.6852375 C84.5538809,44.6836525 84.5554639,44.6820675 84.5586298,44.6804826 C85.3516935,44.1400056 86.1542549,43.8610498 86.9583992,43.8610498 C86.9583992,43.8610498 86.9583992,43.8610498 86.9583992,43.8610498 L86.9615652,43.8610498 C88.7946344,43.8626348 90.6387844,45.3144731 92.4259478,48.4337065 C92.5066788,48.5747694 92.5874098,48.7205872 92.6697238,48.869575 C92.6823875,48.8949346 92.6966342,48.9202942 92.7092979,48.9440689 C92.7140467,48.9535787 92.7203786,48.9630886 92.7251275,48.9725985 C92.7314593,48.9868632 92.7393741,48.9995431 92.7472889,49.0138078 C93.3503972,50.143896 93.9455907,51.4610113 94.5360353,52.9984383 C96.1569877,57.2208152 96.554311,61.7934719 96.554311,65.2598152 C96.554311,68.5930204 96.187064,70.9055008 96.187064,70.9055008 C100.152382,63.3673534 102.833919,58.2653146 104.825284,54.4677114 C109.053374,46.4556561 110.256425,44.3793371 113.973218,37.890444 C113.974801,37.887274 113.976384,37.8841041 113.977967,37.8809341 C113.981133,37.8761792 113.984299,37.8698393 113.987464,37.8650844 C113.99063,37.8619144 113.99063,37.8587445 113.993796,37.8571595 C113.993796,37.8555745 113.993796,37.8555745 113.993796,37.8555745 C113.995379,37.8508196 113.998545,37.8476496 114.000128,37.8444797 C114.001711,37.8428947 114.001711,37.8397248 114.003294,37.8397248 C114.008043,37.8302149 114.014375,37.820705 114.019124,37.8127802 C114.019124,37.8111952 114.019124,37.8111952 114.019124,37.8111952 C116.966598,32.804255 141.489835,3.09704374 146.514154,3.10021369 C146.555311,3.10021369 146.596468,3.10338364 146.634459,3.10655359 C151.986452,3.67397512 153.829019,10.0107105 153.829019,10.0107105 C153.829019,10.0107105 158.805849,2.52328231 164.132514,0.497682566 C164.976233,0.182272277 165.827866,-1.4517337e-15 166.660504,-1.4517337e-15 C166.662087,-1.4517337e-15 166.66367,-1.4517337e-15 166.66367,-1.4517337e-15 C166.665253,-1.4517337e-15 166.665253,-1.4517337e-15 166.665253,-1.4517337e-15 C166.945437,-1.4517337e-15 167.224038,0.0206046922 167.499473,0.063399053 C167.501056,0.063399053 167.504222,0.0649840293 167.507388,0.0649840293 C167.51372,0.0665690056 167.521635,0.0665690056 167.527966,0.0681539819 C173.464072,1.0444994 174.005444,5.01645007 174.586391,9.21663732 C174.657624,9.73650956 174.690867,10.2864963 174.690867,10.8507479 C174.690867,11.1170239 174.682952,11.3848849 174.670288,11.6559159 C174.481916,15.4566891 173.065165,19.6727261 172.718497,20.6966208 C172.718497,20.6966208 177.918525,15.2934365 182.170359,15.2870966 C182.173525,15.2870966 182.175108,15.2870966 182.176691,15.2870966 C182.176691,15.2870966 182.176691,15.2870966 182.178274,15.2870966 C182.81779,15.2870966 183.435145,15.4091398 184.011343,15.6912656 C184.024007,15.6976055 184.03667,15.7039454 184.049334,15.7102853 C187.478028,17.4347396 188.538613,19.9136425 188.540196,23.4370449 C188.540196,25.4467949 188.193527,27.7988997 187.743966,30.5440787 C187.071207,34.5128595 185.323618,39.6497677 183.898953,43.3887269 C183.910034,43.3681222 183.919531,43.3475175 183.930612,43.3253278 C183.94011,43.3078931 183.949608,43.2888734 183.959105,43.2714386 C185.763681,39.7448663 188.730151,35.7031767 192.864846,35.7015917 L192.866429,35.7015917 C193.270084,35.7015917 193.683237,35.7396311 194.107471,35.8204649 C194.113802,35.8220499 194.121717,35.8236349 194.129632,35.8252199 C194.509543,35.8981288 194.867292,35.9742076 195.239288,36.1184405 C195.733172,36.286448 196.163737,36.5685737 196.530984,36.9204385 C198.030049,38.3421623 198.648987,41.0762464 198.648987,44.0718517 C198.648987,46.1798702 198.341892,48.4162718 197.817932,50.4165119 C195.851894,57.837371 193.594591,65.5815654 186.085022,86.6110312 C182.322323,97.1970881 176.091787,121.86883 164.053366,139.130807 C151.989618,156.381689 131.292398,174.627936 128.488973,178.152924 C120.039126,188.913328 109.189509,232.665014 103.532005,245.435169" id="path-8"></path>
        <linearGradient x1="50%" y1="100%" x2="50%" y2="0%" id="linearGradient-10">
            <stop stop-color="#0A0B09" offset="0%"></stop>
            <stop stop-color="#2D2E2C" offset="100%"></stop>
        </linearGradient>
    </defs>
    <g id="PrayerMate/White" stroke="none" stroke-width="1" fill="none" fill-rule="evenodd">
        <mask id="mask-2" fill="white">
            <use xlink:href="#path-1"></use>
        </mask>
        <g id="path-3"></g>
        <g id="LogoOnly2" mask="url(#mask-2)">
            <g id="Fill-1-Clipped">
                <mask id="mask-4" fill="white">
                    <use xlink:href="#path-3"></use>
                </mask>
                <g id="path-1"></g>
            </g>
            <path d="M122.591944,113.701599 C123.139362,111.540154 126.896709,102.524385 129.744867,92.9773461 C131.364906,87.5286718 132.070995,79.4125821 133.284834,78.5856359 C136.009228,76.7135435 143.008239,80.822976 144.982116,88.9944063 C146.955993,97.1516062 144.982116,104.733264 144.982116,104.733264 L122.591944,113.701599" id="Fill-7" fill="#FFFFFE" fill-rule="nonzero"></path>
            <path d="M193.212008,219.447366 C199.454517,208.801963 209.958967,201.282529 218.900811,183.890865 C227.636841,166.865192 228.146627,155.074288 231.545731,141.046248 C234.108912,130.483233 236.155973,123.919175 240.979946,105.725819 C244.219148,93.4881215 250.914449,75.2519873 243.741025,71.5635667 C240.636394,69.968103 237.872149,71.360767 235.660436,73.5646299 C238.2157,75.985552 238.2157,82.2168914 236.947567,87.0555668 C234.981248,94.4736015 232.723622,102.214848 225.21298,123.236311 C221.449743,133.818338 215.218317,158.48069 203.178175,175.736097 C191.112702,192.980414 170.412523,211.219717 167.608698,214.743363 C159.157642,225.499671 139.51345,269.234706 133.850388,282 L197.317214,282 C194.578299,270.045905 186.363139,231.138455 193.212008,219.447366" id="Fill-8" fill="#FFFFFE" fill-rule="nonzero"></path>
            <path d="M206.553496,36.5027744 C212.49953,37.4806593 213.041808,43.046348 213.623727,47.2531578 C214.205645,51.461555 212.177651,55.9096611 211.752708,57.1637667 C211.752708,57.1637667 218.692919,49.9518659 223.102498,52.1695691 C228.495155,54.8825645 228.043256,59.4576686 226.80331,67.0267513 C226.129426,71.0017897 224.378913,76.1467974 222.951865,79.8916519 C224.930705,75.9832874 228.342936,71.3764339 233.199657,72.3162193 C233.74035,70.2540888 234.15895,68.3205437 234.263601,67.1219998 C234.594993,62.7040558 236.361361,54.3221857 228.764708,50.720204 C224.336102,48.6120367 217.946097,52.5585005 217.946097,52.5585005 C217.946097,52.5585005 222.149547,41.300125 214.435559,36.4503877 C210.205154,33.7881915 206.999052,34.6851151 203.177734,36.8948808 L203.152364,36.9329802 C204.292417,36.5075368 205.448326,36.3233897 206.553496,36.5027744" id="Fill-9" fill="#FFFFFE" fill-rule="nonzero"></path>
            <path d="M142.561037,282 C148.218528,269.22985 159.06812,225.478179 167.517948,214.717779 C170.321366,211.192793 191.018538,192.946552 203.082259,175.695676 C215.120652,158.433705 221.351174,133.761972 225.113864,123.175919 C232.623415,102.14646 234.880713,94.4022688 236.846746,86.9814123 C238.114696,82.1408963 238.114696,75.9071866 235.559802,73.4853437 C235.192556,73.1334791 234.761991,72.8513534 234.268108,72.6833459 C233.896113,72.5391131 233.538365,72.4630343 233.158455,72.3901254 C228.309856,71.4518198 224.903331,76.0514194 222.927799,79.9536298 C224.352461,76.2146719 226.100047,71.0777655 226.772804,67.1089862 C228.010677,59.5518217 228.46182,54.9839216 223.07818,52.275198 C218.675975,50.0609869 211.747369,57.2615318 211.747369,57.2615318 C212.171602,56.0094009 214.196205,49.9833231 213.615259,45.7815523 C213.034314,41.5813666 212.492942,37.6094173 206.556851,36.6330722 C205.453529,36.45397 204.299553,36.6378272 203.161407,37.0626007 C197.834754,39.0881997 192.857935,46.5756252 192.857935,46.5756252 C192.857935,46.5756252 191.015372,40.2388921 185.663392,39.6714708 C180.892358,39.1769583 155.750241,69.6544573 153.002226,74.4553488 C149.285441,80.9442396 148.082394,83.0205579 143.854314,91.0326103 C141.862953,94.8302123 139.181422,99.9322492 135.216113,107.470394 C135.216113,107.470394 136.745251,97.8480061 133.565089,89.5633378 C132.974645,88.0259113 132.379453,86.7087965 131.776346,85.5787087 C129.096399,80.5796952 126.278734,79.3925483 123.556047,81.2659897 C122.34825,82.0996869 121.643834,90.2321976 120.027634,95.6924391 C117.184642,105.262523 113.437781,114.303224 112.890078,116.466716 C112.032115,119.882339 109.770068,140.177954 109.670342,148.95555 C109.570616,157.095985 119.00821,186.341958 112.945482,204.431286 C108.635088,217.28861 64.7966573,261.347766 39.029272,281.98415 L63.273852,282 L142.561037,282" id="Fill-10" fill="#0A0B09" fill-rule="nonzero"></path>
            <g id="Fill-12-Clipped" transform="translate(130.8481, 84.3996)">
                <mask id="mask-6" fill="white">
                    <use xlink:href="#path-5"></use>
                </mask>
                <g id="path-6"></g>
                <path d="M0.866149612,0.95794849 C0.788091068,0.816698046 0.71153365,0.678452931 0.634976232,0.544715808 C0.71153365,0.678452931 0.788091068,0.816698046 0.866149612,0.95794849" id="Fill-12" fill="url(#linearGradient-7)" fill-rule="nonzero" mask="url(#mask-6)"></path>
            </g>
            <g id="Fill-17-Clipped" transform="translate(39.0293, 36.5648)">
                <mask id="mask-9" fill="white">
                    <use xlink:href="#path-8"></use>
                </mask>
                <g id="path-9"></g>
                <path d="M103.532005,245.435169 L-5.27232044e-15,245.419319 C25.767445,224.782927 69.6059768,180.723755 73.9163806,167.866427 C75.3932836,163.458608 75.950486,158.389854 75.950486,153.124563 C75.94732,136.894405 70.6428165,118.806655 70.6396506,112.523809 C70.6396506,112.47943 70.6412336,112.43505 70.6412336,112.390671 C70.7409601,103.613072 73.0030119,83.3174504 73.860977,79.9018264 C74.4086816,77.7383338 78.1555511,68.6976288 80.9985497,59.1275418 C82.6147533,53.6672983 83.3191711,45.5347848 84.5269706,44.7010873 C84.5364684,44.6963323 84.5443832,44.6899924 84.552298,44.6852375 C84.5538809,44.6836525 84.5554639,44.6820675 84.5586298,44.6804826 C85.3516935,44.1400056 86.1542549,43.8610498 86.9583992,43.8610498 C86.9583992,43.8610498 86.9583992,43.8610498 86.9583992,43.8610498 L86.9615652,43.8610498 C88.7946344,43.8626348 90.6387844,45.3144731 92.4259478,48.4337065 C92.5066788,48.5747694 92.5874098,48.7205872 92.6697238,48.869575 C92.6823875,48.8949346 92.6966342,48.9202942 92.7092979,48.9440689 C92.7140467,48.9535787 92.7203786,48.9630886 92.7251275,48.9725985 C92.7314593,48.9868632 92.7393741,48.9995431 92.7472889,49.0138078 C93.3503972,50.143896 93.9455907,51.4610113 94.5360353,52.9984383 C96.1569877,57.2208152 96.554311,61.7934719 96.554311,65.2598152 C96.554311,68.5930204 96.187064,70.9055008 96.187064,70.9055008 C100.152382,63.3673534 102.833919,58.2653146 104.825284,54.4677114 C109.053374,46.4556561 110.256425,44.3793371 113.973218,37.890444 C113.974801,37.887274 113.976384,37.8841041 113.977967,37.8809341 C113.981133,37.8761792 113.984299,37.8698393 113.987464,37.8650844 C113.99063,37.8619144 113.99063,37.8587445 113.993796,37.8571595 C113.993796,37.8555745 113.993796,37.8555745 113.993796,37.8555745 C113.995379,37.8508196 113.998545,37.8476496 114.000128,37.8444797 C114.001711,37.8428947 114.001711,37.8397248 114.003294,37.8397248 C114.008043,37.8302149 114.014375,37.820705 114.019124,37.8127802 C114.019124,37.8111952 114.019124,37.8111952 114.019124,37.8111952 C116.966598,32.804255 141.489835,3.09704374 146.514154,3.10021369 C146.555311,3.10021369 146.596468,3.10338364 146.634459,3.10655359 C151.986452,3.67397512 153.829019,10.0107105 153.829019,10.0107105 C153.829019,10.0107105 158.805849,2.52328231 164.132514,0.497682566 C164.976233,0.182272277 165.827866,-1.4517337e-15 166.660504,-1.4517337e-15 C166.662087,-1.4517337e-15 166.66367,-1.4517337e-15 166.66367,-1.4517337e-15 C166.665253,-1.4517337e-15 166.665253,-1.4517337e-15 166.665253,-1.4517337e-15 C166.945437,-1.4517337e-15 167.224038,0.0206046922 167.499473,0.063399053 C167.501056,0.063399053 167.504222,0.0649840293 167.507388,0.0649840293 C167.51372,0.0665690056 167.521635,0.0665690056 167.527966,0.0681539819 C173.464072,1.0444994 174.005444,5.01645007 174.586391,9.21663732 C174.657624,9.73650956 174.690867,10.2864963 174.690867,10.8507479 C174.690867,11.1170239 174.682952,11.3848849 174.670288,11.6559159 C174.481916,15.4566891 173.065165,19.6727261 172.718497,20.6966208 C172.718497,20.6966208 177.918525,15.2934365 182.170359,15.2870966 C182.173525,15.2870966 182.175108,15.2870966 182.176691,15.2870966 C182.176691,15.2870966 182.176691,15.2870966 182.178274,15.2870966 C182.81779,15.2870966 183.435145,15.4091398 184.011343,15.6912656 C184.024007,15.6976055 184.03667,15.7039454 184.049334,15.7102853 C187.478028,17.4347396 188.538613,19.9136425 188.540196,23.4370449 C188.540196,25.4467949 188.193527,27.7988997 187.743966,30.5440787 C187.071207,34.5128595 185.323618,39.6497677 183.898953,43.3887269 C183.910034,43.3681222 183.919531,43.3475175 183.930612,43.3253278 C183.94011,43.3078931 183.949608,43.2888734 183.959105,43.2714386 C185.763681,39.7448663 188.730151,35.7031767 192.864846,35.7015917 L192.866429,35.7015917 C193.270084,35.7015917 193.683237,35.7396311 194.107471,35.8204649 C194.113802,35.8220499 194.121717,35.8236349 194.129632,35.8252199 C194.509543,35.8981288 194.867292,35.9742076 195.239288,36.1184405 C195.733172,36.286448 196.163737,36.5685737 196.530984,36.9204385 C198.030049,38.3421623 198.648987,41.0762464 198.648987,44.0718517 C198.648987,46.1798702 198.341892,48.4162718 197.817932,50.4165119 C195.851894,57.837371 193.594591,65.5815654 186.085022,86.6110312 C182.322323,97.1970881 176.091787,121.86883 164.053366,139.130807 C151.989618,156.381689 131.292398,174.627936 128.488973,178.152924 C120.039126,188.913328 109.189509,232.665014 103.532005,245.435169" id="Fill-17" fill="url(#linearGradient-10)" fill-rule="nonzero" mask="url(#mask-9)"></path>
            </g>
        </g>
        <g id="TextOnly-(1)" transform="translate(271.4904, 96.9218)" fill="#FFFFFF" fill-rule="nonzero">
            <polyline id="Fill-1" points="432.819289 41.9378007 400.799551 0 394.295722 0 394.295722 87.9058615 398.286367 87.9058615 398.286367 3.35470071 433.219507 49.1356835 435.94837 45.5292359 468.114586 3.35470071 468.114586 87.9058615 472.104078 87.9058615 472.104078 0 465.588715 0 433.222967 42.4805578 432.819289 41.9378007"></polyline>
            <path d="M499.248228,44.8525217 L513.570837,5.50609741 L527.818434,44.8525217 L499.248228,44.8525217 Z M515.788874,0 L511.355108,0 L479.109332,87.9058615 L483.357299,87.9058615 L497.808005,48.7811592 L529.263274,48.7811592 L529.398294,49.1229807 L543.484328,87.9058615 L547.660746,87.9058615 L515.788874,0 Z" id="Fill-2"></path>
            <polyline id="Fill-3" points="567.211342 87.9058615 571.138955 87.9058615 571.138955 3.99330639 593.695271 3.99330639 593.695271 0 544.658494 0 544.658494 3.99330639 567.211342 3.99330639 567.211342 87.9058615"></polyline>
            <polyline id="Fill-4" points="647.235427 3.99330639 647.235427 0 603.702777 0 603.702777 87.9058615 647.235427 87.9058615 647.235427 83.9183291 607.695122 83.9183291 607.695122 45.9495839 647.235427 45.9495839 647.235427 41.9551227 607.695122 41.9551227 607.695122 3.99330639 647.235427 3.99330639"></polyline>
            <path d="M64.6321762,45.8936538 C59.870691,50.6506762 54.0660821,53.0609625 47.3797167,53.0609625 L31.7951025,53.0609625 L31.7951025,4.06374733 L47.3797167,4.06374733 C54.0626242,4.06374733 59.8672331,6.46478997 64.6310236,11.1963923 C69.4063402,15.9349273 71.824543,21.753816 71.824543,28.4947606 C71.824543,35.2773016 69.4063402,41.1320095 64.6321762,45.8936538 Z M67.4826126,8.34472085 C62.8559843,3.71017705 57.1470431,0.905879417 50.5160036,0 L27.8070273,0.00346637532 L27.8070273,53.0609625 L0,53.0609625 L0,57.1223989 L27.8070273,57.1223989 L27.8070273,138.49556 L31.7951025,138.49556 L31.7951025,57.1223989 L47.3797167,57.1223989 C55.1933473,57.1223989 61.9557858,54.3042358 67.4826126,48.7430143 C73.0048289,43.1921919 75.8068551,36.3807644 75.8068551,28.4947606 C75.8068551,20.7046598 73.0048289,13.9244297 67.4826126,8.34472085 Z" id="Fill-5"></path>
            <path d="M104.15318,53.0287418 L88.5579659,53.0287418 L88.5579659,4.06127967 L104.15318,4.06127967 C110.839974,4.06127967 116.650114,6.4608643 121.420957,11.1895934 C126.190647,15.9229415 128.607213,21.7382968 128.607213,28.4774575 C128.607213,35.2581894 126.190647,41.1116516 121.420957,45.8657854 C116.652421,50.6199191 110.844588,53.0287418 104.15318,53.0287418 Z M111.004923,56.2840012 C115.959172,55.093447 120.419726,52.5356606 124.268929,48.6845467 C129.798771,43.1509521 132.59945,36.3540536 132.59945,28.4774575 C132.59945,20.6943966 129.797617,13.9159742 124.266622,8.33965361 C119.641119,3.70792409 113.925565,0.905329332 107.284911,0 L84.5634226,0.0034642704 L84.5634226,87.9058615 L88.5579659,87.9058615 L88.5579659,57.087712 L104.15318,57.087712 C104.636493,57.087712 105.130188,57.0669263 105.614654,57.0253551 L105.927251,56.9964862 L106.097967,57.2574612 L125.738478,87.9058615 L130.654662,87.9058615 L110.293218,56.4525957 L111.004923,56.2840012 Z" id="Fill-6"></path>
            <path d="M157.993167,44.8525217 L172.317222,5.50609741 L186.572029,44.8525217 L157.993167,44.8525217 Z M174.527404,0 L170.097807,0 L137.85339,87.9058615 L142.087937,87.9058615 L156.551643,48.7811592 L188.018169,48.7811592 L188.140508,49.1229807 L202.225656,87.9058615 L206.404804,87.9058615 L174.527404,0 Z" id="Fill-7"></path>
            <polyline id="Fill-8" points="263.428832 0 235.804735 47.9485467 208.174871 0 203.65274 0 233.811814 52.3056158 233.811814 87.9058615 237.795349 87.9058615 237.795349 52.3056158 237.869161 52.182052 267.950963 0 263.428832 0"></polyline>
            <polyline id="Fill-9" points="321.991494 3.99330639 321.991494 0 278.458844 0 278.458844 87.9058615 321.991494 87.9058615 321.991494 83.9183291 282.457603 83.9183291 282.457603 45.9495839 321.991494 45.9495839 321.991494 41.9551227 282.457603 41.9551227 282.457603 3.99330639 321.991494 3.99330639"></polyline>
            <path d="M356.839494,53.0287418 L341.246617,53.0287418 L341.246617,4.06127967 L356.839494,4.06127967 C363.531384,4.06127967 369.34425,6.4608643 374.111976,11.1895934 C378.885471,15.925251 381.311439,21.7406063 381.311439,28.4774575 C381.311439,35.2558799 378.885471,41.1093421 374.114283,45.8657854 C369.34771,50.6199191 363.533691,53.0287418 356.839494,53.0287418 Z M363.692884,56.2840012 C368.653258,55.093447 373.108366,52.5356606 376.961307,48.6845467 C382.488086,43.1497974 385.288967,36.3505893 385.288967,28.4774575 C385.288967,20.6955514 382.488086,13.9205932 376.959,8.33965361 C372.328549,3.70792409 366.621812,0.905329332 359.979526,0 L337.25294,0.0034642704 L337.25294,87.9058615 L341.246617,87.9058615 L341.246617,57.087712 L356.839494,57.087712 C357.329763,57.087712 357.824647,57.0669263 358.313763,57.0253551 L358.621768,56.9964862 L358.786729,57.2574612 L378.428655,87.9058615 L383.359035,87.9058615 L362.981129,56.4525957 L363.692884,56.2840012 Z" id="Fill-10"></path>
        </g>
    </g>
</svg>