<svg width="256" height="130" viewBox="0 0 256 130" fill="none" xmlns="http://www.w3.org/2000/svg">
<path fill-rule="evenodd" clip-rule="evenodd" d="M30 17H226V87.2385H103.71L84.1778 114V87.2385H30V17ZM41.5764 61.9777V66.0627H56.5206V61.9777H51.6795V53.5574H55.9734C58.7517 53.5574 61.9931 53.5574 64.1821 51.6816C66.7079 49.514 67.634 46.7628 67.634 43.5114C67.634 40.8436 66.7921 38.1758 64.8978 36.2166C62.6667 33.9239 60.0988 33.5905 57.0679 33.5905H41.5764V37.6339H45.4072V61.9777H41.5764ZM51.6795 49.4723V37.6756V37.6339H54.8368C56.689 37.6339 58.0361 37.6339 59.5094 38.9678C60.7302 40.0099 61.1512 41.9274 61.1512 43.5114C61.1512 45.1371 60.8144 46.8878 59.6778 48.0967C58.4149 49.4723 56.5206 49.4723 54.8368 49.4723H51.6795ZM86.7457 41.5105C82.494 41.1354 79.6314 42.8444 78.6632 47.0546H78.6211V41.9691H69.6967V45.804H72.896V62.2278H69.6967V66.0627H82.8728V62.2278H79V56.0168C79 54.3077 79 52.0984 79.5893 50.4727C80.3892 48.4302 82.3677 47.0546 84.5988 47.0546C85.2469 47.0546 85.9297 47.2256 86.5531 47.3817C86.6179 47.3979 86.6822 47.414 86.7457 47.4297V41.5105ZM99.2062 62.6446C95.0386 62.6446 93.5653 58.6846 93.6074 55.2248V55.1831H109.857C109.857 55.0937 109.869 55.0283 109.88 54.9676C109.89 54.915 109.899 54.8659 109.899 54.8079C109.966 54.2763 109.926 53.7182 109.886 53.1547C109.875 53.0113 109.865 52.8675 109.857 52.7237C109.73 50.0142 109.141 46.5961 107.162 44.5118C104.931 42.1775 101.858 41.3021 98.6168 41.3021C91.25 41.3021 87.4613 47.0963 87.4613 53.7241C87.4613 56.7671 88.177 59.9351 90.1134 62.3945C91.1658 63.8118 92.2182 64.7288 93.8179 65.4375C95.2491 66.0627 97.3539 66.563 98.9115 66.563C103.837 66.563 109.141 63.9785 109.562 58.6846H103.753C103.332 61.0189 101.648 62.6446 99.2062 62.6446ZM99.122 45.0954C102.616 45.0954 103.71 49.0138 103.753 51.7233H93.7758C94.0283 48.5552 95.2912 45.0954 99.122 45.0954ZM120.044 45.645C121.612 42.7263 124.137 41.3438 127.579 41.3438C130.82 41.3438 133.22 42.5527 134.357 45.8874C135.704 42.8028 138.314 41.3438 141.471 41.3438C144.965 41.3438 147.406 42.9278 148.627 45.8874C149.109 47.1155 149.084 48.0645 149.059 49.0084C149.054 49.2178 149.048 49.4271 149.048 49.639V62.1861H152.037V66.0211H140.082V62.1861H142.986V51.4731C142.986 49.0138 142.649 45.804 139.366 45.804C137.598 45.804 136.293 46.6377 135.535 48.2634C134.777 49.8475 134.777 51.223 134.777 52.9321V62.2278H137.598V66.0627H125.895V62.2278H128.674V51.0563C128.674 49.6807 128.674 48.6386 128.084 47.3881C127.621 46.4293 126.442 45.804 125.39 45.804C122.822 45.804 121.433 47.3464 120.759 49.5973C120.423 50.7645 120.423 51.89 120.423 53.1405V62.1861H123.369V66.0211H111.161V62.1861H114.361V45.804H111.161V41.9691H120.044V45.645ZM153.679 62.2278V66.0627H165.844V62.2278H163.024V41.9691H153.679V45.804H156.92V62.2278H153.679ZM163.024 38.3008V32.7568H156.92V38.3008H163.024ZM178.6 62.6446C174.432 62.6446 172.959 58.6846 173.001 55.2248V55.1831H189.25C189.25 55.0937 189.262 55.0283 189.273 54.9676C189.283 54.915 189.292 54.8659 189.292 54.8079C189.359 54.2763 189.319 53.7181 189.279 53.1546C189.269 53.0112 189.259 52.8674 189.25 52.7237C189.124 50.0142 188.534 46.5961 186.556 44.5118C184.325 42.1775 181.252 41.3021 178.01 41.3021C170.643 41.3021 166.855 47.0963 166.855 53.7241C166.855 56.7671 167.57 59.9351 169.507 62.3945C170.559 63.8118 171.612 64.7288 173.211 65.4375C174.643 66.0627 176.747 66.563 178.305 66.563C183.23 66.563 188.534 63.9785 188.955 58.6846H183.146C182.725 61.0189 181.041 62.6446 178.6 62.6446ZM178.473 45.0954C181.967 45.0954 183.062 49.0138 183.104 51.7233H173.127C173.38 48.5552 174.643 45.0954 178.473 45.0954ZM207.393 41.5105C203.142 41.1354 200.279 42.8444 199.311 47.0546V41.9691H190.387V45.804H193.586V62.2278H190.387V66.0627H203.521V62.2278H199.648V56.0168C199.648 54.3077 199.648 52.0984 200.237 50.4727C201.037 48.4302 203.015 47.0546 205.247 47.0546C205.895 47.0546 206.577 47.2256 207.201 47.3817C207.266 47.3979 207.33 47.414 207.393 47.4297V41.5105ZM208.193 60.0602V66.0627H214.424V60.0602H208.193Z" fill="white"/>
</svg>
