<?xml version="1.0" encoding="UTF-8"?>
<svg width="1000px" height="295px" viewBox="0 0 1000 295" version="1.1" xmlns="http://www.w3.org/2000/svg" xmlns:xlink="http://www.w3.org/1999/xlink">
    <title>Safe Families/White</title>
    <g id="Safe-Families/White" stroke="none" stroke-width="1" fill="none" fill-rule="evenodd">
        <path d="M644.987592,243.942364 C637.097689,241.760141 630.550749,235.884926 626.773667,227.827488 C624.675289,223.295179 624.423484,221.952272 624.423484,213.559108 C624.423484,205.165943 624.675289,203.823036 626.857603,199.122864 C629.627462,192.995854 635.586857,187.036707 641.462317,184.350894 C644.316111,183.091919 647.085971,182.58833 651.702403,182.58833 C658.920825,182.58833 663.705128,184.350894 668.741236,188.799271 L671.846836,191.485084 L671.846836,188.883203 C671.846836,186.029527 674.952437,182.08474 677.13475,182.08474 C677.806231,182.08474 679.317064,182.840124 680.576091,183.847304 L682.758404,185.525937 L682.758404,212.803723 L682.758404,240.081508 L680.660026,242.095868 C679.568869,243.270911 678.058037,244.194159 677.30262,244.194159 C675.204242,244.194159 671.846836,240.333303 671.846836,237.899286 C671.846836,235.297404 671.678966,235.297404 668.741236,237.983217 C662.697906,243.606638 652.62569,246.124587 644.987592,243.942364 Z M663.201517,231.940139 C675.288177,224.38629 675.372112,202.731925 663.285452,195.262008 C649.85583,186.952775 634.076024,196.85671 634.076024,213.559108 C634.076024,222.455862 639.699679,231.604412 646.666295,233.870566 C651.702403,235.549199 658.585085,234.793815 663.201517,231.940139 Z M910.222628,243.942364 C896.03759,240.66903 887.644076,230.597232 886.88866,215.993125 C885.881438,196.85671 897.968098,182.58833 915.258736,182.58833 C922.812899,182.58833 928.940164,185.022347 934.899558,190.477904 C940.775018,195.933462 944.88784,206.089191 943.460942,211.712611 C942.621591,215.237741 940.103537,215.657399 917.692855,215.657399 L896.625136,215.657399 L897.212682,218.427143 C900.570087,233.618771 918.784012,240.081508 931.374283,230.513301 C939.096315,224.638085 944.300294,231.52048 936.914002,237.815354 C930.283126,243.522706 919.371558,246.040655 910.222628,243.942364 Z M932.045764,204.746285 C932.045764,201.97654 929.779515,198.283548 926.841785,196.101325 C919.539428,190.645768 909.467212,190.897563 902.920271,196.604915 C900.150411,199.038933 897.632357,203.319447 897.632357,205.585601 C897.632357,206.089191 903.591752,206.424918 914.83906,206.424918 C931.626088,206.424918 932.045764,206.340986 932.045764,204.746285 Z M970.655927,244.194159 C958.821073,241.67621 949.588208,232.443728 954.540381,227.995351 C956.890565,225.813128 958.737138,226.232786 963.269635,230.009711 C968.389678,234.290225 972.082824,235.717063 978.7137,235.800994 C990.380685,235.884926 994.829247,226.232786 985.512447,221.029024 C983.665873,220.021845 979.133376,218.427143 975.27236,217.419963 C961.255192,213.643039 955.043991,207.599961 955.799408,198.199616 C956.219083,192.492264 959.408619,188.379613 966.039495,185.022347 C974.936619,180.57397 987.35902,182.000808 994.913182,188.463545 C998.606328,191.652947 999.361744,194.422692 997.01156,196.688846 C995.164987,198.535343 992.227258,198.367479 990.296749,196.269188 C984.840965,190.058246 969.648705,189.638588 966.45917,195.429872 C963.605376,200.801497 967.382457,205.417738 976.615322,208.103551 C991.555776,212.467996 995.668598,214.734151 998.354523,220.189708 C1002.63521,229.170394 998.354523,238.65467 987.946566,242.935184 C984.001614,244.613817 975.6081,245.201339 970.655927,244.194159 Z M566.592174,242.431595 L564.40986,240.752962 L564.40986,203.067652 L564.40986,165.382342 L566.592174,163.703709 C568.690552,162.025076 569.865644,161.941144 589.926142,161.941144 C607.132845,161.941144 611.329602,162.192939 612.840435,163.200119 C615.358489,164.962683 615.694229,167.480633 613.763721,169.914651 L612.168953,172.012942 L593.703223,172.012942 L575.321428,172.012942 L575.321428,184.602689 L575.321428,197.192436 L590.681558,197.192436 C607.720391,197.192436 609.734834,197.696026 609.734834,202.144403 C609.734834,206.844576 608.307937,207.264234 591.017299,207.264234 L575.321428,207.264234 L575.321428,223.966632 L575.321428,240.752962 L573.139114,242.431595 C571.880087,243.438774 570.45319,244.194159 569.865644,244.194159 C569.278098,244.194159 567.851201,243.438774 566.592174,242.431595 Z M701.64381,242.095868 L699.545432,240.081508 L699.545432,213.559108 L699.545432,187.036707 L701.64381,185.022347 C702.734967,183.847304 704.2458,182.924056 705.001216,182.924056 C707.51927,182.924056 710.457,186.784912 710.457,190.142178 L710.457,193.163717 L715.157368,188.883203 C722.795465,181.916876 731.608655,180.406107 740.002168,184.686621 C742.855963,186.113459 747.556331,191.401153 748.395682,194.003034 C748.647488,194.590555 750.32619,193.247649 752.256698,191.233289 C754.187207,189.134998 757.712482,186.365254 760.146601,185.022347 C763.839747,182.924056 765.51845,182.58833 770.470623,182.58833 C777.689045,182.58833 782.389413,184.770552 785.998624,189.72252 C789.775705,194.926282 790.363251,199.542522 790.02751,221.952272 L789.775705,242.011936 L787.509456,243.354843 C785.411078,244.445954 784.907467,244.445954 782.893024,243.354843 L780.54284,242.011936 L780.123164,221.952272 C779.703489,203.823036 779.535618,201.47295 777.940851,198.535343 C772.988678,188.967135 757.460677,190.477904 751.753088,200.96936 C750.577996,202.98372 750.242255,207.012439 749.906515,222.791589 L749.486839,242.011936 L747.22059,243.354843 C745.122212,244.445954 744.618601,244.445954 742.604158,243.354843 L740.253974,242.011936 L739.834298,221.952272 C739.498558,203.9909 739.246752,201.47295 737.73592,198.451411 C734.882125,192.660127 726.992222,190.477904 719.94167,193.415512 C715.744914,195.178077 713.89834,196.940641 712.051767,200.96936 C710.708805,203.906968 710.457,206.676712 710.457,222.539794 L710.457,240.752962 L708.274686,242.431595 C705.420892,244.697749 704.077929,244.613817 701.64381,242.095868 Z M808.577176,242.599458 L806.562733,241.004757 L806.562733,213.559108 L806.562733,186.113459 L808.577176,184.518757 C811.09523,182.504398 813.277544,182.504398 815.375922,184.602689 C816.97069,186.19739 817.054625,187.372433 817.054625,213.559108 C817.054625,239.745782 816.97069,240.920825 815.375922,242.515526 C813.277544,244.613817 811.09523,244.613817 808.577176,242.599458 Z M836.779382,242.095868 L834.681004,240.081508 L834.681004,200.549702 L834.681004,161.017896 L836.779382,159.003536 C839.213501,156.485587 840.556463,156.401655 843.410258,158.66781 L845.592572,160.346443 L845.592572,200.549702 L845.592572,240.752962 L843.410258,242.431595 C840.556463,244.697749 839.213501,244.613817 836.779382,242.095868 Z M864.813718,242.599458 L862.799275,241.004757 L862.799275,213.559108 L862.799275,186.113459 L864.813718,184.518757 C867.331772,182.504398 869.514086,182.504398 871.612464,184.602689 C873.207232,186.19739 873.291167,187.372433 873.291167,213.559108 C873.291167,239.745782 873.207232,240.920825 871.612464,242.515526 C869.514086,244.613817 867.331772,244.613817 864.813718,242.599458 Z M124.482891,4.99435666 C129.015007,4.99435666 133.043554,6.7567574 135.39354,9.69409197 C136.646466,11.2316967 137.087838,12.0737183 137.11101,14.7637276 L137.111251,15.204194 C137.102932,16.4217014 137.024142,17.9905635 136.904245,20.1006487 C136.713076,23.4140865 135.651023,30.5495416 134.305844,37.7235215 L134.107035,38.773208 C134.073586,38.9480552 134.039986,39.1228156 134.006243,39.2974341 L133.802139,40.3430051 C133.527896,41.7336603 133.245603,43.1082154 132.959626,44.4385638 C128.091798,67.3497734 127.840014,73.9797572 131.197137,90.84845 C137.323885,121.312806 138.750663,122.571663 152.179153,109.311696 C160.404104,101.087159 182.225401,84.5541616 197.416381,74.9029195 C200.645933,72.8534992 206.276843,69.758564 212.204763,66.6723606 L213.168319,66.1721382 C213.329234,66.0888361 213.490284,66.005582 213.651426,65.9223967 L214.619053,65.4242771 C223.977062,60.6203231 233.366128,56.187902 234.680442,56.187902 C236.694716,56.187902 240.38755,58.1181505 242.233968,60.0483989 C244.667882,62.8178858 245.675019,68.8604026 244.667882,73.9797572 C243.492889,79.6026548 241.226831,81.9525224 219.825174,99.4086822 C218.994286,100.080073 218.150809,100.764892 217.302297,101.456676 L216.452385,102.150543 C216.310547,102.266494 216.168638,102.38258 216.026695,102.498769 L215.174895,103.196909 C214.891008,103.429877 214.607261,103.663022 214.323934,103.896102 L213.475492,104.594914 C207.125809,109.830975 201.130198,114.913613 198.675302,117.116613 L192.548553,122.571663 L192.548553,233.267215 L196.325316,233.267215 C199.262798,233.267215 208.285065,234.064491 217.559116,235.050596 L218.769724,235.18024 C227.650951,236.138077 236.530508,237.244475 240.303622,237.96695 C248.276789,239.393655 254.907106,241.743523 257.257092,243.841619 C261.201711,247.366421 257.76066,255.590958 250.291062,260.794236 C250.004028,260.990618 249.715559,261.184885 249.425113,261.377236 L248.841425,261.759444 C239.552886,267.772504 227.920036,271.998069 196.744956,280.768111 C196.389782,280.867847 196.033621,280.968005 195.676729,281.068511 L194.604111,281.370996 C193.887909,281.573247 193.169803,281.776585 192.451836,281.980405 L190.837507,282.439559 C190.658354,282.49061 190.479307,282.541663 190.300395,282.592708 L189.22882,282.89881 C179.425736,285.702519 170.228553,288.425858 166.950493,289.496191 C153.354146,293.776307 129.434647,296.042251 113.572243,294.531622 C91.079521,292.349602 73.7064114,286.558856 57.4243666,275.648756 C40.7226814,264.486885 27.7977593,248.541355 18.6496001,227.896089 C8.83001635,205.488422 0.185425551,150.937923 0.0175694186,109.899163 C0.00833733136,107.905132 0.00215183289,106.108105 0.00046513055,104.484734 L0.000479566177,102.78155 C0.0109810654,93.9169575 0.197007624,90.8195802 0.858192928,88.6724725 L0.920583709,88.4768367 C0.994967811,88.2514162 1.07496955,88.0352977 1.16096317,87.8224649 L1.23614812,87.6407011 C1.28726132,87.5198746 1.34036596,87.3995597 1.39553188,87.2786339 L1.47983544,87.0966465 C1.52276893,87.0052834 1.56688152,86.9132609 1.61220267,86.8201054 C3.03897979,83.8827709 3.71040432,83.4631516 6.39610243,83.2113801 C8.91394441,82.9596086 10.0050093,83.4631516 12.4389232,85.7290955 C12.7242786,85.9976518 12.9861342,86.251941 13.2331345,86.5172243 L13.3796212,86.6779156 C14.6349218,88.0855105 15.535286,89.9269957 17.2962123,95.7542808 L17.5032844,96.4445504 C18.6991176,100.458603 20.2828402,106.235048 22.5942192,114.766746 C30.5673854,143.636548 31.4905942,146.406035 36.5262781,153.623486 C40.3869692,159.078536 42.9048111,161.092708 46.0101496,161.092708 C49.3672722,161.092708 49.4512003,158.239297 46.597646,142.377691 C39.7994727,104.695884 39.8834008,76.9170917 46.9333583,48.2151368 C49.9547687,36.1301031 52.6404668,31.0946724 57.5922227,28.6608809 C62.4600505,26.2270894 65.3136048,26.8984802 68.0832309,30.9268247 C71.3564255,35.7944077 71.8599939,40.8298384 72.1117781,71.7138134 L72.1176544,72.75717 C72.2137164,88.55491 72.6225661,103.066137 72.9510588,105.283351 C74.6296201,116.780918 77.3992463,123.914445 83.9456354,133.146068 C87.8063265,138.517194 90.2402404,140.111747 92.254514,138.43327 C94.2687875,136.754793 94.4366437,133.229992 93.0937946,117.871928 C90.1563123,84.6380855 92.0866578,69.1121742 103.333019,34.7873216 C110.63476,12.4635789 115.922229,4.99435666 124.482891,4.99435666 Z M383.343808,0.739235083 C389.049602,2.9205238 393.412857,10.3033471 401.384187,31.4450685 C414.809586,67.1007494 421.690103,95.2897112 421.690103,114.417935 C421.690103,123.814256 423.032642,126.66671 427.563714,126.66671 C430.752247,126.66671 431.591334,125.743857 433.521235,120.290636 C437.21322,109.971462 440.233934,85.5578077 441.408657,57.8722202 C442.331653,35.8915416 444.681098,24.9850981 449.044352,22.0487479 C451.729432,20.3708335 457.603044,20.3708335 461.043302,22.1326436 C464.315743,23.8944537 465.742191,26.5791168 467.252549,34.3814187 C471.280168,54.3486 471.531895,68.3591852 468.343362,101.497994 C468.187532,103.247819 468.028277,105.040448 467.868777,106.843839 L467.550393,110.455477 C466.705525,120.074143 465.914005,129.391324 465.658283,133.546159 C465.15483,142.774689 465.238739,143.361959 466.833005,144.200916 C470.692807,146.214413 474.804335,141.935731 477.82505,132.707202 C478.985573,129.226175 479.912263,125.811947 480.754157,121.6822 L480.92718,120.817304 C481.901347,115.855461 482.773084,109.835938 483.782571,101.497994 C485.544654,86.061182 487.474555,79.9367945 490.998722,77.5877143 C493.348167,76.0775914 498.382692,75.9097999 499.557414,77.4199229 C500.354547,78.4044638 502.068797,83.4760907 503.587292,88.8428447 L503.825266,89.6921266 L504.059012,90.5429966 L504.287558,91.3921377 C505.190042,94.7808212 505.94435,98.0483999 506.270113,100.239559 C509.374737,121.129593 509.710372,169.873006 506.941383,187.910586 C500.228684,230.613507 484.705567,258.886365 458.777766,275.8333 C439.227029,288.585449 412.040597,294.45815 383.092082,292.192965 C354.814836,290.011677 319.740982,280.53146 289.785562,267.108145 C278.793517,262.158298 273.423357,258.718573 270.57046,254.775474 C266.207206,248.818878 267.969289,244.204614 275.688893,240.848785 C282.233775,237.99633 290.037288,236.82179 312.860466,235.227772 L333.585925,233.717649 L333.585925,139.586651 L304.889135,112.488334 C293.946596,102.184261 284.082679,92.7189869 278.770545,87.4273306 L278.320178,86.9777873 C276.199671,84.8566241 274.90099,83.4897782 274.681988,83.1248318 C270.654369,77.08434 275.017623,66.1778965 282.56941,63.4932334 C288.443022,61.3958404 315.377728,76.6648614 342.480251,97.4709999 C364.716067,114.501831 369.666683,119.367783 376.5472,131.197079 C377.805831,133.294472 379.400097,135.056282 380.071367,135.056282 C384.434622,135.056282 386.951884,106.783425 384.434622,87.2357221 C382.504721,72.5539712 378.812736,54.6002871 373.442576,33.8780444 C370.925314,24.1461409 368.827596,14.5820288 368.827596,12.6524273 C368.827596,3.59168955 375.792021,-2.11321939 383.343808,0.739235083 Z M308.40769,152.5408 C308.40769,154.387296 307.316533,155.981997 303.791257,159.339263 C297.747927,165.130547 290.697375,168.236018 280.289418,169.998582 C275.672986,170.753967 271.811969,171.509352 271.644099,171.593284 C271.476229,171.761147 273.490672,175.034481 276.008726,178.895337 C285.745202,193.919102 291.704597,207.348166 289.941959,210.6215 C289.354413,211.712611 288.598997,212.048338 287.591775,211.712611 C284.23437,210.537568 274.078218,203.067652 268.706369,197.863889 C265.432899,194.674487 262.579104,192.156537 262.159429,192.156537 C260.732531,192.156537 256.032164,199.374659 253.346239,205.669533 C249.904899,214.062698 247.386844,217.2521 245.959947,214.902014 C244.89481,213.166308 244.237581,205.664505 244.057975,197.494318 L244.037647,196.448077 C243.887001,187.530846 244.302228,178.082039 245.372401,174.614823 C246.463558,171.005762 245.708142,170.334309 240.000552,170.334309 C233.033936,170.334309 221.702692,168.655676 219.688249,167.31277 C214.568205,164.039435 214.48427,160.514306 219.436443,154.890886 C222.961719,150.946098 225.647644,150.52644 235.971666,152.624731 C252.506888,156.065929 267.699148,157.996357 277.771364,158.080288 C286.752424,158.080288 288.431127,157.912425 293.3833,155.898065 C296.4889,154.723022 300.517787,152.708663 302.448295,151.449688 C306.393246,148.763875 308.40769,149.183534 308.40769,152.5408 Z M279.030391,136.090197 C281.212705,140.790369 281.12877,143.476182 278.778586,146.833447 C275.25331,152.121141 268.538499,154.303364 260.732531,152.708663 C248.394066,150.106782 243.190087,138.104556 250.660315,129.543528 C253.84985,125.934467 256.535774,124.507629 261.571883,123.752244 C268.706369,122.661133 275.001505,127.10951 279.030391,136.090197 Z M808.073565,173.271917 C806.562733,172.180805 806.143057,171.089694 806.143057,168.236018 C806.143057,164.123367 808.1575,161.941144 812.018517,161.941144 C815.879533,161.941144 817.893976,164.123367 817.893976,168.152086 C817.893976,170.250377 817.390365,172.180805 816.718884,172.768327 C814.620506,174.530891 810.088008,174.782686 808.073565,173.271917 Z M864.310107,173.271917 C862.799275,172.180805 862.379599,171.089694 862.379599,168.236018 C862.379599,164.123367 864.394043,161.941144 868.255059,161.941144 C872.116075,161.941144 874.130519,164.123367 874.130519,168.152086 C874.130519,170.250377 873.626908,172.180805 872.955427,172.768327 C870.857048,174.530891 866.324551,174.782686 864.310107,173.271917 Z M580.357536,134.159769 C574.901752,133.23652 566.927914,129.543528 562.563287,125.850535 C560.213103,123.920108 559.373752,122.577201 559.373752,120.730705 C559.373752,118.212756 561.891806,114.939421 563.822314,114.939421 C564.325925,114.939421 567.51546,116.785917 570.872866,119.052072 C580.189666,125.430877 591.269104,126.773784 599.410812,122.577201 C604.866596,119.807457 606.629234,117.037712 606.209559,111.750019 C605.622013,104.447965 601.593126,101.594289 586.652672,97.7334334 C575.741104,94.8797574 572.047958,93.2011244 567.431525,88.9206103 C559.457687,81.5346253 558.954076,69.1127414 566.256433,60.8035083 C574.817817,51.0674371 591.436974,48.5494877 605.370207,54.9282929 C614.435202,59.0409437 618.212283,65.167954 613.763721,68.2734249 C611.245667,70.0359895 609.483029,69.9520579 607.720391,68.02163 C606.964975,67.1823135 603.94331,65.3358173 601.089515,64.0768425 C596.640953,61.9785513 594.79438,61.6428248 588.75105,61.6428248 C582.791655,61.6428248 581.029017,61.9785513 578.175223,63.5732527 C573.894531,66.0912021 571.964022,69.2806047 571.964022,73.8129137 C571.964022,76.834453 572.467633,77.8416328 575.153558,80.5274455 C577.671612,83.045395 579.853925,84.1365064 585.81332,85.899071 C590.010077,87.1580457 595.885537,88.9206103 598.991137,89.8438585 C610.825991,93.3689877 617.288997,100.671041 617.288997,110.574976 C617.288997,117.709166 615.778164,121.570021 610.993861,126.354125 C604.11118,133.320452 592.444196,136.25806 580.357536,134.159769 Z M649.184349,133.991905 C641.294446,131.809682 634.747505,125.934467 630.970424,117.877029 C628.872046,113.34472 628.62024,112.001814 628.62024,103.608649 C628.62024,95.2154839 628.872046,93.8725776 631.054359,89.1724053 C633.824219,83.045395 639.783614,77.086248 645.659073,74.4004352 C648.512868,73.1414605 651.282728,72.6378706 655.89916,72.6378706 C663.117582,72.6378706 667.901885,74.4004352 672.937993,78.8488126 L676.043593,81.5346253 L676.043593,78.9327442 C676.043593,76.0790682 679.149193,72.1342807 681.331507,72.1342807 C682.002988,72.1342807 683.513821,72.8896656 684.772848,73.8968454 L686.955161,75.5754783 L686.955161,102.853264 L686.955161,130.13105 L684.856783,132.145409 C683.765626,133.320452 682.254794,134.2437 681.499377,134.2437 C679.400999,134.2437 676.043593,130.382844 676.043593,127.948827 C676.043593,125.346946 675.875723,125.346946 672.937993,128.032758 C666.894663,133.656179 656.822447,136.174128 649.184349,133.991905 Z M667.398274,121.98968 C679.484934,114.435831 679.568869,92.7814662 667.482209,85.3115495 C654.052587,77.0023163 638.272781,86.9062508 638.272781,103.608649 C638.272781,112.505403 643.896436,121.653953 650.863052,123.920108 C655.89916,125.598741 662.781842,124.843356 667.398274,121.98968 Z M770.050948,133.991905 C755.865909,130.718571 747.472396,120.646773 746.716979,106.042667 C745.709758,86.9062508 757.796418,72.6378706 775.087056,72.6378706 C782.641218,72.6378706 788.768483,75.0718884 794.727878,80.5274455 C800.603338,85.9830027 804.71616,96.1387321 803.289262,101.762152 C802.449911,105.287282 799.931857,105.70694 777.521175,105.70694 L756.453455,105.70694 L757.041001,108.476684 C760.398407,123.668313 778.612332,130.13105 791.202602,120.562842 C798.924635,114.687626 804.128614,121.570021 796.742322,127.864895 C790.111446,133.572247 779.199878,136.090197 770.050948,133.991905 Z M791.874084,94.7958257 C791.874084,92.0260813 789.607835,88.3330888 786.670105,86.150866 C779.367748,80.6953088 769.295531,80.9471038 762.748591,86.6544559 C759.978731,89.0884736 757.460677,93.3689877 757.460677,95.6351422 C757.460677,96.1387321 763.420072,96.4744587 774.66738,96.4744587 C791.454408,96.4744587 791.874084,96.390527 791.874084,94.7958257 Z M713.39473,132.145409 L711.296351,130.13105 L711.296351,106.546256 L711.296351,83.045395 L706.679919,83.045395 C703.154643,83.045395 701.64381,82.6257367 700.384783,81.366762 C698.20247,79.1845392 698.286405,77.5059062 700.804459,75.0718884 C702.399227,73.3932555 703.658254,72.9735972 707.099594,72.9735972 L711.296351,72.9735972 L711.296351,68.1894933 C711.296351,54.5925663 717.843292,47.5423079 730.769303,47.4583762 C735.217865,47.3744446 736.812633,47.7101712 738.743141,49.1370092 C741.596936,51.319232 742.184482,54.0889764 740.086103,56.3551309 C738.827076,57.7819689 737.987725,57.9498322 733.455228,57.4462424 C724.725973,56.5229942 722.207919,58.957012 722.207919,67.9376983 L722.207919,72.9735972 L728.75486,72.9735972 C736.309022,72.9735972 738.994947,74.2325719 738.994947,77.9255645 C738.994947,81.9542836 736.812633,83.045395 729.0906,83.045395 L722.207919,83.045395 L722.207919,106.881983 L722.207919,130.802503 L720.025606,132.481136 C717.171811,134.74729 715.828849,134.663359 713.39473,132.145409 Z" id="Safe-Families" fill="#FFFFFF" fill-rule="nonzero"></path>
    </g>
</svg>