<?xml version="1.0" encoding="UTF-8"?>
<svg width="1000px" height="373px" viewBox="0 0 1000 373" version="1.1" xmlns="http://www.w3.org/2000/svg" xmlns:xlink="http://www.w3.org/1999/xlink">
    <title>SpeakLife/White</title>
    <g id="SpeakLife/White" stroke="none" stroke-width="1" fill="none" fill-rule="evenodd">
        <g id="SpeaklLife" fill="#FFFFFF" fill-rule="nonzero">
            <path d="M56.1258314,108.648906 C56.1258314,119.737423 70.2972883,125.281681 98.6402021,125.281681 C106.748245,125.435901 114.856226,124.97072 122.893565,123.890188 C126.84277,123.53116 130.650323,122.23841 134.002789,120.118356 C135.81577,118.640481 136.844279,116.406586 136.788968,114.066845 C137.019876,111.493075 135.877702,108.988185 133.783917,107.4765 C130.082948,105.577648 126.052922,104.405847 121.9116,104.024415 C116.023751,103.073068 106.093675,102.101984 92.1213714,101.111163 C74.8104639,100.149898 57.6452312,97.3996616 40.8994517,92.9043185 C29.8436817,90.1557998 19.764063,84.3968216 11.7776697,76.2656228 C5.18445021,68.4322572 1.79117396,58.3947411 2.27744994,48.1633988 C2.27744994,32.6339495 10.1173988,20.724354 25.7972966,12.4346124 C41.4771944,4.14487081 62.8773367,0 89.9977233,0 C120.493863,0 143.907231,4.50014545 160.237829,13.5004363 C175.498504,20.8764301 185.541394,35.9793314 186.449207,52.9181577 L130.352953,52.9181577 C130.352953,47.8791791 127.188185,44.2968264 120.633862,42.1118874 C110.630616,39.5557834 100.305808,38.4883744 89.9918078,38.9440218 C81.5684136,38.5011131 73.1267768,39.3457037 64.9576048,41.4487081 C60.4914367,43.0948139 58.2790568,45.4396265 58.2790568,48.4535397 C58.192123,50.7644779 59.335864,52.9482766 61.2841076,54.1912252 C65.0265376,56.1141878 69.0954084,57.319174 73.2806491,57.7439716 C79.2315963,58.7584781 88.4005506,59.8144332 100.787512,60.9118371 C118.245942,62.1049816 135.614795,64.3691764 152.796187,67.6916615 C163.642408,69.6921654 173.748309,74.585386 182.048109,81.8552772 C189.764645,89.860201 193.72315,100.768043 192.938461,111.864142 C194.201242,128.809244 184.950502,144.794671 169.637486,152.128601 C154.000968,160.051226 131.050977,164.075698 100.787512,164.202018 C68.3944838,164.202018 43.7467571,159.881483 26.8443321,151.240414 C10.4638559,143.385574 0.0291467514,126.829752 0,108.648906 L56.1258314,108.648906 Z" id="Path_54"></path>
            <path d="M372.389685,19.996041 C383.770695,31.4422576 389.764909,47.1849347 388.881972,63.3099409 C389.809555,79.4331214 383.807992,95.1843277 372.389685,106.594235 C359.815312,117.625161 343.437491,123.310006 326.740124,122.439484 L257.689025,122.439484 L257.689025,159.861746 L203.85839,159.861746 L203.85839,4.31066564 L326.870264,4.31066564 C343.512324,3.35377552 359.862572,8.98784931 372.389685,19.996041 Z M313.79711,77.0294633 C317.215669,77.0838797 320.633278,76.8720498 324.019015,76.3958902 C326.488002,76.0149026 328.736073,74.7530682 330.348551,72.8431438 C332.271122,70.0674415 333.156906,66.7031984 332.850788,63.3395472 C333.154359,59.9761096 332.268801,56.6127234 330.348551,53.8359505 C328.736073,51.9260261 326.488002,50.6641917 324.019015,50.2832041 C320.633275,49.8070684 317.215668,49.5952386 313.79711,49.649631 L257.689025,49.649631 L257.689025,76.8873535 L313.79711,77.0294633 Z" id="Path_55"></path>
            <polygon id="Path_56" points="559.377199 4.31066564 559.377199 45.5047602 453.620705 45.5047602 453.620705 61.6934413 554.8992 61.6934413 554.8992 102.887536 453.620705 102.887536 453.620705 118.827525 559.383115 118.827525 559.383115 160.021619 399.665846 160.021619 399.665846 4.31066564"></polygon>
            <path d="M793.753418,159.855825 L736.332102,159.855825 L723.667114,132.618102 L638.176967,132.618102 L625.511979,159.855825 L568.019678,159.855825 L642.601727,4.31066564 L719.431649,4.31066564 L793.753418,159.855825 Z M680.868802,41.4783143 L656.272342,93.7628989 L705.465261,93.7628989 L680.868802,41.4783143 Z" id="Path_57"></path>
            <polygon id="Path_58" points="917.617118 4.31066564 997.114909 4.31066564 924.739325 66.7620262 997.114909 159.855825 931.417873 159.855825 886.531405 99.6545367 854.179785 127.484384 854.179785 159.838061 800.34915 159.838061 800.34915 4.31066564 854.179785 4.31066564 854.179785 62.8658476"></polygon>
            <polygon id="Path_59" points="486.321337 188.946896 486.321337 299.117562 587.617578 299.117562 587.617578 344.462449 432.378309 344.462449 432.378309 188.946896"></polygon>
            <polygon id="Path_60" points="598.537507 188.946896 652.368142 188.946896 652.368142 344.462449 598.537507 344.462449"></polygon>
            <polygon id="Path_61" points="827.305875 188.946896 827.305875 234.291783 721.543466 234.291783 721.543466 256.98199 814.356946 256.98199 814.356946 302.356483 721.543466 302.356483 721.543466 344.46837 667.712831 344.46837 667.712831 188.946896"></polygon>
            <polygon id="Path_62" points="997.801102 188.946896 997.801102 229.981117 892.044608 229.981117 892.044608 246.169798 993.323103 246.169798 993.323103 287.363893 892.044608 287.363893 892.044608 303.552574 997.807018 303.552574 997.807018 344.586795 838.089749 344.586795 838.089749 188.946896"></polygon>
            <path d="M172.175216,357.293785 C168.537211,357.293785 164.928784,357.039171 161.527398,356.754952 C160.815012,356.675728 160.214038,356.188303 159.988903,355.507144 C159.763768,354.825984 159.955744,354.075962 160.480362,353.587086 C172.544224,344.055971 179.663429,329.58168 179.853476,314.198971 L179.853476,311.978504 C167.54532,300.612022 160.3369,284.757191 159.85924,268.001425 C159.85924,225.634924 209.939477,191.161442 271.477949,191.161442 C333.016421,191.161442 383.025673,225.605318 383.025673,267.959976 C383.025673,310.314635 332.980928,344.79996 271.406963,344.79996 C255.680841,344.886279 240.033048,342.578241 225.000224,337.955002 C210.348579,350.655934 191.549862,357.532999 172.1693,357.281942 L172.175216,357.293785 Z M166.034974,353.46274 C168.05806,353.46274 170.116638,353.681826 172.175216,353.681826 C191.014182,353.985215 209.280816,347.200104 223.361643,334.668711 C223.861086,334.222956 224.560468,334.078427 225.195434,334.289752 C240.165642,339.013767 255.781816,341.365278 271.477949,341.259056 C331.022913,341.259056 379.482315,308.402073 379.482315,268.066559 C379.482315,227.731045 331.016997,194.86814 271.477949,194.86814 C211.9389,194.86814 163.497244,227.600777 163.497244,267.959976 C163.996452,284.00223 171.017679,299.144939 182.935427,309.882384 C183.282275,310.224249 183.476404,310.691896 183.473734,311.179136 L183.473734,314.139758 C183.302249,329.087893 176.993436,343.306786 166.029059,353.456819 L166.034974,353.46274 Z" id="Path_63"></path>
            <path d="M179.232353,358.051704 C175.499701,358.051704 171.790711,357.797091 168.584535,357.512871 C167.854169,357.460593 167.227801,356.971641 166.999193,356.275331 C166.782754,355.570998 166.992531,354.804907 167.5375,354.309478 C179.601361,344.778363 186.720566,330.304072 186.910613,314.921363 L186.910613,312.700896 C174.589416,301.340248 167.375016,285.479511 166.904546,268.717896 C166.916377,226.363237 217.020276,191.889755 278.541001,191.889755 C340.061727,191.889755 390.159711,226.363237 390.159711,268.729738 C390.159711,311.096239 340.103135,345.374321 278.541001,345.374321 C262.814872,345.460731 247.167066,343.152692 232.134262,338.529363 C217.489271,351.329221 198.649514,358.284854 179.208691,358.069468 L179.232353,358.051704 Z M173.092111,354.214738 C175.085619,354.214738 177.173775,354.433824 179.232353,354.433824 C198.076724,354.71694 216.345511,347.934948 230.448357,335.420709 C230.920252,334.947036 231.621559,334.785922 232.252571,335.006222 C247.230725,339.69272 262.848808,342.006259 278.541001,341.863023 C338.085965,341.863023 386.545368,309.035646 386.545368,268.670526 C386.545368,228.305405 338.074135,195.472107 278.541001,195.472107 C219.007868,195.472107 170.554381,228.299484 170.554381,268.664604 C171.031364,284.688116 178.030174,299.820341 189.927494,310.551485 C190.287894,310.888669 190.500526,311.354788 190.51904,311.848237 L190.51904,314.808859 C190.362964,329.763279 184.067121,343.99472 173.109858,354.161447 L173.092111,354.214738 Z" id="Path_64"></path>
            <path d="M190.536786,348.832327 C186.863289,348.832327 183.290355,348.548107 179.888968,348.240203 C179.158602,348.187925 178.532234,347.698973 178.303627,347.002663 C178.087187,346.29833 178.296965,345.532239 178.841933,345.03681 C190.905794,335.505695 198.025,321.031403 198.215046,305.648695 L198.215046,303.428228 C185.906914,292.074082 178.697692,276.22816 178.219639,259.480755 C178.219639,217.114254 228.301047,182.640771 289.839519,182.640771 C351.377991,182.640771 401.458228,217.114254 401.458228,259.480755 C401.458228,301.847256 351.372076,336.320738 289.839519,336.320738 C274.116722,336.42825 258.468989,334.142184 243.43278,329.540914 C228.753757,342.235518 209.93376,349.101364 190.536786,348.838248 L190.536786,348.832327 Z M184.396545,344.965755 C186.41963,344.965755 188.478208,345.184841 190.536786,345.184841 C209.372585,345.469742 227.632739,338.687038 241.723213,326.171726 C242.199296,325.70567 242.895965,325.545623 243.527427,325.757239 C258.50999,330.468584 274.135449,332.810002 289.839519,332.696937 C349.384483,332.696937 397.843886,299.86956 397.843886,259.50444 C397.843886,219.13932 349.378568,186.317864 289.839519,186.317864 C230.300471,186.317864 181.858815,219.115635 181.858815,259.480755 C182.34486,275.529973 189.365485,290.682411 201.291082,301.420926 C201.651482,301.758111 201.864114,302.224229 201.882628,302.717679 L201.882628,305.678301 C201.694303,320.624005 195.367984,334.833071 184.390629,344.965755 L184.396545,344.965755 Z" id="Path_65"></path>
            <path d="M168.625943,368.603361 C164.987939,368.603361 161.379512,368.348747 157.978125,368.064528 C157.246743,367.990898 156.626364,367.495037 156.392783,366.797381 C156.178654,366.093396 156.412668,365.329765 156.984329,364.867056 C169.043892,355.335563 176.153495,340.858693 176.327865,325.478941 L176.327865,323.199262 C164.018512,311.847717 156.814292,295.998721 156.351375,279.251789 C156.351375,236.885288 206.431612,202.411805 267.970084,202.411805 C329.508557,202.411805 379.576963,236.873445 379.576963,279.251789 C379.576963,321.630132 329.496726,356.056245 267.964169,356.056245 C252.251519,356.157273 236.614506,353.871316 221.587006,349.27642 C206.901719,362.007391 188.051146,368.886481 168.625943,368.603361 Z M162.485702,364.736788 C164.508787,364.736788 166.567365,364.955875 168.625943,364.955875 C187.47407,365.26092 205.750539,358.476076 219.841947,345.94276 C220.266569,345.437039 220.93648,345.208955 221.581091,345.350636 C236.562998,350.078646 252.190557,352.436062 267.899099,352.337704 C327.444063,352.337704 375.885719,319.492563 375.885719,279.157049 C375.885719,238.821535 327.503217,205.95863 267.964169,205.95863 C208.42512,205.95863 159.971633,238.916275 159.971633,279.281395 C160.482554,295.327145 167.514072,310.469007 179.439394,321.203803 C179.792762,321.541226 179.988115,322.011822 179.9777,322.500555 L179.9777,325.461177 C179.793548,340.395555 173.473214,354.594886 162.503448,364.719025 L162.485702,364.736788 Z" id="Path_66"></path>
            <path d="M189.105246,364.387435 C185.467242,364.387435 181.858815,364.132822 178.457428,363.848602 C177.726046,363.774973 177.105667,363.279111 176.872087,362.581456 C176.657957,361.87747 176.891971,361.11384 177.463632,360.65113 C189.523195,351.119637 196.632798,336.642767 196.807168,321.263015 L196.807168,319.04847 C184.451537,307.703287 177.239694,291.814008 176.830678,275.035863 C176.830678,232.669362 226.875423,198.195879 288.449388,198.195879 C350.023352,198.195879 400.068097,232.669362 400.068097,275.035863 C400.068097,317.402364 349.976029,351.852162 288.443472,351.852162 C272.707681,351.938086 257.050199,349.630091 242.007155,345.007203 C227.344923,357.743776 208.517097,364.641214 189.105246,364.387435 Z M182.994582,360.55639 C185.017667,360.55639 187.076245,360.775476 189.134824,360.775476 C207.970099,361.071833 226.233448,354.297175 240.327166,341.786047 C240.810707,341.332431 241.506461,341.186294 242.13138,341.407087 C257.111871,346.13055 272.737694,348.482011 288.443472,348.376391 C347.988436,348.376391 396.418261,315.549015 396.418261,275.183894 C396.418261,234.818774 347.982521,201.967712 288.443472,201.967712 C228.904424,201.967712 180.439106,234.670743 180.439106,275.035863 C180.943873,291.083077 187.976459,306.22724 199.906866,316.958271 C200.253713,317.300135 200.447843,317.767783 200.445172,318.255023 L200.445172,321.215645 C200.265434,336.159777 193.955277,350.372596 182.994582,360.520863 L182.994582,360.55639 Z" id="Path_67"></path>
        </g>
    </g>
</svg>