<?xml version="1.0" encoding="UTF-8"?>
<svg width="220px" height="52px" viewBox="0 0 220 52" version="1.1" xmlns="http://www.w3.org/2000/svg" xmlns:xlink="http://www.w3.org/1999/xlink">
    <title>stewardship</title>
    <g id="stewardship" stroke="none" stroke-width="1" fill="none" fill-rule="evenodd">
        <g transform="translate(0.000000, -0.000000)" fill="#FFFFFF" fill-rule="nonzero">
            <path d="M9.458,30.218 C6.329,29.033 3.3719,27.918 3.3719,24.818 C3.3684,24.2841 3.4716,23.7548 3.6753,23.2613 C3.879,22.7678 4.1791,22.3199 4.5582,21.9439 C4.9373,21.5679 5.3876,21.2713 5.8828,21.0716 C6.378,20.8719 6.9081,20.7732 7.442,20.781 C10.816,20.781 12.978,22.894 14.451,27.63 L14.568,28.02 C14.929,29.193 15.005,29.438 15.417,29.438 C15.924,29.438 15.9239,28.959 15.9239,28.751 C15.9239,28.432 15.9239,28.033 15.2789,20.84 C15.2369,20.367 15.043,20.126 14.701,20.126 C14.284,20.126 14.175,20.44 14.082,20.716 C13.97,21.04 13.866,21.342 13.344,21.342 C12.9977,21.2867 12.6611,21.1827 12.344,21.033 C10.7695,20.3613 9.0786,20.0049 7.3669,19.984 C5.5737,19.9866 3.835,20.6 2.437,21.723 C1.7517,22.2559 1.1953,22.9363 0.8094,23.7139 C0.4235,24.4914 0.218,25.346 0.208,26.214 C0.208,30.886 3.814,32.121 7.308,33.314 C10.684,34.472 13.875,35.564 13.875,39.59 C13.875,42.538 11.636,44.519 8.301,44.519 C4.045,44.519 2.301,40.467 1.582,37.07 C1.482,36.578 1.402,36.157 1.342,35.823 C1.142,34.738 1.066,34.289 0.542,34.289 C-3.55271368e-15,34.289 -3.55271368e-15,34.734 -3.55271368e-15,35.297 L-3.55271368e-15,44.454 C-3.55271368e-15,45.015 0.3,45.318 0.578,45.318 C1.037,45.318 1.2109,44.988 1.3779,44.669 C1.5449,44.35 1.7159,44.029 2.1889,44.029 C2.5873,44.0967 2.9745,44.2185 3.3399,44.391 C4.9749,45.1068 6.7347,45.4941 8.519,45.531 C12.055,45.531 17.0379,43.154 17.0379,37.872 C17.0379,33.083 13.013,31.56 9.463,30.218" id="Path"></path>
            <path d="M30.44,41.587 C30.24,41.587 30.067,41.792 29.831,42.079 C29.5736,42.4719 29.224,42.7957 28.8126,43.0224 C28.4012,43.249 27.9405,43.3714 27.4709,43.379 C25.5709,43.379 24.759,42.479 24.759,40.379 L24.759,30.439 L28.885,30.439 L29.5849,28.567 L24.76,28.567 L24.76,23.276 L24.553,23.276 L24.536,23.33 C23.6341,26.2503 21.6511,28.7159 18.992,30.223 L18.956,30.245 L18.956,30.438 L21.3869,30.438 L21.3869,40.376 C21.3869,43.562 22.874,45.244 25.687,45.244 C26.7716,45.2918 27.8441,45.0001 28.7551,44.4095 C29.6661,43.8189 30.3701,42.9587 30.769,41.949 C30.7738,41.9032 30.7688,41.857 30.7546,41.8132 C30.7404,41.7694 30.7173,41.7291 30.6866,41.6948 C30.6559,41.6606 30.6183,41.6331 30.5764,41.6141 C30.5344,41.5952 30.489,41.5853 30.443,41.585" id="Path"></path>
            <path d="M46.926,39.655 C46.695,39.655 46.5579,39.867 46.3709,40.155 C46.0486,40.6987 45.6123,41.1661 45.092,41.525 C44.0243,42.2598 42.7482,42.6312 41.453,42.584 C36.37,42.584 35.483,38.5079 35.415,36.0149 L47.2889,36.0149 L47.2889,35.939 C47.3225,34.042 46.7073,32.1905 45.545,30.691 C44.911,29.9105 44.1054,29.2868 43.191,28.8685 C42.2766,28.4501 41.278,28.2484 40.2729,28.279 C35.1879,28.279 32.041,32.811 32.041,37.011 C32.0154,38.0809 32.2036,39.1451 32.5948,40.1412 C32.986,41.1374 33.5721,42.0454 34.3188,42.8121 C35.0655,43.5787 35.9578,44.1886 36.9433,44.6058 C37.9288,45.0231 38.9877,45.2393 40.0579,45.2419 C45.7419,45.2419 47.3239,40.6419 47.3239,40.1219 C47.3239,39.8219 47.1769,39.651 46.9239,39.651 M40.2359,29.0779 C42.7289,29.0779 43.8989,30.962 43.9139,35.004 L35.3439,35.004 C35.4439,31.782 37.6719,29.0779 40.2359,29.0779" id="Shape"></path>
            <path d="M73.499,28.497 C73.337,28.497 73.0879,28.507 72.7729,28.52 C72.2539,28.539 71.541,28.568 70.782,28.568 C70.094,28.568 69.511,28.542 69.045,28.523 C68.745,28.509 68.479,28.497 68.279,28.497 C67.96,28.497 67.6639,28.554 67.6639,28.966 C67.6639,29.278 67.974,29.366 68.332,29.456 C68.5564,29.4793 68.7737,29.5479 68.9708,29.6575 C69.1679,29.7672 69.3408,29.9157 69.479,30.094 C69.6171,30.2723 69.7176,30.4768 69.7745,30.6951 C69.8314,30.9134 69.8435,31.141 69.81,31.364 C69.5336,33.039 69.0551,34.6743 68.385,36.234 L66.634,40.702 L62.9869,31.552 C62.9579,31.474 62.9159,31.374 62.8719,31.266 C62.7483,31.0116 62.6566,30.7429 62.599,30.466 C62.599,29.566 63.265,29.466 63.853,29.366 C64.253,29.304 64.636,29.243 64.636,28.89 C64.636,28.49 64.12,28.49 63.951,28.49 C63.659,28.49 63.27,28.502 62.818,28.516 C62.152,28.535 61.318,28.561 60.41,28.561 C59.523,28.561 58.87,28.535 58.343,28.516 C57.979,28.502 57.663,28.49 57.37,28.49 C57.04,28.49 56.935,28.597 56.935,28.925 C56.935,29.179 57.168,29.246 57.435,29.325 C57.8147,29.4106 58.1658,29.5925 58.4547,29.8533 C58.7435,30.1142 58.9603,30.445 59.084,30.814 L60.1839,33.397 L57.477,40.443 L54.1169,32.007 C53.8496,31.4315 53.6939,30.8105 53.6579,30.177 C53.6579,29.477 54.158,29.377 54.598,29.29 C54.911,29.23 55.2309,29.164 55.2309,28.854 C55.2309,28.544 54.901,28.49 54.331,28.49 C54.198,28.49 54.002,28.499 53.743,28.509 C53.248,28.53 52.498,28.561 51.506,28.561 C50.828,28.561 50.236,28.535 49.758,28.516 C49.434,28.502 49.151,28.49 48.932,28.49 C48.514,28.49 48.139,28.519 48.139,28.854 C48.139,29.159 48.365,29.201 48.603,29.246 C48.995,29.32 49.5859,29.432 50.0379,30.599 L55.5489,44.871 C55.7249,45.295 55.887,45.527 56.228,45.527 C56.569,45.527 56.7369,45.275 56.8719,44.868 L60.665,34.476 L64.703,44.876 C64.872,45.281 64.9929,45.532 65.3459,45.532 C65.6989,45.532 65.846,45.301 66.027,44.875 L70.927,32.609 C72.027,29.845 73.194,29.492 73.753,29.323 C73.995,29.249 74.186,29.19 74.186,28.966 C74.186,28.552 73.839,28.497 73.501,28.497" id="Path"></path>
            <path d="M90.487,42.374 C90.339,42.374 90.175,42.534 89.945,42.759 C89.581,43.212 89.059,43.5095 88.484,43.591 C88.364,43.5985 88.243,43.5791 88.131,43.5341 C88.02,43.4892 87.919,43.4199 87.838,43.3313 C87.756,43.2427 87.695,43.137 87.66,43.0219 C87.624,42.9068 87.615,42.7852 87.632,42.666 L87.632,32.044 C87.632,29.619 86.132,28.283 83.407,28.283 C81.4777,28.3934 79.6076,28.9892 77.9699,30.015 C76.1309,31.121 75.0299,32.401 75.0299,33.438 C75.0068,33.6247 75.0213,33.8142 75.0724,33.9953 C75.1234,34.1763 75.2101,34.3454 75.3274,34.4926 C75.4446,34.6397 75.5901,34.762 75.7552,34.8522 C75.9203,34.9424 76.1018,34.9988 76.2889,35.018 C78.2039,35.018 78.761,33.597 79.303,32.218 C79.867,30.779 80.4519,29.292 82.582,29.292 C83.726,29.292 84.257,29.756 84.257,30.753 L84.257,34.883 C75.6779,38.197 74.4568974,39.308 74.4568974,41.661 C74.4563,42.1589 74.5593,42.6516 74.7594,43.1076 C74.9594,43.5636 75.2521,43.973 75.6189,44.3098 C75.9857,44.6465 76.4185,44.9033 76.8899,45.0638 C77.3612,45.2243 77.8608,45.285 78.3569,45.242 C80.578,45.0929 82.684,44.2002 84.336,42.708 C84.353,43.3869 84.635,44.0321 85.122,44.5057 C85.609,44.9792 86.262,45.2435 86.941,45.242 C87.737,45.1571 88.504,44.8898 89.18,44.4608 C89.856,44.0317 90.425,43.4524 90.841,42.768 C90.845,42.7174 90.839,42.6665 90.823,42.6184 C90.806,42.5704 90.78,42.5261 90.746,42.4886 C90.712,42.4511 90.67,42.421 90.624,42.4002 C90.578,42.3795 90.528,42.3685 90.477,42.368 M84.248,35.902 L84.248,41.633 C82.237,43.351 80.6099,43.808 79.9649,43.808 C78.6649,43.808 78.036,42.899 78.036,41.026 C78.036,38.716 79.3189,37.657 84.248,35.913" id="Shape"></path>
            <path d="M103.041,28.283 C101.728,28.283 99.998,28.801 98.219,32.803 L98.219,28.244 L98.112,28.289 C96.58,28.9489 94.969,29.4093 93.32,29.659 C92.478,29.8 92.057,29.871 92.057,30.219 C92.057,30.619 92.49,30.695 92.992,30.787 C93.818,30.937 94.845,31.123 94.845,32.652 L94.845,42.38 C94.845,43.68 93.96,43.81 93.18,43.927 C92.674,44.005 92.198,44.077 92.198,44.527 C92.198,44.977 92.526,45.034 92.849,45.034 C93.209,45.034 93.565,45.022 93.975,45.008 C94.593,44.989 95.359,44.961 96.533,44.961 C97.707,44.961 98.472,44.989 99.088,45.008 C99.498,45.022 99.854,45.034 100.214,45.034 C100.537,45.034 100.864,44.974 100.864,44.527 C100.864,44.08 100.388,44.006 99.884,43.927 C99.103,43.81 98.218,43.675 98.218,42.38 L98.218,37.408 C98.218,33.394 99.67,31.227 101.038,31.227 C101.481,31.2066 101.915,31.3602 102.246,31.655 C102.572,31.9458 102.997,32.1001 103.433,32.086 C103.68,32.1101 103.928,32.081 104.162,32.0009 C104.397,31.9207 104.611,31.7913 104.791,31.6213 C104.971,31.4513 105.113,31.2447 105.206,31.0154 C105.3,30.7861 105.343,30.5394 105.333,30.292 C105.333,29.015 104.498,28.284 103.039,28.284" id="Path"></path>
            <path d="M123.535,42.553 C122.735,42.415 121.642,42.225 121.642,40.591 L121.642,18.661 L121.542,18.701 C119.874,19.3716 118.142,19.8688 116.372,20.185 C115.672,20.309 115.411,20.354 115.411,20.706 C115.411,21.077 115.851,21.139 116.362,21.212 C117.213,21.331 118.272,21.481 118.272,22.925 L118.272,28.689 C117.153,28.4047 116.001,28.2685 114.846,28.2839 C109.827,28.2839 106.046,32.376 106.046,37.803 C106.046,41.978 109.018,45.247 112.812,45.247 C115.336,45.247 117.168,43.662 118.493,42.223 L118.493,45.289 L118.602,45.239 C120.173,44.501 121.82,43.9376 123.513,43.559 C124.138,43.421 124.37,43.367 124.37,43.022 C124.37,42.696 123.987,42.631 123.544,42.553 M114.708,29.081 C115.194,29.0492 115.682,29.1235 116.137,29.2987 C116.591,29.4738 117.003,29.7457 117.342,30.0955 C117.682,30.4453 117.941,30.8646 118.102,31.3245 C118.264,31.7844 118.323,32.2738 118.277,32.759 L118.277,41.189 C118.203,41.753 116.359,43.226 114.351,43.226 C110.963,43.226 109.42,39.855 109.42,36.726 C109.42,32.151 111.545,29.079 114.707,29.079" id="Shape"></path>
            <path d="M133.26,35.08 C131.186,34.116 129.227,33.205 129.227,31.613 C129.195,31.2726 129.239,30.9294 129.355,30.6079 C129.471,30.2863 129.657,29.9943 129.899,29.7526 C130.14,29.5109 130.432,29.3254 130.754,29.2093 C131.075,29.0933 131.419,29.0495 131.759,29.081 C134.551,29.081 135.73,31.315 136.515,33.501 C136.568,33.653 136.608,33.786 136.643,33.901 C136.743,34.251 136.817,34.481 137.088,34.481 C137.254,34.481 137.452,34.4 137.452,34.012 L137.452,29.384 L137.407,29.365 C135.76,28.689 134.003,28.3229 132.223,28.285 C130.651,28.2199 129.109,28.7269 127.883,29.712 C127.407,30.1122 127.023,30.6112 126.759,31.1745 C126.495,31.7378 126.357,32.3519 126.354,32.974 C126.354,35.941 129.199,37.147 131.707,38.211 C133.734,39.072 135.652,39.886 135.652,41.487 C135.672,41.8845 135.607,42.2815 135.463,42.6523 C135.318,43.0231 135.097,43.3593 134.814,43.6388 C134.531,43.9184 134.192,44.1351 133.82,44.2747 C133.447,44.4143 133.049,44.4737 132.652,44.449 C130.183,44.449 128.203,42.631 127.22,39.46 C126.942,38.56 126.788,38.297 126.538,38.297 C126.272,38.297 126.138,38.54 126.138,39.018 L126.138,44.333 L126.189,44.352 C128.013,44.9828 129.935,45.2875 131.865,45.252 C136.775,45.252 138.524,42.68 138.524,40.275 C138.524,37.535 135.724,36.235 133.259,35.086" id="Path"></path>
            <path d="M159.288,43.926 C158.508,43.809 157.622,43.674 157.622,42.379 L157.622,32.042 C157.622,29.616 156.16,28.283 153.504,28.283 C151.039,28.283 148.81,29.983 147.18,31.223 L146.821,31.495 L146.821,18.66 L146.721,18.701 C145.059,19.3781 143.33,19.8756 141.563,20.185 C140.875,20.307 140.59,20.357 140.59,20.704 C140.59,21.077 141.032,21.139 141.54,21.21 C142.392,21.329 143.451,21.479 143.451,22.923 L143.451,42.379 C143.451,43.679 142.566,43.809 141.786,43.926 C141.281,44.004 140.804,44.076 140.804,44.526 C140.804,44.976 141.133,45.033 141.453,45.033 C141.815,45.033 142.171,45.021 142.581,45.007 C143.199,44.986 143.965,44.96 145.138,44.96 C146.311,44.96 147.079,44.986 147.693,45.007 C148.105,45.021 148.461,45.033 148.823,45.033 C149.142,45.033 149.472,44.971 149.472,44.526 C149.472,44.081 148.996,44.005 148.491,43.926 C147.711,43.809 146.824,43.674 146.824,42.379 L146.824,32.688 C148.479,31.175 149.843,30.3 151.898,30.3 C153.549,30.3 154.253,30.983 154.253,32.584 L154.253,42.384 C154.253,43.684 153.366,43.814 152.586,43.931 C152.086,44.009 151.606,44.081 151.606,44.531 C151.606,44.981 151.934,45.038 152.255,45.038 C152.617,45.038 152.972,45.026 153.383,45.012 C154.001,44.991 154.766,44.965 155.94,44.965 C157.114,44.965 157.881,44.991 158.495,45.012 C158.906,45.026 159.261,45.038 159.623,45.038 C159.944,45.038 160.271,44.976 160.271,44.531 C160.271,44.086 159.797,44.01 159.291,43.931" id="Path"></path>
            <path d="M166.164,26.005 C166.568,26.0046 166.963,25.8844 167.299,25.6597 C167.635,25.4349 167.896,25.1157 168.051,24.7423 C168.205,24.3689 168.246,23.9581 168.167,23.5618 C168.088,23.1655 167.893,22.8014 167.607,22.5157 C167.322,22.23 166.958,22.0353 166.561,21.9564 C166.165,21.8774 165.754,21.9178 165.381,22.0722 C165.007,22.2267 164.688,22.4883 164.463,22.8242 C164.239,23.16 164.118,23.5549 164.118,23.959 C164.089,24.2348 164.122,24.5136 164.215,24.775 C164.307,25.0364 164.457,25.2737 164.653,25.4698 C164.849,25.6659 165.087,25.8157 165.348,25.9083 C165.609,26.0009 165.888,26.0339 166.164,26.005 Z" id="Path"></path>
            <path d="M169.804,43.926 C169.023,43.809 168.138,43.674 168.138,42.379 L168.138,28.247 L168.033,28.288 C166.414,28.9379 164.736,29.4312 163.023,29.7611 C162.347,29.8911 162.117,29.935 162.117,30.291 C162.117,30.662 162.526,30.724 163,30.796 C163.785,30.913 164.763,31.063 164.763,32.507 L164.763,42.378 C164.763,43.678 163.878,43.808 163.097,43.925 C162.597,44.003 162.117,44.075 162.117,44.525 C162.117,44.975 162.444,45.0321 162.767,45.0321 C163.128,45.0321 163.483,45.0201 163.893,45.0061 C164.511,44.9851 165.277,44.9591 166.45,44.9591 C167.623,44.9591 168.391,44.9851 169.007,45.0061 C169.417,45.0201 169.771,45.0321 170.133,45.0321 C170.456,45.0321 170.783,44.97 170.783,44.525 C170.783,44.08 170.307,44.004 169.803,43.925" id="Path"></path>
            <path d="M183.795,28.283 C181.419,28.283 179.715,29.661 178.187,31.112 L178.187,28.247 L178.082,28.288 C176.447,28.9444 174.752,29.4384 173.02,29.763 C172.347,29.891 172.094,29.937 172.094,30.291 C172.094,30.662 172.515,30.724 173,30.796 C173.809,30.913 174.813,31.063 174.813,32.507 L174.813,49.46 C174.813,50.774 173.897,50.897 173.162,50.997 C172.686,51.061 172.238,51.121 172.238,51.533 C172.238,51.869 172.555,51.897 172.852,51.897 C173.561,51.897 174.21,51.878 174.836,51.859 C175.985,51.825 177.015,51.825 178.164,51.859 C178.79,51.878 179.439,51.897 180.148,51.897 C180.448,51.897 180.762,51.869 180.762,51.533 C180.762,51.121 180.314,51.06 179.839,50.997 C179.102,50.897 178.188,50.774 178.188,49.46 L178.188,44.849 C179.355,45.138 180.555,45.2725 181.757,45.249 C186.613,45.249 190.418,41.149 190.418,35.909 C190.418,31.633 187.508,28.286 183.796,28.286 M181.757,44.45 C181.273,44.4742 180.789,44.3947 180.337,44.2169 C179.886,44.0391 179.478,43.7671 179.14,43.419 C178.802,43.0708 178.542,42.6546 178.378,42.1982 C178.214,41.7417 178.149,41.2556 178.188,40.772 L178.188,32.189 C179.239,31.0627 180.685,30.3854 182.223,30.298 C184.623,30.298 187.045,32.22 187.045,36.515 C187.045,41.335 184.97,44.449 181.758,44.449" id="Shape"></path>
            <path d="M210.218,9.7 L210.218,-7.10542736e-15 L198.624,-7.10542736e-15 L198.624,9.7 L188.924,9.7 L188.924,21.3 L198.624,21.3 L198.624,31 L210.218,31 L210.218,21.3 L219.918,21.3 L219.918,9.7 L210.218,9.7 Z M200.518,1.89 L208.328,1.89 L208.328,9.7 L200.518,9.7 L200.518,1.89 Z M208.328,19.403 L200.518,19.403 L200.518,11.592 L208.328,11.592 L208.328,19.403 Z M190.815,11.592 L198.625,11.592 L198.625,19.403 L190.815,19.403 L190.815,11.592 Z M208.328,29.105 L200.518,29.105 L200.518,21.295 L208.328,21.295 L208.328,29.105 Z M218.028,19.405 L210.217,19.405 L210.217,11.594 L218.028,11.594 L218.028,19.405 Z" id="Shape"></path>
        </g>
    </g>
</svg>