<svg width="256" height="130" viewBox="0 0 256 130" fill="none" xmlns="http://www.w3.org/2000/svg">
<path d="M27.459 69.22C24.33 68.035 21.3729 66.92 21.3729 63.82C21.3694 63.2861 21.4726 62.7568 21.6763 62.2633C21.88 61.7698 22.1801 61.3219 22.5592 60.9459C22.9383 60.5699 23.3886 60.2733 23.8838 60.0736C24.379 59.8739 24.9091 59.7752 25.443 59.783C28.817 59.783 30.979 61.896 32.452 66.632L32.569 67.022C32.93 68.195 33.006 68.44 33.418 68.44C33.925 68.44 33.9249 67.961 33.9249 67.753C33.9249 67.434 33.9249 67.035 33.2799 59.842C33.2379 59.369 33.044 59.128 32.702 59.128C32.285 59.128 32.176 59.442 32.083 59.718C31.971 60.042 31.867 60.344 31.345 60.344C30.9987 60.2887 30.6621 60.1847 30.345 60.035C28.7705 59.3633 27.0796 59.0069 25.3679 58.986C23.5747 58.9886 21.836 59.602 20.438 60.725C19.7527 61.2579 19.1963 61.9383 18.8104 62.7159C18.4245 63.4934 18.219 64.348 18.209 65.216C18.209 69.888 21.815 71.123 25.309 72.316C28.685 73.474 31.876 74.566 31.876 78.592C31.876 81.54 29.637 83.521 26.302 83.521C22.046 83.521 20.302 79.469 19.583 76.072C19.483 75.58 19.403 75.159 19.343 74.825C19.143 73.74 19.067 73.291 18.543 73.291C18.001 73.291 18.001 73.736 18.001 74.299V83.456C18.001 84.017 18.301 84.32 18.579 84.32C19.038 84.32 19.2119 83.99 19.3789 83.671C19.5459 83.352 19.7169 83.031 20.1899 83.031C20.5883 83.0987 20.9755 83.2205 21.3409 83.393C22.9759 84.1088 24.7357 84.4961 26.52 84.533C30.056 84.533 35.0389 82.156 35.0389 76.874C35.0389 72.085 31.014 70.562 27.464 69.22" fill="white"/>
<path d="M48.441 80.589C48.241 80.589 48.068 80.794 47.832 81.081C47.5746 81.4739 47.225 81.7977 46.8136 82.0244C46.4022 82.251 45.9415 82.3734 45.4719 82.381C43.5719 82.381 42.76 81.481 42.76 79.381V69.441H46.886L47.5859 67.569H42.761V62.278H42.554L42.537 62.332C41.6351 65.2523 39.6521 67.7179 36.993 69.225L36.957 69.247V69.44H39.3879V79.378C39.3879 82.564 40.875 84.246 43.688 84.246C44.7726 84.2938 45.8451 84.0021 46.7561 83.4115C47.6671 82.8209 48.3711 81.9607 48.77 80.951C48.7748 80.9052 48.7698 80.859 48.7556 80.8152C48.7414 80.7714 48.7183 80.7311 48.6876 80.6968C48.6569 80.6626 48.6193 80.6351 48.5774 80.6161C48.5354 80.5972 48.49 80.5873 48.444 80.587" fill="white"/>
<path d="M64.927 78.657C64.696 78.657 64.5589 78.869 64.3719 79.157C64.0496 79.7007 63.6133 80.1681 63.093 80.527C62.0253 81.2618 60.7492 81.6332 59.454 81.586C54.371 81.586 53.484 77.5099 53.416 75.0169H65.2899V74.941C65.3235 73.044 64.7083 71.1925 63.546 69.693C62.912 68.9125 62.1064 68.2888 61.192 67.8705C60.2776 67.4521 59.279 67.2504 58.2739 67.281C53.1889 67.281 50.042 71.813 50.042 76.013C50.0164 77.0829 50.2046 78.1471 50.5958 79.1432C50.987 80.1394 51.5731 81.0474 52.3198 81.8141C53.0665 82.5807 53.9588 83.1906 54.9443 83.6078C55.9298 84.0251 56.9887 84.2413 58.0589 84.2439C63.7429 84.2439 65.3249 79.6439 65.3249 79.1239C65.3249 78.8239 65.1779 78.653 64.9249 78.653M58.2369 68.0799C60.7299 68.0799 61.8999 69.964 61.9149 74.006H53.3449C53.4449 70.784 55.6729 68.0799 58.2369 68.0799" fill="white"/>
<path d="M91.5 67.499C91.338 67.499 91.0889 67.509 90.7739 67.522C90.2549 67.541 89.542 67.57 88.783 67.57C88.095 67.57 87.512 67.544 87.046 67.525C86.746 67.511 86.48 67.499 86.28 67.499C85.961 67.499 85.6649 67.556 85.6649 67.968C85.6649 68.28 85.975 68.368 86.333 68.458C86.5574 68.4813 86.7747 68.5499 86.9718 68.6595C87.1689 68.7692 87.3418 68.9177 87.48 69.096C87.6181 69.2743 87.7186 69.4788 87.7755 69.6971C87.8324 69.9154 87.8445 70.143 87.811 70.366C87.5346 72.041 87.0561 73.6763 86.386 75.236L84.635 79.704L80.9879 70.554C80.9589 70.476 80.9169 70.376 80.8729 70.268C80.7493 70.0136 80.6576 69.7449 80.6 69.468C80.6 68.568 81.266 68.468 81.854 68.368C82.254 68.306 82.637 68.245 82.637 67.892C82.637 67.492 82.121 67.492 81.952 67.492C81.66 67.492 81.271 67.504 80.819 67.518C80.153 67.537 79.319 67.563 78.411 67.563C77.524 67.563 76.871 67.537 76.344 67.518C75.98 67.504 75.664 67.492 75.371 67.492C75.041 67.492 74.936 67.599 74.936 67.927C74.936 68.181 75.169 68.248 75.436 68.327C75.8157 68.4126 76.1668 68.5945 76.4557 68.8553C76.7445 69.1162 76.9613 69.447 77.085 69.816L78.1849 72.399L75.478 79.445L72.1179 71.009C71.8506 70.4335 71.6949 69.8125 71.6589 69.179C71.6589 68.479 72.159 68.379 72.599 68.292C72.912 68.232 73.2319 68.166 73.2319 67.856C73.2319 67.546 72.902 67.492 72.332 67.492C72.199 67.492 72.003 67.501 71.744 67.511C71.249 67.532 70.499 67.563 69.507 67.563C68.829 67.563 68.237 67.537 67.759 67.518C67.435 67.504 67.152 67.492 66.933 67.492C66.515 67.492 66.14 67.521 66.14 67.856C66.14 68.161 66.366 68.203 66.604 68.248C66.996 68.322 67.5869 68.434 68.0389 69.601L73.5499 83.873C73.7259 84.297 73.888 84.529 74.229 84.529C74.57 84.529 74.7379 84.277 74.8729 83.87L78.666 73.478L82.704 83.878C82.873 84.283 82.9939 84.534 83.3469 84.534C83.6999 84.534 83.847 84.303 84.028 83.877L88.928 71.611C90.028 68.847 91.195 68.494 91.754 68.325C91.996 68.251 92.187 68.192 92.187 67.968C92.187 67.554 91.84 67.499 91.502 67.499" fill="white"/>
<path d="M108.488 81.376C108.34 81.376 108.176 81.536 107.946 81.761C107.582 82.214 107.06 82.5115 106.485 82.593C106.365 82.6005 106.244 82.5811 106.132 82.5361C106.021 82.4912 105.92 82.4219 105.839 82.3333C105.757 82.2447 105.696 82.139 105.661 82.0239C105.625 81.9088 105.616 81.7872 105.633 81.668V71.046C105.633 68.621 104.133 67.285 101.408 67.285C99.4787 67.3954 97.6086 67.9912 95.9709 69.017C94.1319 70.123 93.0309 71.403 93.0309 72.44C93.0078 72.6267 93.0223 72.8162 93.0734 72.9973C93.1244 73.1783 93.2111 73.3474 93.3284 73.4946C93.4456 73.6417 93.5911 73.764 93.7562 73.8542C93.9213 73.9444 94.1028 74.0008 94.2899 74.02C96.2049 74.02 96.762 72.599 97.304 71.22C97.868 69.781 98.4529 68.294 100.583 68.294C101.727 68.294 102.258 68.758 102.258 69.755V73.885C93.6789 77.199 92.4579 78.31 92.4579 80.663C92.4573 81.1609 92.5603 81.6536 92.7604 82.1096C92.9604 82.5656 93.2531 82.975 93.6199 83.3118C93.9867 83.6485 94.4195 83.9053 94.8909 84.0658C95.3622 84.2263 95.8618 84.287 96.3579 84.244C98.579 84.0949 100.685 83.2022 102.337 81.71C102.354 82.3889 102.636 83.0341 103.123 83.5077C103.61 83.9812 104.263 84.2455 104.942 84.244C105.738 84.1591 106.505 83.8918 107.181 83.4628C107.857 83.0337 108.426 82.4544 108.842 81.77C108.846 81.7194 108.84 81.6685 108.824 81.6204C108.807 81.5724 108.781 81.5281 108.747 81.4906C108.713 81.4531 108.671 81.423 108.625 81.4022C108.579 81.3815 108.529 81.3705 108.478 81.37M102.249 74.904V80.635C100.238 82.353 98.6109 82.81 97.9659 82.81C96.6659 82.81 96.037 81.901 96.037 80.028C96.037 77.718 97.3199 76.659 102.249 74.915" fill="white"/>
<path d="M121.042 67.285C119.729 67.285 117.999 67.803 116.22 71.805V67.246L116.113 67.291C114.581 67.9509 112.97 68.4113 111.321 68.661C110.479 68.802 110.058 68.873 110.058 69.221C110.058 69.621 110.491 69.697 110.993 69.789C111.819 69.939 112.846 70.125 112.846 71.654V81.382C112.846 82.682 111.961 82.812 111.181 82.929C110.675 83.007 110.199 83.079 110.199 83.529C110.199 83.979 110.527 84.036 110.85 84.036C111.21 84.036 111.566 84.024 111.976 84.01C112.594 83.991 113.36 83.963 114.534 83.963C115.708 83.963 116.473 83.991 117.089 84.01C117.499 84.024 117.855 84.036 118.215 84.036C118.538 84.036 118.865 83.976 118.865 83.529C118.865 83.082 118.389 83.008 117.885 82.929C117.104 82.812 116.219 82.677 116.219 81.382V76.41C116.219 72.396 117.671 70.229 119.039 70.229C119.482 70.2086 119.916 70.3622 120.247 70.657C120.573 70.9478 120.998 71.1021 121.434 71.088C121.681 71.1121 121.929 71.083 122.163 71.0029C122.398 70.9227 122.612 70.7933 122.792 70.6233C122.972 70.4533 123.114 70.2467 123.207 70.0174C123.301 69.7881 123.344 69.5414 123.334 69.294C123.334 68.017 122.499 67.286 121.04 67.286" fill="white"/>
<path d="M141.536 81.555C140.736 81.417 139.643 81.227 139.643 79.593V57.663L139.543 57.703C137.875 58.3736 136.143 58.8708 134.373 59.187C133.673 59.311 133.412 59.356 133.412 59.708C133.412 60.079 133.852 60.141 134.363 60.214C135.214 60.333 136.273 60.483 136.273 61.927V67.691C135.154 67.4067 134.002 67.2705 132.847 67.2859C127.828 67.2859 124.047 71.378 124.047 76.805C124.047 80.98 127.019 84.249 130.813 84.249C133.337 84.249 135.169 82.664 136.494 81.225V84.291L136.603 84.241C138.174 83.503 139.821 82.9396 141.514 82.561C142.139 82.423 142.371 82.369 142.371 82.024C142.371 81.698 141.988 81.633 141.545 81.555M132.709 68.083C133.195 68.0512 133.683 68.1255 134.138 68.3007C134.592 68.4758 135.004 68.7477 135.343 69.0975C135.683 69.4473 135.942 69.8666 136.103 70.3265C136.265 70.7864 136.324 71.2758 136.278 71.761V80.191C136.204 80.755 134.36 82.228 132.352 82.228C128.964 82.228 127.421 78.857 127.421 75.728C127.421 71.153 129.546 68.081 132.708 68.081" fill="white"/>
<path d="M151.261 74.082C149.187 73.118 147.228 72.207 147.228 70.615C147.196 70.2746 147.24 69.9314 147.356 69.6099C147.472 69.2883 147.658 68.9963 147.9 68.7546C148.141 68.5129 148.433 68.3274 148.755 68.2113C149.076 68.0953 149.42 68.0515 149.76 68.083C152.552 68.083 153.731 70.317 154.516 72.503C154.569 72.655 154.609 72.788 154.644 72.903C154.744 73.253 154.818 73.483 155.089 73.483C155.255 73.483 155.453 73.402 155.453 73.014V68.386L155.408 68.367C153.761 67.691 152.004 67.3249 150.224 67.287C148.652 67.2219 147.11 67.7289 145.884 68.714C145.408 69.1142 145.024 69.6132 144.76 70.1765C144.496 70.7398 144.358 71.3539 144.355 71.976C144.355 74.943 147.2 76.149 149.708 77.213C151.735 78.074 153.653 78.888 153.653 80.489C153.673 80.8865 153.608 81.2835 153.464 81.6543C153.319 82.0251 153.098 82.3613 152.815 82.6408C152.532 82.9204 152.193 83.1371 151.821 83.2767C151.448 83.4163 151.05 83.4757 150.653 83.451C148.184 83.451 146.204 81.633 145.221 78.462C144.943 77.562 144.789 77.299 144.539 77.299C144.273 77.299 144.139 77.542 144.139 78.02V83.335L144.19 83.354C146.014 83.9848 147.936 84.2895 149.866 84.254C154.776 84.254 156.525 81.682 156.525 79.277C156.525 76.537 153.725 75.237 151.26 74.088" fill="white"/>
<path d="M177.289 82.928C176.509 82.811 175.623 82.676 175.623 81.381V71.044C175.623 68.618 174.161 67.285 171.505 67.285C169.04 67.285 166.811 68.985 165.181 70.225L164.822 70.497V57.662L164.722 57.703C163.06 58.3801 161.331 58.8776 159.564 59.187C158.876 59.309 158.591 59.359 158.591 59.706C158.591 60.079 159.033 60.141 159.541 60.212C160.393 60.331 161.452 60.481 161.452 61.925V81.381C161.452 82.681 160.567 82.811 159.787 82.928C159.282 83.006 158.805 83.078 158.805 83.528C158.805 83.978 159.134 84.035 159.454 84.035C159.816 84.035 160.172 84.023 160.582 84.009C161.2 83.988 161.966 83.962 163.139 83.962C164.312 83.962 165.08 83.988 165.694 84.009C166.106 84.023 166.462 84.035 166.824 84.035C167.143 84.035 167.473 83.973 167.473 83.528C167.473 83.083 166.997 83.007 166.492 82.928C165.712 82.811 164.825 82.676 164.825 81.381V71.69C166.48 70.177 167.844 69.302 169.899 69.302C171.55 69.302 172.254 69.985 172.254 71.586V81.386C172.254 82.686 171.367 82.816 170.587 82.933C170.087 83.011 169.607 83.083 169.607 83.533C169.607 83.983 169.935 84.04 170.256 84.04C170.618 84.04 170.973 84.028 171.384 84.014C172.002 83.993 172.767 83.967 173.941 83.967C175.115 83.967 175.882 83.993 176.496 84.014C176.907 84.028 177.262 84.04 177.624 84.04C177.945 84.04 178.272 83.978 178.272 83.533C178.272 83.088 177.798 83.012 177.292 82.933" fill="white"/>
<path d="M184.165 65.007C184.569 65.0066 184.964 64.8864 185.3 64.6617C185.636 64.4369 185.897 64.1177 186.052 63.7443C186.206 63.3709 186.247 62.9601 186.168 62.5638C186.089 62.1675 185.894 61.8034 185.608 61.5177C185.323 61.232 184.959 61.0373 184.562 60.9584C184.166 60.8794 183.755 60.9198 183.382 61.0742C183.008 61.2287 182.689 61.4903 182.464 61.8262C182.24 62.162 182.119 62.5569 182.119 62.961C182.09 63.2368 182.123 63.5156 182.216 63.777C182.308 64.0384 182.458 64.2757 182.654 64.4718C182.85 64.6679 183.088 64.8177 183.349 64.9103C183.61 65.0029 183.889 65.0359 184.165 65.007Z" fill="white"/>
<path d="M187.805 82.928C187.024 82.811 186.139 82.676 186.139 81.381V67.249L186.034 67.29C184.415 67.9399 182.737 68.4332 181.024 68.7631C180.348 68.8931 180.118 68.937 180.118 69.293C180.118 69.664 180.527 69.726 181.001 69.798C181.786 69.915 182.764 70.065 182.764 71.509V81.38C182.764 82.68 181.879 82.81 181.098 82.927C180.598 83.005 180.118 83.077 180.118 83.527C180.118 83.977 180.445 84.0341 180.768 84.0341C181.129 84.0341 181.484 84.0221 181.894 84.0081C182.512 83.9871 183.278 83.9611 184.451 83.9611C185.624 83.9611 186.392 83.9871 187.008 84.0081C187.418 84.0221 187.772 84.0341 188.134 84.0341C188.457 84.0341 188.784 83.972 188.784 83.527C188.784 83.082 188.308 83.006 187.804 82.927" fill="white"/>
<path d="M201.796 67.285C199.42 67.285 197.716 68.663 196.188 70.114V67.249L196.083 67.29C194.448 67.9464 192.753 68.4404 191.021 68.765C190.348 68.893 190.095 68.939 190.095 69.293C190.095 69.664 190.516 69.726 191.001 69.798C191.81 69.915 192.814 70.065 192.814 71.509V88.462C192.814 89.776 191.898 89.899 191.163 89.999C190.687 90.063 190.239 90.123 190.239 90.535C190.239 90.871 190.556 90.899 190.853 90.899C191.562 90.899 192.211 90.88 192.837 90.861C193.986 90.827 195.016 90.827 196.165 90.861C196.791 90.88 197.44 90.899 198.149 90.899C198.449 90.899 198.763 90.871 198.763 90.535C198.763 90.123 198.315 90.062 197.84 89.999C197.103 89.899 196.189 89.776 196.189 88.462V83.851C197.356 84.14 198.556 84.2745 199.758 84.251C204.614 84.251 208.419 80.151 208.419 74.911C208.419 70.635 205.509 67.288 201.797 67.288M199.758 83.452C199.274 83.4762 198.79 83.3967 198.338 83.2189C197.887 83.0411 197.479 82.7691 197.141 82.421C196.803 82.0728 196.543 81.6566 196.379 81.2002C196.215 80.7437 196.15 80.2576 196.189 79.774V71.191C197.24 70.0647 198.686 69.3874 200.224 69.3C202.624 69.3 205.046 71.222 205.046 75.517C205.046 80.337 202.971 83.451 199.759 83.451" fill="white"/>
<path d="M228.219 48.702V39.002H216.625V48.702H206.925V60.302H216.625V70.002H228.219V60.302H237.919V48.702H228.219ZM218.519 40.892H226.329V48.702H218.519V40.892ZM226.329 58.405H218.519V50.594H226.329V58.405ZM208.816 50.594H216.626V58.405H208.816V50.594ZM226.329 68.107H218.519V60.297H226.329V68.107ZM236.029 58.407H228.218V50.596H236.029V58.407Z" fill="white"/>
</svg>
