<?xml version="1.0" encoding="UTF-8"?>
<svg width="1000px" height="265px" viewBox="0 0 1000 265" version="1.1" xmlns="http://www.w3.org/2000/svg" xmlns:xlink="http://www.w3.org/1999/xlink">
    <title>Scripture Union/White</title>
    <g id="Scripture-Union/White" stroke="none" stroke-width="1" fill="none" fill-rule="evenodd">
        <path d="M42.0841683,116.439394 C44.0881764,116.439394 45.4241818,117.777778 45.4241818,119.785354 C45.4241818,173.989899 90.1803607,218.156566 144.288577,218.156566 C198.396794,218.156566 242.48497,173.989899 242.48497,119.785354 C242.48497,117.777778 243.820976,116.439394 245.824984,116.439394 L284.569138,116.439394 C286.573146,116.439394 287.909152,117.777778 288.577154,119.785354 C288.577154,199.419192 223.780896,264.330809 144.288577,264.330809 C64.7962591,264.330809 0,199.419192 0,119.785354 C0,117.777778 1.33600534,116.439394 3.34001337,116.439394 Z M172.344689,4.01515152 C173.680695,3.3459596 175.0167,3.3459596 176.352705,4.68434343 C177.020708,5.35353536 177.688711,7.36111112 176.352705,8.69949494 C160.988644,27.4368688 173.680695,44.1666667 189.044756,65.5808081 L189.712759,66.25 C201.068804,82.3106061 215.09686,101.717172 215.764864,122.462121 L215.764864,123.800505 C215.764864,146.55303 204.408818,167.967172 185.03674,181.35101 L184.368737,182.020202 C183.700735,182.020202 183.700735,182.689394 183.032732,182.689394 L182.364729,183.358586 C171.008684,190.050505 157.648631,194.065657 144.288577,194.065657 C142.284569,194.065657 139.612559,193.396465 136.940548,193.396465 C100.200401,190.050505 72.8122912,159.267677 72.8122912,123.131313 L72.8122912,121.792929 C73.480294,97.7020203 81.4963261,82.3106061 88.8443553,73.6111112 C94.7421158,66.0915072 101.070215,62.4518492 103.68381,60.9620444 L103.928759,60.8223784 C104.432896,60.5345263 104.762156,60.3417398 104.876419,60.2272727 C106.212425,60.2272727 107.54843,60.2272727 108.216433,60.8964646 C109.552438,61.5656566 109.552438,62.9040403 109.552438,64.2424242 C106.880427,80.3030303 112.892452,89.6717172 118.236473,94.3560606 C115.564462,66.25 129.592518,44.1666667 141.616567,30.1136364 C156.312625,13.3838384 172.344689,4.01515152 172.344689,4.01515152 Z M365.397461,95.0252525 C364.061457,91.679293 365.397461,89.0025252 369.405477,87.6641415 L374.081497,86.3257576 C377.421509,85.6565657 379.425517,86.9949494 381.429525,90.3409091 C385.437541,97.0328282 393.453573,102.386364 404.809619,102.386364 C418.837675,102.386364 427.521709,95.6944445 427.521709,85.6565657 C427.521709,76.9570706 420.841683,72.2727273 411.489645,68.9267676 L394.789579,63.5732324 C374.081497,56.8813131 368.737475,44.1666667 368.737475,34.1287879 C368.737475,14.7222222 385.437541,3.3459596 404.809619,3.3459596 C422.177689,3.3459596 434.201737,12.0454545 439.545758,24.0909091 C440.881764,27.4368688 439.545758,30.1136364 435.537741,31.4520203 L431.529725,32.790404 C428.189713,33.459596 425.517701,32.790404 424.181697,29.4444445 C420.841683,21.4141415 414.161657,18.0681818 404.809619,18.0681818 C394.121577,18.0681818 385.437541,24.0909091 385.437541,33.459596 C385.437541,38.1439394 386.773547,44.1666667 399.465597,48.85101 L416.165665,54.8737373 C434.869739,60.8964646 443.553774,72.9419191 443.553774,84.9873737 C443.553774,105.063131 427.521709,117.108586 404.809619,117.108586 C384.769539,117.108586 371.409485,107.739899 365.397461,95.0252525 M453.573814,76.9570706 C453.573814,53.5353536 469.605878,34.7979797 498.329994,34.7979797 C504.342018,34.7979797 513.026052,36.1363636 522.37809,41.4898991 C525.718102,43.4974748 526.386106,46.8434343 523.714094,49.5202021 L522.37809,50.8585858 C519.706078,53.5353536 517.70207,53.5353536 514.362058,52.1969697 C507.68203,48.85101 501.002004,48.85101 498.997996,48.85101 C482.29793,48.85101 470.273882,60.2272727 470.273882,75.6186869 C470.273882,91.0101009 482.29793,103.055555 498.997996,103.055555 C501.002004,103.055555 507.68203,103.055555 514.362058,99.709596 C517.70207,97.7020203 520.374082,98.3712121 522.37809,101.04798 L523.714094,102.386364 C525.718102,105.063131 525.0501,109.078283 519.706078,111.755051 C511.690046,115.770202 504.342018,117.108586 498.329994,117.108586 C470.273882,117.108586 453.573814,99.040404 453.573814,76.9570706 M537.074148,109.747475 L537.074148,42.1590909 C537.074148,38.8131312 539.078156,36.1363636 543.086172,36.1363636 L547.76219,36.1363636 C551.102204,36.1363636 553.774214,38.1439394 553.774214,42.1590909 L553.774214,54.2045455 C556.446226,41.4898991 565.130261,34.7979797 575.150301,34.7979797 L578.490315,34.7979797 C581.830327,35.4671718 582.498331,38.1439394 582.498331,40.820707 L582.498331,45.5050506 C582.498331,49.5202021 581.162325,50.8585858 578.490315,50.1893939 C577.154309,50.1893939 575.818303,49.5202021 574.482299,49.5202021 C568.470275,49.5202021 554.442218,52.1969697 554.442218,84.9873737 L554.442218,109.747475 C554.442218,113.093434 552.43821,115.770202 548.430194,115.770202 L543.754174,115.770202 C539.746158,115.770202 537.074148,113.093434 537.074148,109.747475 M595.858383,109.747475 L595.858383,42.1590909 C595.858383,38.8131312 597.862391,36.1363636 601.870407,36.1363636 L606.546427,36.1363636 C609.886439,36.1363636 612.558451,38.1439394 612.558451,42.1590909 L612.558451,109.747475 C612.558451,113.093434 610.554443,115.770202 606.546427,115.770202 L601.870407,115.770202 C598.530395,115.770202 595.858383,113.093434 595.858383,109.747475 M593.186373,11.3762626 C593.186373,5.35353536 597.862391,0 603.874415,0 C610.554443,0 615.230461,4.68434343 615.230461,11.3762626 C615.230461,17.3989899 610.554443,22.0833333 603.874415,22.0833333 C597.862391,22.0833333 593.186373,17.3989899 593.186373,11.3762626 M672.678691,34.7979797 C696.058784,34.7979797 712.090848,53.5353536 712.090848,76.2878788 C712.090848,99.040404 696.726788,117.777778 672.678691,117.777778 C661.990647,117.777778 651.970607,114.431818 643.954575,103.724748 L643.954575,147.222222 C643.954575,150.568182 641.950567,153.244949 637.942551,153.244949 L633.266533,153.244949 C629.258517,151.906566 627.254509,149.89899 627.254509,146.55303 L627.254509,42.1590909 C627.254509,38.8131312 629.258517,36.1363636 633.266533,36.1363636 L637.942551,36.1363636 C641.282565,36.1363636 643.954575,38.1439394 643.954575,42.1590909 L643.954575,48.85101 C651.302605,38.1439394 661.990647,34.7979797 672.678691,34.7979797 Z M736.138944,13.3838384 C738.810956,13.3838384 740.814964,15.3914141 740.814964,18.0681818 L740.814964,36.1363636 L762.191048,36.1363636 C764.195056,36.1363636 765.531062,37.4747475 765.531062,39.4823233 L765.531062,45.5050506 C765.531062,47.5126263 764.195056,48.85101 762.191048,48.85101 L740.814964,48.85101 L740.814964,91.0101009 C740.814964,99.709596 744.82298,103.055555 750.167,103.055555 C754.84302,103.055555 759.519038,100.378788 759.519038,94.3560606 L759.519038,91.679293 C759.519038,89.6717172 760.18704,88.3333333 762.191048,88.3333333 L769.539078,88.3333333 C771.543086,88.3333333 772.879092,89.0025252 772.879092,91.0101009 C773.468506,93.3719549 773.537848,96.2548058 773.546006,96.9004336 L773.546958,96.9989123 C773.547094,97.0212505 773.547094,97.0328282 773.547094,97.0328282 C773.547094,109.078283 764.86306,117.777778 750.167,117.777778 C737.47495,117.108586 724.7829,110.416667 724.7829,90.3409091 L724.7829,48.85101 L714.76286,48.85101 C712.758852,48.85101 711.422846,47.5126263 711.422846,45.5050506 L711.422846,39.4823233 C711.422846,37.4747475 712.758852,36.1363636 714.76286,36.1363636 L724.7829,36.1363636 L727.45491,18.0681818 C728.122912,15.3914141 729.458918,13.3838384 732.798932,13.3838384 L736.138944,13.3838384 Z M669.338677,48.1818182 C653.974615,48.1818182 643.286573,59.5580809 643.286573,75.6186869 C643.286573,91.0101009 653.974615,103.055555 669.338677,103.055555 C686.038743,103.055555 694.72278,90.3409091 694.72278,75.6186869 C694.72278,60.8964646 685.370741,48.1818182 669.338677,48.1818182 Z M780.22712,80.9722222 L780.22712,42.1590909 C780.22712,38.8131312 782.231128,36.1363636 786.239144,36.1363636 L790.915164,36.1363636 C794.255176,36.1363636 796.927188,38.1439394 796.927188,42.1590909 L796.927188,80.9722222 C796.927188,97.0328282 804.275216,103.055555 812.291248,103.055555 C820.307281,103.055555 837.007349,97.0328282 837.007349,73.6111112 L837.007349,42.1590909 C837.007349,38.8131312 839.011357,36.1363636 843.019373,36.1363636 L847.695391,36.1363636 C851.035405,36.1363636 853.707415,38.1439394 853.707415,42.1590909 L853.707415,109.747475 C853.707415,113.093434 851.703407,115.770202 847.695391,115.770202 L843.019373,115.770202 C839.679359,115.770202 837.007349,113.762626 837.007349,109.747475 L837.007349,99.709596 C833.667335,111.085859 823.647295,117.108586 810.955244,117.108586 C792.919172,117.108586 780.22712,105.732323 780.22712,80.9722222 M867.735471,109.747475 L867.735471,42.1590909 C867.735471,38.8131312 869.739479,36.1363636 873.747495,36.1363636 L878.423513,36.1363636 C881.763527,36.1363636 884.435537,38.1439394 884.435537,42.1590909 L884.435537,54.2045455 C887.107549,41.4898991 895.791583,34.7979797 905.811623,34.7979797 L909.151637,34.7979797 C912.491649,35.4671718 913.159653,38.1439394 913.159653,40.820707 L913.159653,45.5050506 C913.159653,49.5202021 911.823647,50.8585858 909.151637,50.1893939 C907.815631,50.1893939 906.479625,49.5202021 905.143621,49.5202021 C899.131597,49.5202021 885.103541,52.1969697 885.103541,84.9873737 L885.103541,109.747475 C885.103541,113.093434 883.099533,115.770202 879.091517,115.770202 L874.415497,115.770202 C869.739479,115.770202 867.735471,113.093434 867.735471,109.747475 M981.963928,65.5808073 C977.955912,51.527777 966.599867,48.1818175 957.915832,48.1818175 C948.563795,48.1818175 937.207749,51.527777 932.531731,65.5808073 L981.963928,65.5808073 Z M915.163661,76.2878782 C915.163661,52.8661609 933.199733,34.7979791 957.915832,34.7979791 C977.955912,34.7979791 995.991985,46.8434337 997.995993,72.2727267 C998.663995,76.2878782 995.991985,78.2954539 992.651971,78.2954539 L931.195725,78.2954539 C930.527723,93.0176761 942.551771,103.724747 959.91984,103.724747 C967.935872,103.724747 974.615899,101.717171 981.295926,97.0328276 C983.967936,95.0252519 986.639947,95.0252519 989.311958,97.7020195 L990.647963,99.0404034 C993.319974,101.717171 993.319974,105.063131 989.311958,107.739898 C979.95992,115.101009 969.271878,117.777777 959.91984,117.777777 C932.531731,117.108585 915.163661,98.3712115 915.163661,76.2878782 L915.163661,76.2878782 Z M365.397461,221.502525 L365.397461,157.929293 C365.397461,154.583333 367.401469,151.906566 371.409485,151.906566 L376.753507,151.906566 C380.093521,151.906566 382.765531,153.914141 382.765531,157.929293 L382.765531,221.502525 C382.765531,240.2399 395.457581,249.608585 410.153641,249.608585 C424.849699,249.608585 437.541749,240.2399 437.541749,221.502525 L437.541749,157.929293 C437.541749,154.583333 439.545758,151.906566 443.553774,151.906566 L447.56179,151.906566 C450.901804,151.906566 453.573814,153.914141 453.573814,157.929293 L453.573814,221.502525 C453.573814,249.608585 433.533733,264.330809 409.485637,264.330809 C386.105545,264.330809 365.397461,249.608585 365.397461,221.502525 M467.60187,256.969697 L467.60187,189.381313 C467.60187,186.035354 469.605878,183.358586 473.613894,183.358586 L478.289914,183.358586 C481.629926,183.358586 484.301938,185.366162 484.301938,189.381313 L484.301938,199.419192 C487.64195,188.042929 497.66199,182.020202 510.354042,182.020202 C527.72211,182.020202 540.414162,193.396465 540.414162,218.156566 L540.414162,256.969697 C540.414162,260.315657 538.410154,262.992424 534.402138,262.992424 L529.726118,262.992424 C526.386106,262.992424 523.714094,260.984848 523.714094,256.969697 L523.714094,218.156566 C523.714094,202.09596 516.366066,196.073232 507.68203,196.073232 C499.665998,196.073232 482.965932,201.426767 482.965932,225.517676 L482.965932,256.969697 C482.965932,260.315657 480.961924,262.992424 476.953908,262.992424 L472.27789,262.992424 C469.605878,262.992424 467.60187,260.984848 467.60187,256.969697 M553.774214,158.598485 C553.774214,152.575758 558.450234,147.222222 564.462259,147.222222 C571.142285,147.222222 575.818303,151.906566 575.818303,158.598485 C575.818303,164.621212 571.142285,169.305555 564.462259,169.305555 C557.78223,169.305555 553.774214,164.621212 553.774214,158.598485 M556.446226,256.969697 L556.446226,189.381313 C556.446226,186.035354 558.450234,183.358586 562.458251,183.358586 L567.134269,183.358586 C570.474283,183.358586 573.146293,185.366162 573.146293,189.381313 L573.146293,256.969697 C573.146293,260.315657 571.142285,262.992424 567.134269,262.992424 L562.458251,262.992424 C558.450234,262.992424 556.446226,260.984848 556.446226,256.969697 M651.302605,223.5101 C651.302605,208.787879 639.946559,196.073232 625.250501,196.073232 C611.222445,196.073232 599.866399,208.118688 599.866399,223.5101 C599.866399,238.232324 611.222445,250.277778 625.250501,250.277778 C639.946559,250.277778 651.302605,238.232324 651.302605,223.5101 M583.834335,223.5101 C583.834335,200.757576 602.538411,182.020202 625.250501,182.020202 C648.630595,182.020202 667.334669,200.757576 667.334669,223.5101 C667.334669,246.262627 648.630595,265 625.250501,265 C602.538411,264.330809 583.834335,246.262627 583.834335,223.5101 M678.022711,256.969697 L678.022711,189.381313 C678.022711,186.035354 680.026719,183.358586 684.034735,183.358586 L688.710756,183.358586 C692.050768,183.358586 694.72278,185.366162 694.72278,189.381313 L694.72278,199.419192 C698.062792,188.042929 708.082832,182.020202 720.774884,182.020202 C738.142952,182.020202 750.835004,193.396465 750.835004,218.156566 L750.835004,256.969697 C750.835004,260.315657 748.830996,262.992424 744.82298,262.992424 L740.14696,262.992424 C736.806948,262.992424 734.134936,260.984848 734.134936,256.969697 L734.134936,218.156566 C734.134936,202.09596 726.786908,196.073232 718.102872,196.073232 C710.08684,196.073232 693.386774,201.426767 693.386774,225.517676 L693.386774,256.969697 C693.386774,260.315657 691.382766,262.992424 687.374749,262.992424 L682.698731,262.992424 C680.026719,262.992424 678.022711,260.984848 678.022711,256.969697" id="SU" fill="#FFFFFF" fill-rule="nonzero"></path>
    </g>
</svg>