<svg width="256" height="130" viewBox="0 0 256 130" fill="none" xmlns="http://www.w3.org/2000/svg">
<path fill-rule="evenodd" clip-rule="evenodd" d="M235.747 77.75C235.541 76.5099 235.424 75.2567 235.396 74C235.195 69.542 234.705 66.0621 234.429 64.0987C234.31 63.2544 234.231 62.6906 234.231 62.45C234.231 61.7041 234.342 60.9531 234.568 59.4296C234.697 58.5532 234.865 57.4212 235.071 55.8875C235.083 55.7336 235.083 55.5789 235.071 55.425V52.8625C235.071 50.7745 234.817 48.3465 234.596 46.2263L234.596 46.2261V46.2259C234.463 44.9447 234.341 43.7759 234.294 42.8625C234.231 41.5125 234.194 38.9 234.194 38.9C234.187 36.9831 233.428 35.145 232.079 33.7802C230.73 32.4154 228.898 31.6327 226.977 31.6H224.609C223.231 31.6 222.404 31.6 221.189 31.6875C218.683 31.6875 216.052 31.6875 212.619 31.55L211.755 31.4875C210.99 31.4125 209.249 31.25 208.384 31.25C207.475 31.25 204.473 31.4754 200.93 31.7414C196.129 32.1019 190.333 32.5372 187.399 32.5875C186.438 32.6104 183.515 32.5307 179.839 32.4304C173.499 32.2574 164.92 32.0234 160.312 32.15C155.533 32.5431 152.604 32.4805 150.216 32.4295C149.111 32.4059 148.122 32.3848 147.119 32.4125C145.659 32.45 144.914 32.45 144.168 32.45C143.423 32.45 142.677 32.45 141.218 32.4875C140.742 32.4875 117.2 32.9125 109.896 33.1375L106.137 33.2375C104.568 33.0884 100.462 32.4766 99.1644 32.2833C98.9389 32.2497 98.7983 32.2287 98.7704 32.225C96.6782 31.9375 90.0755 31.7875 78.1482 32.125C70.6273 32.3381 65.2798 32.3077 60.1417 32.2784C55.3337 32.2511 50.7092 32.2248 44.6588 32.4C43.8302 32.4 42.1598 32.28 40.4707 32.1587L40.4707 32.1587C38.5846 32.0233 36.6753 31.8861 35.8887 31.9125C35.4642 31.9125 34.8282 31.8358 34.1995 31.7599C33.585 31.6858 32.9775 31.6125 32.5811 31.6125H28.0457C26.1039 31.6191 24.2435 32.3916 22.8704 33.7616C21.4973 35.1315 20.723 36.9876 20.7164 38.925V40.35V43.8875C20.7164 44.0752 20.6816 44.2628 20.6463 44.4527C20.6181 44.6042 20.5897 44.7571 20.5786 44.9125C20.5422 45.3121 20.5164 45.5576 20.4904 45.8048L20.4904 45.8048C20.4269 46.4081 20.3623 47.0218 20.1401 49.9125C19.9997 51.6634 20.2767 57.8187 20.3864 60.2574C20.4138 60.8655 20.4308 61.2425 20.4283 61.2625C20.4283 62.7125 20.1401 70.725 20.1401 70.725C20.1101 71.7875 20.2111 72.8496 20.4408 73.8875C20.4408 74.3266 20.4988 75.171 20.5618 76.0878C20.6297 77.076 20.7034 78.1483 20.7164 78.8875L20.6788 88.75V91.25C20.6822 93.1884 21.4554 95.0464 22.8292 96.4171C24.203 97.7877 26.0653 98.5592 28.0082 98.5625H30.2759C31.2155 98.5625 32.4308 98.5625 34.2224 98.6375C35.1321 98.6606 36.042 98.6021 36.9411 98.4625C37.2577 98.4625 37.5417 98.3908 37.7741 98.3322L37.7744 98.3321L37.7753 98.3318L37.7755 98.3318C37.8644 98.3094 37.9458 98.2888 38.0186 98.275C38.201 98.2435 38.3875 98.2435 38.5699 98.275C43.0301 98.6375 45.4607 98.8125 46.6259 98.8L134.841 98.4875C135.499 98.4374 136.152 98.3371 136.795 98.1875C138.259 97.8515 139.557 97.6052 140.54 97.4185L140.54 97.4185L140.54 97.4184L140.54 97.4184L140.541 97.4183L140.541 97.4183L140.541 97.4182C141.24 97.2856 141.779 97.1831 142.107 97.1C142.233 97.0649 143.478 97.1966 145.089 97.3669L145.089 97.367L145.09 97.367L145.09 97.3671L145.091 97.3672C147.498 97.6217 150.72 97.9625 152.243 97.9625C160.211 98.325 164.985 98.675 164.985 98.675C165.941 98.675 167.629 98.5147 170.475 98.2441L170.477 98.244L170.477 98.244C171.358 98.1602 172.351 98.0659 173.467 97.9625C173.674 97.9247 173.886 97.9247 174.093 97.9625C175.346 98.225 179.418 98.6375 179.656 98.6375H190.443C190.443 98.6375 212.732 98.4375 225.173 98.3875H228.267C230.208 98.3809 232.067 97.608 233.438 96.2377C234.809 94.8674 235.581 93.0112 235.584 91.075V90C235.847 85.1875 235.897 79.6125 235.747 77.75ZM129.052 82.5875C128.72 82.5875 128.401 82.4558 128.167 82.2214C127.932 81.987 127.8 81.669 127.8 81.3375V64.2625H124.83C124.66 64.2627 124.492 64.2284 124.336 64.1617C124.18 64.0951 124.039 63.9973 123.921 63.8746C123.804 63.7518 123.713 63.6065 123.654 63.4476C123.595 63.2886 123.569 63.1193 123.577 62.95V59.475C123.577 59.1435 123.709 58.8255 123.944 58.5911C124.179 58.3567 124.498 58.225 124.83 58.225H127.737V54.7125C127.782 53.2239 128.214 51.7725 128.99 50.5C130.556 48 133.676 46.375 138.7 46.375C138.87 46.3648 139.041 46.3895 139.202 46.4477C139.363 46.5059 139.51 46.5964 139.634 46.7135C139.759 46.8306 139.858 46.9719 139.926 47.1287C139.993 47.2854 140.028 47.4543 140.028 47.625V50.7875C140.029 50.962 139.996 51.135 139.93 51.2965C139.864 51.458 139.766 51.6048 139.642 51.7281C139.519 51.8515 139.372 51.949 139.21 52.015C139.048 52.081 138.874 52.1142 138.7 52.1125C137.459 52.036 136.216 52.2235 135.054 52.6625C134.127 53.25 133.939 53.9125 133.939 55.4125V58.1125H139.326C139.658 58.1125 139.977 58.2442 140.212 58.4786C140.447 58.713 140.579 59.031 140.579 59.3625V62.8375C140.576 63.1867 140.434 63.5206 140.185 63.7663C139.937 64.0121 139.601 64.15 139.251 64.15H133.989V81.25C133.97 81.5883 133.821 81.9063 133.574 82.1388C133.327 82.3713 133 82.5005 132.661 82.5L129.052 82.5875ZM158.37 80.6125C159.146 82.375 160.662 82.8375 162.905 82.8375C163.222 82.8059 163.515 82.6553 163.724 82.4162C163.933 82.177 164.044 81.8674 164.033 81.55V59.55C164.036 59.2103 163.908 58.8825 163.674 58.6353C163.44 58.3882 163.12 58.2412 162.78 58.225H159.159C158.827 58.225 158.508 58.3567 158.273 58.5911C158.038 58.8255 157.906 59.1435 157.906 59.475V72.1625C157.906 75.8375 156.578 77.55 153.784 77.55C150.99 77.55 149.637 75.8375 149.637 72.3125V63.075C149.663 62.4155 149.554 61.7576 149.317 61.1411C149.081 60.5247 148.722 59.9624 148.262 59.4881C147.802 59.0139 147.25 58.6375 146.64 58.3818C146.03 58.126 145.375 57.9961 144.713 58C144.381 58 144.062 58.1317 143.827 58.3661C143.592 58.6005 143.46 58.9185 143.46 59.25V72.125C143.46 79.2375 146.179 82.8375 151.617 82.8375C154.611 82.8375 156.991 82.25 158.37 80.6125ZM169.62 57.95C171.863 57.95 173.379 58.4125 174.156 60.1875C175.534 58.5375 177.914 57.95 180.909 57.95C186.346 57.95 189.065 61.55 189.065 68.6625V81.5375C189.065 81.707 189.031 81.8749 188.964 82.0307C188.897 82.1866 188.799 82.3273 188.676 82.4442C188.553 82.5612 188.408 82.6519 188.248 82.7109C188.089 82.7699 187.919 82.796 187.75 82.7875C187.089 82.7931 186.433 82.6648 185.824 82.4104C185.214 82.156 184.662 81.7809 184.202 81.3076C183.741 80.8343 183.382 80.2728 183.146 79.657C182.909 79.0412 182.8 78.384 182.826 77.725V68.5375C182.826 65.0125 181.46 63.3 178.679 63.3C175.897 63.3 174.544 65.0125 174.544 68.6875V81.325C174.544 81.6565 174.412 81.9745 174.177 82.2089C173.942 82.4433 173.624 82.575 173.291 82.575H169.671C169.501 82.5752 169.332 82.5409 169.176 82.4742C169.02 82.4075 168.879 82.3098 168.762 82.1871C168.645 82.0643 168.554 81.919 168.494 81.7601C168.435 81.6011 168.409 81.4318 168.418 81.2625V59.25C168.411 59.0858 168.437 58.9219 168.494 58.7677C168.55 58.6135 168.637 58.4719 168.749 58.3512C168.861 58.2304 168.995 58.1329 169.145 58.064C169.294 57.9952 169.456 57.9564 169.62 57.95ZM210.036 46.69C210.288 46.4568 210.621 46.3305 210.965 46.3375C212.233 46.3565 213.445 46.8641 214.346 47.7541C215.248 48.6442 215.769 49.8476 215.801 51.1125V81.6C215.801 81.9315 215.669 82.2495 215.434 82.4839C215.199 82.7183 214.881 82.85 214.549 82.85C212.757 82.85 210.815 82.6375 210.013 80.625C208.998 81.8625 206.944 82.85 203.26 82.85C196.77 82.85 192.723 78.0125 192.723 70.35C192.723 62.6875 196.67 57.925 203.022 57.925C205.445 57.8552 207.804 58.714 209.612 60.325V47.5875C209.632 47.2449 209.783 46.9231 210.036 46.69ZM207.597 76.6514C208.493 76.0967 209.197 75.2801 209.612 74.3125V66.5875C209.206 65.6094 208.506 64.7811 207.609 64.2169C206.711 63.6527 205.66 63.3803 204.601 63.4375C201.857 63.4375 199.038 66.0625 199.038 70.45C199.038 72.8625 200.191 77.4125 204.601 77.4125C205.654 77.4718 206.7 77.206 207.597 76.6514ZM69.6161 82.8375C61.8357 82.8375 57.2001 78.3375 57.2001 70.8C57.2001 62.4875 61.1467 57.925 68.3256 57.925C69.8696 57.8395 71.4137 58.093 72.8489 58.6674C74.2841 59.2419 75.5755 60.1235 76.6322 61.25C78.3549 63.3658 79.2655 66.0248 79.2006 68.75C79.2006 70.575 78.95 72.5 75.9932 72.5H63.4645C63.5095 73.7643 64.0073 74.9707 64.8677 75.9C65.5442 76.5063 66.3375 76.9687 67.1992 77.2588C68.0609 77.549 68.9728 77.6608 69.8792 77.5875C71.9223 77.6163 73.949 77.2204 75.8303 76.425C75.9821 76.3615 76.1473 76.3362 76.3111 76.3515C76.475 76.3668 76.6326 76.4221 76.77 76.5125C76.9144 76.6111 77.0322 76.7436 77.1131 76.8984C77.1939 77.0532 77.2353 77.2255 77.2336 77.4C77.2202 78.0031 77.087 78.5975 76.8419 79.149C76.5967 79.7004 76.2444 80.1978 75.8053 80.6125C74.9734 81.3747 73.9976 81.9641 72.935 82.3461C71.8723 82.7281 70.7441 82.8951 69.6161 82.8375ZM68.1377 63.2375C63.5396 63.2375 63.4645 68.0875 63.4645 68.0875H72.8736C72.8736 68.0875 72.7357 63.2375 68.1377 63.2375ZM107.147 82.5117C107.311 82.58 107.488 82.6143 107.666 82.6125L111.362 82.5625C111.532 82.5627 111.7 82.5284 111.856 82.4617C112.012 82.3951 112.153 82.2973 112.271 82.1746C112.388 82.0518 112.479 81.9065 112.538 81.7476C112.597 81.5886 112.623 81.4193 112.615 81.25V72.4875C112.615 64.9125 114.143 63.6625 117.626 63.6625C118.42 63.7218 119.211 63.822 119.994 63.9625C120.646 63.9625 120.771 63.575 120.771 62.8C120.771 60.5625 120.27 58 116.411 58C115.456 57.9071 114.5 58.1715 113.729 58.742C112.958 59.3125 112.427 60.1484 112.239 61.0875C111.863 60.1806 111.227 59.4043 110.412 58.8553C109.596 58.3063 108.637 58.0088 107.653 58C107.484 57.9915 107.314 58.0176 107.155 58.0766C106.995 58.1356 106.85 58.2263 106.727 58.3433C106.604 58.4602 106.506 58.6009 106.439 58.7568C106.372 58.9126 106.338 59.0805 106.338 59.25V81.25C106.331 81.4276 106.36 81.6047 106.424 81.7706C106.488 81.9365 106.585 82.0877 106.709 82.2151C106.833 82.3425 106.982 82.4434 107.147 82.5117ZM101.063 82.8375C98.4823 82.8375 97.1918 82.225 96.5278 80.6125C95.3626 82.0375 93.12 82.8625 89.7748 82.8375C84.5378 82.8375 81.4557 79.725 81.4557 74.5C81.4557 69.5 84.5378 66.525 89.4992 66.5C93.8419 66.5 95.5776 67.8678 96.0579 68.2462C96.0847 68.2674 96.1077 68.2854 96.1269 68.3C96.1269 68.2849 96.1274 68.2637 96.128 68.2371V68.2366C96.1436 67.5802 96.238 63.5879 90.9901 62.9875C89.6756 62.8157 88.3403 62.8964 87.0561 63.225C86.3825 63.503 85.6811 63.7083 84.9638 63.8375C84.1494 63.8375 83.9615 63.225 83.974 62.4125C83.974 59.1375 86.7679 57.875 91.2407 57.925C98.1691 57.925 102.228 61.4875 102.366 67.7125V81.55C102.372 81.7216 102.341 81.8924 102.278 82.0518C102.214 82.2113 102.118 82.3559 101.996 82.4767C101.873 82.5975 101.727 82.6918 101.567 82.7539C101.407 82.816 101.235 82.8444 101.063 82.8375ZM91.9047 70.65C88.6222 70.65 87.8579 72.6875 87.7953 74.4C87.8705 77.85 91.3159 78.025 92.0049 78.025C94.7989 78.025 96.1269 76.25 96.1269 75.8125V72.1625C96.1269 71.8 94.3729 70.65 91.9047 70.65ZM50.159 55.4875H55.5463C55.7204 55.4787 55.8943 55.5061 56.0571 55.5682C56.2199 55.6302 56.3679 55.7254 56.4917 55.8478C56.6155 55.9701 56.7124 56.1169 56.7761 56.2787C56.8398 56.4405 56.869 56.6138 56.8618 56.7875V60.225C56.8619 60.3984 56.8274 60.5701 56.7605 60.7302C56.6936 60.8902 56.5956 61.0355 56.4721 61.1575C56.3486 61.2796 56.2021 61.376 56.0411 61.4412C55.88 61.5064 55.7076 61.5391 55.5338 61.5375H50.159V81.5375C50.1573 81.7126 50.121 81.8856 50.0519 82.0465C49.9829 82.2075 49.8826 82.3532 49.7567 82.4753C49.6309 82.5973 49.4821 82.6933 49.3189 82.7576C49.1557 82.8219 48.9813 82.8533 48.8059 82.85C47.5281 82.8504 46.3007 82.3527 45.3855 81.463C44.4703 80.5732 43.9398 79.362 43.9071 78.0875V61.5875H38.5198C38.3446 61.5965 38.1696 61.5687 38.0059 61.5059C37.8422 61.4431 37.6936 61.3467 37.5696 61.223C37.4456 61.0993 37.349 60.951 37.2861 60.7877C37.2231 60.6244 37.1953 60.4497 37.2043 60.275V56.8C37.204 56.6305 37.2384 56.4626 37.3052 56.3068C37.3721 56.1509 37.47 56.0102 37.5931 55.8933C37.7161 55.7763 37.8617 55.6856 38.0211 55.6266C38.1804 55.5676 38.35 55.5415 38.5198 55.55H43.9071V51.175C43.9398 49.8994 44.4698 48.6868 45.3847 47.7951C46.2995 46.9033 47.5269 46.4028 48.8059 46.4C49.1497 46.393 49.4829 46.5193 49.7353 46.7525C49.9877 46.9856 50.1396 47.3074 50.159 47.65V55.4875Z" fill="white"/>
</svg>
