<svg height="80" viewBox="0 0 926 80" width="926" xmlns="http://www.w3.org/2000/svg"><g fill="none" fill-rule="nonzero"><path d="m81.529994 2.29159712h-11.1546664l-14.9133329 44.99199888c-.6266667 1.6293333-1.504 5.3893332-1.504 5.7653332-.1253333-.1253333-1.128-4.2613332-1.6293333-5.7653332l-14.913333-44.99199888h-11.1546663l-25.81599939 75.19466478h15.16399959l15.1639996-47.2479988c.5013334-1.628 1.3786667-6.5159999 1.504-7.0173332l1.88 7.0173332 14.5373329 47.2479988h10.9039998l14.6626663-47.2479988c.5013333-1.7533333 1.7546666-7.0173332 1.7546666-7.0173332s.8773333 5.2639999 1.5039999 7.0173332l15.0386663 47.2479988h14.6639993z" fill="#ffbe00" transform="matrix(1 0 0 -1 0 79.7778)"/><g fill="#b2b0ad"><path d="m151.091192 67.4597288c-15.038666 0-24.939999-11.2786664-24.939999-27.5719993 0-16.2919996 9.901333-27.570666 24.939999-27.570666 14.788 0 24.564 11.2786664 24.564 27.570666 0 16.2933329-9.776 27.5719993-24.564 27.5719993m0-67.2999983c-23.059999 0-40.981332 16.6679996-40.981332 39.727999s17.921333 39.7293324 40.981332 39.7293324c22.934666 0 40.605333-16.669333 40.605333-39.7293324s-17.670667-39.727999-40.605333-39.727999" transform="matrix(1 0 0 -1 0 79.7768)"/><path d="m220.025324 43.0218628h11.78c9.525333 0 12.909333 5.0133332 12.909333 11.6546663 0 6.7679999-3.384 11.9066664-12.909333 11.9066664h-11.78zm46.997332-40.73066568h-16.793333l-20.805333 29.95199928h-9.398666v-29.95199928h-15.289333v75.19466478h29.575999c17.796 0 25.441333-10.5266664 25.441333-22.6839994 0-10.1506664-5.389333-18.1719996-15.038666-20.9293328z" transform="matrix(1 0 0 -1 0 79.777)"/><path d="m299.609322.5369305c-12.532 0-21.556 4.88799987-26.694666 9.39866643l3.509333 12.03199967c5.013333-4.7626665 12.909333-10.1519997 23.185333-10.1519997 7.52 0 13.285333 3.7599999 13.285333 10.4026664 0 6.2653332-3.509333 9.5253331-15.792 12.533333-15.790666 3.8839999-22.057332 12.281333-22.057332 23.0599994 0 12.2813331 9.775999 21.1786662 25.942666 21.1786662 9.274666 0 17.545332-3.5093333 22.558666-7.3946665l-3.258667-10.6519997c-5.262666 3.5093332-12.782666 6.5173331-19.425333 6.5173331-7.393333 0-11.781333-3.2586666-11.781333-8.6466664 0-4.3879999 2.633333-7.7719998 12.909333-10.2773319 17.545333-4.3866678 25.065333-11.7800009 25.065333-24.8146673 0-16.16666621-13.284-23.1853327-27.446666-23.1853327" transform="matrix(1 0 0 -1 0 79.5272)"/><path d="m390.473986 2.29159712v33.21199918h-35.467999v-33.21199918h-15.289333v75.19466478h15.289333v-29.0746659h35.467999v29.0746659h15.289333v-75.19466478z" transform="matrix(1 0 0 -1 0 79.7778)"/><path d="m422.310652 77.4853286h15.289333v-75.19466482h-15.289333z" transform="matrix(1 0 0 -1 0 79.776)"/><path d="m480.213584 66.5833288h-10.777333v-26.0679993h10.777333c9.901333 0 13.410666 5.8906665 13.410666 13.0346663 0 7.0173332-3.509333 13.033333-13.410666 13.033333m2.506667-36.971999h-13.284v-27.31999935h-15.290666v75.19466475h28.574666c18.046666 0 26.067999-11.0279997 26.067999-23.9359994 0-13.0346663-8.021333-23.938666-26.067999-23.938666" transform="matrix(1 0 0 -1 0 79.7774)"/><path d="m511.297317 77.4866619h15.163999v-15.1653329h-15.163999z" transform="matrix(1 0 0 -1 0 139.808)"/></g><path d="m606.923181 2.29159712h-11.153333l-14.914666 44.99199888c-.626667 1.6293333-1.504 5.3893332-1.504 5.7653332-.124-.1253333-1.126667-4.2613332-1.628-5.7653332l-14.914667-44.99199888h-11.153333l-25.817332 75.19466478h15.165333l15.163999-47.2479988c.501333-1.628 1.378667-6.5159999 1.504-7.0173332l1.88 7.0173332 14.537333 47.2479988h10.902666l14.664-47.2479988c.501333-1.7533333 1.753333-7.0173332 1.753333-7.0173332s.877334 5.2639999 1.504 7.0173332l15.038667 47.2479988h14.663999z" fill="#ffbe00" transform="matrix(1 0 0 -1 0 79.7778)"/><path d="m676.485046 67.4597288c-15.038666 0-24.94-11.2786664-24.94-27.5719993 0-16.2919996 9.901334-27.570666 24.94-27.570666 14.787999 0 24.563999 11.2786664 24.563999 27.570666 0 16.2933329-9.776 27.5719993-24.563999 27.5719993m0-67.2999983c-23.06 0-40.981333 16.6679996-40.981333 39.727999s17.921333 39.7293324 40.981333 39.7293324c22.934666 0 40.605332-16.669333 40.605332-39.7293324s-17.670666-39.727999-40.605332-39.727999" fill="#b2b0ad" transform="matrix(1 0 0 -1 0 79.7768)"/><path d="m745.419311 43.0218628h11.781333c9.524 0 12.907999 5.0133332 12.907999 11.6546663 0 6.7679999-3.383999 11.9066664-12.907999 11.9066664h-11.781333zm46.997332-40.73066568h-16.794666l-20.802666 29.95199928h-9.4v-29.95199928h-15.289333v75.19466478h29.575999c17.796 0 25.441333-10.5266664 25.441333-22.6839994 0-10.1506664-5.389333-18.1719996-15.038667-20.9293328z" fill="#b2b0ad" transform="matrix(1 0 0 -1 0 79.777)"/><path d="m851.447841 2.29159712-33.337332 35.46666578v-35.46666578h-15.290666v75.19466478h15.290666v-34.3386658l30.454666 34.3386658h16.667999l-32.459999-35.8426658 37.473333-39.35199898z" fill="#b2b0ad" transform="matrix(1 0 0 -1 0 79.7778)"/><path d="m898.322907.5369305c-12.532 0-21.556 4.88799987-26.694666 9.39866643l3.509333 12.03199967c5.013333-4.7626665 12.908-10.1519997 23.185333-10.1519997 7.52 0 13.284 3.7599999 13.284 10.4026664 0 6.2653332-3.509334 9.5253331-15.790667 12.533333-15.791999 3.8839999-22.057332 12.281333-22.057332 23.0599994 0 12.2813331 9.774666 21.1786662 25.941332 21.1786662 9.274667 0 17.546666-3.5093333 22.56-7.3946665l-3.258667-10.6519997c-5.264 3.5093332-12.782666 6.5173331-19.426666 6.5173331-7.392 0-11.78-3.2586666-11.78-8.6466664 0-4.3879999 2.632-7.7719998 12.908-10.2773319 17.546666-4.3866678 25.065333-11.7800009 25.065333-24.8146673 0-16.16666621-13.284-23.1853327-27.445333-23.1853327" fill="#b2b0ad" transform="matrix(1 0 0 -1 0 79.5272)"/></g></svg>