<?xml version="1.0" standalone="no"?>
<!DOCTYPE svg PUBLIC "-//W3C//DTD SVG 20010904//EN"
 "http://www.w3.org/TR/2001/REC-SVG-20010904/DTD/svg10.dtd">
<svg version="1.0" xmlns="http://www.w3.org/2000/svg"
 width="1096.000000pt" height="1096.000000pt" viewBox="0 0 1096.000000 1096.000000"
 preserveAspectRatio="xMidYMid meet">
<metadata>
Created by potrace 1.11, written by Peter Selinger 2001-2013
</metadata>
<g transform="translate(0.000000,1096.000000) scale(0.100000,-0.100000)"
fill="#000000" stroke="none">
<path d="M5361 10938 c-130 -18 -179 -41 -571 -268 -69 -40 -181 -105 -250
-145 -69 -39 -213 -123 -320 -185 -107 -62 -237 -137 -287 -167 -51 -29 -135
-77 -185 -106 -51 -30 -181 -105 -288 -167 -107 -62 -251 -146 -320 -185 -69
-40 -170 -98 -225 -130 -55 -32 -255 -148 -445 -257 -190 -110 -401 -232 -470
-272 -69 -40 -201 -117 -295 -171 -93 -54 -206 -119 -250 -145 -44 -26 -156
-91 -250 -145 -192 -111 -250 -152 -316 -221 -59 -63 -101 -126 -144 -217 -70
-146 -65 41 -65 -2650 0 -2610 -2 -2482 50 -2619 26 -71 103 -189 161 -248 62
-64 134 -115 284 -202 72 -41 261 -151 420 -243 160 -93 331 -192 380 -220 50
-28 178 -102 285 -165 107 -62 236 -137 285 -165 50 -29 135 -78 190 -110 55
-32 156 -90 225 -130 69 -39 213 -123 320 -185 107 -62 237 -137 288 -167 50
-29 134 -77 185 -106 50 -30 180 -105 287 -167 107 -62 236 -137 285 -165 50
-28 236 -136 415 -240 372 -215 454 -257 564 -285 106 -27 246 -27 352 0 110
28 192 70 564 285 179 104 366 212 415 240 50 28 178 103 285 165 107 62 236
137 285 165 50 29 133 77 185 107 52 30 183 106 290 168 107 62 251 146 320
185 69 40 169 98 223 129 53 31 139 80 190 109 50 30 180 105 287 167 107 63
236 137 285 165 50 28 221 127 380 220 160 92 349 202 420 243 150 87 222 138
284 202 58 59 135 177 161 248 52 137 50 9 50 2619 0 2691 5 2504 -65 2650
-43 91 -85 154 -144 217 -66 69 -124 110 -316 221 -93 54 -206 119 -250 145
-44 26 -156 91 -250 145 -93 54 -226 131 -295 171 -69 40 -280 162 -470 272
-190 109 -390 225 -445 257 -55 32 -156 90 -225 130 -69 39 -213 123 -320 185
-107 62 -237 137 -287 167 -51 29 -135 77 -185 106 -51 30 -181 105 -288 167
-107 62 -251 146 -320 185 -69 40 -181 105 -250 145 -400 231 -439 249 -583
269 -89 13 -135 12 -226 -1z m260 -1201 c125 -62 172 -193 120 -332 -13 -33
-55 -148 -93 -255 -104 -291 -195 -545 -298 -830 -51 -140 -124 -343 -162
-450 -152 -423 -210 -584 -293 -815 -48 -132 -118 -328 -157 -435 -214 -597
-298 -832 -438 -1220 -51 -140 -123 -340 -160 -445 -38 -104 -101 -280 -140
-390 -40 -110 -92 -256 -117 -325 -60 -168 -217 -603 -379 -1050 -31 -85 -72
-203 -92 -263 l-36 -107 -316 0 c-310 0 -316 1 -365 24 -60 28 -87 56 -114
116 -42 91 -34 124 123 555 42 116 103 284 136 375 188 520 246 680 295 815
30 83 101 281 159 440 176 489 234 651 321 890 46 127 113 313 150 415 65 183
98 274 254 705 44 121 119 328 166 460 48 132 115 319 150 415 35 96 102 283
150 415 47 132 115 319 150 415 35 96 84 231 109 300 80 226 173 484 196 543
l22 58 311 -3 c276 -3 316 -5 348 -21z m2306 -1874 c137 -133 244 -245 256
-268 31 -60 30 -167 -3 -222 -22 -36 -453 -477 -1584 -1621 l-290 -292 225
-223 c124 -122 365 -359 535 -526 170 -167 519 -512 776 -766 l467 -463 -222
-229 c-122 -125 -235 -238 -251 -251 -64 -48 -163 -55 -241 -18 -40 19 -179
154 -700 677 -357 360 -906 911 -1219 1226 l-569 572 149 154 c364 378 2425
2477 2432 2477 2 0 110 -102 239 -227z"/>
</g>
</svg>
