<?xml version="1.0" encoding="UTF-8"?>
<svg width="855px" height="219px" viewBox="0 0 855 219" version="1.1" xmlns="http://www.w3.org/2000/svg" xmlns:xlink="http://www.w3.org/1999/xlink">
    <!-- Generator: Sketch 54 (76480) - https://sketchapp.com -->
    <title>BUILD</title>
    <desc>Created with Sketch.</desc>
    <g id="Page-1" stroke="none" stroke-width="1" fill="none" fill-rule="evenodd">
        <path d="M179.87049,62.8725164 C179.87049,54.2376643 178.250035,46.1424906 175.009125,38.586995 C171.768216,30.7616604 167.176927,24.2855213 161.505335,18.6188997 C155.833743,12.6824389 149.081848,8.36501291 141.249649,4.85710427 C133.417451,1.61903476 125.315176,0 116.942826,0 L23.5490849,0 C18.1366944,9.94240014e-16 13.7490849,4.38760945 13.7490849,9.8 C13.7490849,12.3878934 14.772705,14.8707343 16.5965605,16.7066927 L34.6882681,34.918454 C35.4767044,35.7121223 36.5491985,36.1584429 37.6679214,36.1584429 L116.942826,36.1584429 C120.453812,36.1584429 123.964797,36.6981211 127.205707,38.0473168 C130.716692,39.3965124 133.687526,41.2853863 136.118209,43.9837775 C138.548891,46.4123297 140.439422,49.3805601 141.789801,52.6186296 C143.14018,55.8566991 143.950407,59.3646077 143.950407,62.8725164 C143.950407,66.6502641 143.14018,70.1581728 141.789801,73.3962423 C140.439422,76.6343118 138.548891,79.6025422 136.118209,82.0310943 C133.687526,84.7294856 130.716692,86.6183595 127.205707,87.9675551 C123.964797,89.5865898 120.453812,90.1262681 116.942826,90.1262681 L5.6,90.1262681 C2.5072054,90.1262681 -6.59600704e-15,92.6334735 -6.21724894e-15,95.7262681 L0,120.414872 C-1.47294857e-14,123.507666 2.5072054,126.014872 5.6,126.014872 L116.942826,126.014872 C120.723887,126.014872 124.234873,126.824389 127.745858,128.173585 C130.986768,129.522781 133.687526,131.681494 136.118209,134.110046 C138.548891,136.538598 140.439422,139.506828 141.789801,142.744898 C143.14018,145.982967 143.950407,149.490876 143.950407,152.998784 C143.950407,156.506693 143.14018,160.014602 141.789801,163.252671 C140.439422,166.490741 138.548891,169.458971 136.118209,171.887523 C133.687526,174.585915 130.716692,176.474788 127.205707,177.823984 C123.964797,179.17318 120.453812,179.712858 116.942826,179.712858 L41.5200828,179.712858 C38.4272882,179.712858 35.9200828,182.220063 35.9200828,185.312858 L35.9200828,210.271301 C35.9200828,213.364095 38.4272882,215.871301 41.5200828,215.871301 L116.942826,215.871301 C125.585252,215.871301 133.687526,214.252266 141.249649,211.014197 C149.081848,207.506288 155.833743,203.188862 161.505335,197.252401 C167.176927,191.585779 171.768216,185.10964 175.009125,177.284306 C178.250035,169.72881 179.87049,161.633637 179.87049,152.998784 C179.87049,135.189402 173.658746,120.078411 160.965183,107.93565 C173.658746,95.5230506 179.87049,80.4120596 179.87049,62.8725164 Z M358.690685,126.014872 C358.690685,140.586185 353.019093,153.268624 342.486136,163.79235 C331.95318,174.316075 319.259617,179.712858 304.405447,179.712858 C289.551278,179.712858 276.587639,174.585915 266.054682,163.79235 C255.791801,153.538463 250.660361,140.856024 250.660361,126.014872 L250.660361,5.6 C250.660361,2.5072054 248.153155,8.31364705e-15 245.060361,8.8817842e-15 L220.340278,8.8817842e-16 C217.247483,1.45631557e-15 214.740278,2.5072054 214.740278,5.6 L214.740278,126.014872 C214.740278,150.570232 223.382704,172.157362 240.937632,189.696906 C258.492559,207.236449 279.828548,215.871301 304.405447,215.871301 C328.982346,215.871301 350.588411,207.236449 368.143338,189.696906 C385.968342,172.157362 394.610768,150.840071 394.610768,126.014872 C394.610768,126.014872 358.690685,126.014872 358.690685,126.014872 Z M465.130563,50.8634748 L436.381561,22.3556355 C434.734465,20.7223564 432.075195,20.7335571 430.441916,22.380653 C429.660507,23.1686731 429.222738,24.2339301 429.224251,25.3436935 L429.481696,214.141643 C429.484859,216.461237 431.367825,218.339075 433.687419,218.335912 C434.804156,218.33439 435.874308,217.888187 436.661345,217.095928 L465.415643,188.150821 L465.130563,50.8634748 Z M537.180788,179.712858 L510.744454,206.324619 C508.564762,208.518775 508.576487,212.06448 510.770643,214.244172 C511.819762,215.286375 513.238529,215.871301 514.717325,215.871301 L639.611112,215.871301 C642.703906,215.871301 645.211112,213.364095 645.211112,210.271301 L645.211112,179.712858 L537.180788,179.712858 Z M501.260705,5.6 L501.260705,153.46617 C501.260705,155.785766 503.141109,157.66617 505.460705,157.66617 C506.579428,157.66617 507.651922,157.219849 508.440358,156.426181 L537.180788,127.495034 L537.180788,0 L506.860705,0 C503.76791,5.68137151e-16 501.260705,2.5072054 501.260705,5.6 Z M846.62765,66.380425 C840.685982,53.1583078 833.123859,41.8250645 823.131054,31.8410169 C813.408325,22.1268083 801.795065,14.3014737 788.831426,8.63485203 C775.597712,2.96823039 761.823845,0 746.969676,0 L695.31444,0 C690.675248,8.52205726e-16 686.91444,3.7608081 686.91444,8.4 C686.91444,10.6181943 687.791829,12.7463437 689.355133,14.3200223 L711.049593,36.1584429 L746.969676,36.1584429 C756.692405,36.1584429 766.145058,38.0473168 774.787484,41.5552254 C783.42991,45.3329732 791.262109,50.7297557 797.743928,57.2058947 C804.495823,63.9518729 809.627264,71.5073684 813.408325,80.1422204 C817.189386,89.0469116 819.079917,98.2214419 819.079917,107.93565 C819.079917,117.649859 817.189386,126.824389 813.408325,135.72908 C809.627264,144.363932 804.495823,151.919428 798.014004,158.665406 C791.532184,165.411384 783.699986,170.538328 775.05756,174.316075 C766.415134,177.823984 756.962481,179.712858 746.969676,179.712858 L711.049593,179.712858 L689.355133,201.551279 C686.085595,204.842513 686.103183,210.161069 689.394418,213.430607 C690.968096,214.993912 693.096246,215.871301 695.31444,215.871301 L746.969676,215.871301 C761.823845,215.871301 775.867787,212.90307 788.831426,207.236449 C802.065141,201.569827 813.678401,193.744493 823.40113,184.030284 C833.123859,174.046236 840.685982,162.712993 846.62765,149.490876 C852.299242,136.538598 855,122.776802 855,107.93565 C855,93.0944985 852.299242,79.3327031 846.62765,66.380425 Z" id="BUILD" fill="#4E5569"></path>
    </g>
</svg>