<?xml version="1.0" encoding="UTF-8"?>
<svg width="552px" height="192px" viewBox="0 0 552 192" version="1.1" xmlns="http://www.w3.org/2000/svg" xmlns:xlink="http://www.w3.org/1999/xlink">
    <!-- Generator: Sketch 54 (76480) - https://sketchapp.com -->
    <title>Group</title>
    <desc>Created with Sketch.</desc>
    <g id="Page-1" stroke="none" stroke-width="1" fill="none" fill-rule="evenodd">
        <g id="EV-B+T-Copy-2" transform="translate(-1226.000000, -444.000000)" fill="#FFFFFF">
            <g id="Group-2" transform="translate(383.000000, 333.000000)">
                <g id="Group" transform="translate(843.000000, 111.000000)">
                    <path d="M70.857898,24.789625 C70.857898,31.7051856 68.4108535,37.663207 63.4103712,42.5572961 C68.4108535,47.3449919 70.857898,53.3030134 70.857898,60.3249672 C70.857898,63.7295509 70.2195386,66.9213481 68.9428197,69.9003588 C67.6661008,72.9857628 65.8574157,75.5392006 63.6231577,77.7734586 C61.3888996,80.1141099 58.7290686,81.8164017 55.6436646,83.1995139 C52.6646539,84.4762328 49.4728567,85.1145922 46.068273,85.1145922 L20.150301,85.1145922 C16.8365925,85.1145922 14.150301,82.4283007 14.150301,79.1145922 L14.150301,76.857898 C14.150301,73.5441895 16.8365925,70.857898 20.150301,70.857898 L46.068273,70.857898 C47.4513851,70.857898 48.8344973,70.6451115 50.1112162,70.1131453 C51.4943283,69.5811791 52.6646539,68.8364264 53.6221931,67.772494 C54.5797322,66.8149549 55.3244849,65.6446292 55.8564511,64.3679103 C56.3884173,63.0911915 56.7075971,61.7080793 56.7075971,60.3249672 C56.7075971,58.9418551 56.3884173,57.558743 55.8564511,56.2820241 C55.3244849,55.0053052 54.5797322,53.8349796 53.6221931,52.8774404 C52.6646539,51.9199012 51.6007215,51.0687553 50.3240026,50.5367891 C48.9408905,50.0048229 47.5577784,49.6856432 46.068273,49.6856432 L6,49.6856432 C2.6862915,49.6856432 3.9323804e-15,46.9993517 -8.8817842e-16,43.6856432 L-8.8817842e-16,41.5353422 C-5.70873724e-15,38.2216337 2.6862915,35.5353422 6,35.5353422 L46.068273,35.5353422 C47.4513851,35.5353422 48.8344973,35.3225558 50.1112162,34.6841963 C51.4943283,34.1522301 52.6646539,33.4074774 53.6221931,32.343545 C54.5797322,31.3860059 55.3244849,30.2156802 55.8564511,28.9389613 C56.3884173,27.6622425 56.7075971,26.2791303 56.7075971,24.789625 C56.7075971,23.4065129 56.3884173,22.0234007 55.8564511,20.7466818 C55.3244849,19.469963 54.5797322,18.2996373 53.6221931,17.3420982 C52.6646539,16.2781658 51.4943283,15.5334131 50.1112162,15.0014469 C48.8344973,14.4694807 47.4513851,14.2566942 46.068273,14.2566942 L14.150301,14.2566942 L10.1504022,10.226721 C7.81604864,7.87481592 7.83027696,4.07585269 10.182182,1.74149914 C11.3060809,0.625987575 12.8253896,1.17906511e-15 14.408903,8.8817842e-16 L46.068273,0 C49.3664635,0 52.5582607,0.638359441 55.6436646,1.91507832 C58.7290686,3.29819045 61.3888996,5.00048229 63.6231577,7.34113358 C65.8574157,9.57539162 67.6661008,12.1288294 68.9428197,15.2142334 C70.2195386,18.1932441 70.857898,21.3850413 70.857898,24.789625 Z M94.738803,85.1145922 L90.563996,85.1145922 C87.876665,85.1145922 85.6981528,82.93608 85.6981528,80.2487489 C85.6981528,79.4933506 85.8740291,78.7483265 86.2118535,78.0726777 L119.870434,10.7555169 C121.352369,7.79164595 124.956408,6.59029987 127.920279,8.07223536 C129.084502,8.65434714 130.027852,9.59927018 130.608023,10.764462 L164.07173,77.971581 C165.287984,80.4142544 164.293775,83.3804008 161.851101,84.5966545 C161.166965,84.9372991 160.413131,85.1145922 159.648879,85.1145922 L155.391961,85.1145922 C153.111843,85.1145922 151.028771,83.8221937 150.016139,81.7792753 L125.248192,31.8115788 L100.098931,81.8107047 C99.0800425,83.836353 97.0062654,85.1145922 94.738803,85.1145922 Z M209.754273,28.6085636 L209.754273,85.4879636 L209.754273,85.4879636 C201.880518,85.4879636 195.497579,79.1050242 195.497579,71.2312695 L195.497579,22.6085636 L203.754273,22.6085636 C207.067982,22.6085636 209.754273,25.2948551 209.754273,28.6085636 Z M183.223362,0 L228.816965,0 C228.816965,7.87359681 222.434154,14.2564082 214.560557,14.2564082 C214.560467,14.2564082 214.560376,14.2564082 214.560286,14.2564081 L177.223362,14.2556991 L177.223362,6 C177.223362,2.6862915 179.909653,6.08718376e-16 183.223362,0 Z M260.834247,2.39808173e-14 C264.147955,2.45895357e-14 266.834247,2.6862915 266.834247,6 L266.834247,35.7418483 L282.288473,35.7418483 C288.91589,35.7418483 294.288473,41.1144313 294.288473,47.7418483 L294.288473,49.9985425 L266.834247,49.9985425 L266.834247,79.4274915 C266.834247,82.7412 264.147955,85.4274915 260.834247,85.4274915 L252.683946,85.4274915 L252.683946,0 L260.834247,0 Z M308.711205,0 C312.024913,6.08718376e-16 314.711205,2.6862915 314.711205,6 L314.711205,78.0394417 C314.711205,81.9469394 311.543552,85.1145922 307.636054,85.1145922 L306.560904,85.1145922 C303.247195,85.1145922 300.560904,82.4283007 300.560904,79.1145922 L300.560904,0 L308.711205,0 Z" id="BATH-Copy"></path>
                    <path d="M353.681853,86.4455156 L351.484807,81.5300906 L337.855674,81.5300906 L335.621389,86.4455156 L330.296346,86.4455156 L341.989099,60.3788678 L347.351381,60.3788678 L359.044134,86.4455156 L353.681853,86.4455156 Z M349.511189,76.9498082 L344.67024,65.8528639 L339.829291,76.9498082 L349.511189,76.9498082 Z M378.40793,76.5401894 L378.40793,60.3416298 L383.323355,60.3416298 L383.323355,86.4455156 L380.269833,86.4455156 L380.269833,86.4827537 L366.566224,68.8691474 L366.566224,86.4455156 L361.650799,86.4455156 L361.650799,60.3788678 L365.635273,60.3788678 L378.40793,76.5401894 Z M397.734487,60.3788678 C406.671624,60.3788678 410.656097,66.7465775 410.767811,73.1887633 C410.879525,79.7799014 406.857814,86.4455156 397.734487,86.4455156 L387.494019,86.4455156 L387.494019,60.3788678 L397.734487,60.3788678 Z M392.372206,65.0336264 L392.372206,81.7162809 L397.734487,81.7162809 C403.65534,81.7162809 406.001338,77.396665 405.889624,73.1515252 C405.77791,69.0925758 403.394674,65.0336264 397.734487,65.0336264 L392.372206,65.0336264 Z" id="AND"></path>
                    <path d="M70.8587242,130.943677 C70.8587242,137.859318 68.4116511,143.817409 63.4111105,148.711556 C68.4116511,153.499307 70.8587242,159.457398 70.8587242,166.479434 C70.8587242,169.884057 70.2203573,173.075892 68.9436235,176.054937 C67.6668897,179.140377 65.8581836,181.693845 63.6238995,183.928129 C61.3896154,186.268807 58.7297534,187.971119 55.6443134,189.354247 C52.665268,190.630981 49.4734335,191.269348 46.0688102,191.269348 L20.1504659,191.269348 C16.8367574,191.269348 14.1504659,188.583056 14.1504659,185.269348 L14.1504659,183.012487 C14.1504659,179.698779 16.8367574,177.012487 20.1504659,177.012487 L46.0688102,177.012487 C47.4519384,177.012487 48.8350667,176.799698 50.1118004,176.267726 C51.4949287,175.735754 52.665268,174.990992 53.6228183,173.927047 C54.5803686,172.969497 55.32513,171.799158 55.8571024,170.522424 C56.3890748,169.24569 56.7082582,167.862562 56.7082582,166.479434 C56.7082582,165.096306 56.3890748,163.713177 55.8571024,162.436444 C55.32513,161.15971 54.5803686,159.98937 53.6228183,159.03182 C52.665268,158.07427 51.6013232,157.223114 50.3245894,156.691142 C48.9414611,156.159169 47.5583329,155.839986 46.0688102,155.839986 L6,155.839986 C2.6862915,155.839986 4.05812251e-16,153.153694 0,149.839986 L-8.8817842e-16,147.68952 C-1.29399067e-15,144.375811 2.6862915,141.68952 6,141.68952 L46.0688102,141.68952 C47.4519384,141.68952 48.8350667,141.476731 50.1118004,140.838364 C51.4949287,140.306392 52.665268,139.56163 53.6228183,138.497685 C54.5803686,137.540135 55.32513,136.369796 55.8571024,135.093062 C56.3890748,133.816328 56.7082582,132.4332 56.7082582,130.943677 C56.7082582,129.560549 56.3890748,128.177421 55.8571024,126.900687 C55.32513,125.623953 54.5803686,124.453614 53.6228183,123.496064 C52.665268,122.432119 51.4949287,121.687357 50.1118004,121.155385 C48.8350667,120.623413 47.4519384,120.410624 46.0688102,120.410624 L14.1504659,120.410624 L10.1504022,116.380484 C7.81604864,114.028579 7.83027696,110.229616 10.182182,107.895262 C11.3060809,106.779751 12.8253896,106.153763 14.408903,106.153763 L46.0688102,106.153763 C49.3670391,106.153763 52.5588735,106.79213 55.6443134,108.068864 C58.7297534,109.451992 61.3896154,111.154304 63.6238995,113.494982 C65.8581836,115.729266 67.6668897,118.282734 68.9436235,121.368174 C70.2203573,124.347219 70.8587242,127.539054 70.8587242,130.943677 Z M148.716875,149.96568 C145.459874,154.693585 141.362357,158.055651 136.424323,160.051877 L149.667223,183.226953 C150.945289,185.463569 150.168231,188.312782 147.931615,189.590849 C147.226849,189.993572 146.429186,190.205403 145.617471,190.205403 L141.040527,190.205403 C138.898867,190.205403 136.919586,189.063854 135.847083,187.210089 L113.205057,148.074519 L125.707739,148.179583 C129.490062,148.179583 132.747063,146.813744 135.478742,144.082066 C138.315485,141.350387 139.681324,137.988322 139.681324,134.100933 C139.681324,130.31861 138.315485,127.061609 135.478742,124.32993 C132.747063,121.598252 129.490062,120.232413 125.707739,120.232413 L99.8842595,120.232413 C98.4572113,120.232413 97.0886111,119.66552 96.0795356,118.656445 L96.0795356,118.656445 L94.0541678,115.163419 C92.3919808,112.296749 93.3684075,108.625384 96.2350778,106.963198 C97.1494851,106.432995 98.1877303,106.153763 99.2447335,106.153763 L125.707739,106.153763 C133.377451,106.153763 139.996517,108.885442 145.459874,114.348798 C150.923231,119.917219 153.654909,126.431221 153.654909,134.100933 C153.654909,139.984548 152.078941,145.237776 148.716875,149.96568 Z M203.916991,120.022284 L203.916991,173.654625 C203.916991,175.238139 203.291004,176.757448 202.175492,177.881346 L189.943406,190.205403 L189.943406,120.562092 C189.943406,117.248384 192.629698,114.562092 195.943406,114.562092 C197.526861,114.562092 199.046118,115.188034 200.170007,116.303472 L203.916991,120.022284 Z M261.890014,155.218908 L254.281478,155.218908 C247.452283,155.218908 241.673732,152.802423 236.945828,148.074519 C232.217923,143.241549 229.801438,137.462999 229.801438,130.633803 C229.801438,123.909672 232.217923,118.236186 236.945828,113.403217 C238.989732,111.313893 242.138128,109.563279 246.391016,108.151376 L246.391016,108.151378 C249.535943,107.107303 252.9318,108.810381 253.975874,111.955308 C254.178296,112.565037 254.281478,113.20332 254.281478,113.845772 L254.281478,120.232413 C252.810575,120.232413 251.444736,120.442542 250.183961,120.967865 C248.818122,121.493187 247.767476,122.228639 246.716831,123.279285 C245.77125,124.224866 245.035798,125.380576 244.510475,126.64135 C243.985153,127.902125 243.775023,129.267964 243.775023,130.633803 C243.775023,133.575611 244.720604,135.992095 246.716831,138.093386 C248.818122,140.194677 251.234606,141.245323 254.281478,141.245323 L261.890014,141.245323 C268.719209,141.245323 274.49776,143.661807 279.225664,148.389712 C284.058634,153.222682 286.475118,159.001232 286.475118,165.725363 C286.475118,172.449494 284.058634,178.228044 279.225664,183.061014 C277.178211,185.108467 274.022426,186.830811 269.75831,188.228044 L269.758311,188.228047 C266.609342,189.259877 263.220135,187.543597 262.188305,184.394628 C261.990696,183.791558 261.890014,183.160955 261.890014,182.526335 L261.890014,176.126753 C263.360917,176.126753 264.726757,175.916624 265.987531,175.391301 C267.35337,174.865979 268.50908,174.130527 269.454661,173.184946 C270.400242,172.239365 271.135694,171.18872 271.661017,169.82288 C272.18634,168.562106 272.501533,167.196267 272.501533,165.725363 C272.501533,162.88862 271.345823,160.472135 269.349597,158.370844 C267.248306,156.269553 264.831821,155.218908 261.890014,155.218908 Z M342.675811,134.76259 L342.675811,191.642724 L342.675811,191.642724 C334.801965,191.642724 328.418951,185.25971 328.418951,177.385863 L328.418951,128.76259 L336.675811,128.76259 C339.98952,128.76259 342.675811,131.448882 342.675811,134.76259 Z M508.884801,175.550893 L551.442594,175.550893 L551.442594,183.807754 C551.442594,187.121462 548.756302,189.807754 545.442594,189.807754 L509.143238,189.807754 C505.82953,189.807754 503.143238,187.121462 503.143238,183.807754 C503.143238,182.22424 503.769226,180.704932 504.884738,179.581033 L508.884801,175.550893 Z M500.734335,105.06455 L508.884801,105.06455 L508.884801,156.665873 L504.992836,160.587101 C502.658483,162.939006 498.85952,162.953234 496.507614,160.618881 C495.372662,159.492398 494.734335,157.959467 494.734335,156.36038 L494.734335,111.06455 C494.734335,107.750841 497.420627,105.06455 500.734335,105.06455 Z M315.799917,106.153763 L361.394122,106.153763 L361.394122,106.153763 C361.394122,114.027452 355.011236,120.410338 347.137547,120.410338 C347.137457,120.410338 347.137367,120.410338 347.137277,120.410338 L309.799917,120.409629 L309.799917,112.153763 C309.799917,108.840055 312.486208,106.153763 315.799917,106.153763 Z M424.891678,106.153763 C436.553843,106.153763 446.324846,110.356345 454.519881,118.55138 C462.81998,126.746415 467.022562,136.622483 467.022562,148.179583 C467.022562,159.841748 462.81998,169.717816 454.519881,177.807786 C446.324846,186.002821 436.553843,190.205403 424.891678,190.205403 C413.229513,190.205403 403.458509,186.002821 395.263475,177.807786 C387.06844,169.612751 382.865858,159.841748 382.865858,148.179583 C382.865858,136.622483 387.06844,126.746415 395.263475,118.55138 C403.353445,110.356345 413.229513,106.153763 424.891678,106.153763 Z M424.891678,120.232413 C417.221965,120.232413 410.602899,122.859027 405.034478,128.427448 C399.571121,133.890804 396.944507,140.509871 396.944507,148.179583 C396.944507,155.849295 399.571121,162.573426 405.034478,168.036783 C410.497834,173.50014 417.221965,176.126753 424.891678,176.126753 C432.56139,176.126753 439.180456,173.50014 444.643813,168.036783 C450.212234,162.468362 452.838848,155.849295 452.838848,148.179583 C452.838848,140.509871 450.107169,133.890804 444.643813,128.427448 C439.180456,122.964091 432.56139,120.232413 424.891678,120.232413 Z" id="BRISTOL"></path>
                </g>
            </g>
        </g>
    </g>
</svg>